<svg width="49" height="48" viewBox="0 0 49 48" fill="none" xmlns="http://www.w3.org/2000/svg">
<path d="M46.775 7.68001V12.4425H39.4325V7.68001C39.4277 6.82539 39.7163 5.995 40.25 5.32752C40.7837 4.66003 41.5303 4.19585 42.365 4.01251C42.6092 3.96266 42.8583 3.94002 43.1075 3.94501C43.5895 3.94462 44.0667 4.04063 44.5111 4.22739C44.9555 4.41415 45.358 4.68789 45.695 5.03251C46.3889 5.73879 46.7769 6.68988 46.775 7.68001Z" fill="#CCBADE"/>
<path d="M13.4525 4.01245H42.365C41.5302 4.19579 40.7837 4.65997 40.25 5.32746C39.7162 5.99494 39.4277 6.82533 39.4325 7.67995V12.4425H39.4925L39.41 12.6075V41.13C39.4113 41.61 39.3177 42.0855 39.1346 42.5292C38.9515 42.9729 38.6825 43.3761 38.3431 43.7155C38.0036 44.055 37.6005 44.3239 37.1567 44.507C36.713 44.6901 36.2375 44.7837 35.7575 44.7825H34.9625C34.88 44.775 34.7975 44.76 34.7075 44.7524C34.6175 44.7449 34.5425 44.715 34.46 44.7C34.2988 44.6562 34.1409 44.6011 33.9875 44.535C33.5783 44.3624 33.2196 44.0889 32.945 43.74C32.8238 43.579 32.716 43.4084 32.6225 43.2299C32.57 43.1325 32.525 43.035 32.48 42.93C32.2868 42.437 32.1631 41.9195 32.1125 41.3925C32.1125 41.3624 32.105 41.34 32.105 41.31C32.0989 41.2958 32.0963 41.2803 32.0975 41.265V39.3825H7.78247V9.68995C7.78169 8.94478 7.92775 8.20676 8.21232 7.51807C8.4969 6.82937 8.9144 6.20351 9.44096 5.67625C9.96753 5.14898 10.5928 4.73066 11.2812 4.44517C11.9695 4.15969 12.7073 4.01265 13.4525 4.01245ZM36.2825 9.56995C36.2874 9.1996 36.4383 8.84615 36.7023 8.58636C36.9663 8.32657 37.3221 8.18143 37.6925 8.18245C37.3241 8.13825 36.9882 7.95028 36.7578 7.65949C36.5274 7.3687 36.4212 6.99865 36.4625 6.62995C36.4622 6.81334 36.4256 6.99487 36.3548 7.16405C36.2841 7.33324 36.1805 7.48675 36.0501 7.61573C35.9198 7.74471 35.7651 7.84661 35.5952 7.91556C35.4253 7.9845 35.2434 8.01913 35.06 8.01745C35.4276 8.06196 35.7627 8.25031 35.9918 8.54127C36.2209 8.83223 36.3254 9.20211 36.2825 9.56995ZM36.2825 36.9225C36.286 36.5517 36.4365 36.1974 36.7008 35.9373C36.9651 35.6772 37.3217 35.5326 37.6925 35.535C37.3246 35.4896 36.9894 35.3014 36.7592 35.0109C36.529 34.7203 36.4225 34.3509 36.4625 33.9825C36.4615 34.1656 36.4244 34.3469 36.3534 34.5157C36.2824 34.6846 36.1788 34.8378 36.0486 34.9667C35.9184 35.0955 35.764 35.1974 35.5944 35.2666C35.4248 35.3358 35.2432 35.3709 35.06 35.37C35.2423 35.3914 35.4185 35.4486 35.5787 35.5383C35.7388 35.628 35.8797 35.7484 35.9933 35.8926C36.1068 36.0368 36.1908 36.202 36.2404 36.3787C36.2901 36.5554 36.3043 36.7402 36.2825 36.9225ZM37.1075 31.4325V12.3525C35.782 12.2153 34.5542 11.5922 33.6609 10.6034C32.7677 9.61457 32.2722 8.33001 32.27 6.99745V6.98245H15.3875V6.99745C15.3855 8.27419 14.9294 9.5086 14.1009 10.48C13.2724 11.4514 12.1254 12.0965 10.865 12.3V31.5825C12.0856 31.8222 13.1846 32.4797 13.973 33.4419C14.7614 34.4041 15.19 35.611 15.185 36.8549H32.27C32.2696 35.9279 32.5083 35.0165 32.9628 34.2085C33.4174 33.4006 34.0725 32.7234 34.865 32.2425C35.5938 31.9234 36.343 31.6528 37.1075 31.4325Z" fill="#8C64B4"/>
<path d="M37.6925 8.18238C37.3221 8.18136 36.9663 8.32651 36.7023 8.58629C36.4383 8.84608 36.2874 9.19953 36.2825 9.56988C36.3254 9.20204 36.2209 8.83217 35.9918 8.5412C35.7627 8.25024 35.4276 8.06189 35.06 8.01738C35.2434 8.01907 35.4253 7.98444 35.5952 7.91549C35.7651 7.84654 35.9198 7.74464 36.0501 7.61566C36.1805 7.48668 36.2841 7.33317 36.3548 7.16399C36.4256 6.9948 36.4622 6.81328 36.4625 6.62988C36.4213 6.99858 36.5274 7.36863 36.7578 7.65942C36.9882 7.95021 37.3241 8.13818 37.6925 8.18238ZM37.6925 35.5349C37.3217 35.5325 36.9651 35.6772 36.7008 35.9373C36.4365 36.1973 36.286 36.5516 36.2825 36.9224C36.3044 36.7401 36.2901 36.5554 36.2404 36.3787C36.1908 36.202 36.1068 36.0368 35.9933 35.8926C35.8797 35.7483 35.7388 35.628 35.5787 35.5383C35.4185 35.4486 35.2423 35.3914 35.06 35.3699C35.2432 35.3709 35.4248 35.3358 35.5944 35.2666C35.764 35.1974 35.9184 35.0954 36.0486 34.9666C36.1788 34.8378 36.2824 34.6845 36.3534 34.5157C36.4244 34.3468 36.4615 34.1656 36.4625 33.9824C36.4225 34.3509 36.529 34.7203 36.7592 35.0108C36.9894 35.3013 37.3246 35.4896 37.6925 35.5349ZM12.749 8.18238C12.3786 8.18136 12.0228 8.32651 11.7588 8.58629C11.4948 8.84608 11.3439 9.19953 11.339 9.56988C11.3819 9.20204 11.2774 8.83217 11.0483 8.5412C10.8192 8.25024 10.4841 8.06189 10.1165 8.01738C10.2999 8.01907 10.4818 7.98444 10.6517 7.91549C10.8216 7.84654 10.9763 7.74464 11.1066 7.61566C11.237 7.48668 11.3406 7.33317 11.4113 7.16399C11.4821 6.9948 11.5187 6.81328 11.519 6.62988C11.4778 6.99858 11.5839 7.36863 11.8143 7.65942C12.0447 7.95021 12.3806 8.13818 12.749 8.18238ZM12.287 35.6406C11.9162 35.6382 11.5596 35.7829 11.2953 36.043C11.031 36.3031 10.8805 36.6573 10.877 37.0281C10.8989 36.8459 10.8846 36.6611 10.8349 36.4844C10.7853 36.3077 10.7013 36.1425 10.5878 35.9983C10.4742 35.8541 10.3333 35.7337 10.1732 35.644C10.013 35.5543 9.83677 35.4971 9.65448 35.4756C9.83767 35.4766 10.0193 35.4415 10.1889 35.3723C10.3585 35.3031 10.5129 35.2012 10.6431 35.0724C10.7733 34.9435 10.8769 34.7903 10.9479 34.6214C11.0189 34.4525 11.056 34.2713 11.057 34.0881C11.017 34.4566 11.1235 34.826 11.3537 35.1165C11.5839 35.407 11.9191 35.5953 12.287 35.6406Z" fill="#FFDDB5"/>
<path d="M37.1075 12.3524V31.4324C36.343 31.6527 35.5938 31.9233 34.865 32.2424C34.0725 32.7234 33.4174 33.4005 32.9628 34.2085C32.5083 35.0164 32.2697 35.9279 32.27 36.8549H15.185C15.19 35.611 14.7615 34.4041 13.9731 33.4419C13.1847 32.4796 12.0856 31.8221 10.865 31.5824V12.2999C12.1254 12.0965 13.2724 11.4514 14.1009 10.48C14.9294 9.50857 15.3855 8.27416 15.3875 6.99742V6.98242H32.27V6.99742C32.2722 8.32998 32.7677 9.61454 33.661 10.6034C34.5542 11.5922 35.782 12.2153 37.1075 12.3524ZM31.46 18.2549C31.4592 16.7682 31.0177 15.315 30.1913 14.0791C29.3648 12.8433 28.1905 11.8801 26.8168 11.3115C25.4431 10.7429 23.9316 10.5943 22.4735 10.8846C21.0153 11.1748 19.676 11.8908 18.6247 12.9421C17.5734 13.9934 16.8574 15.3328 16.5671 16.7909C16.2769 18.2491 16.4255 19.7605 16.9941 21.1342C17.5627 22.508 18.5258 23.6823 19.7617 24.5087C20.9976 25.3352 22.4507 25.7767 23.9375 25.7774C24.9254 25.7775 25.9036 25.583 26.8163 25.205C27.7291 24.827 28.5584 24.2729 29.2569 23.5744C29.9555 22.8758 30.5096 22.0465 30.8876 21.1338C31.2656 20.2211 31.4601 19.2428 31.46 18.2549Z" fill="#F2EEF7"/>
<path d="M34.7075 44.7524C34.79 44.7674 34.865 44.7749 34.94 44.7899H34.58C34.3625 44.7749 30.05 44.8199 29.8625 44.8124H6.49252C4.13002 44.8124 2.21002 42.5099 2.21002 39.6599C2.21259 39.5668 2.22262 39.474 2.24002 39.3824H32.09V41.1299C32.0888 41.1751 32.0913 41.2202 32.0975 41.2649C32.0963 41.2803 32.0989 41.2958 32.105 41.3099C32.1012 41.3373 32.1012 41.3651 32.105 41.3924C32.1543 41.9205 32.2806 42.4385 32.48 42.9299C32.525 43.0349 32.57 43.1324 32.6225 43.2299C32.7133 43.41 32.8213 43.5808 32.945 43.7399C33.2197 44.0888 33.5784 44.3624 33.9875 44.5349C34.1383 44.6076 34.2968 44.663 34.46 44.6999C34.5425 44.7149 34.625 44.7374 34.7075 44.7524ZM23.9375 10.7324C25.4256 10.7309 26.8808 11.1709 28.1188 11.9965C29.3569 12.8222 30.3222 13.9966 30.8928 15.371C31.4633 16.7454 31.6133 18.2582 31.3239 19.7179C31.0345 21.1776 30.3186 22.5187 29.2669 23.5715C29.2669 23.5715 26.8748 25.3415 25.4153 25.6323C23.9559 25.9232 22.443 25.7747 21.068 25.2055C19.693 24.6364 18.5177 23.6722 17.6908 22.435C16.8639 21.1978 16.4225 19.7431 16.4225 18.2549C16.4223 16.2611 17.2138 14.3487 18.6229 12.9381C20.0321 11.5276 21.9437 10.7342 23.9375 10.7324Z" fill="#CCBADE"/>
<path d="M30.4198 29.3894H17.4598C17.3603 29.3894 17.2649 29.3499 17.1946 29.2796C17.1243 29.2092 17.0848 29.1139 17.0848 29.0144C17.0848 28.9149 17.1243 28.8196 17.1946 28.7492C17.2649 28.6789 17.3603 28.6394 17.4598 28.6394H30.4198C30.5192 28.6394 30.6146 28.6789 30.6849 28.7492C30.7553 28.8196 30.7948 28.9149 30.7948 29.0144C30.7948 29.1139 30.7553 29.2092 30.6849 29.2796C30.6146 29.3499 30.5192 29.3894 30.4198 29.3894Z" fill="#191919"/>
<path d="M46.2327 4.51416C45.8276 4.09409 45.3415 3.76044 44.8038 3.53332C44.2662 3.3062 43.6881 3.19032 43.1045 3.19266C42.838 3.19225 42.572 3.21736 42.3102 3.26766H13.4555C11.7525 3.26945 10.1197 3.94671 8.91546 5.15084C7.71118 6.35498 7.03373 7.98766 7.03175 9.69066V38.6287H2.237C2.04354 38.6444 1.86184 38.7279 1.72384 38.8644C1.58584 39.0009 1.50038 39.1816 1.4825 39.3749C1.4678 39.47 1.45978 39.566 1.4585 39.6622C1.4585 42.9194 3.71675 45.5684 6.4925 45.5684H29.9165C30.1565 45.5684 30.9005 45.5624 31.7285 45.5557C32.8535 45.5474 34.394 45.5354 34.5785 45.5399H34.9625C34.9677 45.5399 34.9722 45.5399 34.9775 45.5399H35.7605C36.9275 45.5387 38.0465 45.0746 38.8717 44.2494C39.6969 43.4241 40.1611 42.3052 40.1622 41.1382V13.1932H46.775C46.9739 13.1932 47.1647 13.1141 47.3053 12.9735C47.446 12.8328 47.525 12.6421 47.525 12.4432V7.67691C47.5284 6.49346 47.0639 5.35663 46.2327 4.51416ZM31.7165 44.0534C30.8007 44.0609 29.9915 44.0744 29.8812 44.0662H6.4925C4.67075 44.0662 3.167 42.3412 2.97875 40.1287H31.343V41.1322C31.343 41.1907 31.3505 41.2522 31.355 41.3137C31.3595 41.3752 31.355 41.4254 31.3617 41.4757C31.3925 41.7434 31.4367 41.9879 31.4877 42.2257L31.5125 42.3352C31.5591 42.5405 31.6162 42.7432 31.6835 42.9427C31.6835 42.9532 31.6895 42.9644 31.6932 42.9742C31.7558 43.1498 31.8286 43.3216 31.9115 43.4887C31.937 43.5412 31.964 43.5907 31.991 43.6387C32.0495 43.7467 32.1107 43.8487 32.1747 43.9447C32.1965 43.9784 32.2152 44.0197 32.2377 44.0504L31.7165 44.0534ZM39.716 4.80591C39.6247 4.92252 39.5393 5.04367 39.4602 5.16891C39.4002 5.25816 39.3342 5.34141 39.2817 5.43366C39.2081 5.57031 39.1418 5.71076 39.083 5.85441C39.0417 5.94741 38.9915 6.03591 38.957 6.13191C38.9014 6.29524 38.8558 6.4618 38.8205 6.63066C38.7995 6.71541 38.7687 6.79716 38.753 6.88416C38.7061 7.14582 38.6823 7.41109 38.6817 7.67691V12.4319C38.6679 12.4897 38.6609 12.5488 38.6607 12.6082V41.1329C38.66 41.9023 38.354 42.6399 37.81 43.1839C37.266 43.7279 36.5283 44.0339 35.759 44.0347L35.039 44.0384C34.5908 44.0146 34.1619 43.8488 33.8143 43.565C33.4667 43.2811 33.2184 42.894 33.1055 42.4597C32.9793 42.0871 32.8958 41.7013 32.8565 41.3099C32.8565 41.2799 32.852 41.2484 32.849 41.2169C32.846 41.1854 32.849 41.1599 32.849 41.1329V39.3787C32.849 39.1798 32.77 38.989 32.6293 38.8483C32.4887 38.7077 32.2979 38.6287 32.099 38.6287H8.53175V9.68841C8.53333 8.38311 9.05262 7.13173 9.97568 6.20881C10.8987 5.2859 12.1502 4.7668 13.4555 4.76541H39.7445C39.7332 4.77741 39.725 4.79316 39.716 4.80591ZM46.025 11.6932H40.1817V7.67691C40.1819 7.5027 40.197 7.32881 40.2267 7.15716C40.3253 6.57242 40.5965 6.03052 41.0055 5.60111C41.4145 5.17169 41.9425 4.87439 42.5217 4.74741C42.7135 4.70844 42.9088 4.69008 43.1045 4.69266C43.4881 4.69111 43.868 4.76742 44.2212 4.91696C44.5744 5.0665 44.8936 5.28617 45.1595 5.56266C45.716 6.12536 46.0272 6.88548 46.025 7.67691V11.6932Z" fill="#191919"/>
<path d="M10.1165 12.3001V31.5796C10.1164 31.7535 10.1767 31.922 10.2871 32.0564C10.3975 32.1907 10.5511 32.2825 10.7218 32.3161C11.7701 32.5259 12.7133 33.0924 13.391 33.9193C14.0687 34.7461 14.4389 35.7823 14.4388 36.8513C14.4388 37.0503 14.5178 37.241 14.6584 37.3817C14.7991 37.5223 14.9899 37.6013 15.1888 37.6013H32.2723C32.4712 37.6013 32.6619 37.5223 32.8026 37.3817C32.9433 37.241 33.0223 37.0503 33.0223 36.8513C33.0188 36.0553 33.222 35.2721 33.6119 34.5781C34.0018 33.8841 34.5651 33.3032 35.2468 32.8921C35.9222 32.5991 36.6165 32.3515 37.325 32.1511C37.4797 32.1049 37.6154 32.0101 37.7119 31.8806C37.8083 31.7512 37.8605 31.594 37.8605 31.4326V12.3503C37.8605 12.1644 37.7915 11.9851 37.6667 11.8472C37.542 11.7093 37.3705 11.6227 37.1855 11.6041C36.0408 11.4919 34.9794 10.956 34.2094 10.1015C33.4395 9.24708 33.0166 8.13575 33.0238 6.9856C33.0238 6.78668 32.9447 6.59592 32.8041 6.45527C32.6634 6.31461 32.4727 6.2356 32.2738 6.2356H15.3845C15.1845 6.23797 14.9935 6.31918 14.8531 6.46159C14.7127 6.604 14.6341 6.79609 14.6345 6.9961C14.63 8.09266 14.2375 9.15223 13.5265 9.98712C12.8156 10.822 11.8321 11.3784 10.7503 11.5576C10.5734 11.5853 10.4123 11.6755 10.2961 11.8116C10.1798 11.9478 10.1161 12.1211 10.1165 12.3001ZM11.6165 12.9061C12.7878 12.5802 13.8369 11.9159 14.6323 10.9964C15.4277 10.0769 15.9341 8.94311 16.088 7.7371H31.5658C31.7141 9.00487 32.2566 10.1941 33.1169 11.1371C33.9771 12.0801 35.1117 12.7293 36.3605 12.9931V30.8798C35.7222 31.0676 35.0998 31.3056 34.499 31.5916L34.4803 31.6028C33.6832 32.0805 33.0061 32.7345 32.5012 33.5145C31.9962 34.2946 31.6767 35.1801 31.5673 36.1028H15.8923C15.7469 34.9305 15.2662 33.8251 14.5078 32.9193C13.7495 32.0136 12.7458 31.346 11.6173 30.9968L11.6165 12.9061Z" fill="#191919"/>
<path d="M23.9397 26.5244C25.5755 26.5245 27.1746 26.0396 28.5347 25.1309C29.8949 24.2222 30.955 22.9306 31.581 21.4194C32.2071 19.9082 32.3709 18.2452 32.0519 16.6409C31.7328 15.0365 30.9451 13.5628 29.7884 12.4062C28.6318 11.2495 27.1581 10.4618 25.5537 10.1428C23.9494 9.82368 22.2865 9.98752 20.7752 10.6136C19.264 11.2396 17.9724 12.2998 17.0637 13.6599C16.155 15.0201 15.6701 16.6191 15.6702 18.2549C15.6726 20.4474 16.5446 22.5494 18.0949 24.0997C19.6453 25.65 21.7473 26.522 23.9397 26.5244ZM23.9397 11.4846C25.2788 11.4845 26.5878 11.8814 27.7013 12.6253C28.8147 13.3691 29.6826 14.4264 30.1952 15.6635C30.7077 16.9006 30.8419 18.2619 30.5807 19.5752C30.3196 20.8886 29.6748 22.095 28.728 23.0419C27.7812 23.9888 26.5749 24.6337 25.2616 24.895C23.9482 25.1563 22.5869 25.0223 21.3498 24.5099C20.1126 23.9975 19.0552 23.1297 18.3113 22.0163C17.5673 20.9029 17.1702 19.594 17.1702 18.2549C17.172 16.46 17.8858 14.7391 19.1549 13.4698C20.424 12.2006 22.1448 11.4866 23.9397 11.4846ZM27.083 30.9606H20.7965C20.697 30.9606 20.6016 31.0002 20.5313 31.0705C20.461 31.1408 20.4215 31.2362 20.4215 31.3356C20.4215 31.4351 20.461 31.5305 20.5313 31.6008C20.6016 31.6711 20.697 31.7106 20.7965 31.7106H27.083C27.1824 31.7106 27.2778 31.6711 27.3481 31.6008C27.4185 31.5305 27.458 31.4351 27.458 31.3356C27.458 31.2362 27.4185 31.1408 27.3481 31.0705C27.2778 31.0002 27.1824 30.9606 27.083 30.9606Z" fill="#191919"/>
</svg>
