<svg width="49" height="48" viewBox="0 0 49 48" fill="none" xmlns="http://www.w3.org/2000/svg">
<path d="M44.6443 41.0393V16.8143C45.3996 16.9872 46.0738 17.4117 46.5562 18.0181C47.0386 18.6245 47.3006 19.3769 47.2993 20.1518V40.2818C47.2979 41.1917 46.9353 42.0638 46.2912 42.7065C45.6471 43.3492 44.7742 43.7099 43.8643 43.7093H7.27929C6.36864 43.7101 5.49483 43.3497 4.84949 42.7072C4.20416 42.0647 3.83997 41.1924 3.83679 40.2818V20.1518C3.84012 19.3328 4.1359 18.5419 4.67083 17.9217C5.20576 17.3015 5.94465 16.8928 6.75429 16.7693V41.0393C6.88179 41.0618 16.3093 41.0618 25.6993 41.0543C35.0743 41.0543 44.4193 41.0393 44.4193 41.0393H44.6443Z" fill="#8C64B4"/>
<path d="M8.91425 8.33908V36.3441C8.91425 36.3441 22.6017 32.4516 25.3242 40.7691C25.4517 40.8591 25.5792 40.9491 25.6992 41.0391V9.71158C23.3173 7.91963 20.4762 6.83957 17.5053 6.59665C14.5345 6.35372 11.5557 6.95789 8.91425 8.33908Z" fill="#FDFDFD"/>
<path d="M25.7 41.0393V41.0543C16.31 41.0618 6.8825 41.0618 6.755 41.0393C9.42285 39.0336 12.6586 37.9267 15.996 37.8781C19.3334 37.8296 22.6 38.842 25.325 40.7693C25.4518 40.8593 25.5793 40.9501 25.7 41.0393ZM25.7 41.0393C28.4318 38.9874 31.756 37.8781 35.1725 37.8781C38.5891 37.8781 41.9132 38.9874 44.645 41.0393H44.42C44.42 41.0393 35.075 41.0543 25.7 41.0543V41.0393Z" fill="#F2EEF7"/>
<path d="M25.325 40.7691C22.6 38.8418 19.3334 37.8294 15.996 37.8779C12.6586 37.9265 9.42285 39.0334 6.755 41.0391V9.71161C7.43631 9.19588 8.15873 8.73685 8.91501 8.33911V36.3441C8.91501 36.3441 22.6018 32.4516 25.325 40.7691Z" fill="#F2EEF7"/>
<path d="M40.325 7.41675C37.8861 6.56994 35.2762 6.33635 32.7257 6.73659C30.1752 7.13683 27.7623 8.15859 25.7 9.71175V41.0393C28.2875 32.4893 42.1625 36.4343 42.1625 36.4343V8.18175C41.5696 7.88209 40.9554 7.6264 40.325 7.41675Z" fill="#FDFDFD"/>
<path d="M34.1418 29.3617C37.8349 29.3617 40.8287 26.3678 40.8287 22.6747C40.8287 18.9816 37.8349 15.9878 34.1418 15.9878C30.4487 15.9878 27.4548 18.9816 27.4548 22.6747C27.4548 26.3678 30.4487 29.3617 34.1418 29.3617Z" fill="#FFDDB5"/>
<path d="M29.361 26.4821C29.0513 26.4825 28.7525 26.3672 28.5233 26.1589C28.294 25.9507 28.1507 25.6643 28.1214 25.356C28.0921 25.0477 28.1789 24.7395 28.3648 24.4917C28.5507 24.244 28.8224 24.0745 29.1266 24.0165V23.986C29.1266 23.6011 29.2517 23.2267 29.4829 22.9189C29.7141 22.6112 30.039 22.3869 30.4086 22.2798C30.7783 22.3869 31.1032 22.6112 31.3344 22.9189C31.5656 23.2267 31.6907 23.6011 31.6907 23.986V24.0235C31.9928 24.086 32.2608 24.2587 32.4427 24.5079C32.6245 24.7571 32.7071 25.0651 32.6743 25.3719C32.6416 25.6786 32.4958 25.9622 32.2655 26.1675C32.0351 26.3727 31.7367 26.4849 31.4282 26.4821H29.361Z" fill="#CCBADE"/>
<path d="M32.4243 26.482H31.4282C31.7367 26.4848 32.0352 26.3726 32.2655 26.1674C32.4959 25.9621 32.6416 25.6785 32.6744 25.3718C32.7071 25.065 32.6245 24.757 32.4427 24.5078C32.2609 24.2586 31.9928 24.0859 31.6907 24.0234V23.9859C31.6907 23.601 31.5657 23.2266 31.3345 22.9188C31.1033 22.6111 30.7784 22.3868 30.4087 22.2797C30.5707 22.2315 30.7389 22.207 30.9079 22.207C31.3797 22.2072 31.8321 22.3946 32.1656 22.7282C32.4992 23.0618 32.6867 23.5142 32.6868 23.9859V24.0234C32.9889 24.0859 33.257 24.2586 33.4388 24.5078C33.6206 24.757 33.7032 25.065 33.6705 25.3718C33.6377 25.6785 33.492 25.9621 33.2616 26.1674C33.0313 26.3726 32.7328 26.4848 32.4243 26.482Z" fill="#8C64B4"/>
<path d="M37.686 24.2671C38.0383 23.7101 38.2774 23.0891 38.3896 22.4396C38.5018 21.7902 38.4849 21.125 38.34 20.482C38.195 19.8391 37.9248 19.231 37.5448 18.6925C37.1647 18.154 36.6823 17.6957 36.1251 17.3437L36.1603 17.2664C36.4023 17.3716 36.6358 17.4954 36.8587 17.6367C37.9279 18.3104 38.7034 19.3629 39.0301 20.5838C39.3567 21.8046 39.2105 23.1038 38.6206 24.2214C38.0306 25.3391 37.0405 26.1928 35.8483 26.6119C34.656 27.0311 33.3495 26.9847 32.1899 26.482H32.3563C33.3647 26.706 34.4175 26.6135 35.3713 26.2171C36.3251 25.8207 37.1335 25.1398 37.686 24.2671Z" fill="#F6B884"/>
<path d="M37.686 24.2671C37.1334 25.1398 36.3251 25.8207 35.3713 26.2171C34.4175 26.6135 33.3646 26.706 32.3563 26.482H32.4243C32.6179 26.4823 32.8088 26.4374 32.982 26.3509C33.1551 26.2643 33.3056 26.1385 33.4215 25.9835C33.5374 25.8284 33.6155 25.6484 33.6495 25.4579C33.6834 25.2673 33.6724 25.0714 33.6173 24.8859C34.32 24.563 34.9384 24.0818 35.4241 23.48C35.9098 22.8782 36.2496 22.1722 36.4169 21.4172C36.5842 20.6622 36.5744 19.8787 36.3884 19.1281C36.2024 18.3774 35.8451 17.6801 35.3446 17.0906C35.3377 17.0827 35.3335 17.0728 35.3326 17.0623C35.3317 17.0519 35.3343 17.0414 35.3398 17.0325C35.3453 17.0236 35.3535 17.0167 35.3632 17.0128C35.373 17.0089 35.3837 17.0082 35.3938 17.0109C35.6557 17.0755 35.912 17.1609 36.1602 17.2663L36.1251 17.3437C36.6823 17.6957 37.1647 18.154 37.5447 18.6925C37.9248 19.231 38.195 19.8391 38.3399 20.482C38.4849 21.125 38.5017 21.7902 38.3895 22.4396C38.2773 23.0891 38.0383 23.7101 37.686 24.2671Z" fill="#FFA467"/>
<path d="M40.3742 26.5359L39.7789 26.7726L39.636 27.3984L39.2235 26.9039L38.5836 26.9625L38.9281 26.4187L38.675 25.8281L39.2985 25.9875L39.7813 25.5632L39.8235 26.2054L40.3742 26.5359Z" fill="#F2EEF7"/>
<path d="M31.7517 18.886L32.2204 19.5798L31.3837 19.5306L30.8681 20.1915L30.6571 19.3782L29.8696 19.0923L30.5751 18.6423L30.6056 17.8032L31.2524 18.3353L32.0587 18.1056L31.7517 18.886Z" fill="#F2EEF7"/>
<path d="M39.3004 20.7239C39.0865 19.7755 38.6138 18.905 37.9347 18.2092C37.2556 17.5135 36.3968 17.0197 35.4538 16.7829C35.3953 16.7678 35.3335 16.7718 35.2775 16.7942C35.2214 16.8166 35.1739 16.8563 35.1419 16.9076C35.1099 16.9588 35.0951 17.0189 35.0996 17.0791C35.1041 17.1394 35.1277 17.1966 35.1669 17.2425C35.6307 17.7887 35.9655 18.4323 36.1466 19.1255C36.3277 19.8188 36.3505 20.5439 36.2132 21.2471C36.0758 21.9504 35.782 22.6136 35.3534 23.1878C34.9248 23.762 34.3724 24.2323 33.7372 24.5639C33.566 24.2281 33.2723 23.9707 32.9169 23.8449C32.8805 23.3379 32.6539 22.8635 32.2824 22.5166C31.9109 22.1698 31.422 21.9762 30.9138 21.9746C30.4055 21.9731 29.9155 22.1637 29.5419 22.5083C29.1683 22.8529 28.9387 23.326 28.8993 23.8327C28.5645 23.9421 28.2798 24.1673 28.0963 24.4679C27.9128 24.7685 27.8426 25.1247 27.8983 25.4724C27.954 25.8202 28.132 26.1366 28.4002 26.3648C28.6684 26.5931 29.0093 26.7181 29.3615 26.7174H32.1444C33.0334 27.091 34.008 27.2126 34.9615 27.0688C35.915 26.925 36.8104 26.5214 37.5496 25.9023C38.2889 25.2832 38.8433 24.4724 39.1521 23.559C39.4609 22.6455 39.5122 21.6646 39.3004 20.7239ZM28.3478 25.2385C28.3483 25.0033 28.4307 24.7757 28.5807 24.5946C28.7307 24.4136 28.939 24.2904 29.17 24.2461C29.2237 24.2361 29.2723 24.2075 29.3072 24.1655C29.3421 24.1234 29.3612 24.0704 29.3612 24.0157V23.9862C29.3612 23.5763 29.5241 23.1832 29.8139 22.8934C30.1037 22.6036 30.4968 22.4407 30.9067 22.4407C31.3166 22.4407 31.7097 22.6036 31.9995 22.8934C32.2893 23.1832 32.4522 23.5763 32.4522 23.9862V24.0235C32.4521 24.0771 32.4705 24.129 32.5041 24.1708C32.5378 24.2125 32.5847 24.2414 32.6371 24.2527C32.8147 24.2909 32.9786 24.3765 33.1116 24.5002C33.2446 24.624 33.3416 24.7814 33.3925 24.9558C33.4201 25.047 33.4339 25.1418 33.4335 25.2371C33.4338 25.3698 33.4079 25.5013 33.3572 25.624C33.3066 25.7467 33.2322 25.8582 33.1383 25.952C33.0444 26.0459 32.933 26.1203 32.8103 26.171C32.6876 26.2216 32.5561 26.2475 32.4233 26.2472H29.3605C29.0926 26.2473 28.8356 26.1412 28.6457 25.9521C28.4559 25.763 28.3488 25.5064 28.3478 25.2385ZM33.1234 26.5414C33.126 26.54 33.1281 26.5381 33.1307 26.5367C33.1835 26.5076 33.2345 26.4753 33.2833 26.4399L33.3233 26.4103C33.3749 26.3713 33.4241 26.3291 33.4705 26.284C33.6336 26.12 33.7562 25.9202 33.8283 25.7005C33.9005 25.4807 33.9203 25.2471 33.8861 25.0184V25.0158C34.5501 24.6806 35.1353 24.2081 35.6028 23.6295C36.0704 23.051 36.4096 22.3796 36.598 21.66C36.7864 20.9404 36.8196 20.189 36.6955 19.4556C36.5715 18.7221 36.2929 18.0235 35.8783 17.4059C36.1772 17.5206 36.464 17.6646 36.7344 17.836C37.8066 18.514 38.5655 19.5901 38.8443 20.8276C39.1231 22.0652 38.8989 23.3628 38.2211 24.435C37.6889 25.2654 36.9148 25.9126 36.0032 26.2892C35.0917 26.6659 34.0865 26.7539 33.1234 26.5414ZM29.829 19.2026L30.5589 19.4679L30.7541 20.2198C30.7596 20.241 30.7709 20.2601 30.7867 20.2752C30.8025 20.2903 30.8223 20.3007 30.8436 20.3051C30.8513 20.3069 30.8592 20.3077 30.8671 20.3077C30.8849 20.3077 30.9025 20.3036 30.9185 20.2957C30.9345 20.2879 30.9485 20.2765 30.9594 20.2625L31.4376 19.6503L32.2129 19.6971C32.2348 19.6992 32.2568 19.6947 32.2762 19.6842C32.2955 19.6737 32.3113 19.6578 32.3216 19.6383C32.3325 19.6194 32.3378 19.5977 32.337 19.5759C32.3362 19.5541 32.3293 19.5329 32.3172 19.5148L31.8829 18.871L32.1669 18.1477C32.1748 18.1274 32.1769 18.1053 32.173 18.084C32.169 18.0626 32.1592 18.0427 32.1446 18.0266C32.13 18.0104 32.1112 17.9987 32.0903 17.9926C32.0694 17.9866 32.0473 17.9865 32.0263 17.9923L31.2796 18.2068L30.6798 17.7129C30.6629 17.6991 30.6425 17.6902 30.6209 17.6873C30.5992 17.6844 30.5772 17.6877 30.5573 17.6966C30.5374 17.7056 30.5204 17.72 30.5082 17.7381C30.496 17.7562 30.4891 17.7774 30.4883 17.7992L30.4614 18.5757L29.8065 18.9935C29.7881 19.0053 29.7733 19.0221 29.7638 19.0418C29.7544 19.0616 29.7507 19.0836 29.7531 19.1054C29.7556 19.1271 29.7641 19.1478 29.7777 19.165C29.7912 19.1822 29.8094 19.1952 29.83 19.2026H29.829ZM30.6388 18.7402C30.6547 18.7301 30.6679 18.7163 30.6773 18.6999C30.6868 18.6836 30.6921 18.6653 30.6929 18.6464L30.7138 18.0457L31.1779 18.4275C31.1924 18.44 31.2097 18.4486 31.2284 18.4527C31.247 18.4568 31.2664 18.4562 31.2847 18.451L31.8622 18.285L31.6424 18.8438C31.6355 18.8614 31.633 18.8805 31.6351 18.8993C31.6372 18.9181 31.6438 18.9361 31.6544 18.9518L31.9904 19.4499L31.3907 19.4126C31.3717 19.4115 31.3527 19.415 31.3354 19.4228C31.3181 19.4307 31.303 19.4426 31.2913 19.4576L30.9219 19.931L30.771 19.3496C30.7662 19.3312 30.757 19.3142 30.7443 19.3002C30.7315 19.2862 30.7155 19.2754 30.6976 19.2689L30.133 19.0634L30.6388 18.7402ZM40.4354 26.434L39.9365 26.1361L39.8985 25.556C39.8971 25.5342 39.8897 25.5131 39.877 25.4953C39.8643 25.4774 39.8468 25.4635 39.8266 25.455C39.8063 25.4466 39.7841 25.444 39.7625 25.4476C39.7409 25.4512 39.7207 25.4607 39.7042 25.4752L39.2666 25.8577L38.7032 25.7143C38.6821 25.709 38.66 25.7097 38.6393 25.7163C38.6186 25.7229 38.6002 25.7351 38.586 25.7515C38.5718 25.7681 38.5625 25.7884 38.5591 25.81C38.5558 25.8316 38.5586 25.8537 38.5672 25.8739L38.796 26.4082L38.4852 26.9004C38.4735 26.9189 38.4673 26.9403 38.4671 26.9621C38.4669 26.9839 38.4729 27.0054 38.4843 27.0241C38.4957 27.0427 38.512 27.0578 38.5315 27.0676C38.551 27.0775 38.5729 27.0817 38.5947 27.0797L39.1736 27.0275L39.5448 27.4751C39.5558 27.4883 39.5696 27.499 39.5852 27.5063C39.6008 27.5136 39.6178 27.5173 39.6351 27.5173C39.6442 27.5172 39.6533 27.5162 39.6622 27.5143C39.6835 27.5092 39.7029 27.4982 39.7183 27.4827C39.7336 27.4672 39.7443 27.4477 39.7492 27.4264L39.8786 26.8594L40.4176 26.6447C40.4383 26.6368 40.4564 26.6232 40.4696 26.6055C40.4829 26.5878 40.4909 26.5667 40.4927 26.5446C40.4944 26.5225 40.4899 26.5004 40.4796 26.4808C40.4693 26.4612 40.4537 26.4449 40.4345 26.4338L40.4354 26.434ZM39.7347 26.6635C39.7171 26.6706 39.7016 26.6818 39.6893 26.6962C39.6771 26.7106 39.6685 26.7278 39.6644 26.7462L39.5741 27.1418L39.3163 26.8296C39.3053 26.8164 39.2915 26.8057 39.2759 26.7984C39.2603 26.791 39.2433 26.7872 39.2261 26.7872H39.2155L38.8117 26.8235L39.0285 26.4809C39.0386 26.4648 39.0447 26.4465 39.0463 26.4276C39.0478 26.4086 39.0446 26.3896 39.0372 26.3721L38.8778 25.9995L39.2708 26.0996C39.2892 26.1043 39.3084 26.1044 39.3269 26.1001C39.3453 26.0957 39.3625 26.0869 39.3768 26.0745L39.6815 25.8075L39.7077 26.2123C39.7088 26.2314 39.7146 26.2499 39.7244 26.2662C39.7343 26.2825 39.7481 26.2962 39.7644 26.306L40.1125 26.5139L39.7347 26.6635Z" fill="#232323"/>
<path d="M44.6443 16.8141V41.0391C41.9125 38.9873 38.5883 37.8779 35.1718 37.8779C31.7552 37.8779 28.4311 38.9873 25.6993 41.0391C28.2868 32.4891 42.1618 36.4341 42.1618 36.4341V8.18164C42.3568 8.27914 42.5518 8.37664 42.7393 8.48164C43.405 8.84201 44.0419 9.25323 44.6443 9.71164V16.8141Z" fill="#F2EEF7"/>
<path d="M44.759 16.0064V9.44994C44.759 9.33351 44.7319 9.21867 44.6798 9.11453C44.6278 9.01039 44.5522 8.9198 44.459 8.84994C43.8254 8.37343 43.1579 7.94379 42.4618 7.56444C41.6543 7.11668 40.8088 6.74146 39.935 6.44319C37.4669 5.58644 34.8303 5.32916 32.2431 5.69262C29.6559 6.05607 27.1923 7.02982 25.0558 8.53344C22.1992 6.54389 18.7889 5.50382 15.3083 5.56063C11.8276 5.61743 8.45312 6.76824 5.66301 8.84994C5.56986 8.9198 5.49426 9.01039 5.44219 9.11453C5.39012 9.21867 5.36301 9.33351 5.36301 9.44994V15.9299C4.52253 16.2005 3.78868 16.729 3.26574 17.4404C2.7428 18.1519 2.45737 19.01 2.45001 19.8929V40.0177C2.4524 41.128 2.89518 42.192 3.68119 42.9762C4.4672 43.7603 5.53222 44.2006 6.64251 44.2004H43.2313C44.3401 44.1991 45.4031 43.7579 46.1871 42.9738C46.9711 42.1896 47.4121 41.1265 47.4133 40.0177V19.8929C47.4167 19.0525 47.1648 18.2308 46.6908 17.5368C46.2168 16.8427 45.5431 16.309 44.759 16.0064ZM39.449 7.86144C40.2416 8.13114 41.0086 8.47073 41.741 8.87619H41.7448C42.2682 9.1616 42.7739 9.47843 43.259 9.82494V39.3562C42.9185 39.1447 42.572 38.9474 42.2195 38.7644C42.1085 38.7067 41.9945 38.6579 41.8828 38.6024C41.6398 38.4824 41.3968 38.3617 41.1493 38.2544C41.0083 38.1937 40.865 38.1427 40.7233 38.0857C40.4983 37.9964 40.277 37.9049 40.0483 37.8254C39.8938 37.7714 39.7378 37.7272 39.5818 37.6754C39.3643 37.6064 39.1468 37.5352 38.9263 37.4752C38.7635 37.4309 38.5985 37.3949 38.4343 37.3559C38.219 37.3042 38.0045 37.2517 37.7878 37.2059C37.6183 37.1722 37.4473 37.1459 37.2763 37.1174C37.0625 37.0822 36.8503 37.0469 36.6358 37.0192C36.461 36.9974 36.2855 36.9824 36.1108 36.9659C35.8993 36.9457 35.6878 36.9262 35.4763 36.9149C35.2978 36.9044 35.1193 36.9007 34.94 36.8962C34.7308 36.8917 34.5215 36.8872 34.3123 36.8902C34.1315 36.8902 33.9508 36.9007 33.7693 36.9089C33.5623 36.9179 33.356 36.9299 33.1498 36.9472C32.9668 36.9622 32.7853 36.9817 32.603 37.0027C32.399 37.0267 32.1958 37.0529 31.9925 37.0844C31.8105 37.1119 31.6285 37.1432 31.4465 37.1782C31.2448 37.2157 31.0445 37.2577 30.8465 37.3027C30.666 37.3437 30.4858 37.3874 30.3058 37.4339C30.1058 37.4864 29.9085 37.5424 29.714 37.6019C29.5355 37.6559 29.357 37.7114 29.18 37.7722C28.9858 37.8374 28.793 37.9087 28.601 37.9822C28.4255 38.0497 28.25 38.1172 28.076 38.1899C27.8863 38.2702 27.701 38.3564 27.512 38.4434C27.3403 38.5237 27.1685 38.6032 26.999 38.6902C26.8145 38.7839 26.6338 38.8852 26.4523 38.9864C26.2858 39.0794 26.1193 39.1709 25.955 39.2699C25.9078 39.2984 25.8583 39.3232 25.8118 39.3524V9.82494C27.7619 8.43034 30.0183 7.52413 32.3913 7.18246C34.7643 6.8408 37.1847 7.07364 39.449 7.86144ZM41.399 40.0304C37.3288 40.0349 32.459 40.0387 27.6538 40.0417C29.7819 38.9575 32.136 38.3914 34.5243 38.3895C36.9126 38.3875 39.2677 38.9498 41.3975 40.0304H41.399ZM6.86376 9.82494C9.41392 8.01791 12.4623 7.04737 15.5878 7.04736C18.7132 7.04737 21.7616 8.01791 24.3118 9.82494V39.3577C24.2638 39.3277 24.2135 39.3029 24.1618 39.2737C24.0013 39.1769 23.8385 39.0869 23.675 38.9962C23.4898 38.8927 23.3053 38.7892 23.117 38.6962C22.9505 38.6122 22.7825 38.5342 22.6145 38.4554C22.424 38.3662 22.2335 38.2784 22.04 38.1974C21.8698 38.1224 21.6973 38.0587 21.5248 37.9927C21.3298 37.9177 21.134 37.8427 20.9368 37.7789C20.7628 37.7197 20.5873 37.6657 20.4118 37.6124C20.2123 37.5517 20.0128 37.4947 19.8118 37.4422C19.634 37.3957 19.457 37.3529 19.2785 37.3124C19.076 37.2667 18.8728 37.2239 18.6688 37.1857C18.4888 37.1517 18.3088 37.1209 18.1288 37.0934C17.924 37.0619 17.72 37.0349 17.5145 37.0109C17.333 36.9899 17.1508 36.9704 16.9685 36.9554C16.763 36.9382 16.5575 36.9269 16.352 36.9172C16.169 36.9089 15.986 36.9014 15.803 36.8992C15.728 36.8992 15.653 36.8917 15.578 36.8917C15.446 36.8917 15.3148 36.9014 15.1828 36.9044C14.9998 36.9089 14.8168 36.9134 14.6338 36.9232C14.4283 36.9352 14.2235 36.9539 14.0188 36.9727C13.8365 36.9899 13.6535 37.0057 13.472 37.0289C13.2673 37.0552 13.0633 37.0889 12.8593 37.1227C12.6793 37.1527 12.4985 37.1797 12.3193 37.2157C12.1145 37.2562 11.912 37.3057 11.7088 37.3544C11.5325 37.3964 11.3555 37.4347 11.1838 37.4827C10.9783 37.5389 10.775 37.6057 10.571 37.6702C10.4015 37.7234 10.232 37.7722 10.0648 37.8307C9.85251 37.9057 9.64401 37.9912 9.43401 38.0744C9.27876 38.1367 9.12126 38.1929 8.96751 38.2597C8.73651 38.3594 8.51001 38.4727 8.28276 38.5844C8.15526 38.6467 8.02476 38.7029 7.89876 38.7689C7.54776 38.9527 7.20126 39.1484 6.86151 39.3592V9.82494H6.86376ZM22.475 40.0447C16.754 40.0447 11.624 40.0447 8.69976 40.0447C10.8329 38.9573 13.1931 38.3904 15.5874 38.3904C17.9817 38.3904 20.3419 38.9573 22.475 40.0447ZM45.9118 40.0177C45.911 40.7288 45.6282 41.4106 45.1254 41.9135C44.6226 42.4165 43.9409 42.6994 43.2298 42.7004H6.64251C5.92992 42.701 5.2462 42.4189 4.74141 41.9159C4.23662 41.413 3.952 40.7303 3.95001 40.0177V19.8929C3.95273 19.4103 4.08537 18.9372 4.334 18.5235C4.58263 18.1098 4.93808 17.7706 5.36301 17.5417V40.7759C5.36506 40.825 5.3721 40.8738 5.38401 40.9214C5.38401 40.9364 5.38401 40.9514 5.39001 40.9664C5.41262 41.0468 5.44835 41.1228 5.49576 41.1914C5.50926 41.2117 5.52576 41.2274 5.54151 41.2469C5.58066 41.2943 5.62579 41.3364 5.67576 41.3722C5.69906 41.3919 5.72389 41.4097 5.75001 41.4254C5.76126 41.4322 5.76951 41.4412 5.78151 41.4472C5.84516 41.4783 5.9128 41.5005 5.98251 41.5132C5.98776 41.5132 5.99151 41.5177 5.99676 41.5184C6.04776 41.5267 6.16551 41.5469 17.4493 41.5469C23.0383 41.5469 31.3678 41.5417 43.7818 41.5282H44.0158C44.0352 41.5253 44.0545 41.5213 44.0735 41.5162C44.1288 41.5115 44.1834 41.5007 44.2363 41.4839C44.27 41.4753 44.3031 41.4643 44.3353 41.4509L44.3465 41.4472C44.4102 41.4152 44.4691 41.3743 44.5213 41.3257C44.5487 41.2978 44.5738 41.2677 44.5963 41.2357C44.6244 41.202 44.6495 41.1658 44.6713 41.1277C44.6907 41.0918 44.7072 41.0544 44.7208 41.0159C44.7369 40.9636 44.7468 40.9094 44.75 40.8547C44.7567 40.83 44.762 40.805 44.7658 40.7797C44.7658 40.7722 44.762 40.7654 44.7613 40.7579V17.6827C45.119 17.9293 45.4112 18.2596 45.6123 18.6448C45.8135 19.0299 45.9176 19.4584 45.9155 19.8929L45.9118 40.0177Z" fill="#232323"/>
<path d="M20.7688 25.4882C20.9316 25.4894 21.0931 25.4582 21.2438 25.3964C21.3945 25.3347 21.5314 25.2436 21.6465 25.1284C21.7617 25.0133 21.8528 24.8764 21.9145 24.7257C21.9763 24.575 22.0075 24.4135 22.0063 24.2507C22.0075 24.134 21.9909 24.0178 21.957 23.9061C21.895 23.6918 21.7758 23.4983 21.6124 23.3464C21.4489 23.1945 21.2472 23.0899 21.0289 23.0436C20.9768 23.0319 20.9303 23.0027 20.8971 22.961C20.8639 22.9192 20.8459 22.8673 20.8461 22.8139V22.7694C20.8452 22.2743 20.6481 21.7997 20.298 21.4496C19.9479 21.0995 19.4733 20.9024 18.9781 20.9014C18.714 20.9025 18.453 20.959 18.2119 21.0672C17.9709 21.1754 17.7553 21.3329 17.5789 21.5296C17.3521 21.7846 17.199 22.0965 17.1359 22.4319C17.1164 22.5434 17.1062 22.6563 17.1055 22.7694V22.8069C17.1054 22.8613 17.0864 22.9139 17.0518 22.9558C17.0171 22.9977 16.969 23.0263 16.9156 23.0366C16.7264 23.0718 16.5479 23.1507 16.3945 23.267C16.2412 23.3834 16.1171 23.5339 16.0322 23.7067C15.9473 23.8795 15.9039 24.0697 15.9055 24.2622C15.9071 24.4547 15.9536 24.6442 16.0414 24.8155C16.1458 25.0183 16.304 25.1884 16.4988 25.3071C16.6935 25.4257 16.9173 25.4884 17.1453 25.4882H20.7688ZM18.9781 20.4327C19.5744 20.4335 20.1479 20.662 20.5813 21.0715C21.0147 21.481 21.2755 22.0406 21.3102 22.6358C21.5711 22.7217 21.8071 22.8698 21.9979 23.0675C22.1886 23.2652 22.3282 23.5064 22.4047 23.7702C22.4532 23.9257 22.4769 24.0878 22.475 24.2507C22.4758 24.475 22.4322 24.6972 22.3467 24.9045C22.2612 25.1119 22.1356 25.3003 21.977 25.4589C21.8184 25.6175 21.63 25.7431 21.4226 25.8286C21.2153 25.9141 20.993 25.9577 20.7688 25.9569H17.1453C16.8686 25.9575 16.5958 25.8905 16.3508 25.7619C16.1057 25.6332 15.8958 25.4468 15.7391 25.2186C15.1432 25.4649 14.4876 25.529 13.8553 25.4027C13.223 25.2765 12.6423 24.9656 12.1867 24.5094C11.731 24.0531 11.4209 23.4721 11.2954 22.8396C11.17 22.2071 11.2348 21.5517 11.4819 20.9561C11.7289 20.3605 12.1469 19.8515 12.6832 19.4934C13.2194 19.1354 13.8498 18.9444 14.4946 18.9446C15.1394 18.9448 15.7697 19.1361 16.3057 19.4944C16.8418 19.8528 17.2596 20.362 17.5063 20.9577C17.922 20.6188 18.4418 20.4334 18.9781 20.4327ZM14.1477 24.9749C14.6149 25.0365 15.0901 24.9776 15.5281 24.8038C15.5234 24.7921 15.5234 24.778 15.5188 24.7639C15.498 24.7019 15.4815 24.6384 15.4695 24.5741C15.4649 24.5507 15.4602 24.5272 15.4578 24.5038C15.4449 24.42 15.4378 24.3354 15.4367 24.2507C15.4366 24.0265 15.4811 23.8045 15.5676 23.5977C15.6541 23.3909 15.7809 23.2033 15.9406 23.046C16.1352 22.8483 16.3761 22.7025 16.6414 22.6218C16.6461 22.5608 16.6531 22.4975 16.6625 22.4366C16.6649 22.4155 16.6695 22.3944 16.6719 22.3757C16.6789 22.3335 16.6859 22.2936 16.6953 22.2538C16.7 22.2304 16.707 22.2069 16.7141 22.1835C16.7234 22.146 16.7328 22.1108 16.7445 22.0757C16.7516 22.0499 16.7609 22.0264 16.768 22.003C16.7797 21.9679 16.7938 21.935 16.8078 21.8999C16.8172 21.8764 16.8266 21.853 16.8383 21.8296C16.8524 21.7968 16.8664 21.7639 16.8828 21.7311C16.8945 21.7077 16.9063 21.6843 16.9203 21.6608C16.9367 21.6304 16.9555 21.5975 16.9742 21.5671C16.9859 21.546 17 21.5225 17.0141 21.5014L17.0774 21.41C17.0914 21.3889 17.1078 21.3679 17.1219 21.3468C17.1283 21.3377 17.1354 21.3291 17.143 21.321C16.9573 20.7668 16.6027 20.2847 16.1289 19.9425C15.6551 19.6003 15.086 19.4152 14.5016 19.4132C13.7905 19.4103 13.1052 19.679 12.5854 20.1642C12.0656 20.6494 11.7505 21.3146 11.7045 22.0242C11.6584 22.7338 11.8849 23.4342 12.3376 23.9825C12.7903 24.5308 13.4352 24.8858 14.1406 24.9749H14.1477Z" fill="#232323"/>
<path d="M14.1617 19.4416C14.6752 19.5146 15.1584 19.7291 15.557 20.0611C15.9556 20.3931 16.254 20.8294 16.4187 21.3213C16.4111 21.3294 16.4041 21.338 16.3976 21.3471C16.3812 21.3682 16.3671 21.3893 16.3507 21.4104C16.3296 21.4408 16.3085 21.4713 16.2898 21.5018C16.2757 21.5229 16.2617 21.5463 16.2476 21.5674C16.2289 21.5979 16.2124 21.6307 16.1937 21.6611L16.1585 21.7314C16.1421 21.7643 16.1257 21.7971 16.1117 21.8299C16.1023 21.8533 16.0906 21.8768 16.0812 21.9002C16.0671 21.9354 16.0554 21.9682 16.0437 22.0033C16.0343 22.0268 16.0273 22.0502 16.0179 22.076C16.0085 22.1111 15.9992 22.1463 15.9898 22.1838C15.9828 22.2072 15.9757 22.2307 15.971 22.2541C15.9617 22.2939 15.9546 22.3338 15.9476 22.376C15.9424 22.396 15.9384 22.4164 15.9359 22.4369C15.9265 22.4979 15.9218 22.5611 15.9171 22.6221C15.6516 22.7022 15.4105 22.8482 15.2164 23.0463C15.0562 23.2033 14.9291 23.3908 14.8426 23.5977C14.756 23.8046 14.7118 24.0267 14.7124 24.251C14.7128 24.3357 14.719 24.4203 14.7312 24.5041L14.7453 24.5744C14.7576 24.6385 14.7732 24.7018 14.7921 24.7643C14.7968 24.7783 14.7992 24.7924 14.8039 24.8041C14.5931 24.8884 14.3727 24.9459 14.1476 24.9752H14.1406C13.4653 24.8887 12.845 24.5584 12.3962 24.0465C11.9474 23.5346 11.7012 22.8763 11.7038 22.1956C11.7063 21.5148 11.9576 20.8584 12.4103 20.35C12.8629 19.8415 13.4858 19.5159 14.1617 19.4346V19.4416Z" fill="#FFA467"/>
<path d="M15.4954 20.011C15.1097 19.7054 14.6492 19.5087 14.1618 19.4414V19.4344C14.5259 19.3892 14.8953 19.4169 15.2486 19.5159C15.6019 19.6149 15.932 19.7832 16.2196 20.011C16.6509 20.346 16.9725 20.8022 17.143 21.3211C17.1354 21.3292 17.1284 21.3378 17.1219 21.3469C17.1079 21.368 17.0915 21.3891 17.0774 21.4102L17.0141 21.5016C17 21.5227 16.986 21.5461 16.9743 21.5672C16.9555 21.5977 16.9368 21.6305 16.9204 21.661C16.9063 21.6844 16.8946 21.7078 16.8829 21.7313C16.8665 21.7641 16.8524 21.7969 16.8383 21.8297C16.8266 21.8531 16.8172 21.8766 16.8079 21.9C16.7938 21.9352 16.7797 21.968 16.768 22.0031C16.761 22.0266 16.7516 22.05 16.7446 22.0758C16.7329 22.111 16.7235 22.1461 16.7141 22.1836C16.7071 22.2071 16.7 22.2305 16.6954 22.2539C16.686 22.2938 16.679 22.3336 16.6719 22.3758C16.6696 22.3946 16.6649 22.4156 16.6625 22.4367C16.6532 22.4977 16.6461 22.561 16.6415 22.6219C16.3761 22.7026 16.1352 22.8485 15.9407 23.0461C15.781 23.2035 15.6542 23.391 15.5677 23.5978C15.4811 23.8046 15.4366 24.0266 15.4368 24.2508C15.4379 24.3356 15.4449 24.4201 15.4579 24.5039C15.4602 24.5274 15.4649 24.5508 15.4696 24.5742C15.4816 24.6386 15.498 24.702 15.5188 24.7641C15.5235 24.7781 15.5235 24.7922 15.5282 24.8039C15.0901 24.9777 14.6149 25.0366 14.1477 24.975C14.3728 24.9457 14.5932 24.8882 14.804 24.8039C14.7993 24.7922 14.7969 24.7781 14.7922 24.7641C14.7733 24.7017 14.7577 24.6383 14.7454 24.5742L14.7313 24.5039C14.7191 24.4201 14.7129 24.3355 14.7125 24.2508C14.7119 24.0265 14.7561 23.8044 14.8427 23.5975C14.9292 23.3906 15.0563 23.2031 15.2165 23.0461C15.4106 22.848 15.6517 22.7021 15.9172 22.6219C15.9219 22.561 15.9266 22.4977 15.936 22.4367C15.9385 22.4162 15.9425 22.3958 15.9477 22.3758C15.9547 22.3336 15.9618 22.2938 15.9711 22.2539C15.9758 22.2305 15.9829 22.2071 15.9899 22.1836C15.9993 22.1461 16.0086 22.111 16.018 22.0758C16.0274 22.05 16.0344 22.0266 16.0438 22.0031C16.0555 21.968 16.0672 21.9352 16.0813 21.9C16.0907 21.8766 16.1024 21.8531 16.1118 21.8297C16.1258 21.7969 16.1422 21.7641 16.1586 21.7313L16.1938 21.661C16.2125 21.6305 16.229 21.5977 16.2477 21.5672C16.2618 21.5461 16.2758 21.5227 16.2899 21.5016C16.3086 21.4711 16.3297 21.4406 16.3508 21.4102C16.3672 21.3891 16.3813 21.368 16.3977 21.3469C16.4042 21.3378 16.4112 21.3292 16.4188 21.3211C16.2483 20.8022 15.9267 20.346 15.4954 20.011Z" fill="#F6B884"/>
<path d="M21.9571 23.9061C21.991 24.0177 22.0076 24.1339 22.0063 24.2506C22.0075 24.4134 21.9763 24.5749 21.9146 24.7256C21.8528 24.8763 21.7617 25.0132 21.6466 25.1283C21.5314 25.2435 21.3945 25.3346 21.2438 25.3964C21.0931 25.4581 20.9316 25.4893 20.7688 25.4881H19.7797C19.9426 25.4893 20.1041 25.4581 20.2547 25.3964C20.4054 25.3346 20.5423 25.2435 20.6575 25.1283C20.7726 25.0132 20.8638 24.8763 20.9255 24.7256C20.9873 24.5749 21.0185 24.4134 21.0172 24.2506C21.0185 24.1339 21.0019 24.0177 20.968 23.9061C20.9064 23.6918 20.7877 23.4984 20.6247 23.3465C20.4616 23.1946 20.2603 23.0898 20.0422 23.0436C19.9897 23.0323 19.9427 23.0033 19.909 22.9615C19.8753 22.9197 19.857 22.8676 19.8571 22.8139V22.7693C19.8571 22.3602 19.7228 21.9624 19.4746 21.6372C19.2264 21.312 18.8782 21.0773 18.4836 20.9693C18.6446 20.9243 18.811 20.9014 18.9782 20.9014C19.4733 20.9023 19.9479 21.0994 20.298 21.4495C20.6481 21.7996 20.8452 22.2742 20.8461 22.7693V22.8139C20.8459 22.8672 20.8639 22.9191 20.8971 22.9609C20.9304 23.0026 20.9769 23.0318 21.029 23.0436C21.2473 23.0898 21.4489 23.1944 21.6124 23.3463C21.7759 23.4982 21.895 23.6917 21.9571 23.9061Z" fill="#8C64B4"/>
<path d="M20.968 23.9064C21.0019 24.0181 21.0185 24.1343 21.0172 24.251C21.0184 24.4138 20.9872 24.5753 20.9255 24.726C20.8637 24.8767 20.7726 25.0136 20.6574 25.1287C20.5423 25.2439 20.4054 25.335 20.2547 25.3968C20.104 25.4585 19.9425 25.4897 19.7797 25.4885H17.1453C16.9173 25.4887 16.6935 25.426 16.4988 25.3074C16.304 25.1887 16.1458 25.0186 16.0414 24.8158C15.9549 24.6443 15.9094 24.4551 15.9085 24.263C15.9075 24.0709 15.9511 23.8812 16.0358 23.7088C16.1205 23.5364 16.2441 23.386 16.3967 23.2694C16.5494 23.1528 16.727 23.0733 16.9156 23.0369C16.969 23.0266 17.0171 22.998 17.0518 22.9561C17.0864 22.9142 17.1054 22.8616 17.1055 22.8072V22.7697C17.1062 22.6566 17.1164 22.5437 17.1359 22.4322C17.199 22.0968 17.3521 21.7849 17.5789 21.5299C17.8189 21.2584 18.1336 21.0636 18.4836 20.9697C18.8782 21.0777 19.2264 21.3124 19.4745 21.6376C19.7227 21.9628 19.8571 22.3606 19.857 22.7697V22.8143C19.8569 22.868 19.8752 22.9201 19.9089 22.9619C19.9426 23.0037 19.9897 23.0327 20.0422 23.0439C20.2602 23.0902 20.4615 23.195 20.6246 23.3469C20.7877 23.4988 20.9064 23.6922 20.968 23.9064Z" fill="#CCBADE"/>
<path d="M18.0945 18.5039C18.1105 18.5188 18.1219 18.538 18.1273 18.5592C18.1327 18.5804 18.1319 18.6027 18.125 18.6235L17.75 19.8164C17.7442 19.8353 17.7336 19.8524 17.7192 19.866C17.7048 19.8795 17.6871 19.8891 17.6679 19.8938C17.6582 19.8976 17.6478 19.8992 17.6375 19.8985C17.6081 19.898 17.5799 19.8872 17.5578 19.868L16.7656 19.1203C16.7507 19.1071 16.7396 19.0901 16.7335 19.0712C16.7273 19.0522 16.7262 19.032 16.7304 19.0125C16.734 18.993 16.7425 18.9747 16.7553 18.9595C16.768 18.9443 16.7845 18.9327 16.8031 18.9258L17.9726 18.4781C17.9934 18.4711 18.0156 18.4698 18.0371 18.4743C18.0585 18.4789 18.0784 18.4891 18.0945 18.5039ZM17.5812 19.568L17.8296 18.7852L17.0609 19.0781L17.5812 19.568Z" fill="#232323"/>
<path d="M17.8297 18.7852L17.5813 19.568L17.061 19.0781L17.8297 18.7852Z" fill="#FFA467"/>
<path d="M15.718 25.7625C15.7282 25.7798 15.7338 25.7995 15.7342 25.8196C15.7346 25.8397 15.7298 25.8596 15.7203 25.8773L14.5484 28.1015C14.5391 28.1209 14.5245 28.1371 14.5062 28.1483C14.4879 28.1595 14.4668 28.1653 14.4453 28.1648H14.443C14.4212 28.1639 14.4002 28.157 14.382 28.1451C14.3639 28.1331 14.3493 28.1164 14.3398 28.0968L13.2687 25.8211C13.2604 25.8031 13.2568 25.7833 13.2584 25.7636C13.2601 25.7438 13.2669 25.7249 13.2781 25.7086C13.2883 25.6912 13.3031 25.6769 13.3209 25.6674C13.3387 25.6579 13.3588 25.6535 13.3789 25.6547L15.6195 25.7039C15.6395 25.7049 15.6588 25.7108 15.676 25.721C15.6932 25.7312 15.7076 25.7454 15.718 25.7625ZM14.4523 27.7851L15.425 25.9359L13.5617 25.8937L14.4523 27.7851ZM15.6406 18.6187C15.6499 18.6364 15.6544 18.6561 15.6537 18.676C15.653 18.6959 15.6472 18.7153 15.6368 18.7323C15.6265 18.7493 15.6118 18.7633 15.5944 18.773C15.577 18.7826 15.5574 18.7876 15.5375 18.7875L13.4187 18.8039C13.3987 18.8042 13.379 18.7995 13.3613 18.79C13.3437 18.7806 13.3288 18.7668 13.318 18.75C13.3077 18.7332 13.3016 18.7142 13.3004 18.6946C13.2992 18.675 13.3028 18.6554 13.3109 18.6375L14.3539 16.439C14.3636 16.4193 14.3786 16.4027 14.3972 16.3911C14.4159 16.3795 14.4374 16.3734 14.4594 16.3734C14.4815 16.3724 14.5035 16.3781 14.5223 16.3898C14.5411 16.4016 14.556 16.4187 14.5648 16.439L15.6406 18.6187ZM15.3477 18.5554L14.4617 16.7601L13.6039 18.5695L15.3477 18.5554Z" fill="#232323"/>
<path d="M15.425 25.9357L14.4524 27.785L13.5618 25.8936L15.425 25.9357Z" fill="#FFA467"/>
<path d="M14.4618 16.7603L15.3477 18.5556L13.6039 18.5696L14.4618 16.7603Z" fill="#FFA467"/>
<path d="M12.0711 24.9117C12.0835 24.9269 12.092 24.9449 12.0957 24.9641C12.0994 24.9834 12.0982 25.0032 12.0922 25.0219C12.0856 25.0407 12.0744 25.0576 12.0597 25.0711C12.045 25.0846 12.0271 25.0942 12.0078 25.0992L10.7938 25.3945C10.7845 25.3965 10.7751 25.3973 10.7656 25.3969C10.7482 25.3971 10.731 25.3934 10.7152 25.3861C10.6994 25.3788 10.6854 25.3681 10.6742 25.3547C10.6602 25.3375 10.6513 25.3168 10.6484 25.2949C10.6455 25.273 10.6488 25.2507 10.6578 25.2305L11.1828 24.0938C11.1913 24.076 11.2042 24.0607 11.2201 24.0493C11.2361 24.0378 11.2547 24.0305 11.2742 24.0281C11.294 24.0251 11.3142 24.0274 11.3327 24.0348C11.3513 24.0423 11.3675 24.0545 11.3797 24.0703L12.0711 24.9117ZM11.7711 24.9164L11.3164 24.3633L10.9719 25.1086L11.7711 24.9164ZM11.9258 19.0359C11.9316 19.0545 11.9329 19.0741 11.9297 19.0933C11.9264 19.1124 11.9187 19.1305 11.907 19.1461L11.232 20.0039C11.2212 20.0178 11.2073 20.0291 11.1915 20.0368C11.1757 20.0445 11.1583 20.0485 11.1406 20.0484C11.1366 20.0491 11.1324 20.0482 11.1289 20.0461C11.1092 20.0443 11.0903 20.0376 11.0739 20.0265C11.0575 20.0155 11.0442 20.0004 11.0352 19.9828L10.4867 18.8578C10.4774 18.8378 10.4737 18.8156 10.4762 18.7937C10.4787 18.7718 10.4872 18.751 10.5008 18.7336C10.5144 18.7163 10.5326 18.7031 10.5533 18.6956C10.574 18.6882 10.5965 18.6867 10.618 18.6914L11.8391 18.9609C11.8589 18.9646 11.8774 18.9734 11.8926 18.9866C11.9079 18.9998 11.9193 19.0168 11.9258 19.0359ZM11.1641 19.7109L11.607 19.1484L10.8055 18.9727L11.1641 19.7109Z" fill="#232323"/>
<path d="M11.3165 24.3633L11.7711 24.9164L10.9719 25.1086L11.3165 24.3633Z" fill="#FFA467"/>
<path d="M11.607 19.1484L11.164 19.7109L10.8054 18.9727L11.607 19.1484Z" fill="#FFA467"/>
<path d="M10.8594 20.7188L10.8547 22.8376C10.8537 22.8683 10.8411 22.8976 10.8193 22.9193C10.7975 22.9411 10.7683 22.9538 10.7375 22.9548C10.7197 22.9545 10.7022 22.9505 10.686 22.943L8.49925 21.879C8.47922 21.8697 8.46234 21.8548 8.45068 21.8361C8.43902 21.8173 8.43309 21.7956 8.43363 21.7735C8.43358 21.7516 8.43971 21.73 8.45132 21.7114C8.46292 21.6927 8.47953 21.6777 8.49925 21.668L10.6907 20.6134C10.7082 20.6041 10.728 20.5998 10.7479 20.601C10.7677 20.6023 10.7869 20.609 10.8032 20.6204C10.8202 20.6305 10.8344 20.645 10.8442 20.6622C10.8541 20.6795 10.8593 20.699 10.8594 20.7188ZM10.6203 22.6501L10.6227 20.904L8.818 21.7735L10.6203 22.6501Z" fill="#232323"/>
<path d="M10.6226 20.9038L10.6203 22.6499L8.81793 21.7733L10.6226 20.9038Z" fill="#FFA467"/>
</svg>
