<svg width="49" height="48" viewBox="0 0 49 48" fill="none" xmlns="http://www.w3.org/2000/svg">
<path d="M26.1793 46.4407C37.3552 46.4407 46.415 37.3809 46.415 26.205C46.415 15.0291 37.3552 5.96924 26.1793 5.96924C15.0034 5.96924 5.94351 15.0291 5.94351 26.205C5.94351 37.3809 15.0034 46.4407 26.1793 46.4407Z" fill="#FFF9ED"/>
<path d="M42.08 21.0451C41.8874 19.5994 41.5481 18.1771 41.0675 16.8001C40.5628 15.3426 39.8961 13.9464 39.08 12.6376C37.3975 9.84932 35.0708 7.50529 32.295 5.80225C29.5192 4.0992 26.3755 3.08683 23.1275 2.85011C23.5775 2.81261 24.035 2.79761 24.5 2.79761C35.8325 2.79761 45.02 12.2926 45.02 24.0001C45.02 35.7076 35.8325 45.2026 24.5 45.2026C24.035 45.2026 23.5775 45.1876 23.1275 45.1501C24.3971 45.0685 25.6556 44.8625 26.885 44.5351C29.9662 43.7103 32.8086 42.1683 35.18 40.0351C37.3171 38.1164 39.0455 35.7865 40.262 33.1848C41.4784 30.5831 42.158 27.7629 42.26 24.8926C42.275 24.6001 42.2825 24.3001 42.2825 24.0001C42.2836 23.0116 42.2159 22.0242 42.08 21.0451Z" fill="#8C64B4"/>
<path d="M42.2825 23.9999C42.2825 24.2999 42.275 24.5999 42.26 24.8924C41.9059 24.5137 41.6871 24.0285 41.6375 23.5124C41.6068 23.2787 41.5918 23.0432 41.5925 22.8074C41.5985 22.5427 41.6286 22.2791 41.6825 22.0199C41.748 21.6715 41.8832 21.3398 42.08 21.0449C42.2159 22.024 42.2835 23.0114 42.2825 23.9999Z" fill="#F2EEF7"/>
<path d="M42.08 21.045C41.8832 21.3399 41.748 21.6715 41.6825 22.02L41.615 21.9975L38.075 21.93L38 21.945C37.9825 21.6484 37.8944 21.3603 37.7431 21.1046C37.5918 20.8489 37.3816 20.633 37.13 20.475L35.4575 20.7975C35.101 19.4206 34.4794 18.1264 33.6275 16.9875L35.645 16.5375C35.7852 16.8846 36.0576 17.1618 36.4022 17.308C36.7468 17.4543 37.1354 17.4577 37.4825 17.3175C37.8296 17.1772 38.1068 16.9049 38.2531 16.5603C38.3993 16.2157 38.4027 15.8271 38.2625 15.48H38.27C38.72 16.53 40.205 15.8925 40.655 16.935L41.0675 16.8C41.5481 18.177 41.8874 19.5993 42.08 21.045Z" fill="#F2EEF7"/>
<path d="M41.615 21.9974L41.6825 22.0199C41.6286 22.2792 41.5985 22.5427 41.5925 22.8074C41.5918 23.0432 41.6068 23.2787 41.6375 23.5124L41.585 23.5199L38.045 23.4524L37.985 23.4449C38.0301 23.2125 38.0552 22.9766 38.06 22.7399C38.0673 22.4736 38.0472 22.2072 38 21.9449L38.075 21.9299L41.615 21.9974Z" fill="#F2EEF7"/>
<path d="M41.0225 29.0851C41.0139 29.0569 40.9952 29.0329 40.97 29.0176C40.9278 28.9603 40.8772 28.9098 40.82 28.8676H40.8125C40.7221 28.8017 40.6161 28.7603 40.505 28.7476C40.3664 28.7291 40.2253 28.7521 40.0998 28.8138C39.9743 28.8754 39.8698 28.9729 39.7997 29.0939C39.7295 29.2149 39.6968 29.3539 39.7057 29.4935C39.7146 29.6331 39.7646 29.7669 39.8495 29.878C39.9345 29.9892 40.0504 30.0726 40.1828 30.1179C40.3151 30.1631 40.4579 30.1681 40.5931 30.1322C40.7282 30.0963 40.8497 30.0211 40.9422 29.9161C41.0346 29.8112 41.0939 29.6812 41.1125 29.5426C41.1331 29.3843 41.1015 29.2237 41.0225 29.0851ZM36.7175 32.0476C36.7571 32.0932 36.8025 32.1336 36.8525 32.1676C36.9682 32.2462 37.1046 32.2887 37.2445 32.2898C37.3843 32.2909 37.5214 32.2505 37.6383 32.1737C37.7552 32.0969 37.8467 31.9871 37.9012 31.8583C37.9558 31.7295 37.9709 31.5874 37.9447 31.45C37.9184 31.3126 37.8521 31.1861 37.7539 31.0864C37.6558 30.9867 37.5303 30.9184 37.3933 30.89C37.2564 30.8617 37.1141 30.8745 36.9844 30.9271C36.8548 30.9796 36.7436 31.0694 36.665 31.1851C36.5794 31.3152 36.5382 31.4696 36.5477 31.6251C36.5571 31.7805 36.6167 31.9288 36.7175 32.0476ZM41.6375 23.5126C41.6871 24.0286 41.9059 24.5138 42.26 24.8926C42.1579 27.7628 41.4784 30.583 40.2619 33.1848C39.0455 35.7865 37.3171 38.1163 35.18 40.0351L34.91 39.7276C35.0573 39.5918 35.1743 39.4265 35.2534 39.2425C35.3325 39.0585 35.3719 38.8599 35.3691 38.6596C35.3662 38.4593 35.3212 38.2619 35.2369 38.0802C35.1527 37.8985 35.031 37.7366 34.88 37.6051L33.0275 36.3826V36.3751C33.255 36.4575 33.5044 36.4558 33.7308 36.3704C33.9572 36.285 34.1456 36.1214 34.2619 35.9093C34.3783 35.6971 34.4149 35.4504 34.3653 35.2136C34.3156 34.9768 34.1829 34.7655 33.9911 34.618C33.7993 34.4705 33.5611 34.3964 33.3195 34.4091C33.0779 34.4218 32.8487 34.5206 32.6735 34.6874C32.4983 34.8543 32.3886 35.0783 32.3641 35.3191C32.3396 35.5598 32.402 35.8013 32.54 36.0001L31.085 36.0526C30.9069 35.7142 30.6184 35.4469 30.2675 35.2951C30.1559 35.2575 30.04 35.2348 29.9225 35.2276L30.0725 33.1726C31.6178 32.332 32.9383 31.1321 33.9225 29.6741C34.9067 28.216 35.5258 26.5426 35.7275 24.7951L37.04 24.9601C37.3081 24.8026 37.5341 24.5825 37.6987 24.3187C37.8632 24.0549 37.9615 23.7551 37.985 23.4451L38.045 23.4526L41.585 23.5201L41.6375 23.5126Z" fill="#F2EEF7"/>
<path d="M41.0225 29.0849C41.1015 29.2236 41.1331 29.3842 41.1125 29.5424C41.0939 29.6811 41.0347 29.8111 40.9422 29.916C40.8498 30.021 40.7283 30.0961 40.5931 30.132C40.4579 30.1679 40.3151 30.163 40.1828 30.1177C40.0504 30.0725 39.9345 29.989 39.8496 29.8779C39.7647 29.7668 39.7146 29.633 39.7057 29.4934C39.6968 29.3538 39.7295 29.2147 39.7997 29.0937C39.8698 28.9728 39.9743 28.8753 40.0998 28.8136C40.2254 28.752 40.3664 28.729 40.505 28.7475C40.6162 28.7602 40.7221 28.8015 40.8125 28.8675H40.82C40.8772 28.9097 40.9278 28.9602 40.97 29.0175C40.9898 29.0381 41.0074 29.0607 41.0225 29.0849ZM41.0675 16.8L40.655 16.935C40.205 15.8925 38.72 16.53 38.27 15.48C37.82 14.43 39.32 13.8075 38.8775 12.765L39.08 12.6375C39.8961 13.9462 40.5628 15.3425 41.0675 16.8Z" fill="#F2EEF7"/>
<path d="M11.9375 26.9326L11.8475 27.0601C12.8075 28.2301 9.78499 29.0551 9.78499 29.0551C8.56999 29.4226 7.41499 29.8951 7.49749 30.3751C7.57999 30.8551 9.04249 30.6526 10.3625 30.3526C9.11749 30.7276 7.80499 31.2301 7.93249 31.6726C8.04499 32.0551 12.8075 30.7126 12.9125 31.0951C13.0175 31.4776 8.25499 32.8276 8.36749 33.2101L6.45499 34.1026C4.74887 30.8304 3.89946 27.1794 3.98602 23.4901C4.07258 19.8009 5.09229 16.1937 6.94999 13.0051C7.97166 11.2684 9.2342 9.68515 10.7 8.3026C14.0859 5.10053 18.4785 3.1733 23.1275 2.8501C26.3754 3.08682 29.5192 4.09919 32.295 5.80224C35.0708 7.50528 37.3975 9.84931 39.08 12.6376L38.8775 12.7651C39.32 13.8076 37.8275 14.4376 38.27 15.4801H38.2625C38.261 15.4618 38.2559 15.4439 38.2475 15.4276C38.1746 15.2567 38.0688 15.1019 37.9361 14.9719C37.8033 14.8419 37.6463 14.7393 37.4739 14.67C37.3016 14.6007 37.1172 14.5661 36.9315 14.568C36.7457 14.57 36.5621 14.6085 36.3912 14.6813C36.2204 14.7542 36.0655 14.8601 35.9355 14.9928C35.8055 15.1255 35.703 15.2826 35.6337 15.4549C35.5644 15.6273 35.5297 15.8116 35.5317 15.9974C35.5336 16.1832 35.5721 16.3667 35.645 16.5376L33.6275 16.9876C32.0814 14.9164 29.8528 13.4586 27.3357 12.8719C24.8186 12.2853 22.1751 12.6075 19.8726 13.7816C17.5701 14.9557 15.7569 16.9062 14.7536 19.2881C13.7503 21.67 13.6215 24.3299 14.39 26.7976L12.485 27.3301L11.9375 26.9326ZM10.91 16.7776C11.1159 16.9152 11.3597 16.9849 11.6072 16.9769C11.8547 16.9688 12.0935 16.8834 12.29 16.7326C12.5419 16.5927 12.7301 16.361 12.8154 16.0857C12.9006 15.8104 12.8763 15.5129 12.7475 15.2551C12.5555 15.0391 12.2873 14.9059 11.9992 14.8835C11.7111 14.8611 11.4255 14.9513 11.2025 15.1351C10.9499 15.2743 10.7616 15.5066 10.6775 15.7825C10.5935 16.0584 10.6204 16.3562 10.7525 16.6126C10.7951 16.6763 10.8483 16.7321 10.91 16.7776Z" fill="#F2EEF7"/>
<path d="M38.2625 15.48C38.3488 15.8084 38.3021 16.1576 38.1325 16.4517C37.9629 16.7459 37.6841 16.9613 37.3567 17.0511C37.0292 17.141 36.6795 17.098 36.3835 16.9315C36.0876 16.765 35.8693 16.4885 35.776 16.162C35.6827 15.8355 35.722 15.4854 35.8853 15.1877C36.0486 14.89 36.3228 14.6687 36.6483 14.572C36.9738 14.4752 37.3243 14.5108 37.6238 14.671C37.9232 14.8312 38.1473 15.103 38.2475 15.4275C38.2559 15.4438 38.261 15.4616 38.2625 15.48ZM38 21.945C38.0472 22.2072 38.0673 22.4736 38.06 22.74C38.0552 22.9767 38.0301 23.2125 37.985 23.445C37.9615 23.755 37.8632 24.0548 37.6987 24.3186C37.5341 24.5824 37.3081 24.8025 37.04 24.96L35.7275 24.795C35.7791 24.377 35.8041 23.9561 35.8025 23.535C35.8029 22.6116 35.687 21.6918 35.4575 20.7975L37.13 20.475C37.3816 20.633 37.5917 20.8489 37.7431 21.1046C37.8944 21.3602 37.9825 21.6484 38 21.945ZM37.6475 30.9975C37.7308 31.0539 37.8011 31.1274 37.8537 31.2131C37.9063 31.2989 37.94 31.3948 37.9526 31.4946C37.9652 31.5945 37.9563 31.6958 37.9266 31.7919C37.8969 31.888 37.847 31.9767 37.7803 32.052C37.7136 32.1273 37.6316 32.1875 37.5398 32.2286C37.448 32.2697 37.3485 32.2907 37.2479 32.2903C37.1473 32.2899 37.048 32.268 36.9565 32.2261C36.865 32.1842 36.7835 32.1233 36.7175 32.0475C36.6167 31.9287 36.5571 31.7804 36.5477 31.6249C36.5382 31.4695 36.5794 31.3151 36.665 31.185C36.7168 31.1077 36.7834 31.0414 36.861 30.9901C36.9386 30.9387 37.0257 30.9033 37.1171 30.8859C37.2085 30.8684 37.3024 30.8693 37.3935 30.8885C37.4845 30.9076 37.5709 30.9447 37.6475 30.9975Z" fill="#F2EEF7"/>
<path d="M35.8025 23.5349C35.8041 23.9561 35.7791 24.3769 35.7275 24.7949C35.4238 27.4655 34.147 29.9306 32.141 31.7194C30.135 33.5082 27.5403 34.4954 24.8525 34.4924C24.1092 34.4941 23.3677 34.4187 22.64 34.2674C20.6074 33.8514 18.7345 32.8673 17.2389 31.4293C15.7434 29.9913 14.6865 28.1584 14.1911 26.1437C13.6957 24.1289 13.7822 22.015 14.4404 20.0474C15.0986 18.0798 16.3015 16.3394 17.9095 15.0283C19.5175 13.7172 21.4645 12.8892 23.5243 12.6406C25.5841 12.3919 27.6721 12.7328 29.5459 13.6236C31.4197 14.5144 33.0022 15.9186 34.1097 17.6731C35.2172 19.4275 35.8042 21.4602 35.8025 23.5349ZM30.215 23.6774C30.2142 22.6012 29.8944 21.5494 29.2959 20.655C28.6974 19.7606 27.8471 19.0638 26.8526 18.6527C25.858 18.2415 24.7639 18.1345 23.7085 18.3452C22.6532 18.5559 21.684 19.0748 20.9235 19.8363C20.1631 20.5978 19.6455 21.5677 19.4363 22.6233C19.2271 23.6789 19.3356 24.7729 19.7481 25.7669C20.1606 26.7609 20.8586 27.6102 21.7539 28.2075C22.6491 28.8047 23.7013 29.1231 24.7775 29.1224C25.492 29.1219 26.1995 28.9807 26.8595 28.7068C27.5195 28.4329 28.119 28.0317 28.6239 27.526C29.1289 27.0204 29.5292 26.4203 29.8022 25.76C30.0752 25.0996 30.2155 24.392 30.215 23.6774Z" fill="#8C64B4"/>
<path d="M24.515 37.8976C24.485 38.1901 24.38 39.2326 24.3425 40.3351C24.4625 39.2326 24.5075 38.1826 24.515 37.8976ZM24.335 40.3726C24.17 41.8726 23.87 43.4626 23.33 43.3726C22.79 43.2826 22.7 41.8726 22.7375 40.4326L22.6925 40.4026C22.7091 40.3786 22.7242 40.3536 22.7375 40.3276H22.76C23.15 39.6076 22.9325 38.4376 22.6625 37.5376C22.5322 37.1055 22.3744 36.6821 22.19 36.2701L22.64 34.2676C23.3677 34.4189 24.1092 34.4943 24.8525 34.4926C26.6753 34.4945 28.4697 34.0407 30.0725 33.1726L29.9225 35.2276C30.04 35.2349 30.156 35.2576 30.2675 35.2951C30.6185 35.4469 30.9069 35.7142 31.085 36.0526C31.1485 36.162 31.2061 36.2746 31.2575 36.3901C31.4975 36.9001 31.7075 37.4251 31.9475 37.9351C32.1482 38.3878 32.3839 38.8241 32.6525 39.2401C32.757 39.4475 32.9037 39.6307 33.0832 39.778C33.2628 39.9252 33.4712 40.0332 33.695 40.0951C33.9121 40.1319 34.1349 40.1179 34.3457 40.0541C34.5565 39.9904 34.7497 39.8786 34.91 39.7276L35.18 40.0351C32.8086 42.1683 29.9662 43.7103 26.885 44.5351L26.6825 43.4626C26.2325 43.4401 26.5175 37.8451 26.0675 37.8226C25.6175 37.8226 25.325 43.3726 24.875 43.3726C24.365 43.3501 24.2975 41.8201 24.335 40.3726Z" fill="#F2EEF7"/>
<path d="M34.88 37.605C35.1131 37.8113 35.2729 38.0878 35.3351 38.3929C35.3972 38.6979 35.3585 39.0149 35.2247 39.296C35.091 39.5772 34.8694 39.8071 34.5934 39.9512C34.3175 40.0954 34.0021 40.1458 33.695 40.095C33.4712 40.0331 33.2628 39.9251 33.0832 39.7779C32.9037 39.6306 32.757 39.4474 32.6525 39.24C32.3839 38.824 32.1482 38.3877 31.9475 37.935C31.7075 37.425 31.4975 36.9 31.2575 36.39C31.206 36.2745 31.1485 36.1618 31.085 36.0525L32.54 36C32.6618 36.1705 32.8315 36.301 33.0275 36.375V36.3825L34.88 37.605Z" fill="#F2EEF7"/>
<path d="M33.74 34.4551C33.8661 34.5019 33.9817 34.573 34.0802 34.6645C34.1788 34.756 34.2584 34.866 34.3145 34.9882C34.3705 35.1104 34.402 35.2425 34.407 35.3769C34.412 35.5112 34.3905 35.6453 34.3437 35.7714C34.297 35.8974 34.2258 36.013 34.1343 36.1116C34.0429 36.2102 33.9329 36.2898 33.8107 36.3458C33.6884 36.4019 33.5564 36.4333 33.422 36.4384C33.2876 36.4434 33.1536 36.4219 33.0275 36.3751C32.8315 36.3011 32.6618 36.1706 32.54 36.0001C32.4173 35.8205 32.3548 35.6066 32.3615 35.3892C32.3681 35.1718 32.4436 34.9621 32.577 34.7903C32.7104 34.6186 32.8949 34.4935 33.1039 34.4333C33.3129 34.3731 33.5356 34.3807 33.74 34.4551ZM10.3625 30.3526C9.04249 30.6526 7.57249 30.8626 7.49749 30.3751C7.42249 29.8876 8.56999 29.4226 9.78499 29.0551C9.78499 29.0551 12.8075 28.2301 11.8475 27.0601L11.9375 26.9326L12.485 27.3301L14.39 26.7976C14.9737 28.6655 16.0466 30.3432 17.4972 31.6567C18.9479 32.9702 20.7235 33.8716 22.64 34.2676L22.19 36.2701C22.3743 36.6821 22.5322 37.1055 22.6625 37.5376C20.195 40.2076 21.53 41.2126 22.2725 40.8076C22.4482 40.7154 22.594 40.5749 22.6925 40.4026L22.7375 40.4326C22.7 41.8726 22.7825 43.2826 23.33 43.3726C23.8775 43.4626 24.17 41.8726 24.335 40.3726C24.2975 41.8201 24.365 43.3501 24.875 43.3726C25.325 43.3726 25.6175 37.8226 26.0675 37.8226C26.5175 37.8451 26.2325 43.4401 26.6825 43.4626L26.885 44.5351C25.6556 44.8625 24.3971 45.0685 23.1275 45.1501C19.636 44.8871 16.2701 43.7335 13.3513 41.7994C10.4325 39.8654 8.05819 37.2154 6.45499 34.1026L8.36749 33.2101C8.25499 32.8276 13.025 31.4851 12.9125 31.0951C12.8 30.7051 8.04499 32.0551 7.93249 31.6726C7.80499 31.2301 9.11749 30.7276 10.3625 30.3526ZM12.425 29.8201C12.2075 29.8651 11.3075 30.0676 10.37 30.3526C11.33 30.1351 12.215 29.8801 12.425 29.8201Z" fill="#F2EEF7"/>
<path d="M22.6625 37.5376C22.9325 38.4376 23.15 39.6076 22.76 40.3276H22.7375C22.7242 40.3535 22.7091 40.3786 22.6925 40.4026C22.594 40.5748 22.4482 40.7154 22.2725 40.8076C21.53 41.2126 20.195 40.2076 22.6625 37.5376ZM10.91 16.7776C10.8484 16.7321 10.7951 16.6763 10.7525 16.6126C10.6204 16.3562 10.5935 16.0584 10.6775 15.7825C10.7616 15.5066 10.9499 15.2743 11.2025 15.1351C11.4255 14.9513 11.7111 14.8611 11.9992 14.8835C12.2873 14.9059 12.5555 15.0391 12.7475 15.2551C12.8763 15.5128 12.9006 15.8104 12.8154 16.0857C12.7302 16.3609 12.5419 16.5927 12.29 16.7326C12.0935 16.8833 11.8548 16.9688 11.6072 16.9768C11.3597 16.9849 11.1159 16.9152 10.91 16.7776Z" fill="#F2EEF7"/>
<path d="M24.5 2.04834C12.77 2.04834 3.22699 11.8958 3.22699 24.0001C3.22699 36.1043 12.77 45.9518 24.5 45.9518C36.23 45.9518 45.773 36.1043 45.773 24.0001C45.773 11.8958 36.23 2.04834 24.5 2.04834ZM24.5 44.4518C13.5972 44.4518 4.72699 35.2771 4.72699 24.0001C4.72699 12.7231 13.5972 3.54834 24.5 3.54834C35.4027 3.54834 44.273 12.7231 44.273 24.0001C44.273 35.2771 35.4027 44.4518 24.5 44.4518Z" fill="#232323"/>
<path d="M22.8088 7.29142C22.8088 7.39088 22.8483 7.48626 22.9186 7.55659C22.9889 7.62691 23.0843 7.66642 23.1838 7.66642H23.7598C23.7618 7.93157 23.699 8.19319 23.5767 8.42849C23.4545 8.66379 23.2766 8.86563 23.0585 9.01642C22.9748 9.04569 22.9041 9.1037 22.8591 9.18013C22.8141 9.25657 22.7976 9.3465 22.8126 9.43392C22.8277 9.52135 22.8732 9.60062 22.9411 9.65766C23.0091 9.71469 23.095 9.74578 23.1838 9.74542C23.2264 9.74547 23.2687 9.73837 23.309 9.72442C23.6767 9.52189 23.9825 9.22335 24.1939 8.86065C24.4052 8.49794 24.5141 8.08468 24.509 7.66492H25.259C25.2538 8.08469 25.3627 8.49799 25.574 8.86071C25.7854 9.22343 26.0913 9.52196 26.459 9.72442C26.4993 9.73837 26.5416 9.74547 26.5843 9.74542C26.673 9.74578 26.7589 9.71469 26.8269 9.65766C26.8948 9.60062 26.9403 9.52135 26.9554 9.43392C26.9704 9.3465 26.9539 9.25657 26.9089 9.18013C26.8639 9.1037 26.7932 9.04569 26.7095 9.01642C26.4916 8.86551 26.314 8.66361 26.192 8.4283C26.07 8.193 26.0075 7.93144 26.0098 7.66642H26.5843C26.6837 7.66642 26.7791 7.62691 26.8494 7.55659C26.9197 7.48626 26.9593 7.39088 26.9593 7.29142C26.9593 7.19197 26.9197 7.09658 26.8494 7.02626C26.7791 6.95593 26.6837 6.91642 26.5843 6.91642H26.015C26.0129 6.65142 26.0755 6.38991 26.1974 6.15463C26.3194 5.91935 26.497 5.71743 26.7148 5.56642C26.7612 5.54997 26.8039 5.52454 26.8405 5.49157C26.8772 5.45861 26.9069 5.41875 26.9281 5.37428C26.9493 5.32982 26.9616 5.28161 26.9641 5.23241C26.9667 5.18321 26.9596 5.13399 26.9431 5.08755C26.9267 5.04111 26.9012 4.99836 26.8683 4.96176C26.8353 4.92515 26.7955 4.89539 26.751 4.87418C26.7065 4.85298 26.6583 4.84073 26.6091 4.83816C26.5599 4.83558 26.5107 4.84272 26.4643 4.85917C26.0964 5.06151 25.7904 5.36001 25.5791 5.72276C25.3677 6.08551 25.2589 6.49887 25.2643 6.91867H24.5143C24.5196 6.49887 24.4108 6.08551 24.1994 5.72276C23.9881 5.36001 23.6821 5.06151 23.3143 4.85917C23.2678 4.84272 23.2186 4.83558 23.1694 4.83816C23.1202 4.84073 23.072 4.85298 23.0275 4.87418C22.9831 4.89539 22.9432 4.92515 22.9102 4.96176C22.8773 4.99836 22.8518 5.04111 22.8354 5.08755C22.8189 5.13399 22.8118 5.18321 22.8144 5.23241C22.8169 5.28161 22.8292 5.32982 22.8504 5.37428C22.8716 5.41875 22.9014 5.45861 22.938 5.49157C22.9746 5.52454 23.0173 5.54997 23.0638 5.56642C23.2818 5.71731 23.4596 5.91917 23.5818 6.15445C23.704 6.38973 23.7669 6.6513 23.765 6.91642H23.189C23.1393 6.91573 23.09 6.92491 23.0439 6.94345C22.9978 6.96198 22.9558 6.98949 22.9204 7.02438C22.8851 7.05928 22.857 7.10085 22.8378 7.14669C22.8186 7.19254 22.8088 7.24173 22.8088 7.29142ZM31.1293 8.01892C31.1664 7.98654 31.1968 7.94715 31.2188 7.903C31.2407 7.85885 31.2537 7.81081 31.257 7.76164C31.2604 7.71246 31.254 7.6631 31.2382 7.61639C31.2225 7.56968 31.1977 7.52654 31.1653 7.48942C31.1049 7.41968 31.0674 7.33307 31.0578 7.24131C31.0483 7.14955 31.0672 7.05708 31.112 6.97642C31.1706 6.87313 31.2677 6.79719 31.382 6.76516C31.4964 6.73312 31.6188 6.7476 31.7225 6.80542C31.8142 6.85821 31.8847 6.94118 31.922 7.04017C31.9701 7.25038 31.9574 7.46994 31.8853 7.67317L31.85 7.83142C31.775 8.19742 31.6903 8.56117 31.6048 8.92342C31.5133 9.30817 31.418 9.69292 31.3235 10.0777C31.2343 10.4369 31.145 10.7969 31.0595 11.1562C31.0588 11.1699 31.0588 11.1837 31.0595 11.1974C31.0573 11.2224 31.0573 11.2475 31.0595 11.2724C31.0617 11.2963 31.0663 11.3199 31.073 11.3429C31.0794 11.3651 31.0876 11.3867 31.0978 11.4074C31.109 11.4306 31.1231 11.4523 31.1398 11.4719C31.1466 11.4839 31.1541 11.4954 31.1623 11.5064C31.169 11.5132 31.178 11.5154 31.1855 11.5222C31.2051 11.5381 31.2262 11.5522 31.2485 11.5642C31.2698 11.5771 31.2924 11.5876 31.316 11.5957C31.325 11.5957 31.3318 11.6047 31.3415 11.6077C31.4141 11.6245 31.4901 11.6193 31.5598 11.5927C31.5725 11.5874 31.5838 11.5792 31.5958 11.5732C31.6249 11.5589 31.6521 11.541 31.6768 11.5199C31.6813 11.5154 31.688 11.5139 31.6925 11.5094C31.9425 11.2594 32.1925 11.0094 32.4425 10.7594C32.7343 10.4677 33.0253 10.1752 33.32 9.88642C33.5855 9.62442 33.854 9.36567 34.1255 9.11017L34.238 8.99992C34.3755 8.83275 34.5575 8.70794 34.763 8.63992C34.8673 8.6209 34.9749 8.63866 35.0675 8.69017C35.1187 8.7189 35.1637 8.75748 35.1998 8.8037C35.236 8.84991 35.2627 8.90284 35.2783 8.95942C35.2944 9.01581 35.2991 9.07487 35.292 9.13311C35.2849 9.19134 35.2662 9.24756 35.237 9.29842C35.1918 9.37982 35.1224 9.44518 35.0384 9.48548C34.9545 9.52577 34.8601 9.53903 34.7683 9.52342C34.719 9.51319 34.6681 9.51298 34.6187 9.52282C34.5694 9.53265 34.5225 9.55233 34.4809 9.58068C34.4393 9.60902 34.4038 9.64546 34.3766 9.68781C34.3493 9.73016 34.3309 9.77755 34.3224 9.82717C34.3139 9.87679 34.3155 9.92762 34.327 9.97662C34.3386 10.0256 34.3599 10.0718 34.3896 10.1124C34.4194 10.153 34.4571 10.1872 34.5003 10.2129C34.5436 10.2386 34.5916 10.2554 34.6415 10.2622C34.8404 10.2961 35.0446 10.2793 35.2353 10.2133C35.426 10.1474 35.597 10.0345 35.7324 9.88494C35.8679 9.73541 35.9635 9.55415 36.0103 9.3579C36.0572 9.16166 36.0538 8.95676 36.0005 8.76217C35.9587 8.61055 35.8872 8.46875 35.7901 8.34502C35.693 8.22128 35.5723 8.11808 35.435 8.04142C35.1878 7.90202 34.8992 7.85472 34.6205 7.90792C34.2709 7.99805 33.957 8.1924 33.7205 8.46517L33.6133 8.56867C33.3358 8.82817 33.0635 9.09367 32.7935 9.35767C32.564 9.58267 32.3368 9.81142 32.1088 10.0387C32.1838 9.72667 32.2633 9.41392 32.3338 9.10042C32.4213 8.73242 32.5045 8.36217 32.5835 7.98967L32.6158 7.84417C32.7272 7.49995 32.7306 7.12988 32.6255 6.78367C32.5658 6.61702 32.47 6.46564 32.3449 6.34039C32.2198 6.21514 32.0685 6.11912 31.9019 6.05922C31.7353 5.99931 31.5576 5.97701 31.3813 5.9939C31.2051 6.01078 31.0348 6.06645 30.8826 6.15691C30.7305 6.24737 30.6002 6.37037 30.5012 6.5171C30.4021 6.66383 30.3368 6.83066 30.3098 7.00562C30.2829 7.18058 30.2949 7.35934 30.3452 7.52908C30.3954 7.69882 30.4826 7.85534 30.6005 7.98742C30.6665 8.06161 30.7592 8.10659 30.8584 8.11249C30.9575 8.1184 31.0549 8.08475 31.1293 8.01892ZM35.2873 15.3149C35.1924 15.5343 35.1423 15.7705 35.1402 16.0095C35.138 16.2485 35.1837 16.4855 35.2746 16.7066C35.3655 16.9277 35.4998 17.1283 35.6695 17.2966C35.8392 17.465 36.0408 17.5976 36.2626 17.6868C36.4844 17.7759 36.7218 17.8198 36.9608 17.8157C37.1998 17.8117 37.4355 17.7598 37.6542 17.6631C37.8728 17.5665 38.0698 17.4271 38.2337 17.253C38.3976 17.079 38.5249 16.874 38.6083 16.6499C38.6425 16.56 38.6696 16.4674 38.6893 16.3732C38.9139 16.4626 39.1468 16.5299 39.3845 16.5742C39.881 16.6784 40.1683 16.7542 40.307 17.0812C40.3263 17.1265 40.3543 17.1675 40.3895 17.202C40.4247 17.2365 40.4663 17.2637 40.512 17.2821C40.5577 17.3005 40.6065 17.3097 40.6558 17.3092C40.705 17.3087 40.7537 17.2985 40.799 17.2792C40.8443 17.2599 40.8854 17.2318 40.9198 17.1967C40.9543 17.1615 40.9815 17.1199 40.9999 17.0742C41.0183 17.0285 41.0275 16.9796 41.027 16.9304C41.0265 16.8811 41.0163 16.8325 40.997 16.7872C40.858 16.5159 40.6504 16.2858 40.3949 16.1196C40.1394 15.9534 39.8448 15.857 39.5405 15.8399C39.044 15.7349 38.7568 15.6599 38.6173 15.3322C38.4778 15.0044 38.6233 14.7479 38.891 14.3182C39.0903 14.0874 39.2255 13.8083 39.2831 13.5089C39.3408 13.2095 39.3188 12.9002 39.2195 12.6119C39.1804 12.5204 39.1066 12.4482 39.0142 12.4111C38.9219 12.3741 38.8186 12.3752 38.7271 12.4143C38.6356 12.4534 38.5634 12.5272 38.5263 12.6196C38.4893 12.7119 38.4904 12.8152 38.5295 12.9067C38.669 13.2322 38.5235 13.4909 38.2558 13.9207C38.1358 14.1028 38.0309 14.2944 37.9423 14.4937C37.8397 14.4252 37.7304 14.3674 37.616 14.3212C37.1762 14.1445 36.6842 14.1498 36.2483 14.3357C35.8123 14.5216 35.468 14.873 35.291 15.3127L35.2873 15.3149ZM35.9825 15.5947C36.0602 15.4023 36.1936 15.2374 36.3655 15.1213C36.5375 15.0052 36.7402 14.9431 36.9478 14.9429C37.0808 14.9431 37.2127 14.9685 37.3363 15.0179C37.5278 15.0942 37.6924 15.2255 37.8091 15.3954C37.9259 15.5653 37.9896 15.766 37.9922 15.9721C37.9947 16.1783 37.9361 16.3805 37.8236 16.5532C37.7111 16.726 37.5498 16.8614 37.3602 16.9424C37.1707 17.0234 36.9613 17.0463 36.7587 17.0082C36.5562 16.97 36.3695 16.8726 36.2223 16.7283C36.0751 16.5839 35.9741 16.3991 35.9321 16.1973C35.8901 15.9955 35.9089 15.7858 35.9863 15.5947H35.9825ZM42.6673 24.7192C42.3095 24.5752 41.9518 23.8192 41.9713 22.8119C41.9908 21.8047 42.3763 21.0644 42.7385 20.9324C42.7875 20.9179 42.833 20.8935 42.8722 20.8608C42.9114 20.828 42.9435 20.7876 42.9665 20.7421C42.9895 20.6965 43.003 20.6467 43.0061 20.5957C43.0092 20.5447 43.0019 20.4936 42.9845 20.4456C42.9672 20.3975 42.9402 20.3535 42.9053 20.3163C42.8703 20.2791 42.8281 20.2493 42.7813 20.229C42.7344 20.2086 42.6839 20.1981 42.6329 20.1979C42.5818 20.1978 42.5312 20.2081 42.4843 20.2282C42.2125 20.3647 41.9748 20.5604 41.7887 20.8009C41.6025 21.0414 41.4727 21.3206 41.4088 21.6179L38.2948 21.5587C38.2435 21.258 38.1244 20.9729 37.9464 20.725C37.7685 20.4772 37.5365 20.2732 37.268 20.1284C37.1757 20.0911 37.0724 20.092 36.9807 20.1309C36.8891 20.1698 36.8167 20.2435 36.7794 20.3358C36.7421 20.4281 36.743 20.5314 36.7819 20.6231C36.8208 20.7147 36.8945 20.7871 36.9868 20.8244C37.3445 20.9684 37.703 21.7244 37.6828 22.7317C37.6625 23.7389 37.2778 24.4799 36.9155 24.6067C36.8321 24.6364 36.7619 24.6946 36.7173 24.7711C36.6728 24.8476 36.6567 24.9374 36.672 25.0246C36.6872 25.1118 36.7329 25.1908 36.8008 25.2476C36.8687 25.3044 36.9545 25.3353 37.043 25.3349C37.0864 25.3346 37.1295 25.3272 37.1705 25.3132C37.4551 25.1668 37.7023 24.957 37.8932 24.7001C38.0841 24.4432 38.2135 24.1459 38.2715 23.8312L41.3368 23.8897C41.3814 24.2076 41.4996 24.5107 41.6818 24.775C41.8641 25.0393 42.1055 25.2575 42.3868 25.4122C42.4314 25.4298 42.479 25.439 42.527 25.4392C42.6142 25.4395 42.6988 25.4094 42.7662 25.354C42.8336 25.2987 42.8797 25.2216 42.8964 25.136C42.9131 25.0503 42.8994 24.9616 42.8577 24.885C42.816 24.8084 42.7489 24.7487 42.668 24.7162L42.6673 24.7192ZM41.231 23.1404L38.4095 23.0864C38.42 22.9747 38.4305 22.8614 38.4328 22.7452C38.4328 22.5952 38.4328 22.4527 38.42 22.3109L41.2505 22.3649C41.2348 22.5059 41.2243 22.6507 41.2213 22.7977C41.219 22.9147 41.225 23.0249 41.231 23.1404ZM41.0473 28.5802C41.0368 28.5734 41.0308 28.5622 41.0203 28.5554C41.0098 28.5487 41.0083 28.5554 41.0023 28.5479C40.8665 28.459 40.7124 28.4018 40.5515 28.3806C40.3905 28.3594 40.2269 28.3747 40.0727 28.4254C39.9185 28.476 39.7777 28.5608 39.6607 28.6734C39.5438 28.7859 39.4537 28.9234 39.3971 29.0755C39.3406 29.2277 39.319 29.3906 39.3341 29.5522C39.3491 29.7139 39.4004 29.87 39.4841 30.0091C39.5677 30.1482 39.6816 30.2667 39.8173 30.3557C39.9531 30.4447 40.1071 30.5021 40.268 30.5234C40.3155 30.5294 40.3634 30.5324 40.4113 30.5324C40.531 30.5305 40.6496 30.5087 40.7623 30.4679C40.6567 30.8355 40.4931 31.1839 40.2778 31.4999C39.9256 32.0825 39.3727 32.5162 38.723 32.7194C38.6319 32.7379 38.5509 32.7896 38.4957 32.8645C38.4405 32.9394 38.4152 33.0321 38.4245 33.1246C38.4339 33.2171 38.4773 33.3029 38.5463 33.3652C38.6153 33.4276 38.705 33.462 38.798 33.4619C38.8232 33.4622 38.8484 33.4597 38.873 33.4544C39.7182 33.2173 40.443 32.6701 40.9025 31.9222C41.2928 31.3712 41.536 30.7297 41.609 30.0584C41.6387 29.8327 41.6233 29.6033 41.5637 29.3835C41.5041 29.1637 41.4015 28.958 41.2618 28.7782C41.1991 28.7032 41.127 28.6366 41.0473 28.5802ZM40.3678 29.7802C40.2803 29.7681 40.2011 29.7218 40.1476 29.6516C40.0941 29.5813 40.0705 29.4927 40.082 29.4052C40.0876 29.362 40.1017 29.3203 40.1234 29.2826C40.1452 29.2449 40.1742 29.2119 40.2088 29.1854C40.2791 29.1324 40.3673 29.1087 40.4548 29.1194C40.5229 29.1303 40.5858 29.1623 40.6348 29.2109C40.6512 29.226 40.6667 29.242 40.6813 29.2589C40.7208 29.3113 40.7438 29.3743 40.7474 29.4399C40.7509 29.5054 40.7349 29.5706 40.7012 29.6269C40.6675 29.6833 40.6178 29.7284 40.5584 29.7563C40.499 29.7843 40.4326 29.7939 40.3678 29.7839V29.7802ZM37.8605 30.6847C37.7212 30.591 37.562 30.5311 37.3955 30.5096C37.229 30.4881 37.0598 30.5057 36.9013 30.5609C37.0075 30.1948 37.171 29.8477 37.3858 29.5327C37.7377 28.95 38.2907 28.5162 38.9405 28.3132C39.034 28.29 39.115 28.2318 39.1667 28.1505C39.2184 28.0693 39.2368 27.9712 39.2182 27.8767C39.1996 27.7822 39.1454 27.6985 39.0667 27.6429C38.9881 27.5874 38.891 27.5642 38.7958 27.5782C37.9503 27.8153 37.2253 28.3624 36.7655 29.1104C36.3758 29.6617 36.1329 30.3031 36.0598 30.9742C36.0131 31.2535 36.0425 31.5402 36.1451 31.8042C36.2477 32.0682 36.4195 32.2996 36.6425 32.4742C36.8212 32.5965 37.0327 32.6621 37.2493 32.6624C37.3178 32.6624 37.3861 32.6556 37.4533 32.6422C37.6638 32.6025 37.8579 32.5011 38.0109 32.351C38.1638 32.2009 38.2687 32.0088 38.3123 31.7989C38.356 31.5891 38.3363 31.3711 38.2559 31.1724C38.1754 30.9738 38.0378 30.8035 37.8605 30.6832V30.6847ZM37.5268 31.7677C37.5023 31.8039 37.4709 31.8349 37.4343 31.8588C37.3977 31.8828 37.3567 31.8992 37.3138 31.9072C37.271 31.916 37.2268 31.9161 37.184 31.9073C37.1412 31.8985 37.1006 31.8811 37.0648 31.8562C37.03 31.8293 36.9993 31.7978 36.9733 31.7624C36.9497 31.7258 36.9332 31.6851 36.9245 31.6424C36.9162 31.5996 36.9165 31.5555 36.9254 31.5127C36.9343 31.47 36.9515 31.4294 36.9763 31.3934C37.0067 31.3488 37.0475 31.3123 37.0952 31.287C37.1429 31.2616 37.196 31.2482 37.25 31.2479C37.3166 31.2476 37.3817 31.2675 37.4368 31.3049C37.5098 31.3546 37.5603 31.4311 37.5771 31.5177C37.594 31.6044 37.5759 31.6943 37.5268 31.7677ZM34.0753 36.6262C34.3072 36.4956 34.4969 36.3013 34.622 36.0664C34.7471 35.8315 34.8024 35.5657 34.7814 35.3003C34.7603 35.035 34.6638 34.7812 34.5032 34.569C34.3426 34.3567 34.1246 34.1948 33.875 34.1024C33.5381 33.9808 33.1674 33.9933 32.8395 34.1373C32.5115 34.2813 32.2514 34.5457 32.113 34.876C31.9745 35.2063 31.9682 35.5772 32.0954 35.912C32.2226 36.2468 32.4736 36.5199 32.7965 36.6749C32.8048 36.6809 32.8093 36.6899 32.8183 36.6959L34.6325 37.8817C34.7437 37.9793 34.8332 38.0992 34.8952 38.2336C34.9573 38.3679 34.9905 38.5138 34.9926 38.6618C34.9948 38.8097 34.966 38.9565 34.908 39.0927C34.8499 39.2288 34.764 39.3513 34.6558 39.4522C34.5364 39.563 34.3932 39.645 34.2372 39.6919C34.0812 39.7389 33.9165 39.7495 33.7558 39.7229C33.4205 39.6667 33.2083 39.3862 32.966 39.0239C32.7052 38.6262 32.477 38.2081 32.2835 37.7737C32.1695 37.5277 32.0585 37.2779 31.9513 37.0282C31.8343 36.7604 31.718 36.4927 31.5943 36.2279C31.49 35.9447 31.3301 35.6852 31.124 35.4647C30.9179 35.2441 30.6698 35.0671 30.3943 34.9439C30.1635 34.853 29.9131 34.8238 29.6676 34.8593C29.4222 34.8948 29.1902 34.9938 28.9948 35.1464C28.7062 35.3778 28.5214 35.7143 28.4809 36.082C28.4404 36.4496 28.5475 36.8183 28.7788 37.1069C28.8085 37.1481 28.8464 37.1828 28.89 37.209C28.9336 37.2351 28.9821 37.2521 29.0324 37.2589C29.0828 37.2657 29.134 37.2622 29.183 37.2486C29.232 37.235 29.2777 37.2116 29.3174 37.1798C29.357 37.148 29.3898 37.1084 29.4137 37.0635C29.4376 37.0187 29.4521 36.9694 29.4564 36.9188C29.4606 36.8681 29.4546 36.8171 29.4385 36.7689C29.4225 36.7206 29.3968 36.6762 29.363 36.6382C29.2564 36.5046 29.207 36.3341 29.2257 36.1642C29.2444 35.9943 29.3296 35.8387 29.4628 35.7314C29.557 35.6613 29.6676 35.6164 29.784 35.6012C29.9005 35.586 30.0189 35.6008 30.128 35.6444C30.4968 35.831 30.7784 36.1538 30.9133 36.5444C31.034 36.8032 31.148 37.0694 31.2628 37.3274C31.3775 37.5854 31.4878 37.8367 31.6018 38.0887C31.8116 38.5579 32.0592 39.0094 32.342 39.4387C32.4728 39.6899 32.6551 39.9106 32.8772 40.0864C33.0993 40.2622 33.356 40.3891 33.6305 40.4587C33.7279 40.4749 33.8265 40.4829 33.9253 40.4827C34.2979 40.4842 34.6619 40.3704 34.9674 40.1569C35.2729 39.9435 35.5049 39.6408 35.6316 39.2903C35.7583 38.9399 35.7736 38.5588 35.6753 38.1994C35.577 37.8399 35.3699 37.5196 35.0825 37.2824L34.0753 36.6262ZM33.9958 35.6407C33.9546 35.7522 33.8837 35.8504 33.7906 35.9244C33.6976 35.9985 33.586 36.0456 33.468 36.0607C33.3501 36.0757 33.2302 36.0582 33.1216 36.0099C33.0129 35.9616 32.9196 35.8844 32.8517 35.7868C32.7838 35.6891 32.7441 35.5747 32.7367 35.456C32.7293 35.3373 32.7546 35.2189 32.8099 35.1136C32.8651 35.0083 32.9482 34.9201 33.05 34.8588C33.1519 34.7974 33.2686 34.7651 33.3875 34.7654C33.4643 34.765 33.5405 34.7785 33.6125 34.8052C33.6926 34.8347 33.7661 34.8798 33.8288 34.9379C33.8914 34.9959 33.942 35.0657 33.9776 35.1433C34.0132 35.221 34.0332 35.3049 34.0363 35.3902C34.0394 35.4755 34.0256 35.5607 33.9958 35.6407ZM26.75 40.6327C26.675 38.1314 26.6345 37.4759 26.0863 37.4489C25.5058 37.4152 25.4285 38.0677 25.1 40.5464C25.0168 41.1719 24.905 42.0157 24.8 42.5714C24.7086 41.8799 24.679 41.1817 24.7115 40.4849C24.8338 39.4117 24.8803 38.3579 24.8968 37.8374C24.8997 37.7407 24.8651 37.6465 24.8003 37.5747C24.7354 37.5028 24.6453 37.4588 24.5488 37.4519C24.4523 37.4459 24.3572 37.4769 24.2829 37.5387C24.2086 37.6004 24.1607 37.6883 24.149 37.7842C24.092 38.2994 23.987 39.3592 23.9578 40.4354C23.9238 41.3102 23.7253 42.1707 23.3728 42.9719C23.2843 42.8482 23.0638 42.3472 23.1178 40.4527C23.4264 39.5396 23.416 38.5489 23.0885 37.6424C23.3005 37.4209 23.5428 37.1862 23.8153 36.9382C23.8889 36.8711 23.9328 36.7776 23.9374 36.6782C23.9421 36.5787 23.907 36.4815 23.84 36.4079C23.773 36.3343 23.6794 36.2904 23.58 36.2857C23.4806 36.2811 23.3834 36.3161 23.3098 36.3832C23.1388 36.5392 22.9785 36.6907 22.829 36.8377C22.6933 36.4679 22.574 36.2032 22.5358 36.1199C22.4924 36.0325 22.4167 35.9653 22.3247 35.9328C22.2327 35.9003 22.1316 35.9049 22.0429 35.9457C21.9542 35.9866 21.885 36.0603 21.8499 36.1514C21.8147 36.2425 21.8165 36.3436 21.8548 36.4334C22.0033 36.7646 22.133 37.1039 22.2433 37.4497C20.4665 39.4342 20.8138 40.4602 21.086 40.8412C21.1829 40.9756 21.3105 41.0849 21.4582 41.1601C21.6058 41.2352 21.7693 41.274 21.935 41.2732C22.0817 41.2705 22.2262 41.2376 22.3595 41.1764C22.3738 42.8812 22.6498 43.6402 23.2708 43.7444C23.365 43.7606 23.4616 43.7555 23.5536 43.7296C23.6456 43.7036 23.7306 43.6574 23.8025 43.5944C23.9626 43.4436 24.0855 43.2577 24.1618 43.0514C24.206 43.2172 24.2825 43.3726 24.3868 43.5089C24.4441 43.5801 24.5159 43.6384 24.5973 43.68C24.6787 43.7216 24.768 43.7456 24.8593 43.7504C25.3978 43.7549 25.5148 43.1287 25.8425 40.6484C25.88 40.3679 25.9228 40.0439 25.9685 39.7222C25.982 40.0477 25.991 40.3747 25.9993 40.6582C26.0743 43.1594 26.1148 43.8149 26.6638 43.8419H26.6825C26.7602 43.8422 26.836 43.8184 26.8996 43.7737C26.9631 43.729 27.0112 43.6657 27.0373 43.5925C27.0633 43.5193 27.0659 43.4399 27.0448 43.3651C27.0237 43.2903 26.9799 43.224 26.9195 43.1752C26.8034 42.3327 26.7468 41.4831 26.75 40.6327ZM22.469 40.0724C22.4468 40.0949 22.4277 40.1201 22.412 40.1474C22.3389 40.2863 22.2265 40.4006 22.0888 40.4759C22.0249 40.5142 21.949 40.5274 21.8759 40.5128C21.8029 40.4982 21.7379 40.457 21.6935 40.3972C21.5225 40.1594 21.5578 39.4747 22.4795 38.3234C22.6433 38.8955 22.6401 39.5025 22.469 40.0724ZM16.3348 37.5659C16.2791 37.5087 16.2058 37.4718 16.1266 37.4611C16.0475 37.4505 15.967 37.4668 15.8983 37.5074C15.8244 37.5496 15.7654 37.6137 15.7294 37.6908C15.6934 37.7678 15.6822 37.8542 15.6973 37.9379C15.7425 38.2006 15.7009 38.4709 15.5789 38.7079C15.4568 38.9449 15.2609 39.1357 15.0208 39.2515C14.7807 39.3672 14.5094 39.4016 14.2479 39.3494C13.9865 39.2973 13.7492 39.1614 13.5719 38.9623C13.3946 38.7633 13.2869 38.5119 13.2651 38.2462C13.2434 37.9805 13.3088 37.715 13.4514 37.4898C13.594 37.2645 13.806 37.0919 14.0555 36.9979C14.305 36.9039 14.5782 36.8938 14.834 36.9689C14.9121 36.9917 14.9955 36.9885 15.0716 36.9598C15.1478 36.931 15.2125 36.8783 15.256 36.8095C15.2995 36.7408 15.3195 36.6597 15.3129 36.5786C15.3063 36.4975 15.2735 36.4208 15.2195 36.3599L13.5995 34.5404C13.5677 34.5008 13.5281 34.468 13.4832 34.4441C13.4383 34.4202 13.389 34.4057 13.3384 34.4015C13.2877 34.3972 13.2367 34.4033 13.1884 34.4194C13.1402 34.4355 13.0957 34.4613 13.0577 34.4951C13.0198 34.5289 12.9891 34.5701 12.9675 34.6161C12.9459 34.6622 12.9339 34.7121 12.9323 34.7629C12.9306 34.8138 12.9393 34.8644 12.9578 34.9118C12.9763 34.9591 13.0043 35.0022 13.04 35.0384L14.0818 36.2099C13.6123 36.3079 13.1944 36.5732 12.906 36.9564C12.6175 37.3395 12.4781 37.8144 12.5137 38.2927C12.5493 38.771 12.7575 39.22 13.0995 39.5562C13.4414 39.8925 13.894 40.093 14.3728 40.1204C14.4125 40.1204 14.4515 40.1242 14.4898 40.1242C14.9105 40.1232 15.32 39.9884 15.659 39.7392C15.9979 39.4901 16.2488 39.1394 16.3753 38.7382L17.3375 39.8189C17.405 39.8874 17.4962 39.9273 17.5923 39.9305C17.6884 39.9336 17.7821 39.8997 17.8539 39.8358C17.9257 39.7719 17.9702 39.6828 17.9783 39.587C17.9863 39.4911 17.9572 39.3959 17.897 39.3209L16.3348 37.5659ZM14.8573 33.4207C14.7902 33.3501 14.6984 33.3084 14.6012 33.3043C14.504 33.3002 14.409 33.334 14.3362 33.3987C14.2635 33.4633 14.2188 33.5537 14.2114 33.6507C14.2041 33.7478 14.2348 33.8438 14.297 33.9187L18.599 38.7494C18.6652 38.8236 18.7582 38.8685 18.8575 38.8741C18.9568 38.8797 19.0543 38.8457 19.1285 38.7794C19.2027 38.7132 19.2475 38.6202 19.2532 38.5209C19.2588 38.4216 19.2247 38.3241 19.1585 38.2499L14.8573 33.4207ZM13.274 30.9959C13.1323 30.4904 12.5495 30.5842 10.349 31.0162C9.89901 31.1062 9.31176 31.2209 8.84901 31.2952C9.32984 31.0843 9.82328 30.9035 10.3265 30.7537C11.258 30.5527 12.1475 30.2954 12.587 30.1619C12.6799 30.134 12.7584 30.0711 12.8059 29.9865C12.8534 29.9019 12.8662 29.8022 12.8418 29.7083C12.8173 29.6144 12.7574 29.5336 12.6747 29.483C12.5919 29.4323 12.4927 29.4157 12.398 29.4367C11.9525 29.5342 11.0428 29.7442 10.1323 30.0247C9.41314 30.2231 8.66722 30.3069 7.92201 30.2729C8.51145 29.8538 9.18124 29.5612 9.88926 29.4134C10.2485 29.3159 12.0583 28.7804 12.3643 27.8167C12.3753 27.7762 12.3841 27.7351 12.3905 27.6937C12.4745 27.7149 12.5633 27.7063 12.6417 27.6694C12.7201 27.6326 12.7834 27.5697 12.8207 27.4915C12.858 27.4132 12.867 27.3245 12.8463 27.2404C12.8256 27.1562 12.7764 27.0819 12.707 27.0299L11.8685 26.4209C11.8226 26.3874 11.7696 26.3648 11.7137 26.3548C11.6578 26.3448 11.6003 26.3476 11.5456 26.3631C11.4909 26.3786 11.4405 26.4062 11.398 26.4441C11.3556 26.4819 11.3224 26.5289 11.3008 26.5814L10.9123 27.5302C10.8871 27.5823 10.8751 27.6398 10.8774 27.6976C10.8796 27.7555 10.896 27.8119 10.925 27.8619C10.9541 27.9119 10.9951 27.9541 11.0442 27.9846C11.0934 28.0152 11.1493 28.0332 11.207 28.0372C10.7302 28.3258 10.2155 28.5464 9.67776 28.6927C7.75926 29.2799 7.01826 29.7854 7.12251 30.4372C7.13824 30.5267 7.17321 30.6118 7.225 30.6865C7.27679 30.7612 7.34418 30.8238 7.4225 30.8699C7.56664 30.9499 7.72619 30.9983 7.89051 31.0117C7.79369 31.0855 7.71045 31.1756 7.64451 31.2779C7.59803 31.3514 7.56765 31.4339 7.55537 31.52C7.54309 31.6061 7.54918 31.6939 7.57326 31.7774C7.71726 32.2762 8.29776 32.1839 10.4983 31.7527L10.814 31.6912L10.514 31.8022C8.41401 32.5829 7.86651 32.8079 8.00901 33.3127C8.03122 33.3912 8.07846 33.4604 8.14358 33.5097C8.20869 33.559 8.2881 33.5856 8.36976 33.5857C8.40419 33.5856 8.43848 33.581 8.47176 33.5722C8.5263 33.5568 8.57663 33.5292 8.61898 33.4915C8.66133 33.4538 8.69459 33.407 8.71626 33.3547C9.3831 33.0269 10.0708 32.7436 10.775 32.5064C12.875 31.7249 13.4165 31.4999 13.274 30.9959ZM7.38501 24.5339L8.28501 24.0592L9.06876 25.5464C9.10056 25.6068 9.14824 25.6574 9.20665 25.6927C9.26507 25.7279 9.33201 25.7466 9.40026 25.7467C9.46145 25.7469 9.52175 25.7319 9.57576 25.7032C9.66362 25.6568 9.72949 25.5774 9.75888 25.4825C9.78827 25.3876 9.77878 25.2849 9.73251 25.1969L8.94801 23.7097L9.93726 23.1847C9.98084 23.1617 10.0195 23.1303 10.0509 23.0924C10.0824 23.0545 10.1061 23.0107 10.1206 22.9636C10.1352 22.9166 10.1403 22.8671 10.1358 22.818C10.1312 22.7689 10.117 22.7213 10.094 22.6777C10.071 22.6341 10.0397 22.5955 10.0017 22.564C9.9638 22.5325 9.92005 22.5089 9.87297 22.4943C9.82589 22.4797 9.7764 22.4746 9.72734 22.4792C9.67827 22.4837 9.63059 22.4979 9.58701 22.5209L8.59851 23.0459L7.52151 20.9999L8.65926 21.3097C8.75481 21.3344 8.85628 21.3205 8.94165 21.271C9.02701 21.2214 9.0894 21.1402 9.11526 21.0449C9.14113 20.9497 9.12839 20.848 9.0798 20.7621C9.03122 20.6762 8.95072 20.6129 8.85576 20.5859L6.88551 20.0497C6.85121 20.0428 6.81612 20.0408 6.78126 20.0437C6.77301 20.0437 6.76551 20.0377 6.75726 20.0384H6.74901C6.68646 20.0458 6.62683 20.0691 6.57576 20.1059C6.56308 20.1154 6.55106 20.1256 6.53976 20.1367C6.49918 20.1735 6.46718 20.2189 6.44601 20.2694C6.44601 20.2769 6.43476 20.2814 6.43176 20.2897L5.80401 22.1579C5.77239 22.2522 5.77951 22.3552 5.82382 22.4442C5.86812 22.5333 5.94598 22.601 6.04026 22.6327C6.08691 22.649 6.13634 22.6557 6.18566 22.6526C6.23497 22.6495 6.28316 22.6366 6.3274 22.6146C6.37164 22.5925 6.41102 22.5619 6.44324 22.5244C6.47546 22.487 6.49986 22.4435 6.51501 22.3964L6.86376 21.3577L7.9355 23.3917L7.03551 23.8664C6.96112 23.9054 6.90195 23.9681 6.86747 24.0447C6.83299 24.1212 6.8252 24.2071 6.84533 24.2886C6.86547 24.3701 6.91238 24.4425 6.97854 24.4942C7.04471 24.5459 7.1263 24.5739 7.21026 24.5737C7.27084 24.5746 7.33076 24.5609 7.38501 24.5339ZM9.08151 17.3999C9.24803 17.456 9.42253 17.4849 9.59826 17.4854C9.87025 17.4886 10.137 17.4102 10.364 17.2604C10.459 17.195 10.5446 17.1168 10.6183 17.0279L10.6258 17.0332C10.8901 17.4477 11.0144 17.9362 10.9805 18.4267C10.959 18.5277 10.9152 18.6226 10.8524 18.7046C10.7896 18.7866 10.7094 18.8535 10.6175 18.9007C10.5727 18.9241 10.5331 18.9564 10.5011 18.9955C10.469 19.0347 10.4453 19.0799 10.4312 19.1285C10.4171 19.177 10.413 19.228 10.4191 19.2782C10.4252 19.3284 10.4414 19.3768 10.4667 19.4206C10.492 19.4644 10.5259 19.5026 10.5663 19.533C10.6068 19.5633 10.653 19.5852 10.7021 19.5972C10.7512 19.6092 10.8023 19.6112 10.8522 19.603C10.9021 19.5948 10.9498 19.5766 10.9925 19.5494C11.1743 19.4494 11.3326 19.3115 11.4567 19.1451C11.5807 18.9788 11.6677 18.7877 11.7118 18.5849C11.7825 18.1674 11.7379 17.7385 11.5828 17.3444C11.9092 17.3312 12.2255 17.2273 12.4963 17.0444C12.8322 16.8512 13.0788 16.5338 13.1829 16.1604C13.287 15.7871 13.2403 15.3878 13.0528 15.0487C12.8077 14.7486 12.4545 14.5569 12.0694 14.5148C11.6843 14.4727 11.2981 14.5836 10.994 14.8237C10.8979 14.8898 10.8085 14.9652 10.727 15.0487C10.5768 14.7358 10.3557 14.4624 10.0813 14.2499C10.0024 14.1938 9.90498 14.1702 9.80923 14.1843C9.71348 14.1983 9.62687 14.2488 9.5675 14.3252C9.50813 14.4017 9.48059 14.4981 9.49066 14.5943C9.50073 14.6906 9.54761 14.7792 9.62151 14.8417C9.75196 14.9439 9.86537 15.0662 9.95751 15.2039C10.316 15.7334 10.3093 16.3904 9.94326 16.6387C9.85009 16.6948 9.74519 16.7285 9.63679 16.7372C9.52839 16.7459 9.41944 16.7294 9.31851 16.6889C9.02609 16.5813 8.77621 16.3822 8.606 16.1212C8.48462 15.9444 8.40112 15.7445 8.36076 15.5339C8.34128 15.437 8.28482 15.3514 8.20333 15.2954C8.12184 15.2394 8.02174 15.2174 7.92426 15.2339C7.82665 15.2521 7.74025 15.3083 7.68402 15.3902C7.62778 15.472 7.60629 15.5728 7.62425 15.6704C7.68359 15.9831 7.80664 16.2803 7.98576 16.5434C8.24808 16.9405 8.63279 17.2413 9.08151 17.3999ZM11.0165 15.9577C11.0895 15.7475 11.2301 15.5673 11.4163 15.4454C11.5821 15.3302 11.7783 15.2665 11.9803 15.2624C12.0662 15.2572 12.1521 15.2731 12.2305 15.3086C12.309 15.3442 12.3775 15.3983 12.4303 15.4664C12.6095 15.7312 12.4468 16.1677 12.0748 16.4204C11.8922 16.5482 11.6726 16.612 11.45 16.6019C11.3609 16.5938 11.2745 16.567 11.1965 16.5232C11.1215 16.3942 11.0578 16.3034 11.036 16.2727C11.0247 16.2593 11.0127 16.2465 11 16.2344C10.9847 16.1424 10.9903 16.0473 11.0165 15.9577ZM13.7 11.8237C13.7995 11.8237 13.8948 11.7842 13.9652 11.7138C14.0355 11.6435 14.075 11.5481 14.075 11.4487L14.0825 10.0987L15.0208 10.6027C15.0777 10.6337 15.1418 10.6494 15.2067 10.6482C15.2716 10.6471 15.335 10.6291 15.3909 10.5961C15.4467 10.563 15.4931 10.5161 15.5253 10.4598C15.5576 10.4035 15.5747 10.3398 15.575 10.2749L15.5825 8.92492L16.5215 9.42817C16.5784 9.4588 16.6422 9.47421 16.7068 9.47291C16.7714 9.4716 16.8346 9.45363 16.8902 9.42073C16.9458 9.38784 16.992 9.34113 17.0242 9.28514C17.0565 9.22915 17.0737 9.16578 17.0743 9.10117L17.084 7.75117L18.0245 8.25442C18.112 8.30023 18.2141 8.30966 18.3085 8.28067C18.4029 8.25167 18.4821 8.1866 18.5288 8.09957C18.5755 8.01255 18.586 7.9106 18.558 7.81588C18.53 7.72116 18.4658 7.64131 18.3793 7.59367L16.8905 6.80017C16.8336 6.76952 16.7697 6.75411 16.705 6.75544C16.6403 6.75678 16.5771 6.77482 16.5215 6.80781C16.4659 6.84079 16.4197 6.8876 16.3875 6.94369C16.3553 6.99979 16.3382 7.06325 16.3378 7.12792L16.328 8.47792L15.3883 7.97392C15.3313 7.94327 15.2674 7.92786 15.2027 7.9292C15.1381 7.93053 15.0749 7.94857 15.0192 7.98156C14.9636 8.01454 14.9175 8.06135 14.8853 8.11744C14.8531 8.17354 14.8359 8.237 14.8355 8.30167L14.828 9.65167L13.8898 9.14992C13.8328 9.11924 13.7688 9.10383 13.7041 9.1052C13.6393 9.10657 13.5761 9.12468 13.5204 9.15775C13.4648 9.19082 13.4186 9.23774 13.3865 9.29393C13.3543 9.35013 13.3373 9.41369 13.337 9.47842L13.325 11.4464C13.3247 11.4959 13.3342 11.5449 13.3529 11.5906C13.3716 11.6364 13.3992 11.678 13.434 11.713C13.4689 11.7481 13.5103 11.7759 13.556 11.7949C13.6016 11.8139 13.6506 11.8237 13.7 11.8237Z" fill="#232323"/>
<path d="M17.5063 8.32505C17.4505 8.35758 17.4042 8.4041 17.372 8.46C17.3398 8.51591 17.3227 8.57927 17.3225 8.6438L17.312 9.9938L16.3723 9.4898C16.3153 9.45929 16.2514 9.44403 16.1868 9.44549C16.1222 9.44695 16.059 9.46509 16.0035 9.49814C15.9479 9.53119 15.9019 9.57804 15.8698 9.63414C15.8377 9.69023 15.8206 9.75367 15.8203 9.8183L15.812 11.1683L14.8738 10.6643C14.8168 10.6338 14.753 10.6186 14.6885 10.62C14.6239 10.6214 14.5608 10.6395 14.5053 10.6724C14.4498 10.7054 14.4037 10.7522 14.3716 10.8081C14.3394 10.8641 14.3222 10.9275 14.3218 10.992L14.3098 12.963C14.3098 13.0625 14.3493 13.1579 14.4196 13.2282C14.4899 13.2985 14.5853 13.338 14.6848 13.338C14.7842 13.338 14.8796 13.2985 14.9499 13.2282C15.0202 13.1579 15.0598 13.0625 15.0598 12.963L15.068 11.613L16.0063 12.117C16.0632 12.1475 16.127 12.1628 16.1916 12.1614C16.2561 12.1599 16.3192 12.1419 16.3747 12.1089C16.4302 12.0759 16.4763 12.0292 16.5085 11.9732C16.5406 11.9172 16.5578 11.8539 16.5583 11.7893L16.5665 10.4393L17.5055 10.9425C17.5624 10.973 17.6263 10.9883 17.6908 10.9869C17.7554 10.9854 17.8184 10.9674 17.874 10.9344C17.9295 10.9014 17.9756 10.8547 18.0077 10.7987C18.0399 10.7427 18.057 10.6794 18.0575 10.6148L18.068 9.2648L19.0085 9.76805C19.0958 9.81121 19.1964 9.81875 19.2891 9.78907C19.3818 9.75939 19.4593 9.69482 19.5053 9.60902C19.5513 9.52321 19.5621 9.42288 19.5354 9.32926C19.5088 9.23563 19.4468 9.15603 19.3625 9.1073L17.8745 8.3108C17.8171 8.28127 17.753 8.26707 17.6885 8.26957C17.624 8.27206 17.5612 8.29117 17.5063 8.32505ZM24.8503 11.8335C22.5353 11.8335 20.2724 12.52 18.3476 13.8061C16.4228 15.0922 14.9226 16.9202 14.0367 19.0589C13.1508 21.1976 12.919 23.551 13.3707 25.8215C13.8223 28.0919 14.937 30.1775 16.5739 31.8144C18.2108 33.4513 20.2964 34.566 22.5668 35.0177C24.8373 35.4693 27.1907 35.2375 29.3294 34.3516C31.4681 33.4657 33.2961 31.9655 34.5822 30.0407C35.8683 28.1159 36.5548 25.853 36.5548 23.538C36.5512 20.4349 35.3169 17.4599 33.1226 15.2657C30.9284 13.0714 27.9534 11.8371 24.8503 11.8335ZM24.8503 33.7425C22.832 33.7425 20.8591 33.1441 19.1809 32.0228C17.5028 30.9015 16.1949 29.3078 15.4225 27.4431C14.6502 25.5785 14.4481 23.5267 14.8418 21.5473C15.2356 19.5678 16.2075 17.7495 17.6346 16.3224C19.0617 14.8953 20.88 13.9234 22.8595 13.5296C24.8389 13.1359 26.8907 13.338 28.7553 14.1103C30.62 14.8827 32.2137 16.1906 33.335 17.8687C34.4563 19.5469 35.0548 21.5198 35.0548 23.538C35.0518 26.2435 33.9757 28.8374 32.0626 30.7504C30.1496 32.6635 27.5557 33.7396 24.8503 33.7425Z" fill="#232323"/>
<path d="M24.776 17.4878C23.5516 17.4878 22.3548 17.8509 21.3368 18.5311C20.3187 19.2113 19.5253 20.1781 19.0567 21.3093C18.5882 22.4405 18.4656 23.6852 18.7045 24.886C18.9433 26.0868 19.5329 27.1899 20.3987 28.0556C21.2644 28.9214 22.3675 29.511 23.5683 29.7498C24.7691 29.9887 26.0138 29.8661 27.145 29.3976C28.2762 28.929 29.243 28.1356 29.9232 27.1176C30.6034 26.0995 30.9665 24.9027 30.9665 23.6783C30.9645 22.0371 30.3117 20.4637 29.1512 19.3031C27.9907 18.1426 26.4172 17.4898 24.776 17.4878ZM24.776 28.3688C23.8483 28.3688 22.9415 28.0937 22.1701 27.5783C21.3988 27.0629 20.7976 26.3303 20.4426 25.4733C20.0875 24.6162 19.9947 23.6731 20.1756 22.7632C20.3566 21.8534 20.8034 21.0176 21.4593 20.3616C22.1153 19.7056 22.9511 19.2589 23.8609 19.0779C24.7708 18.8969 25.7139 18.9898 26.571 19.3448C27.4281 19.6998 28.1606 20.301 28.676 21.0724C29.1914 21.8437 29.4665 22.7506 29.4665 23.6783C29.4651 24.9219 28.9705 26.1141 28.0912 26.9934C27.2118 27.8728 26.0196 28.3674 24.776 28.3688Z" fill="#232323"/>
<path d="M24.887 32.8343C25.2047 32.8343 25.4622 32.5768 25.4622 32.2591C25.4622 31.9414 25.2047 31.6838 24.887 31.6838C24.5693 31.6838 24.3117 31.9414 24.3117 32.2591C24.3117 32.5768 24.5693 32.8343 24.887 32.8343Z" fill="#F6B884"/>
<path d="M24.887 15.0983C25.2047 15.0983 25.4622 14.8407 25.4622 14.523C25.4622 14.2053 25.2047 13.9478 24.887 13.9478C24.5693 13.9478 24.3117 14.2053 24.3117 14.523C24.3117 14.8407 24.5693 15.0983 24.887 15.0983Z" fill="#F6B884"/>
<path d="M33.7775 23.5463C34.0952 23.5463 34.3527 23.2887 34.3527 22.971C34.3527 22.6533 34.0952 22.3958 33.7775 22.3958C33.4598 22.3958 33.2022 22.6533 33.2022 22.971C33.2022 23.2887 33.4598 23.5463 33.7775 23.5463Z" fill="#F6B884"/>
<path d="M15.731 23.5463C16.0487 23.5463 16.3063 23.2887 16.3063 22.971C16.3063 22.6533 16.0487 22.3958 15.731 22.3958C15.4133 22.3958 15.1558 22.6533 15.1558 22.971C15.1558 23.2887 15.4133 23.5463 15.731 23.5463Z" fill="#F6B884"/>
<path d="M32.717 45.7058C32.6296 45.7056 32.545 45.6749 32.4779 45.619C32.4108 45.563 32.3653 45.4854 32.3493 45.3995C32.3332 45.3136 32.3477 45.2248 32.3902 45.1485C32.4327 45.0721 32.5005 45.013 32.582 44.9813C35.2825 43.9413 37.7559 42.3876 39.8652 40.4063C39.9378 40.3383 40.0345 40.3019 40.1339 40.3051C40.2334 40.3084 40.3275 40.351 40.3955 40.4236C40.4635 40.4962 40.4999 40.5928 40.4967 40.6923C40.4934 40.7917 40.4508 40.8858 40.3782 40.9538C38.1983 43.0003 35.6424 44.6048 32.852 45.6788C32.8091 45.6962 32.7633 45.7054 32.717 45.7058ZM3.67099 14.9573C3.6174 14.9576 3.5644 14.946 3.51574 14.9236C3.42531 14.8825 3.35486 14.8073 3.31985 14.7143C3.28484 14.6214 3.28813 14.5184 3.32899 14.4278C4.55312 11.7202 6.28719 9.27369 8.43649 7.22183C8.5084 7.15311 8.60466 7.11577 8.7041 7.11802C8.80354 7.12027 8.89802 7.16193 8.96674 7.23383C9.03546 7.30574 9.07281 7.402 9.07056 7.50144C9.06831 7.60089 9.02665 7.69536 8.95474 7.76408C6.87464 9.75015 5.19658 12.1183 4.01224 14.7391C3.98223 14.8043 3.93411 14.8596 3.87362 14.8982C3.81313 14.9369 3.7428 14.9574 3.67099 14.9573Z" fill="#232323"/>
</svg>
