<svg width="157" height="91" viewBox="0 0 157 91" fill="none" xmlns="http://www.w3.org/2000/svg">
<path d="M37.4502 9.15625L69.8831 27.3275V63.6701L37.4502 81.8413L5.01738 63.6701V27.3275L37.4502 9.15625Z" fill="#FFDEB7"/>
<path d="M4.94336 63.67V27.2999L37.4502 9.15625L4.94336 63.67Z" fill="url(#paint0_linear_7213_29039)"/>
<path d="M4.79165 27.2561L37.2482 9.07155L69.6555 27.2562L4.79165 27.2561Z" fill="url(#paint1_linear_7213_29039)"/>
<path d="M69.8057 63.67V27.2999L37.4487 9.15625L69.8057 63.67Z" fill="url(#paint2_linear_7213_29039)"/>
<path d="M4.94393 63.7439L37.4005 81.9284L69.8077 63.744L4.94393 63.7439Z" fill="url(#paint3_linear_7213_29039)"/>
<path d="M69.959 27.33V63.7001L37.4522 81.8438L69.959 27.33Z" fill="url(#paint4_linear_7213_29039)"/>
<path d="M4.79395 27.33V63.7001L37.3008 81.8438L4.79395 27.33Z" fill="url(#paint5_linear_7213_29039)"/>
<path d="M29.3127 46.0039H38.3714L39.5245 48.1321H29.3127C28.2097 48.1321 27.3155 49.085 27.3155 50.2603C27.3155 51.4357 28.2097 52.3885 29.3127 52.3885H41.8306C42.5702 53.7529 43.9116 54.516 45.291 54.5168H29.3127C27.1067 54.5168 25.3184 52.6111 25.3184 50.2603C25.3184 47.9096 27.1067 46.0039 29.3127 46.0039Z" fill="url(#paint6_linear_7213_29039)"/>
<path d="M29.3127 49.1962H40.101L41.2541 51.3244H29.3127C28.7612 51.3244 28.3141 50.848 28.3141 50.2603C28.3141 49.6726 28.7612 49.1962 29.3127 49.1962Z" fill="url(#paint7_linear_7213_29039)"/>
<path d="M41.8331 52.3965L37.3037 44.0367L38.4568 41.9085L43.5627 51.3324C44.1142 52.3503 45.3356 52.699 46.2909 52.1113C47.2461 51.5237 47.5734 50.2221 47.0219 49.2042L40.7629 37.652C41.502 36.2874 41.4514 34.668 40.7623 33.3945L48.7515 48.14C49.8545 50.1759 49.1999 52.7791 47.2895 53.9544C45.379 55.1298 42.9361 54.4323 41.8331 52.3965Z" fill="url(#paint8_linear_7213_29039)"/>
<path d="M44.4275 50.8003L39.0333 40.8444L40.1864 38.7161L46.1571 49.7362C46.4328 50.2452 46.2692 50.896 45.7916 51.1898C45.314 51.4837 44.7032 51.3093 44.4275 50.8003Z" fill="url(#paint9_linear_7213_29039)"/>
<path d="M40.763 37.6471L36.2337 46.0069H33.9275L39.0334 36.583C39.5849 35.5651 39.2577 34.2635 38.3024 33.6758C37.3472 33.0881 36.1257 33.4368 35.5742 34.4548L29.3153 46.0069C27.8367 46.0072 26.5458 46.8635 25.8555 48.1362L33.8446 33.3906C34.9476 31.3548 37.3905 30.6573 39.301 31.8327C41.2115 33.0081 41.8661 35.6113 40.763 37.6471Z" fill="url(#paint10_linear_7213_29039)"/>
<path d="M38.1686 36.0509L32.7745 46.0069H30.4683L36.439 34.9868C36.7148 34.4779 37.3255 34.3035 37.8031 34.5973C38.2807 34.8912 38.4444 35.542 38.1686 36.0509Z" fill="url(#paint11_linear_7213_29039)"/>
<path d="M77.6191 50L82.1791 37.56C82.4057 36.96 82.7591 36.5133 83.2391 36.22C83.7324 35.9133 84.2857 35.76 84.8991 35.76C85.5124 35.76 86.0657 35.9067 86.5591 36.2C87.0524 36.48 87.4057 36.9267 87.6191 37.54L92.1991 50H89.0591L88.1191 47.18H81.5991L80.6191 50H77.6191ZM82.4591 44.66H87.2791L85.2591 38.52C85.2324 38.4267 85.1857 38.36 85.1191 38.32C85.0657 38.28 84.9991 38.26 84.9191 38.26C84.8391 38.26 84.7724 38.2867 84.7191 38.34C84.6657 38.38 84.6257 38.44 84.5991 38.52L82.4591 44.66ZM93.5489 50V47.66H98.5289C98.6889 47.66 98.8289 47.6267 98.9489 47.56C99.0822 47.4933 99.1822 47.4 99.2489 47.28C99.3289 47.16 99.3689 47.0267 99.3689 46.88C99.3689 46.72 99.3289 46.58 99.2489 46.46C99.1822 46.34 99.0822 46.2467 98.9489 46.18C98.8289 46.1 98.6889 46.06 98.5289 46.06H96.6089C95.9556 46.06 95.3622 45.96 94.8289 45.76C94.3089 45.5467 93.8889 45.2133 93.5689 44.76C93.2622 44.2933 93.1089 43.6867 93.1089 42.94C93.1089 42.3667 93.2489 41.8467 93.5289 41.38C93.8222 40.9 94.2089 40.52 94.6889 40.24C95.1822 39.9467 95.7222 39.8 96.3089 39.8H101.089V42.14H96.5689C96.3689 42.14 96.1889 42.2067 96.0289 42.34C95.8822 42.4733 95.8089 42.6467 95.8089 42.86C95.8089 43.0733 95.8822 43.2533 96.0289 43.4C96.1756 43.5333 96.3556 43.6 96.5689 43.6H98.4889C99.2222 43.6 99.8556 43.7133 100.389 43.94C100.922 44.1533 101.336 44.4933 101.629 44.96C101.922 45.4267 102.069 46.04 102.069 46.8C102.069 47.3867 101.922 47.9267 101.629 48.42C101.336 48.9 100.942 49.2867 100.449 49.58C99.9556 49.86 99.4022 50 98.7889 50H93.5489ZM107.459 50C106.552 50 105.839 49.74 105.319 49.22C104.812 48.7 104.559 47.9933 104.559 47.1V37.24H107.299V47.02C107.299 47.1933 107.359 47.3467 107.479 47.48C107.612 47.6 107.766 47.66 107.939 47.66H110.159V50H107.459ZM102.819 42.14V39.8H110.159V42.14H102.819ZM112.159 50V42.7C112.159 41.7933 112.412 41.0867 112.919 40.58C113.439 40.06 114.152 39.8 115.059 39.8H117.879V42.14H115.539C115.366 42.14 115.212 42.2 115.079 42.32C114.959 42.44 114.899 42.5933 114.899 42.78V50H112.159ZM124.288 50.24C123.234 50.24 122.294 50.0067 121.468 49.54C120.641 49.06 119.988 48.42 119.508 47.62C119.028 46.8067 118.788 45.9 118.788 44.9C118.788 43.9 119.028 43 119.508 42.2C119.988 41.3867 120.641 40.7467 121.468 40.28C122.294 39.8 123.234 39.56 124.288 39.56C125.341 39.56 126.281 39.8 127.108 40.28C127.934 40.7467 128.588 41.3867 129.068 42.2C129.548 43 129.788 43.9 129.788 44.9C129.788 45.9 129.548 46.8067 129.068 47.62C128.588 48.42 127.934 49.06 127.108 49.54C126.281 50.0067 125.341 50.24 124.288 50.24ZM124.288 47.9C124.848 47.9 125.328 47.7667 125.728 47.5C126.141 47.2333 126.454 46.8733 126.668 46.42C126.894 45.9667 127.008 45.46 127.008 44.9C127.008 44.34 126.894 43.8333 126.668 43.38C126.454 42.9267 126.141 42.5667 125.728 42.3C125.328 42.0333 124.848 41.9 124.288 41.9C123.728 41.9 123.241 42.0333 122.828 42.3C122.428 42.5667 122.114 42.9267 121.888 43.38C121.674 43.8333 121.568 44.34 121.568 44.9C121.568 45.46 121.674 45.9667 121.888 46.42C122.114 46.8733 122.428 47.2333 122.828 47.5C123.241 47.7667 123.728 47.9 124.288 47.9Z" fill="#8C64B4"/>
<path d="M138.75 40.22C138.75 40.5667 138.703 40.8933 138.61 41.2C138.517 41.4933 138.39 41.7667 138.23 42.02C138.083 42.2733 137.917 42.5 137.73 42.7C137.543 42.8867 137.357 43.0467 137.17 43.18C137.37 43.2733 137.597 43.3667 137.85 43.46C138.117 43.54 138.383 43.6133 138.65 43.68C138.93 43.7333 139.203 43.78 139.47 43.82C139.75 43.8467 140.003 43.86 140.23 43.86V37.28H144.09V38.96H142.39V50H140.23V46.22L133.97 49.98L132.61 48.12L138.05 45.38V45.3C137.73 45.2333 137.35 45.1267 136.91 44.98C136.47 44.8333 136.043 44.6267 135.63 44.36C135.19 44.6 134.643 44.84 133.99 45.08C133.35 45.3067 132.59 45.54 131.71 45.78L130.67 43.86C131.39 43.6733 132.037 43.4867 132.61 43.3C133.197 43.1133 133.803 42.8667 134.43 42.56C135.097 42.2267 135.61 41.8733 135.97 41.5C136.343 41.1267 136.53 40.68 136.53 40.16C136.53 39.7467 136.417 39.42 136.19 39.18C135.963 38.9267 135.67 38.8 135.31 38.8C135.003 38.8 134.723 38.9067 134.47 39.12C134.217 39.32 134.09 39.62 134.09 40.02C134.09 40.3267 134.157 40.5933 134.29 40.82C134.423 41.0467 134.597 41.2533 134.81 41.44L133.29 42.36C132.903 42.0533 132.597 41.7067 132.37 41.32C132.143 40.92 132.03 40.44 132.03 39.88C132.03 39.52 132.11 39.1733 132.27 38.84C132.43 38.5067 132.65 38.2133 132.93 37.96C133.223 37.6933 133.577 37.48 133.99 37.32C134.403 37.16 134.863 37.08 135.37 37.08C135.877 37.08 136.337 37.1667 136.75 37.34C137.177 37.5 137.537 37.7267 137.83 38.02C138.123 38.3 138.35 38.6333 138.51 39.02C138.67 39.3933 138.75 39.7933 138.75 40.22ZM145.389 38.96H143.689V37.28H145.209C145.102 36.9333 144.975 36.5733 144.829 36.2C144.682 35.8267 144.502 35.4867 144.289 35.18C144.089 34.8733 143.855 34.62 143.589 34.42C143.309 34.22 142.989 34.12 142.629 34.12C142.229 34.12 141.915 34.24 141.689 34.48C141.462 34.7067 141.349 35.04 141.349 35.48C141.349 35.8667 141.409 36.2267 141.529 36.56C141.649 36.8933 141.802 37.2 141.989 37.48L140.489 38.34L140.189 37.98C139.922 37.62 139.695 37.2133 139.509 36.76C139.322 36.2933 139.229 35.8067 139.229 35.3C139.229 34.8733 139.309 34.48 139.469 34.12C139.615 33.76 139.835 33.4533 140.129 33.2C140.409 32.9333 140.749 32.7267 141.149 32.58C141.549 32.4333 142.002 32.36 142.509 32.36C143.242 32.36 143.875 32.52 144.409 32.84C144.942 33.16 145.389 33.5667 145.749 34.06C146.122 34.54 146.422 35.0667 146.649 35.64C146.889 36.2133 147.069 36.76 147.189 37.28H149.249V38.96H147.549V50H145.389V38.96Z" fill="#B07801"/>
<defs>
<linearGradient id="paint0_linear_7213_29039" x1="13.7177" y1="3.27406" x2="-4.63532" y2="54.2441" gradientUnits="userSpaceOnUse">
<stop offset="0.236" stop-color="#8C64B4"/>
<stop offset="0.601" stop-color="#CEBC1B" stop-opacity="0"/>
</linearGradient>
<linearGradient id="paint1_linear_7213_29039" x1="63.1391" y1="9.15832" x2="4.99492" y2="8.39996" gradientUnits="userSpaceOnUse">
<stop offset="0.280035" stop-color="#8C64B4"/>
<stop offset="0.7079" stop-color="#CEBC1B" stop-opacity="0"/>
</linearGradient>
<linearGradient id="paint2_linear_7213_29039" x1="61.0296" y1="3.48429" x2="78.4831" y2="55.8693" gradientUnits="userSpaceOnUse">
<stop offset="0.221" stop-color="#CEBC1B" stop-opacity="0"/>
<stop offset="0.621" stop-color="#8C64B4"/>
</linearGradient>
<linearGradient id="paint3_linear_7213_29039" x1="69.9792" y1="82.6265" x2="10.3118" y2="82.7297" gradientUnits="userSpaceOnUse">
<stop offset="0.286" stop-color="#CEBC1B" stop-opacity="0"/>
<stop offset="0.741" stop-color="#8C64B4"/>
</linearGradient>
<linearGradient id="paint4_linear_7213_29039" x1="57.5914" y1="84.5777" x2="79.0499" y2="36.6183" gradientUnits="userSpaceOnUse">
<stop offset="0.256" stop-color="#8C64B4"/>
<stop offset="0.651" stop-color="#CEBC1B" stop-opacity="0"/>
</linearGradient>
<linearGradient id="paint5_linear_7213_29039" x1="13.234" y1="88.6373" x2="-4.12707" y2="36.684" gradientUnits="userSpaceOnUse">
<stop offset="0.0874176" stop-color="#CEBC1B" stop-opacity="0"/>
<stop offset="0.75291" stop-color="#8C64B4"/>
</linearGradient>
<linearGradient id="paint6_linear_7213_29039" x1="25.3184" y1="50.2603" x2="45.291" y2="50.2603" gradientUnits="userSpaceOnUse">
<stop stop-color="#8C64B4"/>
<stop offset="1" stop-color="#FFDEB7"/>
</linearGradient>
<linearGradient id="paint7_linear_7213_29039" x1="25.3184" y1="50.2603" x2="45.291" y2="50.2603" gradientUnits="userSpaceOnUse">
<stop stop-color="#8C64B4"/>
<stop offset="1" stop-color="#FFDEB7"/>
</linearGradient>
<linearGradient id="paint8_linear_7213_29039" x1="47.6815" y1="53.661" x2="36.2908" y2="35.3868" gradientUnits="userSpaceOnUse">
<stop stop-color="#8C64B4"/>
<stop offset="1" stop-color="#FFDEB7"/>
</linearGradient>
<linearGradient id="paint9_linear_7213_29039" x1="47.6815" y1="53.661" x2="36.2908" y2="35.3868" gradientUnits="userSpaceOnUse">
<stop stop-color="#8C64B4"/>
<stop offset="1" stop-color="#FFDEB7"/>
</linearGradient>
<linearGradient id="paint10_linear_7213_29039" x1="38.8665" y1="31.6175" x2="27.6832" y2="50.0357" gradientUnits="userSpaceOnUse">
<stop stop-color="#8C64B4"/>
<stop offset="1" stop-color="#FFDEB7"/>
</linearGradient>
<linearGradient id="paint11_linear_7213_29039" x1="38.8665" y1="31.6175" x2="27.6832" y2="50.0357" gradientUnits="userSpaceOnUse">
<stop stop-color="#8C64B4"/>
<stop offset="1" stop-color="#FFDEB7"/>
</linearGradient>
</defs>
</svg>
