<svg width="300" height="120" viewBox="0 0 300 120" fill="none" xmlns="http://www.w3.org/2000/svg">
<g clip-path="url(#clip0_7379_2713)">
<rect width="300" height="120" rx="12" fill="#CCBADE"/>
<path d="M18.37 25.3C18.05 25.4733 17.5833 25.56 16.97 25.56C16.7767 25.56 16.59 25.5467 16.41 25.52C16.41 25.1667 16.5933 24.24 16.96 22.74C17.3333 21.24 17.52 20.23 17.52 19.71C17.52 19.5767 17.4867 19.4367 17.42 19.29C17.3533 19.1367 17.2867 19.02 17.22 18.94L17.11 18.81L17.15 18.61C17.6233 18.47 18.3667 18.4 19.38 18.4C19.4733 18.5867 19.52 18.8233 19.52 19.11C19.52 19.3967 19.38 20.19 19.1 21.49H19.16C19.64 21.49 20 21.2733 20.24 20.84C20.4867 20.4 20.6767 19.6767 20.81 18.67C21.4033 18.49 21.99 18.4 22.57 18.4C22.5833 18.4533 22.5867 18.6 22.58 18.84C22.5733 19.0733 22.51 19.3867 22.39 19.78C22.2767 20.1733 22.07 20.58 21.77 21C21.47 21.4133 21.1033 21.73 20.67 21.95C21.1767 23.6967 21.57 24.57 21.85 24.57C21.9567 24.57 22.1267 24.53 22.36 24.45L22.47 24.41L22.71 24.96C22.09 25.4 21.4633 25.62 20.83 25.62C20.1967 25.62 19.78 25.2933 19.58 24.64C19.38 23.9733 19.23 23.19 19.13 22.29H18.92C18.5533 23.9167 18.37 24.92 18.37 25.3ZM25.5834 24.3C25.8568 24.3 26.2034 24.18 26.6234 23.94C26.6368 23.8467 26.7901 23.1633 27.0834 21.89C27.3768 20.61 27.5234 19.7 27.5234 19.16C27.5234 18.96 27.5201 18.8233 27.5134 18.75C28.1801 18.5167 28.8168 18.4 29.4234 18.4C29.4634 18.4467 29.4834 18.56 29.4834 18.74C29.4834 19.14 29.3168 20.0733 28.9834 21.54C28.6568 23.0067 28.4934 23.87 28.4934 24.13C28.4934 24.3833 28.5401 24.51 28.6334 24.51C28.6934 24.51 28.8734 24.4667 29.1734 24.38L29.3834 24.94C28.7568 25.3933 28.1534 25.62 27.5734 25.62C27.3001 25.62 27.0768 25.5433 26.9034 25.39C26.7301 25.2367 26.6234 25.03 26.5834 24.77C25.7634 25.3367 25.0601 25.62 24.4734 25.62C24.0934 25.62 23.7801 25.5167 23.5334 25.31C23.2934 25.0967 23.1734 24.81 23.1734 24.45C23.1734 24.0833 23.3168 23.3333 23.6034 22.2C23.8901 21.0667 24.0334 20.2067 24.0334 19.62C24.0334 19.5067 23.9968 19.3833 23.9234 19.25C23.8568 19.1167 23.7901 19.01 23.7234 18.93L23.6134 18.81L23.6434 18.61C24.0634 18.47 24.7868 18.4 25.8134 18.4C25.9401 18.5733 26.0034 18.8667 26.0034 19.28C26.0034 19.6933 25.8601 20.49 25.5734 21.67C25.2868 22.85 25.1434 23.56 25.1434 23.8C25.1434 24.1333 25.2901 24.3 25.5834 24.3ZM30.1542 25.56H29.9842C29.9842 25.16 30.1709 24.14 30.5442 22.5C30.9176 20.86 31.1042 19.91 31.1042 19.65C31.1042 19.5367 31.0676 19.41 30.9942 19.27C30.9276 19.13 30.8609 19.02 30.7942 18.94L30.6942 18.81L30.7242 18.61C31.1376 18.47 31.8576 18.4 32.8842 18.4C33.0042 18.6533 33.0642 18.94 33.0642 19.26V19.28C33.8642 18.6933 34.5642 18.4 35.1642 18.4C35.5176 18.4 35.8076 18.5067 36.0342 18.72C36.2609 18.9267 36.3742 19.2267 36.3742 19.62C36.3742 20.0067 36.2209 20.79 35.9142 21.97C35.6076 23.15 35.4542 23.87 35.4542 24.13C35.4542 24.3833 35.4976 24.51 35.5842 24.51C35.7042 24.51 35.8842 24.4667 36.1242 24.38L36.3342 24.95C35.6809 25.3967 35.0742 25.62 34.5142 25.62C34.1942 25.62 33.9476 25.5367 33.7742 25.37C33.6076 25.1967 33.5242 24.9133 33.5242 24.52C33.5242 24.1267 33.6676 23.38 33.9542 22.28C34.2476 21.1733 34.3942 20.4867 34.3942 20.22C34.3942 19.88 34.2442 19.71 33.9442 19.71C33.7242 19.71 33.3942 19.8467 32.9542 20.12C32.8942 20.44 32.7676 20.9933 32.5742 21.78C32.1476 23.5733 31.9342 24.7467 31.9342 25.3C31.6409 25.4733 31.0476 25.56 30.1542 25.56ZM39.8588 25.62C39.4121 25.62 38.9921 25.5333 38.5988 25.36C38.2588 25.4867 37.8921 25.55 37.4988 25.55C37.1121 25.55 36.9054 25.5467 36.8788 25.54C36.8788 25.08 37.0621 24.0867 37.4288 22.56C37.7954 21.0267 37.9788 20.1567 37.9788 19.95C37.9788 19.7367 37.9388 19.5467 37.8588 19.38C37.7854 19.2133 37.7088 19.0867 37.6288 19L37.5188 18.88L37.5488 18.65C37.7421 18.6033 38.1288 18.55 38.7088 18.49C39.2954 18.43 39.8021 18.4 40.2288 18.4C41.2554 18.4 42.0154 18.6133 42.5088 19.04C43.0088 19.46 43.2588 20.1367 43.2588 21.07C43.2588 21.7967 43.1254 22.5033 42.8588 23.19C42.5988 23.87 42.2021 24.4467 41.6688 24.92C41.1354 25.3867 40.5321 25.62 39.8588 25.62ZM40.3688 19.11C40.2488 19.11 40.1188 19.12 39.9788 19.14C39.9588 19.5267 39.7888 20.4167 39.4688 21.81C39.1488 23.1967 38.9521 24.1467 38.8788 24.66C38.9988 24.72 39.1421 24.75 39.3088 24.75C39.6621 24.75 39.9754 24.59 40.2488 24.27C40.5288 23.95 40.7421 23.55 40.8888 23.07C41.1754 22.0967 41.3188 21.2133 41.3188 20.42C41.3188 19.94 41.2454 19.6033 41.0988 19.41C40.9588 19.21 40.7154 19.11 40.3688 19.11ZM47.1454 25.74C46.8654 25.74 46.4554 25.5933 45.9154 25.3C45.3821 25.0067 45.0721 24.85 44.9854 24.83C44.5854 25.3567 44.2121 25.62 43.8654 25.62C43.7721 25.62 43.6321 25.49 43.4454 25.23C43.2587 24.97 43.1654 24.7267 43.1654 24.5C43.1654 24.4 43.2687 24.2767 43.4754 24.13C43.6821 23.9767 43.9187 23.87 44.1854 23.81C44.3654 23.39 44.5421 22.7533 44.7154 21.9C44.8954 21.0467 44.9854 20.2967 44.9854 19.65C44.9854 19.5433 44.9487 19.4233 44.8754 19.29C44.8087 19.1567 44.7421 19.05 44.6754 18.97L44.5654 18.85L44.5954 18.65C44.9621 18.4833 45.7221 18.4 46.8754 18.4C46.9821 18.5667 47.0354 18.85 47.0354 19.25C47.0354 19.65 46.8587 20.3433 46.5054 21.33C46.1521 22.3167 45.7987 23.1733 45.4454 23.9C46.1121 24.0733 46.7487 24.16 47.3554 24.16C47.4954 24.16 47.6087 24.1267 47.6954 24.06C47.7887 23.9933 47.8887 23.8533 47.9954 23.64L48.5454 23.83C48.4387 24.4633 48.2754 24.94 48.0554 25.26C47.8421 25.58 47.5387 25.74 47.1454 25.74ZM50.9695 24.23C50.9695 24.4167 51.0129 24.51 51.0995 24.51C51.2462 24.51 51.4262 24.4667 51.6395 24.38L51.8595 24.94C51.2462 25.3933 50.6529 25.62 50.0795 25.62C49.7462 25.62 49.4795 25.5267 49.2795 25.34C49.0862 25.1467 48.9895 24.8767 48.9895 24.53C48.9895 24.1833 49.1595 23.4 49.4995 22.18C49.8395 20.9533 50.0262 20.1 50.0595 19.62C50.0595 19.5067 50.0229 19.3833 49.9495 19.25C49.8762 19.1167 49.8062 19.01 49.7395 18.93L49.6295 18.81L49.6495 18.61C50.0695 18.47 50.8129 18.4 51.8795 18.4C51.9862 18.6 52.0395 18.8133 52.0395 19.04C52.0395 19.4267 51.8595 20.27 51.4995 21.57C51.1462 22.87 50.9695 23.7567 50.9695 24.23Z" fill="#191919"/>
<path d="M21.81 47.626C20.718 47.626 19.7987 47.4253 19.052 47.024C18.3147 46.6133 17.7593 46.03 17.386 45.274C17.0127 44.518 16.826 43.6173 16.826 42.572C16.826 41.5267 17.022 40.626 17.414 39.87C17.8153 39.114 18.3847 38.5307 19.122 38.12C19.8687 37.7093 20.7647 37.504 21.81 37.504C22.5287 37.504 23.154 37.6067 23.686 37.812C24.218 38.008 24.694 38.2973 25.114 38.68L24.596 39.814C24.2973 39.562 24.008 39.3613 23.728 39.212C23.448 39.0627 23.1587 38.9553 22.86 38.89C22.5613 38.8153 22.2113 38.778 21.81 38.778C20.6807 38.778 19.822 39.1093 19.234 39.772C18.646 40.4347 18.352 41.3727 18.352 42.586C18.352 43.818 18.632 44.756 19.192 45.4C19.7613 46.044 20.6527 46.366 21.866 46.366C22.286 46.366 22.7013 46.3287 23.112 46.254C23.5227 46.17 23.9193 46.0487 24.302 45.89L24.022 46.576V43.342H21.586V42.25H25.24V46.912C24.8107 47.1267 24.2833 47.2993 23.658 47.43C23.042 47.5607 22.426 47.626 21.81 47.626ZM30.5929 47.626C29.4543 47.626 28.5583 47.304 27.9049 46.66C27.2516 46.016 26.9249 45.1247 26.9249 43.986C26.9249 43.2487 27.0649 42.6047 27.3449 42.054C27.6343 41.5033 28.0309 41.0787 28.5349 40.78C29.0483 40.472 29.6409 40.318 30.3129 40.318C30.9756 40.318 31.5309 40.458 31.9789 40.738C32.4269 41.018 32.7676 41.4147 33.0009 41.928C33.2343 42.432 33.3509 43.0293 33.3509 43.72V44.168H28.0309V43.356H32.3849L32.1469 43.538C32.1469 42.838 31.9883 42.2967 31.6709 41.914C31.3629 41.522 30.9149 41.326 30.3269 41.326C29.6736 41.326 29.1696 41.5547 28.8149 42.012C28.4603 42.46 28.2829 43.0807 28.2829 43.874V44.014C28.2829 44.8447 28.4836 45.47 28.8849 45.89C29.2956 46.31 29.8743 46.52 30.6209 46.52C31.0316 46.52 31.4143 46.464 31.7689 46.352C32.1329 46.2307 32.4783 46.0347 32.8049 45.764L33.2669 46.73C32.9403 47.0193 32.5436 47.2433 32.0769 47.402C31.6103 47.5513 31.1156 47.626 30.5929 47.626ZM37.7038 47.626C36.9385 47.626 36.3598 47.4207 35.9678 47.01C35.5758 46.59 35.3798 45.9647 35.3798 45.134V41.536H34.0078V40.444H35.3798V38.582L36.7938 38.204V40.444H38.7538V41.536H36.7938V45.008C36.7938 45.5307 36.8872 45.904 37.0738 46.128C37.2605 46.352 37.5312 46.464 37.8858 46.464C38.0632 46.464 38.2172 46.45 38.3478 46.422C38.4878 46.3847 38.6138 46.3427 38.7258 46.296V47.444C38.5858 47.5 38.4225 47.542 38.2358 47.57C38.0492 47.6073 37.8718 47.626 37.7038 47.626ZM46.4802 47.626C45.8642 47.626 45.3182 47.4813 44.8422 47.192C44.3755 46.9027 44.0115 46.4827 43.7502 45.932C43.4982 45.3813 43.3722 44.728 43.3722 43.972C43.3722 43.2067 43.4982 42.5533 43.7502 42.012C44.0115 41.4707 44.3755 41.0553 44.8422 40.766C45.3182 40.4673 45.8642 40.318 46.4802 40.318C47.0869 40.318 47.6189 40.472 48.0762 40.78C48.5429 41.0787 48.8509 41.4893 49.0002 42.012H48.8322V37.196H50.2462V47.5H48.8462V45.904H49.0142C48.8555 46.436 48.5475 46.856 48.0902 47.164C47.6329 47.472 47.0962 47.626 46.4802 47.626ZM46.8302 46.52C47.4369 46.52 47.9269 46.3053 48.3002 45.876C48.6735 45.4467 48.8602 44.812 48.8602 43.972C48.8602 43.132 48.6735 42.502 48.3002 42.082C47.9269 41.6527 47.4369 41.438 46.8302 41.438C46.2142 41.438 45.7195 41.6527 45.3462 42.082C44.9822 42.502 44.8002 43.132 44.8002 43.972C44.8002 44.812 44.9822 45.4467 45.3462 45.876C45.7195 46.3053 46.2142 46.52 46.8302 46.52ZM55.5714 47.626C54.4328 47.626 53.5368 47.304 52.8834 46.66C52.2301 46.016 51.9034 45.1247 51.9034 43.986C51.9034 43.2487 52.0434 42.6047 52.3234 42.054C52.6128 41.5033 53.0094 41.0787 53.5134 40.78C54.0268 40.472 54.6194 40.318 55.2914 40.318C55.9541 40.318 56.5094 40.458 56.9574 40.738C57.4054 41.018 57.7461 41.4147 57.9794 41.928C58.2128 42.432 58.3294 43.0293 58.3294 43.72V44.168H53.0094V43.356H57.3634L57.1254 43.538C57.1254 42.838 56.9668 42.2967 56.6494 41.914C56.3414 41.522 55.8934 41.326 55.3054 41.326C54.6521 41.326 54.1481 41.5547 53.7934 42.012C53.4388 42.46 53.2614 43.0807 53.2614 43.874V44.014C53.2614 44.8447 53.4621 45.47 53.8634 45.89C54.2741 46.31 54.8528 46.52 55.5994 46.52C56.0101 46.52 56.3928 46.464 56.7474 46.352C57.1114 46.2307 57.4568 46.0347 57.7834 45.764L58.2454 46.73C57.9188 47.0193 57.5221 47.2433 57.0554 47.402C56.5888 47.5513 56.0941 47.626 55.5714 47.626ZM62.6823 47.626C61.917 47.626 61.3383 47.4207 60.9463 47.01C60.5543 46.59 60.3583 45.9647 60.3583 45.134V41.536H58.9863V40.444H60.3583V38.582L61.7723 38.204V40.444H63.7323V41.536H61.7723V45.008C61.7723 45.5307 61.8657 45.904 62.0523 46.128C62.239 46.352 62.5097 46.464 62.8643 46.464C63.0417 46.464 63.1957 46.45 63.3263 46.422C63.4663 46.3847 63.5923 46.3427 63.7043 46.296V47.444C63.5643 47.5 63.401 47.542 63.2143 47.57C63.0277 47.6073 62.8503 47.626 62.6823 47.626ZM67.7263 47.626C67.1009 47.626 66.5549 47.4813 66.0883 47.192C65.6216 46.9027 65.2576 46.4827 64.9963 45.932C64.7443 45.3813 64.6183 44.728 64.6183 43.972C64.6183 43.2067 64.7443 42.5533 64.9963 42.012C65.2576 41.4707 65.6216 41.0553 66.0883 40.766C66.5549 40.4673 67.1009 40.318 67.7263 40.318C68.3423 40.318 68.8789 40.472 69.3363 40.78C69.7936 41.088 70.0969 41.508 70.2463 42.04H70.0923L70.2323 40.444H71.6043C71.5763 40.7333 71.5483 41.0227 71.5203 41.312C71.5016 41.592 71.4923 41.8673 71.4923 42.138V47.5H70.0783V45.932H70.2323C70.0829 46.4547 69.7749 46.87 69.3083 47.178C68.8509 47.4767 68.3236 47.626 67.7263 47.626ZM68.0763 46.52C68.6829 46.52 69.1683 46.3053 69.5323 45.876C69.9056 45.4467 70.0923 44.812 70.0923 43.972C70.0923 43.132 69.9056 42.502 69.5323 42.082C69.1683 41.6527 68.6829 41.438 68.0763 41.438C67.4603 41.438 66.9656 41.6527 66.5923 42.082C66.2283 42.502 66.0463 43.132 66.0463 43.972C66.0463 44.812 66.2283 45.4467 66.5923 45.876C66.9563 46.3053 67.4509 46.52 68.0763 46.52ZM73.5555 47.5V40.444H74.9695V47.5H73.5555ZM73.4435 38.974V37.504H75.0815V38.974H73.4435ZM77.0419 47.5V37.196H78.4559V47.5H77.0419ZM83.7902 47.626C82.6515 47.626 81.7555 47.304 81.1022 46.66C80.4489 46.016 80.1222 45.1247 80.1222 43.986C80.1222 43.2487 80.2622 42.6047 80.5422 42.054C80.8315 41.5033 81.2282 41.0787 81.7322 40.78C82.2455 40.472 82.8382 40.318 83.5102 40.318C84.1729 40.318 84.7282 40.458 85.1762 40.738C85.6242 41.018 85.9649 41.4147 86.1982 41.928C86.4315 42.432 86.5482 43.0293 86.5482 43.72V44.168H81.2282V43.356H85.5822L85.3442 43.538C85.3442 42.838 85.1855 42.2967 84.8682 41.914C84.5602 41.522 84.1122 41.326 83.5242 41.326C82.8709 41.326 82.3669 41.5547 82.0122 42.012C81.6575 42.46 81.4802 43.0807 81.4802 43.874V44.014C81.4802 44.8447 81.6809 45.47 82.0822 45.89C82.4929 46.31 83.0715 46.52 83.8182 46.52C84.2289 46.52 84.6115 46.464 84.9662 46.352C85.3302 46.2307 85.6755 46.0347 86.0022 45.764L86.4642 46.73C86.1375 47.0193 85.7409 47.2433 85.2742 47.402C84.8075 47.5513 84.3129 47.626 83.7902 47.626ZM90.8728 47.626C90.2568 47.626 89.7108 47.4813 89.2348 47.192C88.7681 46.9027 88.4041 46.4827 88.1428 45.932C87.8908 45.3813 87.7648 44.728 87.7648 43.972C87.7648 43.2067 87.8908 42.5533 88.1428 42.012C88.4041 41.4707 88.7681 41.0553 89.2348 40.766C89.7108 40.4673 90.2568 40.318 90.8728 40.318C91.4794 40.318 92.0114 40.472 92.4688 40.78C92.9354 41.0787 93.2434 41.4893 93.3928 42.012H93.2248V37.196H94.6388V47.5H93.2388V45.904H93.4068C93.2481 46.436 92.9401 46.856 92.4828 47.164C92.0254 47.472 91.4888 47.626 90.8728 47.626ZM91.2228 46.52C91.8294 46.52 92.3194 46.3053 92.6928 45.876C93.0661 45.4467 93.2528 44.812 93.2528 43.972C93.2528 43.132 93.0661 42.502 92.6928 42.082C92.3194 41.6527 91.8294 41.438 91.2228 41.438C90.6068 41.438 90.1121 41.6527 89.7388 42.082C89.3748 42.502 89.1928 43.132 89.1928 43.972C89.1928 44.812 89.3748 45.4467 89.7388 45.876C90.1121 46.3053 90.6068 46.52 91.2228 46.52ZM100.56 47.5V37.63H102.016V42.068H102.044L106.58 37.63H108.386L103.066 42.754L103.08 42.068L108.75 47.5H106.888L102.044 42.894H102.016V47.5H100.56ZM111.882 47.626C111.033 47.626 110.393 47.3973 109.964 46.94C109.544 46.4733 109.334 45.7593 109.334 44.798V40.444H110.748V44.77C110.748 45.358 110.869 45.792 111.112 46.072C111.355 46.352 111.723 46.492 112.218 46.492C112.778 46.492 113.231 46.3053 113.576 45.932C113.921 45.5587 114.094 45.064 114.094 44.448V40.444H115.508V47.5H114.136V45.988H114.318C114.122 46.5107 113.809 46.9167 113.38 47.206C112.951 47.486 112.451 47.626 111.882 47.626ZM117.579 47.5V42.138C117.579 41.8673 117.565 41.592 117.537 41.312C117.518 41.0227 117.495 40.7333 117.467 40.444H118.839L118.965 41.928H118.797C119.012 41.4053 119.343 41.0087 119.791 40.738C120.239 40.458 120.757 40.318 121.345 40.318C122.176 40.318 122.801 40.5467 123.221 41.004C123.65 41.4613 123.865 42.1707 123.865 43.132V47.5H122.451V43.216C122.451 42.5907 122.325 42.1427 122.073 41.872C121.83 41.592 121.457 41.452 120.953 41.452C120.356 41.452 119.88 41.6387 119.525 42.012C119.17 42.376 118.993 42.8707 118.993 43.496V47.5H117.579ZM128.58 47.626C127.964 47.626 127.418 47.4813 126.942 47.192C126.475 46.9027 126.111 46.4827 125.85 45.932C125.598 45.3813 125.472 44.728 125.472 43.972C125.472 43.2067 125.598 42.5533 125.85 42.012C126.111 41.4707 126.475 41.0553 126.942 40.766C127.418 40.4673 127.964 40.318 128.58 40.318C129.186 40.318 129.718 40.472 130.176 40.78C130.642 41.0787 130.95 41.4893 131.1 42.012H130.932V37.196H132.346V47.5H130.946V45.904H131.114C130.955 46.436 130.647 46.856 130.19 47.164C129.732 47.472 129.196 47.626 128.58 47.626ZM128.93 46.52C129.536 46.52 130.026 46.3053 130.4 45.876C130.773 45.4467 130.96 44.812 130.96 43.972C130.96 43.132 130.773 42.502 130.4 42.082C130.026 41.6527 129.536 41.438 128.93 41.438C128.314 41.438 127.819 41.6527 127.446 42.082C127.082 42.502 126.9 43.132 126.9 43.972C126.9 44.812 127.082 45.4467 127.446 45.876C127.819 46.3053 128.314 46.52 128.93 46.52ZM134.409 47.5V37.196H135.823V47.5H134.409ZM137.895 47.5V40.444H139.309V47.5H137.895ZM137.783 38.974V37.504H139.421V38.974H137.783ZM144.218 47.5L148.614 37.63H149.86L154.326 47.5H152.828L151.61 44.7L152.226 45.092H146.248L146.906 44.7L145.688 47.5H144.218ZM149.216 39.226L147.088 44.252L146.752 43.93H151.722L151.442 44.252L149.272 39.226H149.216ZM155.505 47.5V42.138C155.505 41.8673 155.491 41.592 155.463 41.312C155.444 41.0227 155.421 40.7333 155.393 40.444H156.765L156.891 41.928H156.723C156.937 41.4053 157.269 41.0087 157.717 40.738C158.165 40.458 158.683 40.318 159.271 40.318C160.101 40.318 160.727 40.5467 161.147 41.004C161.576 41.4613 161.791 42.1707 161.791 43.132V47.5H160.377V43.216C160.377 42.5907 160.251 42.1427 159.999 41.872C159.756 41.592 159.383 41.452 158.879 41.452C158.281 41.452 157.805 41.6387 157.451 42.012C157.096 42.376 156.919 42.8707 156.919 43.496V47.5H155.505ZM166.506 47.626C165.88 47.626 165.334 47.4813 164.868 47.192C164.401 46.9027 164.037 46.4827 163.776 45.932C163.524 45.3813 163.398 44.728 163.398 43.972C163.398 43.2067 163.524 42.5533 163.776 42.012C164.037 41.4707 164.401 41.0553 164.868 40.766C165.334 40.4673 165.88 40.318 166.506 40.318C167.122 40.318 167.658 40.472 168.116 40.78C168.573 41.088 168.876 41.508 169.026 42.04H168.872L169.012 40.444H170.384C170.356 40.7333 170.328 41.0227 170.3 41.312C170.281 41.592 170.272 41.8673 170.272 42.138V47.5H168.858V45.932H169.012C168.862 46.4547 168.554 46.87 168.088 47.178C167.63 47.4767 167.103 47.626 166.506 47.626ZM166.856 46.52C167.462 46.52 167.948 46.3053 168.312 45.876C168.685 45.4467 168.872 44.812 168.872 43.972C168.872 43.132 168.685 42.502 168.312 42.082C167.948 41.6527 167.462 41.438 166.856 41.438C166.24 41.438 165.745 41.6527 165.372 42.082C165.008 42.502 164.826 43.132 164.826 43.972C164.826 44.812 165.008 45.4467 165.372 45.876C165.736 46.3053 166.23 46.52 166.856 46.52ZM172.335 47.5V37.196H173.749V47.5H172.335ZM175.611 50.678L175.275 49.53C175.714 49.4367 176.078 49.3247 176.367 49.194C176.666 49.0633 176.913 48.8907 177.109 48.676C177.305 48.4707 177.473 48.2047 177.613 47.878L177.963 47.052L177.935 47.626L174.869 40.444H176.381L178.761 46.324H178.383L180.763 40.444H182.219L178.985 48.004C178.78 48.4707 178.56 48.8627 178.327 49.18C178.094 49.4973 177.842 49.754 177.571 49.95C177.3 50.146 177.002 50.3 176.675 50.412C176.348 50.524 175.994 50.6127 175.611 50.678ZM185.612 47.626C185.024 47.626 184.483 47.5513 183.988 47.402C183.494 47.2527 183.083 47.0427 182.756 46.772L183.19 45.806C183.536 46.0673 183.918 46.2633 184.338 46.394C184.758 46.5247 185.188 46.59 185.626 46.59C186.14 46.59 186.527 46.5013 186.788 46.324C187.05 46.1373 187.18 45.8853 187.18 45.568C187.18 45.3253 187.096 45.1293 186.928 44.98C186.77 44.8307 186.504 44.7187 186.13 44.644L184.786 44.378C184.189 44.2473 183.736 44.0233 183.428 43.706C183.12 43.3887 182.966 42.9827 182.966 42.488C182.966 42.068 183.078 41.6947 183.302 41.368C183.536 41.0413 183.862 40.7847 184.282 40.598C184.712 40.4113 185.211 40.318 185.78 40.318C186.303 40.318 186.788 40.3927 187.236 40.542C187.684 40.6913 188.058 40.906 188.356 41.186L187.908 42.124C187.619 41.8813 187.292 41.6947 186.928 41.564C186.564 41.424 186.196 41.354 185.822 41.354C185.3 41.354 184.912 41.452 184.66 41.648C184.408 41.844 184.282 42.1007 184.282 42.418C184.282 42.6607 184.357 42.8613 184.506 43.02C184.665 43.1693 184.912 43.286 185.248 43.37L186.592 43.636C187.227 43.7667 187.703 43.9813 188.02 44.28C188.338 44.5787 188.496 44.98 188.496 45.484C188.496 45.9227 188.375 46.3053 188.132 46.632C187.89 46.9587 187.554 47.206 187.124 47.374C186.695 47.542 186.191 47.626 185.612 47.626ZM190.163 47.5V40.444H191.577V47.5H190.163ZM190.051 38.974V37.504H191.689V38.974H190.051ZM196.071 47.626C195.483 47.626 194.942 47.5513 194.447 47.402C193.953 47.2527 193.542 47.0427 193.215 46.772L193.649 45.806C193.995 46.0673 194.377 46.2633 194.797 46.394C195.217 46.5247 195.647 46.59 196.085 46.59C196.599 46.59 196.986 46.5013 197.247 46.324C197.509 46.1373 197.639 45.8853 197.639 45.568C197.639 45.3253 197.555 45.1293 197.387 44.98C197.229 44.8307 196.963 44.7187 196.589 44.644L195.245 44.378C194.648 44.2473 194.195 44.0233 193.887 43.706C193.579 43.3887 193.425 42.9827 193.425 42.488C193.425 42.068 193.537 41.6947 193.761 41.368C193.995 41.0413 194.321 40.7847 194.741 40.598C195.171 40.4113 195.67 40.318 196.239 40.318C196.762 40.318 197.247 40.3927 197.695 40.542C198.143 40.6913 198.517 40.906 198.815 41.186L198.367 42.124C198.078 41.8813 197.751 41.6947 197.387 41.564C197.023 41.424 196.655 41.354 196.281 41.354C195.759 41.354 195.371 41.452 195.119 41.648C194.867 41.844 194.741 42.1007 194.741 42.418C194.741 42.6607 194.816 42.8613 194.965 43.02C195.124 43.1693 195.371 43.286 195.707 43.37L197.051 43.636C197.686 43.7667 198.162 43.9813 198.479 44.28C198.797 44.5787 198.955 44.98 198.955 45.484C198.955 45.9227 198.834 46.3053 198.591 46.632C198.349 46.9587 198.013 47.206 197.583 47.374C197.154 47.542 196.65 47.626 196.071 47.626ZM17.456 65.5V59.536H16.084V58.444H17.848L17.456 58.808V57.688C17.456 56.8573 17.666 56.2273 18.086 55.798C18.506 55.3593 19.122 55.14 19.934 55.14C20.13 55.14 20.3353 55.154 20.55 55.182C20.7647 55.21 20.942 55.2567 21.082 55.322V56.47C20.97 56.4233 20.83 56.386 20.662 56.358C20.5033 56.3207 20.34 56.302 20.172 56.302C19.9013 56.302 19.668 56.358 19.472 56.47C19.276 56.5727 19.122 56.7313 19.01 56.946C18.9073 57.1607 18.856 57.436 18.856 57.772V58.724L18.646 58.444H20.774V59.536H18.87V65.5H17.456ZM24.7905 65.626C24.0905 65.626 23.4838 65.4813 22.9705 65.192C22.4571 64.8933 22.0605 64.4733 21.7805 63.932C21.5005 63.3813 21.3605 62.728 21.3605 61.972C21.3605 61.216 21.5005 60.5673 21.7805 60.026C22.0605 59.4753 22.4571 59.0553 22.9705 58.766C23.4838 58.4673 24.0905 58.318 24.7905 58.318C25.4905 58.318 26.0971 58.4673 26.6105 58.766C27.1331 59.0553 27.5345 59.4753 27.8145 60.026C28.1038 60.5673 28.2485 61.216 28.2485 61.972C28.2485 62.728 28.1038 63.3813 27.8145 63.932C27.5345 64.4733 27.1331 64.8933 26.6105 65.192C26.0971 65.4813 25.4905 65.626 24.7905 65.626ZM24.7905 64.52C25.4065 64.52 25.8965 64.3053 26.2605 63.876C26.6245 63.4467 26.8065 62.812 26.8065 61.972C26.8065 61.132 26.6245 60.502 26.2605 60.082C25.8965 59.6527 25.4065 59.438 24.7905 59.438C24.1838 59.438 23.6985 59.6527 23.3345 60.082C22.9705 60.502 22.7885 61.132 22.7885 61.972C22.7885 62.812 22.9658 63.4467 23.3205 63.876C23.6845 64.3053 24.1745 64.52 24.7905 64.52ZM29.8732 65.5V60.194C29.8732 59.9047 29.8639 59.6153 29.8452 59.326C29.8359 59.0273 29.8172 58.7333 29.7892 58.444H31.1612L31.3152 60.264H31.0912C31.1846 59.8253 31.3432 59.4613 31.5672 59.172C31.7912 58.8827 32.0619 58.668 32.3792 58.528C32.7059 58.388 33.0466 58.318 33.4012 58.318C33.5506 58.318 33.6766 58.3273 33.7792 58.346C33.8819 58.3553 33.9846 58.374 34.0872 58.402L34.0732 59.662C33.9146 59.5967 33.7746 59.5593 33.6532 59.55C33.5412 59.5313 33.4012 59.522 33.2332 59.522C32.8226 59.522 32.4726 59.6153 32.1832 59.802C31.8939 59.9793 31.6746 60.222 31.5252 60.53C31.3759 60.838 31.3012 61.1693 31.3012 61.524V65.5H29.8732ZM39.037 65.5V55.63H45.365V56.792H40.493V59.956H45.043V61.118H40.493V65.5H39.037ZM46.9804 65.5V55.63H51.1524C52.207 55.63 53.0237 55.882 53.6024 56.386C54.181 56.8807 54.4704 57.576 54.4704 58.472C54.4704 59.06 54.3397 59.564 54.0784 59.984C53.817 60.404 53.4484 60.726 52.9724 60.95C52.4964 61.1647 51.9364 61.272 51.2924 61.272L51.5164 61.048H51.8944C52.277 61.048 52.6177 61.146 52.9164 61.342C53.2244 61.538 53.4764 61.8507 53.6724 62.28L55.0864 65.5H53.4904L52.0904 62.266C51.9504 61.8833 51.731 61.636 51.4324 61.524C51.143 61.412 50.7837 61.356 50.3544 61.356H48.4364V65.5H46.9804ZM48.4364 60.25H50.9144C51.6144 60.25 52.1417 60.1007 52.4964 59.802C52.8604 59.5033 53.0424 59.074 53.0424 58.514C53.0424 57.9447 52.8604 57.5153 52.4964 57.226C52.1417 56.9367 51.6144 56.792 50.9144 56.792H48.4364V60.25ZM56.7421 65.5V55.63H63.2101V56.792H58.1561V59.9H62.8881V61.076H58.1561V64.324H63.2101V65.5H56.7421ZM65.0136 65.5V55.63H71.4816V56.792H66.4276V59.9H71.1596V61.076H66.4276V64.324H71.4816V65.5H65.0136ZM73.355 62.77L72.907 55.63H74.657L74.223 62.77H73.355ZM72.949 65.5V63.834H74.615V65.5H72.949Z" fill="#232323"/>
<rect x="16" y="77.5" width="112" height="24" rx="6" fill="#F2EEF7"/>
<path d="M36.872 93.62C35.992 93.62 35.236 93.444 34.604 93.092C33.98 92.732 33.5 92.228 33.164 91.58C32.828 90.924 32.66 90.152 32.66 89.264C32.66 88.376 32.828 87.608 33.164 86.96C33.5 86.312 33.98 85.812 34.604 85.46C35.236 85.1 35.992 84.92 36.872 84.92C37.464 84.92 37.996 85.004 38.468 85.172C38.948 85.34 39.36 85.588 39.704 85.916L39.2 87.14C38.824 86.836 38.46 86.62 38.108 86.492C37.764 86.356 37.368 86.288 36.92 86.288C36.064 86.288 35.408 86.548 34.952 87.068C34.504 87.58 34.28 88.312 34.28 89.264C34.28 90.216 34.504 90.952 34.952 91.472C35.408 91.992 36.064 92.252 36.92 92.252C37.368 92.252 37.764 92.188 38.108 92.06C38.46 91.924 38.824 91.7 39.2 91.388L39.704 92.612C39.36 92.932 38.948 93.18 38.468 93.356C37.996 93.532 37.464 93.62 36.872 93.62ZM43.7668 93.62C43.1428 93.62 42.6028 93.492 42.1468 93.236C41.6908 92.98 41.3348 92.616 41.0788 92.144C40.8308 91.672 40.7068 91.112 40.7068 90.464C40.7068 89.816 40.8308 89.26 41.0788 88.796C41.3348 88.324 41.6908 87.96 42.1468 87.704C42.6028 87.448 43.1428 87.32 43.7668 87.32C44.3908 87.32 44.9308 87.448 45.3868 87.704C45.8508 87.96 46.2068 88.324 46.4548 88.796C46.7108 89.26 46.8388 89.816 46.8388 90.464C46.8388 91.112 46.7108 91.672 46.4548 92.144C46.2068 92.616 45.8508 92.98 45.3868 93.236C44.9308 93.492 44.3908 93.62 43.7668 93.62ZM43.7668 92.468C44.2388 92.468 44.6148 92.304 44.8948 91.976C45.1748 91.64 45.3148 91.136 45.3148 90.464C45.3148 89.792 45.1748 89.292 44.8948 88.964C44.6148 88.636 44.2388 88.472 43.7668 88.472C43.2948 88.472 42.9188 88.636 42.6388 88.964C42.3588 89.292 42.2188 89.792 42.2188 90.464C42.2188 91.136 42.3588 91.64 42.6388 91.976C42.9188 92.304 43.2948 92.468 43.7668 92.468ZM48.1324 93.5V88.952C48.1324 88.704 48.1244 88.452 48.1084 88.196C48.0924 87.94 48.0684 87.688 48.0364 87.44H49.4884L49.6084 88.64H49.4644C49.6324 88.224 49.8884 87.9 50.2324 87.668C50.5844 87.436 51.0004 87.32 51.4804 87.32C51.9604 87.32 52.3564 87.436 52.6684 87.668C52.9884 87.892 53.2124 88.244 53.3404 88.724H53.1484C53.3164 88.292 53.5924 87.952 53.9764 87.704C54.3604 87.448 54.8004 87.32 55.2964 87.32C55.9764 87.32 56.4844 87.52 56.8204 87.92C57.1564 88.32 57.3244 88.944 57.3244 89.792V93.5H55.8244V89.852C55.8244 89.372 55.7444 89.028 55.5844 88.82C55.4244 88.604 55.1684 88.496 54.8164 88.496C54.4004 88.496 54.0724 88.644 53.8324 88.94C53.5924 89.228 53.4724 89.62 53.4724 90.116V93.5H51.9724V89.852C51.9724 89.372 51.8924 89.028 51.7324 88.82C51.5724 88.604 51.3164 88.496 50.9644 88.496C50.5484 88.496 50.2204 88.644 49.9804 88.94C49.7484 89.228 49.6324 89.62 49.6324 90.116V93.5H48.1324ZM58.9254 93.5V87.44H60.4254V93.5H58.9254ZM58.8414 86.3V84.836H60.5094V86.3H58.8414ZM62.0543 93.5V88.952C62.0543 88.704 62.0463 88.452 62.0303 88.196C62.0143 87.94 61.9903 87.688 61.9583 87.44H63.4103L63.5303 88.64H63.3863C63.5783 88.216 63.8623 87.892 64.2383 87.668C64.6143 87.436 65.0503 87.32 65.5463 87.32C66.2583 87.32 66.7943 87.52 67.1543 87.92C67.5143 88.32 67.6943 88.944 67.6943 89.792V93.5H66.1943V89.864C66.1943 89.376 66.0983 89.028 65.9063 88.82C65.7223 88.604 65.4423 88.496 65.0663 88.496C64.6023 88.496 64.2343 88.64 63.9623 88.928C63.6903 89.216 63.5543 89.6 63.5543 90.08V93.5H62.0543ZM72.0928 96.188C71.5328 96.188 71.0248 96.128 70.5688 96.008C70.1208 95.888 69.7208 95.704 69.3688 95.456L69.6928 94.376C69.9248 94.528 70.1648 94.652 70.4128 94.748C70.6608 94.844 70.9168 94.916 71.1808 94.964C71.4448 95.012 71.7128 95.036 71.9848 95.036C72.5448 95.036 72.9608 94.896 73.2328 94.616C73.5128 94.344 73.6528 93.952 73.6528 93.44V91.988H73.7728C73.6448 92.404 73.3848 92.736 72.9928 92.984C72.6088 93.232 72.1648 93.356 71.6608 93.356C71.1168 93.356 70.6408 93.236 70.2327 92.996C69.8328 92.748 69.5208 92.396 69.2968 91.94C69.0728 91.484 68.9608 90.948 68.9608 90.332C68.9608 89.716 69.0728 89.184 69.2968 88.736C69.5208 88.28 69.8328 87.932 70.2327 87.692C70.6408 87.444 71.1168 87.32 71.6608 87.32C72.1728 87.32 72.6168 87.444 72.9928 87.692C73.3768 87.932 73.6328 88.26 73.7608 88.676L73.6528 88.604L73.7728 87.44H75.2248C75.1928 87.688 75.1688 87.94 75.1528 88.196C75.1368 88.452 75.1288 88.704 75.1288 88.952V93.26C75.1288 94.212 74.8688 94.936 74.3488 95.432C73.8368 95.936 73.0848 96.188 72.0928 96.188ZM72.0688 92.204C72.5488 92.204 72.9288 92.044 73.2088 91.724C73.4968 91.396 73.6408 90.932 73.6408 90.332C73.6408 89.732 73.4968 89.272 73.2088 88.952C72.9288 88.632 72.5488 88.472 72.0688 88.472C71.5808 88.472 71.1928 88.632 70.9048 88.952C70.6168 89.272 70.4728 89.732 70.4728 90.332C70.4728 90.932 70.6168 91.396 70.9048 91.724C71.1928 92.044 71.5808 92.204 72.0688 92.204ZM83.1146 93.62C82.4346 93.62 81.8066 93.536 81.2306 93.368C80.6626 93.192 80.1746 92.952 79.7666 92.648L80.2466 91.436C80.5186 91.628 80.8026 91.792 81.0986 91.928C81.3946 92.056 81.7106 92.156 82.0466 92.228C82.3826 92.292 82.7386 92.324 83.1146 92.324C83.7466 92.324 84.2026 92.22 84.4826 92.012C84.7626 91.804 84.9026 91.532 84.9026 91.196C84.9026 90.9 84.8066 90.676 84.6146 90.524C84.4226 90.364 84.0786 90.232 83.5826 90.128L82.2266 89.852C81.4506 89.692 80.8706 89.424 80.4866 89.048C80.1026 88.672 79.9106 88.168 79.9106 87.536C79.9106 87.008 80.0506 86.548 80.3306 86.156C80.6106 85.764 81.0026 85.46 81.5066 85.244C82.0106 85.028 82.5986 84.92 83.2706 84.92C83.8706 84.92 84.4266 85.008 84.9386 85.184C85.4506 85.352 85.8786 85.596 86.2226 85.916L85.7426 87.068C85.3986 86.78 85.0226 86.568 84.6146 86.432C84.2066 86.288 83.7506 86.216 83.2466 86.216C82.6786 86.216 82.2346 86.328 81.9146 86.552C81.6026 86.768 81.4466 87.068 81.4466 87.452C81.4466 87.748 81.5426 87.984 81.7346 88.16C81.9346 88.336 82.2706 88.472 82.7426 88.568L84.0866 88.832C84.8866 88.992 85.4786 89.256 85.8626 89.624C86.2466 89.984 86.4386 90.472 86.4386 91.088C86.4386 91.592 86.3026 92.036 86.0306 92.42C85.7586 92.796 85.3746 93.092 84.8786 93.308C84.3826 93.516 83.7946 93.62 83.1146 93.62ZM90.5129 93.62C89.8889 93.62 89.3489 93.492 88.8929 93.236C88.4369 92.98 88.0809 92.616 87.8249 92.144C87.5769 91.672 87.4529 91.112 87.4529 90.464C87.4529 89.816 87.5769 89.26 87.8249 88.796C88.0809 88.324 88.4369 87.96 88.8929 87.704C89.3489 87.448 89.8889 87.32 90.5129 87.32C91.1369 87.32 91.6769 87.448 92.1329 87.704C92.5969 87.96 92.9529 88.324 93.2009 88.796C93.4569 89.26 93.5849 89.816 93.5849 90.464C93.5849 91.112 93.4569 91.672 93.2009 92.144C92.9529 92.616 92.5969 92.98 92.1329 93.236C91.6769 93.492 91.1369 93.62 90.5129 93.62ZM90.5129 92.468C90.9849 92.468 91.3609 92.304 91.6409 91.976C91.9209 91.64 92.0609 91.136 92.0609 90.464C92.0609 89.792 91.9209 89.292 91.6409 88.964C91.3609 88.636 90.9849 88.472 90.5129 88.472C90.0409 88.472 89.6649 88.636 89.3849 88.964C89.1049 89.292 88.9649 89.792 88.9649 90.464C88.9649 91.136 89.1049 91.64 89.3849 91.976C89.6649 92.304 90.0409 92.468 90.5129 92.468ZM97.6145 93.62C96.9905 93.62 96.4505 93.492 95.9945 93.236C95.5385 92.98 95.1825 92.616 94.9265 92.144C94.6785 91.672 94.5545 91.112 94.5545 90.464C94.5545 89.816 94.6785 89.26 94.9265 88.796C95.1825 88.324 95.5385 87.96 95.9945 87.704C96.4505 87.448 96.9905 87.32 97.6145 87.32C98.2385 87.32 98.7785 87.448 99.2345 87.704C99.6985 87.96 100.055 88.324 100.303 88.796C100.559 89.26 100.687 89.816 100.687 90.464C100.687 91.112 100.559 91.672 100.303 92.144C100.055 92.616 99.6985 92.98 99.2345 93.236C98.7785 93.492 98.2385 93.62 97.6145 93.62ZM97.6145 92.468C98.0865 92.468 98.4625 92.304 98.7425 91.976C99.0225 91.64 99.1625 91.136 99.1625 90.464C99.1625 89.792 99.0225 89.292 98.7425 88.964C98.4625 88.636 98.0865 88.472 97.6145 88.472C97.1425 88.472 96.7665 88.636 96.4865 88.964C96.2065 89.292 96.0665 89.792 96.0665 90.464C96.0665 91.136 96.2065 91.64 96.4865 91.976C96.7665 92.304 97.1425 92.468 97.6145 92.468ZM101.98 93.5V88.952C101.98 88.704 101.972 88.452 101.956 88.196C101.94 87.94 101.916 87.688 101.884 87.44H103.336L103.456 88.64H103.312C103.504 88.216 103.788 87.892 104.164 87.668C104.54 87.436 104.976 87.32 105.472 87.32C106.184 87.32 106.72 87.52 107.08 87.92C107.44 88.32 107.62 88.944 107.62 89.792V93.5H106.12V89.864C106.12 89.376 106.024 89.028 105.832 88.82C105.648 88.604 105.368 88.496 104.992 88.496C104.528 88.496 104.16 88.64 103.888 88.928C103.616 89.216 103.48 89.6 103.48 90.08V93.5H101.98ZM109.427 90.992L108.959 85.04H110.807L110.339 90.992H109.427ZM109.043 93.5V91.832H110.723V93.5H109.043Z" fill="#8C64B4"/>
<rect x="190" y="10" width="140" height="140" rx="70" stroke="#8C64B4" stroke-opacity="0.1" stroke-width="60"/>
<path d="M259.581 104.845C272.869 104.845 283.64 94.0736 283.64 80.7863C283.64 67.499 272.869 56.7275 259.581 56.7275C246.294 56.7275 235.522 67.499 235.522 80.7863C235.522 94.0736 246.294 104.845 259.581 104.845Z" fill="#FFDDB5"/>
<path d="M287.937 75.875L287.863 99.45C287.858 100.494 287.645 101.527 287.238 102.489C286.83 103.45 286.235 104.321 285.487 105.05C283.625 106.863 279.488 109.238 279.488 111.838L279.375 117.488H275.75L275.863 112.362C275.863 109.625 279.988 107.137 281.85 105.237C283.372 103.66 284.223 101.554 284.225 99.3625L284.288 74.6125C284.29 74.088 284.17 73.57 283.938 73.1L283.9 72.95C284.183 72.8598 284.478 72.8135 284.775 72.8125H284.887C285.289 72.8133 285.686 72.8932 286.057 73.0475C286.427 73.2019 286.764 73.4277 287.047 73.7121C287.33 73.9965 287.554 74.3338 287.707 74.7049C287.86 75.0761 287.938 75.4736 287.937 75.875ZM287.812 80.425V76.4375C287.812 76.0364 287.653 75.6517 287.369 75.368C287.086 75.0844 286.701 74.925 286.3 74.925C285.899 74.925 285.514 75.0844 285.231 75.368C284.947 75.6517 284.788 76.0364 284.788 76.4375V80.425H287.812Z" fill="#F2EEF7"/>
<path d="M287.812 76.4375V80.425H284.788V76.4375C284.788 76.0364 284.947 75.6517 285.231 75.368C285.514 75.0844 285.899 74.925 286.3 74.925C286.701 74.925 287.086 75.0844 287.369 75.368C287.653 75.6517 287.812 76.0364 287.812 76.4375Z" fill="#8C64B4"/>
<path d="M281.563 90.2L281.6 90.1875L281.725 75.875C281.727 75.2189 281.939 74.5808 282.331 74.0544C282.722 73.5279 283.272 73.1408 283.9 72.95L283.938 73.0999C284.17 73.57 284.29 74.0879 284.288 74.6125L284.225 99.3625C284.223 101.554 283.372 103.66 281.85 105.237C279.988 107.137 275.863 109.625 275.863 112.362L275.75 117.487H266.388L266.425 105.275C266.473 104.513 266.586 103.756 266.763 103.012L267.038 102.6L276.338 89.5125C276.801 88.8696 277.5 88.4356 278.281 88.3045C279.063 88.1735 279.865 88.356 280.513 88.8124C280.998 89.1543 281.366 89.6394 281.563 90.2ZM281.225 92.8625C281.416 92.6057 281.521 92.295 281.525 91.975C281.522 91.7364 281.465 91.5017 281.356 91.2891C281.248 91.0766 281.092 90.8921 280.9 90.7499C280.741 90.6311 280.559 90.5452 280.366 90.4972C280.173 90.4491 279.972 90.44 279.776 90.4702C279.579 90.5005 279.391 90.5695 279.221 90.6733C279.051 90.7772 278.904 90.9137 278.788 91.075L276.425 94.2875L278.863 96.0874L281.225 92.8625Z" fill="#FDFDFD"/>
<path d="M281.525 91.975C281.521 92.2951 281.416 92.6057 281.225 92.8625L278.862 96.0875L276.425 94.2875L278.787 91.075C278.904 90.9138 279.051 90.7772 279.221 90.6734C279.391 90.5696 279.579 90.5006 279.776 90.4703C279.972 90.4401 280.173 90.4492 280.366 90.4973C280.559 90.5453 280.74 90.6312 280.9 90.75C281.092 90.8922 281.248 91.0767 281.356 91.2892C281.465 91.5017 281.522 91.7365 281.525 91.975Z" fill="#8C64B4"/>
<path d="M238.438 90.2C238.634 89.6394 239.002 89.1543 239.488 88.8125C240.135 88.356 240.937 88.1735 241.719 88.3045C242.501 88.4356 243.199 88.8696 243.663 89.5125L252.963 102.6L253.238 103.012C253.414 103.756 253.527 104.513 253.575 105.275L253.613 117.487H245.075L244.938 111.812C244.938 109.075 240.388 106.587 238.338 104.675C237.523 103.927 236.872 103.02 236.424 102.009C235.977 100.998 235.743 99.9055 235.738 98.8L235.638 74.05C235.64 73.6507 235.721 73.2558 235.875 72.8875C236.554 73.0411 237.16 73.42 237.596 73.9625C238.032 74.505 238.271 75.1791 238.275 75.875L238.4 90.1875L238.438 90.2ZM243.575 94.2875L241.213 91.075C241.096 90.9137 240.949 90.7772 240.779 90.6733C240.609 90.5695 240.421 90.5005 240.224 90.4702C240.028 90.44 239.827 90.4491 239.634 90.4972C239.441 90.5452 239.26 90.6311 239.1 90.75C238.908 90.8921 238.752 91.0766 238.644 91.2891C238.535 91.5017 238.478 91.7364 238.475 91.975C238.479 92.295 238.584 92.6057 238.775 92.8625L241.138 96.0875L243.575 94.2875Z" fill="#FDFDFD"/>
<path d="M244.938 111.813L245.075 117.488H240.625L240.513 111.838C240.513 109.238 236.375 106.863 234.513 105.05C233.765 104.321 233.17 103.45 232.762 102.489C232.355 101.527 232.142 100.494 232.138 99.45L232.063 75.875C232.062 75.4737 232.14 75.0761 232.293 74.705C232.446 74.3338 232.67 73.9965 232.953 73.7121C233.236 73.4277 233.573 73.2019 233.943 73.0475C234.314 72.8932 234.711 72.8133 235.113 72.8125H235.225C235.444 72.812 235.662 72.8372 235.875 72.8875C235.721 73.2558 235.64 73.6507 235.638 74.05L235.738 98.8C235.743 99.9055 235.977 100.998 236.424 102.009C236.872 103.02 237.523 103.928 238.338 104.675C240.388 106.588 244.938 109.075 244.938 111.813ZM235.213 80.425V76.4375C235.213 76.0364 235.053 75.6517 234.77 75.368C234.486 75.0844 234.101 74.925 233.7 74.925C233.299 74.925 232.914 75.0844 232.631 75.368C232.347 75.6517 232.188 76.0364 232.188 76.4375V80.425H235.213Z" fill="#F2EEF7"/>
<path d="M241.212 91.075L243.575 94.2875L241.137 96.0875L238.775 92.8625C238.584 92.6058 238.479 92.2951 238.475 91.975C238.478 91.7365 238.535 91.5018 238.644 91.2892C238.752 91.0767 238.908 90.8922 239.1 90.75C239.259 90.6312 239.441 90.5453 239.634 90.4973C239.827 90.4492 240.028 90.4401 240.224 90.4703C240.421 90.5006 240.609 90.5696 240.779 90.6734C240.949 90.7772 241.096 90.9138 241.212 91.075ZM235.213 76.4375V80.425H232.188V76.4375C232.188 76.0364 232.347 75.6517 232.631 75.368C232.914 75.0844 233.299 74.925 233.7 74.925C234.101 74.925 234.486 75.0844 234.769 75.368C235.053 75.6517 235.213 76.0364 235.213 76.4375Z" fill="#8C64B4"/>
<path d="M284.78 71.5676C283.64 71.5685 282.546 72.0213 281.739 72.8267C280.931 73.6322 280.476 74.7247 280.472 75.865L280.375 87.3213C279.489 86.962 278.508 86.9119 277.59 87.1791C276.672 87.4463 275.871 88.0152 275.316 88.7938L265.99 101.919L265.72 102.326L265.732 102.335C265.397 103.279 265.211 104.271 265.182 105.273L265.142 117.49C265.142 117.822 265.274 118.14 265.509 118.374C265.743 118.608 266.061 118.74 266.392 118.74H279.375C279.702 118.74 280.016 118.612 280.249 118.384C280.483 118.155 280.618 117.844 280.625 117.518L280.75 111.843C280.75 110.523 282.891 108.814 284.454 107.568C285.165 107 285.836 106.463 286.371 105.943C287.235 105.097 287.923 104.088 288.395 102.974C288.867 101.861 289.114 100.665 289.121 99.4563L289.185 75.875C289.182 75.3021 289.065 74.7355 288.841 74.2081C288.617 73.6806 288.291 73.2028 287.881 72.8022C287.472 72.4016 286.987 72.0862 286.454 71.8743C285.922 71.6624 285.353 71.5581 284.78 71.5676ZM286.304 75.5463C286.427 75.5464 286.548 75.5724 286.66 75.6225C286.674 75.7052 286.682 75.7887 286.685 75.8726L286.672 79.8038H285.415V76.4288C285.417 76.1943 285.511 75.97 285.678 75.8048C285.844 75.6395 286.069 75.5466 286.304 75.5463ZM280.486 91.2301C280.504 91.5996 280.401 91.965 280.194 92.2713L278.319 94.9101L277.294 94.16L279.294 91.4463C279.428 91.2656 279.626 91.1426 279.847 91.1025C280.069 91.0623 280.297 91.1079 280.486 91.2301ZM284.625 104.15C284.179 104.585 283.555 105.084 282.894 105.611C280.717 107.349 278.25 109.318 278.25 111.814L278.154 116.239H267.654L267.689 105.271C267.728 104.679 267.812 104.091 267.939 103.511L277.364 90.2388C277.634 89.8643 278.041 89.6115 278.496 89.5357C278.951 89.4598 279.418 89.567 279.795 89.8338L279.809 89.8475C279.51 89.875 279.221 89.9652 278.96 90.1124C278.699 90.2595 278.472 90.4602 278.294 90.7013L275.926 93.9188C275.877 93.9849 275.842 94.06 275.822 94.1398C275.803 94.2196 275.799 94.3025 275.811 94.3838C275.823 94.4651 275.851 94.5431 275.894 94.6135C275.937 94.6838 275.993 94.7451 276.059 94.7938L277.605 95.9313L271.09 105.104C270.984 105.237 270.905 105.39 270.86 105.554C270.815 105.718 270.804 105.89 270.828 106.058C270.851 106.227 270.909 106.389 270.998 106.534C271.086 106.68 271.203 106.806 271.342 106.904C271.481 107.003 271.638 107.072 271.805 107.107C271.971 107.143 272.143 107.144 272.31 107.111C272.477 107.078 272.635 107.011 272.776 106.914C272.916 106.817 273.035 106.693 273.125 106.549L282.235 93.7226C282.605 93.1996 282.854 92.6002 282.962 91.9686C283.07 91.3369 283.035 90.689 282.86 90.0725L282.985 75.8763C282.988 75.6307 283.041 75.3883 283.14 75.1634C283.239 74.9386 283.382 74.7358 283.56 74.5672C283.739 74.3985 283.949 74.2674 284.179 74.1816C284.41 74.0958 284.655 74.057 284.9 74.0676C285.238 74.0689 285.569 74.1664 285.854 74.3488C285.379 74.4542 284.954 74.7181 284.65 75.0971C284.345 75.4761 284.178 75.9475 284.177 76.4338V80.4338C284.177 80.5996 284.243 80.7585 284.361 80.8757C284.478 80.993 284.637 81.0588 284.802 81.0588H286.677L286.619 99.4525C286.613 100.328 286.434 101.194 286.092 102.001C285.75 102.807 285.251 103.537 284.625 104.15ZM254.269 102.33L254.281 102.321L244.688 88.7963C244.133 88.0162 243.332 87.446 242.413 87.1781C241.494 86.9101 240.512 86.9602 239.625 87.3201L239.528 75.875C239.528 74.7197 239.069 73.6117 238.252 72.7947C237.435 71.9778 236.327 71.5188 235.171 71.5188C234.016 71.5188 232.908 71.9778 232.091 72.7947C231.274 73.6117 230.815 74.7197 230.815 75.875L230.891 99.4488C230.899 100.658 231.146 101.854 231.618 102.967C232.09 104.08 232.777 105.089 233.641 105.935C234.176 106.456 234.848 106.994 235.559 107.56C237.121 108.81 239.263 110.515 239.263 111.861L239.388 117.51C239.395 117.837 239.53 118.148 239.763 118.376C239.997 118.605 240.311 118.733 240.638 118.733H253.609C253.94 118.733 254.258 118.601 254.493 118.366C254.727 118.132 254.859 117.814 254.859 117.483L254.819 105.269C254.79 104.266 254.605 103.275 254.269 102.33ZM239.805 92.2688C239.598 91.9625 239.495 91.597 239.514 91.2275C239.702 91.1019 239.931 91.0539 240.153 91.0935C240.376 91.1331 240.574 91.2573 240.708 91.4401L242.708 94.1551L241.683 94.905L239.805 92.2688ZM233.315 75.875C233.318 75.7912 233.326 75.7076 233.341 75.6251C233.453 75.5748 233.574 75.5488 233.696 75.5488C233.932 75.5491 234.157 75.6427 234.324 75.809C234.49 75.9754 234.584 76.2009 234.585 76.4363V79.8113H233.328L233.315 75.875ZM241.853 116.238L241.756 111.84C241.756 109.316 239.289 107.348 237.113 105.61C236.451 105.083 235.828 104.584 235.381 104.149C234.755 103.535 234.257 102.804 233.916 101.997C233.574 101.19 233.396 100.323 233.391 99.4463L233.333 81.0525H235.208C235.373 81.0525 235.532 80.9867 235.649 80.8695C235.767 80.7523 235.833 80.5933 235.833 80.4275V76.4276C235.831 75.9449 235.667 75.4769 235.366 75.0996C235.065 74.7222 234.645 74.4576 234.175 74.3488C234.489 74.1584 234.85 74.0589 235.218 74.0613C235.456 74.062 235.691 74.1096 235.911 74.2014C236.131 74.2933 236.331 74.4275 236.499 74.5966C236.666 74.7656 236.799 74.9661 236.89 75.1865C236.98 75.407 237.026 75.6431 237.025 75.8813L237.15 90.0663C236.975 90.6824 236.94 91.3298 237.049 91.961C237.157 92.5922 237.405 93.1911 237.775 93.7138L246.875 106.549C246.97 106.683 247.091 106.796 247.23 106.884C247.369 106.971 247.523 107.03 247.685 107.058C247.847 107.085 248.013 107.08 248.173 107.044C248.333 107.007 248.484 106.939 248.618 106.844C248.752 106.749 248.866 106.629 248.953 106.49C249.04 106.351 249.1 106.196 249.127 106.034C249.154 105.872 249.15 105.707 249.113 105.546C249.077 105.386 249.009 105.235 248.914 105.101L242.399 95.9288L243.945 94.7913C244.011 94.7426 244.067 94.6813 244.11 94.611C244.152 94.5406 244.18 94.4626 244.193 94.3813C244.205 94.3 244.201 94.2171 244.181 94.1373C244.162 94.0575 244.126 93.9824 244.077 93.9163L241.715 90.7001C241.537 90.4596 241.31 90.2594 241.049 90.1127C240.788 89.966 240.499 89.8761 240.201 89.8488C240.201 89.8488 240.211 89.835 240.219 89.83C240.596 89.5646 241.063 89.459 241.518 89.536C241.973 89.613 242.379 89.8665 242.648 90.2413L251.926 103.294L252.07 103.511C252.197 104.092 252.281 104.682 252.32 105.275L252.355 116.239L241.853 116.238Z" fill="#232323"/>
<path fill-rule="evenodd" clip-rule="evenodd" d="M270.168 53.7966L258.971 42.5991L247.868 53.7016L236.766 64.804L247.963 76.0015L259.161 87.1989L270.263 76.0964L281.366 64.994L270.168 53.7966ZM270.168 53.7966L247.868 53.7016L247.963 76.0015L270.263 76.0964L270.168 53.7966Z" fill="#8C64B4"/>
<path fill-rule="evenodd" clip-rule="evenodd" d="M258.967 41.6296L282.335 64.9982L259.165 88.1685L235.796 64.8L258.967 41.6296ZM258.975 43.5688L237.735 64.8082L259.157 86.2294L280.396 64.9899L258.975 43.5688Z" fill="#232323"/>
<path d="M270.168 53.7966L270.263 76.0964L247.963 76.0015L247.868 53.7016L270.168 53.7966Z" fill="#CCBADE"/>
<path fill-rule="evenodd" clip-rule="evenodd" d="M270.168 53.7966L267.31 53.7844C267.314 54.5417 267.93 55.1582 268.687 55.1614L268.803 55.1619L268.803 55.2774C268.807 56.0347 269.423 56.6512 270.18 56.6544L270.168 53.7966ZM270.188 58.372C269.431 58.3688 268.819 58.9801 268.822 59.7374L268.835 62.7107C268.838 63.4679 269.455 64.0845 270.212 64.0877L270.188 58.372ZM270.219 65.8053C269.462 65.8021 268.851 66.4134 268.854 67.1707L268.867 70.144C268.87 70.9012 269.487 71.5178 270.244 71.521L270.219 65.8053ZM270.251 73.2386C269.494 73.2354 268.883 73.8467 268.886 74.6039L268.886 74.7194L268.771 74.719C268.014 74.7157 267.402 75.327 267.405 76.0843L270.263 76.0964L270.251 73.2386ZM265.688 76.077C265.685 75.3197 265.068 74.7032 264.311 74.7L261.337 74.6873C260.58 74.6841 259.969 75.2953 259.972 76.0526L265.688 76.077ZM258.255 76.0453C258.251 75.288 257.635 74.6715 256.878 74.6683L253.904 74.6556C253.147 74.6524 252.536 75.2637 252.539 76.0209L258.255 76.0453ZM250.821 76.0136C250.818 75.2564 250.201 74.6399 249.444 74.6366L249.329 74.6361L249.328 74.5206C249.325 73.7634 248.708 73.1469 247.951 73.1436L247.963 76.0015L250.821 76.0136ZM247.944 71.426C248.701 71.4292 249.312 70.8179 249.309 70.0607L249.297 67.0873C249.293 66.3301 248.677 65.7136 247.92 65.7103L247.944 71.426ZM247.912 63.9927C248.67 63.9959 249.281 63.3846 249.278 62.6274L249.265 59.654C249.262 58.8968 248.645 58.2803 247.888 58.277L247.912 63.9927ZM247.881 56.5594C248.638 56.5626 249.249 55.9513 249.246 55.1941L249.245 55.0786L249.361 55.0791C250.118 55.0823 250.729 54.471 250.726 53.7137L247.868 53.7016L247.881 56.5594ZM252.444 53.7211C252.447 54.4783 253.064 55.0948 253.821 55.0981L256.794 55.1107C257.551 55.114 258.163 54.5027 258.16 53.7454L252.444 53.7211ZM259.877 53.7527C259.88 54.51 260.497 55.1265 261.254 55.1297L264.227 55.1424C264.985 55.1456 265.596 54.5343 265.593 53.7771L259.877 53.7527Z" fill="#232323"/>
<path fill-rule="evenodd" clip-rule="evenodd" d="M259.656 42.6021C260.035 42.6037 260.343 42.9119 260.345 43.2906L260.351 44.7315C260.353 45.1102 260.047 45.4158 259.668 45.4142C259.29 45.4126 258.982 45.1043 258.98 44.7257L258.974 43.2847C258.972 42.9061 259.278 42.6004 259.656 42.6021ZM259.681 48.3659C260.06 48.3675 260.368 48.6757 260.369 49.0544L260.382 51.9363C260.383 52.3149 260.078 52.6206 259.699 52.6189C259.32 52.6173 259.012 52.3091 259.011 51.9304L258.998 49.0485C258.997 48.6699 259.302 48.3643 259.681 48.3659ZM259.712 55.5706C260.09 55.5723 260.399 55.8805 260.4 56.2591L260.412 59.1411C260.414 59.5197 260.108 59.8253 259.73 59.8237C259.351 59.8221 259.043 59.5139 259.041 59.1352L259.029 56.2533C259.027 55.8747 259.333 55.569 259.712 55.5706ZM259.742 62.7754C260.121 62.777 260.429 63.0853 260.431 63.4639L260.443 66.3458C260.445 66.7245 260.139 67.0301 259.76 67.0285C259.382 67.0269 259.074 66.7186 259.072 66.34L259.06 63.4581C259.058 63.0794 259.364 62.7738 259.742 62.7754ZM259.773 69.9802C260.152 69.9818 260.46 70.29 260.462 70.6687L260.474 73.5506C260.475 73.9292 260.17 74.2349 259.791 74.2333C259.413 74.2316 259.104 73.9234 259.103 73.5448L259.09 70.6628C259.089 70.2842 259.394 69.9786 259.773 69.9802ZM259.804 77.185C260.182 77.1866 260.491 77.4948 260.492 77.8735L260.505 80.7554C260.506 81.134 260.2 81.4396 259.822 81.438C259.443 81.4364 259.135 81.1282 259.133 80.7495L259.121 77.8676C259.119 77.489 259.425 77.1833 259.804 77.185ZM259.834 84.3897C260.213 84.3913 260.521 84.6996 260.523 85.0782L260.529 86.5192C260.531 86.8978 260.225 87.2035 259.846 87.2018C259.468 87.2002 259.16 86.892 259.158 86.5133L259.152 85.0724C259.15 84.6937 259.456 84.3881 259.834 84.3897Z" fill="#232323"/>
<path fill-rule="evenodd" clip-rule="evenodd" d="M281.369 65.6797C281.37 66.0583 281.065 66.3639 280.686 66.3623L279.245 66.3562C278.866 66.3546 278.558 66.0463 278.557 65.6677C278.555 65.289 278.861 64.9834 279.239 64.985L280.68 64.9911C281.059 64.9928 281.367 65.301 281.369 65.6797ZM275.605 65.6551C275.606 66.0337 275.301 66.3394 274.922 66.3378L272.04 66.3255C271.662 66.3239 271.353 66.0156 271.352 65.637C271.35 65.2583 271.656 64.9527 272.034 64.9543L274.916 64.9666C275.295 64.9682 275.603 65.2765 275.605 65.6551ZM268.4 65.6244C268.402 66.003 268.096 66.3087 267.717 66.3071L264.835 66.2948C264.457 66.2932 264.149 65.9849 264.147 65.6063C264.145 65.2277 264.451 64.922 264.83 64.9236L267.712 64.9359C268.09 64.9375 268.398 65.2458 268.4 65.6244ZM261.195 65.5937C261.197 65.9724 260.891 66.278 260.513 66.2764L257.631 66.2641C257.252 66.2625 256.944 65.9542 256.942 65.5756C256.941 65.197 257.246 64.8913 257.625 64.8929L260.507 64.9052C260.885 64.9068 261.194 65.2151 261.195 65.5937ZM253.991 65.563C253.992 65.9417 253.686 66.2473 253.308 66.2457L250.426 66.2334C250.047 66.2318 249.739 65.9236 249.737 65.5449C249.736 65.1663 250.041 64.8606 250.42 64.8623L253.302 64.8745C253.681 64.8761 253.989 65.1844 253.991 65.563ZM246.786 65.5323C246.787 65.911 246.482 66.2166 246.103 66.215L243.221 66.2027C242.843 66.2011 242.534 65.8929 242.533 65.5142C242.531 65.1356 242.837 64.83 243.215 64.8316L246.097 64.8438C246.476 64.8455 246.784 65.1537 246.786 65.5323ZM239.581 65.5017C239.583 65.8803 239.277 66.1859 238.898 66.1843L237.457 66.1782C237.079 66.1766 236.77 65.8683 236.769 65.4897C236.767 65.111 237.073 64.8054 237.452 64.807L238.892 64.8132C239.271 64.8148 239.579 65.123 239.581 65.5017Z" fill="#232323"/>
</g>
<defs>
<clipPath id="clip0_7379_2713">
<rect width="300" height="120" rx="12" fill="white"/>
</clipPath>
</defs>
</svg>
