<svg width="48" height="48" viewBox="0 0 48 48" fill="none" xmlns="http://www.w3.org/2000/svg">
<path d="M46.2749 7.68001V12.4425H38.9324V7.68001C38.9276 6.82539 39.2162 5.995 39.7499 5.32752C40.2836 4.66003 41.0302 4.19585 41.8649 4.01251C42.1092 3.96266 42.3582 3.94002 42.6074 3.94501C43.0894 3.94462 43.5667 4.04063 44.011 4.22739C44.4554 4.41415 44.8579 4.68789 45.1949 5.03251C45.8889 5.73879 46.2768 6.68988 46.2749 7.68001Z" fill="#CCBADE"/>
<path d="M12.9525 4.0127H41.865C41.0302 4.19604 40.2837 4.66021 39.75 5.3277C39.2162 5.99519 38.9277 6.82558 38.9325 7.6802V12.4427H38.9925L38.91 12.6077V41.1302C38.9113 41.6102 38.8177 42.0857 38.6346 42.5295C38.4515 42.9732 38.1825 43.3763 37.8431 43.7158C37.5036 44.0552 37.1005 44.3242 36.6567 44.5073C36.213 44.6904 35.7375 44.784 35.2575 44.7827H34.4625C34.38 44.7752 34.2975 44.7602 34.2075 44.7527C34.1175 44.7452 34.0425 44.7152 33.96 44.7002C33.7988 44.6565 33.6409 44.6013 33.4875 44.5352C33.0783 44.3626 32.7196 44.0891 32.445 43.7402C32.3238 43.5792 32.216 43.4087 32.1225 43.2302C32.07 43.1327 32.025 43.0352 31.98 42.9302C31.7868 42.4372 31.6631 41.9198 31.6125 41.3927C31.6125 41.3627 31.605 41.3402 31.605 41.3102C31.5989 41.296 31.5963 41.2806 31.5975 41.2652V39.3827H7.28247V9.6902C7.28169 8.94502 7.42775 8.207 7.71232 7.51831C7.9969 6.82962 8.4144 6.20375 8.94096 5.67649C9.46753 5.14923 10.0928 4.7309 10.7812 4.44542C11.4695 4.15993 12.2073 4.01289 12.9525 4.0127ZM35.7825 9.5702C35.7874 9.19984 35.9383 8.84639 36.2023 8.58661C36.4663 8.32682 36.8221 8.18167 37.1925 8.1827C36.8241 8.13849 36.4882 7.95053 36.2578 7.65973C36.0274 7.36894 35.9212 6.99889 35.9625 6.6302C35.9622 6.81359 35.9256 6.99511 35.8548 7.1643C35.7841 7.33349 35.6805 7.487 35.5501 7.61597C35.4198 7.74495 35.2651 7.84685 35.0952 7.9158C34.9253 7.98475 34.7434 8.01938 34.56 8.0177C34.9276 8.06221 35.2627 8.25056 35.4918 8.54152C35.7209 8.83248 35.8254 9.20235 35.7825 9.5702ZM35.7825 36.9227C35.786 36.5519 35.9365 36.1977 36.2008 35.9376C36.4651 35.6775 36.8217 35.5328 37.1925 35.5352C36.8246 35.4899 36.4894 35.3016 36.2592 35.0111C36.029 34.7206 35.9225 34.3512 35.9625 33.9827C35.9615 34.1659 35.9244 34.3471 35.8534 34.516C35.7824 34.6848 35.6788 34.8381 35.5486 34.9669C35.4184 35.0958 35.264 35.1977 35.0944 35.2669C34.9248 35.3361 34.7432 35.3712 34.56 35.3702C34.7423 35.3917 34.9185 35.4489 35.0787 35.5386C35.2388 35.6283 35.3797 35.7487 35.4933 35.8929C35.6068 36.0371 35.6908 36.2023 35.7404 36.379C35.7901 36.5557 35.8043 36.7405 35.7825 36.9227ZM36.6075 31.4327V12.3527C35.282 12.2155 34.0542 11.5925 33.1609 10.6036C32.2677 9.61482 31.7722 8.33026 31.77 6.9977V6.9827H14.8875V6.9977C14.8855 8.27444 14.4294 9.50885 13.6009 10.4803C12.7724 11.4517 11.6254 12.0968 10.365 12.3002V31.5827C11.5856 31.8224 12.6846 32.4799 13.473 33.4422C14.2614 34.4044 14.69 35.6112 14.685 36.8552H31.77C31.7696 35.9282 32.0083 35.0167 32.4628 34.2088C32.9174 33.4008 33.5725 32.7237 34.365 32.2427C35.0938 31.9236 35.843 31.653 36.6075 31.4327Z" fill="#F6B884"/>
<path d="M37.1925 8.18238C36.8222 8.18136 36.4663 8.32651 36.2023 8.58629C35.9383 8.84608 35.7875 9.19953 35.7825 9.56988C35.8255 9.20204 35.721 8.83217 35.4919 8.5412C35.2627 8.25024 34.9277 8.06189 34.56 8.01738C34.7434 8.01907 34.9253 7.98444 35.0953 7.91549C35.2652 7.84654 35.4198 7.74464 35.5502 7.61566C35.6806 7.48668 35.7841 7.33317 35.8549 7.16399C35.9257 6.9948 35.9623 6.81328 35.9625 6.62988C35.9213 6.99858 36.0275 7.36863 36.2578 7.65942C36.4882 7.95021 36.8242 8.13818 37.1925 8.18238ZM37.1925 35.5349C36.8217 35.5325 36.4651 35.6772 36.2008 35.9373C35.9365 36.1973 35.7861 36.5516 35.7825 36.9224C35.8044 36.7401 35.7901 36.5554 35.7405 36.3787C35.6909 36.2019 35.6069 36.0368 35.4933 35.8926C35.3798 35.7483 35.2389 35.628 35.0787 35.5383C34.9186 35.4486 34.7423 35.3914 34.56 35.3699C34.7432 35.3709 34.9248 35.3358 35.0945 35.2666C35.2641 35.1974 35.4184 35.0954 35.5487 34.9666C35.6789 34.8378 35.7825 34.6845 35.8535 34.5157C35.9245 34.3468 35.9616 34.1656 35.9625 33.9824C35.9225 34.3509 36.0291 34.7203 36.2593 35.0108C36.4894 35.3013 36.8247 35.4896 37.1925 35.5349ZM12.249 8.18238C11.8787 8.18136 11.5228 8.32651 11.2588 8.58629C10.9948 8.84608 10.844 9.19953 10.839 9.56988C10.882 9.20204 10.7775 8.83217 10.5484 8.5412C10.3192 8.25024 9.9842 8.06189 9.61654 8.01738C9.79993 8.01907 9.98183 7.98444 10.1518 7.91549C10.3217 7.84654 10.4763 7.74464 10.6067 7.61566C10.7371 7.48668 10.8406 7.33317 10.9114 7.16399C10.9822 6.9948 11.0188 6.81328 11.019 6.62988C10.9778 6.99858 11.084 7.36863 11.3143 7.65942C11.5447 7.95021 11.8807 8.13818 12.249 8.18238ZM11.787 35.6406C11.4162 35.6382 11.0596 35.7829 10.7953 36.043C10.531 36.3031 10.3806 36.6573 10.377 37.0281C10.3989 36.8459 10.3846 36.6611 10.335 36.4844C10.2854 36.3077 10.2014 36.1425 10.0878 35.9983C9.97427 35.8541 9.83338 35.7337 9.67324 35.644C9.51309 35.5543 9.33683 35.4971 9.15454 35.4756C9.33774 35.4766 9.51933 35.4415 9.68896 35.3723C9.85859 35.3031 10.0129 35.2012 10.1432 35.0724C10.2734 34.9435 10.377 34.7903 10.448 34.6214C10.519 34.4525 10.5561 34.2713 10.557 34.0881C10.517 34.4566 10.6236 34.826 10.8538 35.1165C11.0839 35.407 11.4192 35.5953 11.787 35.6406Z" fill="#FFDDB5"/>
<path d="M36.6075 12.3524V31.4324C35.843 31.6527 35.0938 31.9233 34.365 32.2424C33.5725 32.7234 32.9174 33.4005 32.4628 34.2085C32.0083 35.0164 31.7697 35.9279 31.77 36.8549H14.685C14.69 35.611 14.2615 34.4041 13.4731 33.4419C12.6847 32.4796 11.5856 31.8221 10.365 31.5824V12.2999C11.6254 12.0965 12.7724 11.4514 13.6009 10.48C14.4294 9.50857 14.8855 8.27416 14.8875 6.99742V6.98242H31.77V6.99742C31.7722 8.32998 32.2677 9.61454 33.161 10.6034C34.0542 11.5922 35.282 12.2153 36.6075 12.3524ZM30.96 18.2549C30.9592 16.7682 30.5177 15.315 29.6913 14.0791C28.8648 12.8433 27.6905 11.8801 26.3168 11.3115C24.9431 10.7429 23.4316 10.5943 21.9735 10.8846C20.5153 11.1748 19.176 11.8908 18.1247 12.9421C17.0734 13.9934 16.3574 15.3328 16.0671 16.7909C15.7769 18.2491 15.9255 19.7605 16.4941 21.1342C17.0627 22.508 18.0258 23.6823 19.2617 24.5087C20.4976 25.3352 21.9507 25.7767 23.4375 25.7774C24.4254 25.7775 25.4036 25.583 26.3163 25.205C27.2291 24.827 28.0584 24.2729 28.7569 23.5744C29.4555 22.8758 30.0096 22.0465 30.3876 21.1338C30.7656 20.2211 30.9601 19.2428 30.96 18.2549Z" fill="#F2EEF7"/>
<path d="M34.2075 44.7524C34.29 44.7674 34.365 44.7749 34.44 44.7899H34.08C33.8625 44.7749 29.55 44.8199 29.3625 44.8124H5.99246C3.62996 44.8124 1.70996 42.5099 1.70996 39.6599C1.71253 39.5668 1.72256 39.474 1.73996 39.3824H31.59V41.1299C31.5887 41.1751 31.5912 41.2202 31.5975 41.2649C31.5963 41.2803 31.5989 41.2958 31.605 41.3099C31.6012 41.3373 31.6012 41.3651 31.605 41.3924C31.6542 41.9205 31.7806 42.4385 31.98 42.9299C32.025 43.0349 32.07 43.1324 32.1225 43.2299C32.2132 43.41 32.3212 43.5808 32.445 43.7399C32.7196 44.0888 33.0783 44.3624 33.4875 44.5349C33.6382 44.6076 33.7967 44.663 33.96 44.6999C34.0425 44.7149 34.125 44.7374 34.2075 44.7524ZM23.4375 10.7324C24.9256 10.7309 26.3807 11.1709 27.6188 11.9965C28.8568 12.8222 29.8222 13.9966 30.3927 15.371C30.9632 16.7454 31.1132 18.2582 30.8238 19.7179C30.5344 21.1776 29.8186 22.5187 28.7668 23.5715C28.7668 23.5715 26.3747 25.3415 24.9153 25.6323C23.4559 25.9232 21.943 25.7747 20.568 25.2055C19.193 24.6364 18.0177 23.6722 17.1908 22.435C16.3638 21.1978 15.9225 19.7431 15.9225 18.2549C15.9223 16.2611 16.7137 14.3487 18.1229 12.9381C19.532 11.5276 21.4436 10.7342 23.4375 10.7324Z" fill="#CCBADE"/>
<path d="M29.9197 29.3896H16.9597C16.8603 29.3896 16.7649 29.3501 16.6946 29.2798C16.6242 29.2095 16.5847 29.1141 16.5847 29.0146C16.5847 28.9152 16.6242 28.8198 16.6946 28.7495C16.7649 28.6792 16.8603 28.6396 16.9597 28.6396H29.9197C30.0192 28.6396 30.1146 28.6792 30.1849 28.7495C30.2552 28.8198 30.2947 28.9152 30.2947 29.0146C30.2947 29.1141 30.2552 29.2095 30.1849 29.2798C30.1146 29.3501 30.0192 29.3896 29.9197 29.3896Z" fill="#191919"/>
<path d="M45.7327 4.51392C45.3276 4.09385 44.8415 3.76019 44.3038 3.53307C43.7662 3.30595 43.1881 3.19007 42.6045 3.19242C42.338 3.192 42.072 3.21712 41.8102 3.26742H12.9555C11.2525 3.2692 9.61974 3.94646 8.41546 5.1506C7.21118 6.35474 6.53373 7.98741 6.53175 9.69042V38.6284H1.737C1.54354 38.6442 1.36184 38.7276 1.22384 38.8641C1.08584 39.0006 1.00038 39.1814 0.982496 39.3747C0.967802 39.4697 0.959782 39.5657 0.958496 39.6619C0.958496 42.9192 3.21675 45.5682 5.9925 45.5682H29.4165C29.6565 45.5682 30.4005 45.5622 31.2285 45.5554C32.3535 45.5472 33.894 45.5352 34.0785 45.5397H34.4625C34.4677 45.5397 34.4722 45.5397 34.4775 45.5397H35.2605C36.4275 45.5385 37.5465 45.0743 38.3717 44.2491C39.1969 43.4239 39.6611 42.305 39.6622 41.1379V13.1929H46.275C46.4739 13.1929 46.6647 13.1139 46.8053 12.9732C46.946 12.8326 47.025 12.6418 47.025 12.4429V7.67667C47.0284 6.49322 46.5639 5.35638 45.7327 4.51392ZM31.2165 44.0532C30.3007 44.0607 29.4915 44.0742 29.3812 44.0659H5.9925C4.17075 44.0659 2.667 42.3409 2.47875 40.1284H30.843V41.1319C30.843 41.1904 30.8505 41.2519 30.855 41.3134C30.8595 41.3749 30.855 41.4252 30.8617 41.4754C30.8925 41.7432 30.9367 41.9877 30.9877 42.2254L31.0125 42.3349C31.0591 42.5402 31.1162 42.743 31.1835 42.9424C31.1835 42.9529 31.1895 42.9642 31.1932 42.9739C31.2558 43.1496 31.3286 43.3214 31.4115 43.4884C31.437 43.5409 31.464 43.5904 31.491 43.6384C31.5495 43.7464 31.6107 43.8484 31.6747 43.9444C31.6965 43.9782 31.7152 44.0194 31.7377 44.0502L31.2165 44.0532ZM39.216 4.80567C39.1247 4.92227 39.0393 5.04343 38.9602 5.16867C38.9002 5.25792 38.8342 5.34117 38.7817 5.43342C38.7081 5.57007 38.6418 5.71051 38.583 5.85417C38.5417 5.94717 38.4915 6.03567 38.457 6.13167C38.4014 6.29499 38.3558 6.46155 38.3205 6.63042C38.2995 6.71517 38.2687 6.79692 38.253 6.88392C38.2061 7.14557 38.1823 7.41084 38.1817 7.67667V12.4317C38.1679 12.4894 38.1609 12.5486 38.1607 12.6079V41.1327C38.16 41.902 37.854 42.6396 37.31 43.1836C36.766 43.7277 36.0283 44.0336 35.259 44.0344L34.539 44.0382C34.0908 44.0144 33.6619 43.8486 33.3143 43.5647C32.9667 43.2809 32.7184 42.8938 32.6055 42.4594C32.4793 42.0868 32.3958 41.7011 32.3565 41.3097C32.3565 41.2797 32.352 41.2482 32.349 41.2167C32.346 41.1852 32.349 41.1597 32.349 41.1327V39.3784C32.349 39.1795 32.27 38.9887 32.1293 38.8481C31.9887 38.7074 31.7979 38.6284 31.599 38.6284H8.03175V9.68817C8.03333 8.38287 8.55262 7.13149 9.47568 6.20857C10.3987 5.28565 11.6502 4.76656 12.9555 4.76517H39.2445C39.2332 4.77717 39.225 4.79292 39.216 4.80567ZM45.525 11.6929H39.6817V7.67667C39.6819 7.50245 39.697 7.32857 39.7267 7.15692C39.8253 6.57217 40.0965 6.03027 40.5055 5.60086C40.9145 5.17145 41.4425 4.87415 42.0217 4.74717C42.2135 4.7082 42.4088 4.68984 42.6045 4.69242C42.9881 4.69087 43.368 4.76717 43.7212 4.91672C44.0744 5.06626 44.3936 5.28592 44.6595 5.56242C45.216 6.12512 45.5272 6.88524 45.525 7.67667V11.6929Z" fill="#191919"/>
<path d="M9.61646 12.2999V31.5794C9.61632 31.7532 9.67661 31.9218 9.78702 32.0561C9.89742 32.1905 10.0511 32.2823 10.2217 32.3159C11.27 32.5256 12.2132 33.0922 12.8909 33.919C13.5686 34.7459 13.9389 35.782 13.9387 36.8511C13.9387 37.05 14.0177 37.2408 14.1584 37.3814C14.299 37.5221 14.4898 37.6011 14.6887 37.6011H31.7722C31.9711 37.6011 32.1619 37.5221 32.3025 37.3814C32.4432 37.2408 32.5222 37.05 32.5222 36.8511C32.5188 36.0551 32.722 35.2718 33.1119 34.5779C33.5018 33.8839 34.0651 33.303 34.7467 32.8919C35.4222 32.5988 36.1165 32.3513 36.825 32.1509C36.9797 32.1047 37.1153 32.0098 37.2118 31.8804C37.3083 31.7509 37.3604 31.5938 37.3605 31.4324V12.3501C37.3605 12.1642 37.2914 11.9849 37.1667 11.847C37.042 11.7091 36.8705 11.6224 36.6855 11.6039C35.5408 11.4916 34.4793 10.9557 33.7094 10.1013C32.9394 9.24683 32.5165 8.13551 32.5237 6.98535C32.5237 6.78644 32.4447 6.59567 32.304 6.45502C32.1634 6.31437 31.9726 6.23535 31.7737 6.23535H14.8845C14.6845 6.23772 14.4935 6.31894 14.353 6.46135C14.2126 6.60376 14.134 6.79584 14.1345 6.99585C14.1299 8.09242 13.7374 9.15199 13.0265 9.98688C12.3155 10.8218 11.332 11.3781 10.2502 11.5574C10.0733 11.5851 9.91223 11.6752 9.796 11.8114C9.67977 11.9476 9.61608 12.1208 9.61646 12.2999ZM11.1165 12.9059C12.2878 12.5799 13.3368 11.9156 14.1323 10.9961C14.9277 10.0766 15.4341 8.94287 15.588 7.73685H31.0657C31.214 9.00463 31.7566 10.1939 32.6168 11.1369C33.4771 12.0799 34.6116 12.729 35.8605 12.9929V30.8796C35.2222 31.0674 34.5997 31.3054 33.999 31.5914L33.9802 31.6026C33.1831 32.0802 32.5061 32.7342 32.0011 33.5143C31.4961 34.2944 31.1767 35.1798 31.0672 36.1026H15.3922C15.2469 34.9303 14.7661 33.8248 14.0078 32.9191C13.2494 32.0133 12.2457 31.3458 11.1172 30.9966L11.1165 12.9059Z" fill="#191919"/>
<path d="M23.4397 26.5249C25.0754 26.525 26.6745 26.0401 28.0347 25.1314C29.3948 24.2227 30.4549 22.9311 31.081 21.4199C31.707 19.9086 31.8709 18.2457 31.5518 16.6414C31.2327 15.037 30.445 13.5633 29.2884 12.4067C28.1317 11.25 26.658 10.4623 25.0537 10.1433C23.4493 9.82417 21.7864 9.98801 20.2752 10.6141C18.764 11.2401 17.4723 12.3002 16.5636 13.6604C15.655 15.0205 15.17 16.6196 15.1702 18.2554C15.1725 20.4479 16.0446 22.5499 17.5949 24.1002C19.1452 25.6505 21.2472 26.5225 23.4397 26.5249ZM23.4397 11.4851C24.7787 11.485 26.0878 11.8819 27.2012 12.6258C28.3147 13.3696 29.1826 14.4269 29.6951 15.664C30.2076 16.9011 30.3418 18.2624 30.0807 19.5757C29.8195 20.8891 29.1748 22.0955 28.228 23.0424C27.2812 23.9893 26.0748 24.6342 24.7615 24.8955C23.4482 25.1568 22.0869 25.0227 20.8497 24.5103C19.6126 23.9979 18.5552 23.1302 17.8112 22.0168C17.0673 20.9034 16.6702 19.5944 16.6702 18.2554C16.672 16.4605 17.3857 14.7396 18.6548 13.4703C19.924 12.2011 21.6448 11.4871 23.4397 11.4851ZM26.5829 30.9611H20.2964C20.197 30.9611 20.1016 31.0006 20.0313 31.071C19.9609 31.1413 19.9214 31.2367 19.9214 31.3361C19.9214 31.4356 19.9609 31.531 20.0313 31.6013C20.1016 31.6716 20.197 31.7111 20.2964 31.7111H26.5829C26.6824 31.7111 26.7778 31.6716 26.8481 31.6013C26.9184 31.531 26.9579 31.4356 26.9579 31.3361C26.9579 31.2367 26.9184 31.1413 26.8481 31.071C26.7778 31.0006 26.6824 30.9611 26.5829 30.9611Z" fill="#191919"/>
</svg>
