<svg width="48" height="48" viewBox="0 0 48 48" fill="none" xmlns="http://www.w3.org/2000/svg">
<path d="M25.6791 46.4412C36.855 46.4412 45.9149 37.3814 45.9149 26.2055C45.9149 15.0296 36.855 5.96973 25.6791 5.96973C14.5032 5.96973 5.44336 15.0296 5.44336 26.2055C5.44336 37.3814 14.5032 46.4412 25.6791 46.4412Z" fill="#FFF9ED"/>
<path d="M41.5799 21.0454C41.3873 19.5997 41.0481 18.1773 40.5674 16.8004C40.0627 15.3429 39.396 13.9466 38.5799 12.6379C36.8975 9.84957 34.5707 7.50554 31.7949 5.80249C29.0192 4.09945 25.8754 3.08708 22.6274 2.85035C23.0774 2.81285 23.5349 2.79785 23.9999 2.79785C35.3324 2.79785 44.5199 12.2929 44.5199 24.0004C44.5199 35.7079 35.3324 45.2029 23.9999 45.2029C23.5349 45.2029 23.0774 45.1879 22.6274 45.1504C23.897 45.0687 25.1556 44.8627 26.3849 44.5354C29.4661 43.7105 32.3085 42.1686 34.6799 40.0354C36.817 38.1166 38.5454 35.7868 39.7619 33.1851C40.9784 30.5833 41.6579 27.7631 41.7599 24.8929C41.7749 24.6004 41.7824 24.3004 41.7824 24.0004C41.7835 23.0119 41.7158 22.0245 41.5799 21.0454Z" fill="#F6B884"/>
<path d="M41.7823 23.9999C41.7823 24.2999 41.7748 24.5999 41.7598 24.8924C41.4057 24.5137 41.1869 24.0285 41.1373 23.5124C41.1067 23.2787 41.0916 23.0432 41.0923 22.8074C41.0983 22.5427 41.1285 22.2791 41.1823 22.0199C41.2478 21.6715 41.383 21.3398 41.5798 21.0449C41.7157 22.024 41.7834 23.0114 41.7823 23.9999Z" fill="#F2EEF7"/>
<path d="M41.5799 21.0455C41.3831 21.3404 41.2479 21.672 41.1824 22.0205L41.1149 21.998L37.5749 21.9305L37.4999 21.9455C37.4824 21.6489 37.3943 21.3608 37.243 21.1051C37.0917 20.8494 36.8815 20.6335 36.6299 20.4755L34.9574 20.798C34.601 19.4211 33.9794 18.1269 33.1274 16.988L35.1449 16.538C35.2852 16.8851 35.5576 17.1622 35.9022 17.3085C36.2467 17.4548 36.6353 17.4582 36.9824 17.318C37.3295 17.1777 37.6067 16.9054 37.753 16.5608C37.8993 16.2162 37.9027 15.8276 37.7624 15.4805H37.7699C38.2199 16.5305 39.7049 15.893 40.1549 16.9355L40.5674 16.8005C41.0481 18.1775 41.3873 19.5998 41.5799 21.0455Z" fill="#F2EEF7"/>
<path d="M41.1149 21.9972L41.1824 22.0197C41.1285 22.2789 41.0984 22.5425 41.0924 22.8072C41.0917 23.0429 41.1067 23.2784 41.1374 23.5122L41.0849 23.5197L37.5449 23.4522L37.4849 23.4447C37.53 23.2123 37.555 22.9764 37.5599 22.7397C37.5672 22.4733 37.5471 22.2069 37.4999 21.9447L37.5749 21.9297L41.1149 21.9972Z" fill="#F2EEF7"/>
<path d="M40.5224 29.0853C40.5137 29.0571 40.4951 29.0331 40.4699 29.0178C40.4277 28.9606 40.3771 28.91 40.3199 28.8678H40.3124C40.222 28.8019 40.116 28.7606 40.0049 28.7478C39.8662 28.7293 39.7252 28.7524 39.5997 28.814C39.4741 28.8756 39.3697 28.9731 39.2995 29.0941C39.2294 29.2151 39.1967 29.3542 39.2056 29.4938C39.2144 29.6333 39.2645 29.7671 39.3494 29.8783C39.4343 29.9894 39.5503 30.0729 39.6826 30.1181C39.815 30.1633 39.9578 30.1683 40.0929 30.1324C40.2281 30.0965 40.3496 30.0213 40.4421 29.9164C40.5345 29.8114 40.5938 29.6814 40.6124 29.5428C40.633 29.3846 40.6014 29.2239 40.5224 29.0853ZM36.2174 32.0478C36.257 32.0935 36.3024 32.1338 36.3524 32.1678C36.4681 32.2464 36.6045 32.289 36.7443 32.29C36.8842 32.2911 37.0213 32.2507 37.1382 32.1739C37.2551 32.0971 37.3466 31.9873 37.4011 31.8585C37.4557 31.7297 37.4708 31.5876 37.4445 31.4502C37.4183 31.3128 37.352 31.1863 37.2538 31.0866C37.1557 30.9869 37.0302 30.9186 36.8932 30.8903C36.7562 30.8619 36.6139 30.8748 36.4843 30.9273C36.3546 30.9798 36.2435 31.0696 36.1649 31.1853C36.0792 31.3154 36.0381 31.4698 36.0475 31.6253C36.057 31.7808 36.1166 31.929 36.2174 32.0478ZM41.1374 23.5128C41.1869 24.0289 41.4058 24.5141 41.7599 24.8928C41.6578 27.7631 40.9783 30.5833 39.7618 33.185C38.5454 35.7867 36.817 38.1166 34.6799 40.0353L34.4099 39.7278C34.5571 39.5921 34.6741 39.4268 34.7533 39.2428C34.8324 39.0588 34.8718 38.8601 34.8689 38.6599C34.8661 38.4596 34.8211 38.2622 34.7368 38.0804C34.6526 37.8987 34.5309 37.7368 34.3799 37.6053L32.5274 36.3828V36.3753C32.7549 36.4577 33.0043 36.4561 33.2307 36.3707C33.4571 36.2852 33.6455 36.1217 33.7618 35.9095C33.8782 35.6974 33.9148 35.4506 33.8652 35.2138C33.8155 34.977 33.6828 34.7658 33.491 34.6182C33.2992 34.4707 33.061 34.3966 32.8194 34.4094C32.5777 34.4221 32.3486 34.5208 32.1734 34.6877C31.9982 34.8546 31.8884 35.0786 31.864 35.3193C31.8395 35.56 31.9019 35.8016 32.0399 36.0003L30.5849 36.0528C30.4068 35.7144 30.1183 35.4471 29.7674 35.2953C29.6558 35.2578 29.5398 35.2351 29.4224 35.2278L29.5724 33.1728C31.1177 32.3323 32.4382 31.1323 33.4224 29.6743C34.4066 28.2163 35.0257 26.5429 35.2274 24.7953L36.5399 24.9603C36.808 24.8028 37.034 24.5828 37.1985 24.3189C37.3631 24.0551 37.4613 23.7554 37.4849 23.4453L37.5449 23.4528L41.0849 23.5203L41.1374 23.5128Z" fill="#F2EEF7"/>
<path d="M40.5223 29.0852C40.6013 29.2238 40.6329 29.3845 40.6123 29.5427C40.5937 29.6813 40.5345 29.8113 40.442 29.9163C40.3495 30.0212 40.2281 30.0964 40.0929 30.1323C39.9577 30.1682 39.8149 30.1632 39.6826 30.118C39.5502 30.0727 39.4343 29.9893 39.3494 29.8782C39.2644 29.767 39.2144 29.6332 39.2055 29.4936C39.1966 29.3541 39.2293 29.215 39.2995 29.094C39.3696 28.973 39.4741 28.8755 39.5996 28.8139C39.7252 28.7522 39.8662 28.7292 40.0048 28.7477C40.1159 28.7604 40.2219 28.8018 40.3123 28.8677H40.3198C40.377 28.9099 40.4276 28.9605 40.4698 29.0177C40.4896 29.0383 40.5072 29.0609 40.5223 29.0852ZM40.5673 16.8002L40.1548 16.9352C39.7048 15.8927 38.2198 16.5302 37.7698 15.4802C37.3198 14.4302 38.8198 13.8077 38.3773 12.7652L38.5798 12.6377C39.3959 13.9465 40.0626 15.3427 40.5673 16.8002Z" fill="#F2EEF7"/>
<path d="M11.4375 26.9321L11.3475 27.0596C12.3075 28.2296 9.28496 29.0546 9.28496 29.0546C8.06996 29.4221 6.91496 29.8946 6.99746 30.3746C7.07996 30.8546 8.54246 30.6521 9.86246 30.3521C8.61746 30.7271 7.30496 31.2296 7.43246 31.6721C7.54496 32.0546 12.3075 30.7121 12.4125 31.0946C12.5175 31.4771 7.75496 32.8271 7.86746 33.2096L5.95496 34.1021C4.24884 30.8299 3.39943 27.1789 3.48599 23.4896C3.57255 19.8004 4.59226 16.1932 6.44996 13.0046C7.47163 11.2679 8.73417 9.68466 10.2 8.30211C13.5859 5.10004 17.9785 3.17281 22.6275 2.84961C25.8754 3.08634 29.0192 4.0987 31.795 5.80175C34.5707 7.50479 36.8975 9.84882 38.58 12.6371L38.3775 12.7646C38.82 13.8071 37.3275 14.4371 37.77 15.4796H37.7625C37.761 15.4613 37.7559 15.4434 37.7475 15.4271C37.6746 15.2562 37.5687 15.1014 37.436 14.9714C37.3033 14.8414 37.1463 14.7388 36.9739 14.6695C36.8015 14.6002 36.6172 14.5656 36.4314 14.5675C36.2457 14.5695 36.0621 14.608 35.8912 14.6809C35.7203 14.7537 35.5655 14.8596 35.4355 14.9923C35.3055 15.125 35.2029 15.2821 35.1336 15.4544C35.0643 15.6268 35.0297 15.8111 35.0316 15.9969C35.0336 16.1827 35.0721 16.3662 35.145 16.5371L33.1275 16.9871C31.5814 14.9159 29.3528 13.4582 26.8357 12.8715C24.3186 12.2848 21.6751 12.607 19.3726 13.7811C17.0701 14.9552 15.2569 16.9057 14.2536 19.2876C13.2503 21.6695 13.1215 24.3294 13.89 26.7971L11.985 27.3296L11.4375 26.9321ZM10.41 16.7771C10.6158 16.9148 10.8597 16.9844 11.1072 16.9764C11.3547 16.9683 11.5935 16.8829 11.79 16.7321C12.0419 16.5922 12.2301 16.3605 12.3154 16.0852C12.4006 15.8099 12.3763 15.5124 12.2475 15.2546C12.0555 15.0386 11.7873 14.9054 11.4992 14.883C11.211 14.8606 10.9255 14.9508 10.7025 15.1346C10.4499 15.2738 10.2615 15.5061 10.1775 15.782C10.0935 16.0579 10.1204 16.3557 10.2525 16.6121C10.295 16.6758 10.3483 16.7316 10.41 16.7771Z" fill="#F2EEF7"/>
<path d="M37.7625 15.48C37.8489 15.8084 37.8022 16.1576 37.6326 16.4517C37.463 16.7459 37.1842 16.9613 36.8567 17.0511C36.5292 17.141 36.1795 17.098 35.8836 16.9315C35.5876 16.765 35.3693 16.4885 35.276 16.162C35.1827 15.8355 35.222 15.4854 35.3853 15.1877C35.5487 14.89 35.8229 14.6687 36.1484 14.572C36.4739 14.4752 36.8244 14.5108 37.1238 14.671C37.4232 14.8312 37.6473 15.103 37.7475 15.4275C37.7559 15.4438 37.761 15.4616 37.7625 15.48ZM37.5 21.945C37.5472 22.2072 37.5673 22.4736 37.56 22.74C37.5552 22.9767 37.5301 23.2125 37.485 23.445C37.4615 23.755 37.3633 24.0548 37.1987 24.3186C37.0341 24.5824 36.8081 24.8025 36.54 24.96L35.2275 24.795C35.2791 24.377 35.3041 23.9561 35.3025 23.535C35.3029 22.6116 35.187 21.6918 34.9575 20.7975L36.63 20.475C36.8816 20.633 37.0918 20.8489 37.2431 21.1046C37.3944 21.3602 37.4825 21.6484 37.5 21.945ZM37.1475 30.9975C37.2308 31.0539 37.3011 31.1274 37.3537 31.2131C37.4063 31.2989 37.4401 31.3948 37.4526 31.4946C37.4652 31.5945 37.4564 31.6958 37.4266 31.7919C37.3969 31.888 37.3471 31.9767 37.2804 32.052C37.2137 32.1273 37.1317 32.1875 37.0399 32.2286C36.948 32.2697 36.8485 32.2907 36.7479 32.2903C36.6473 32.2899 36.548 32.268 36.4565 32.2261C36.3651 32.1842 36.2836 32.1233 36.2175 32.0475C36.1167 31.9287 36.0572 31.7804 36.0477 31.6249C36.0382 31.4695 36.0794 31.3151 36.165 31.185C36.2168 31.1077 36.2834 31.0414 36.3611 30.9901C36.4387 30.9387 36.5257 30.9033 36.6171 30.8859C36.7085 30.8684 36.8024 30.8693 36.8935 30.8885C36.9846 30.9076 37.0709 30.9447 37.1475 30.9975Z" fill="#F2EEF7"/>
<path d="M35.3025 23.5349C35.3041 23.9561 35.2791 24.3769 35.2275 24.7949C34.9238 27.4655 33.6471 29.9306 31.641 31.7194C29.635 33.5082 27.0403 34.4954 24.3525 34.4924C23.6092 34.4941 22.8678 34.4187 22.14 34.2674C20.1074 33.8514 18.2345 32.8673 16.739 31.4293C15.2434 29.9913 14.1865 28.1584 13.6911 26.1437C13.1958 24.1289 13.2822 22.015 13.9404 20.0474C14.5986 18.0798 15.8016 16.3394 17.4095 15.0283C19.0175 13.7172 20.9645 12.8892 23.0243 12.6406C25.0841 12.3919 27.1722 12.7328 29.0459 13.6236C30.9197 14.5144 32.5023 15.9186 33.6098 17.6731C34.7173 19.4275 35.3042 21.4602 35.3025 23.5349ZM29.715 23.6774C29.7143 22.6012 29.3944 21.5494 28.7959 20.655C28.1974 19.7606 27.3471 19.0638 26.3526 18.6527C25.358 18.2415 24.2639 18.1345 23.2086 18.3452C22.1532 18.5559 21.184 19.0748 20.4236 19.8363C19.6631 20.5978 19.1456 21.5677 18.9363 22.6233C18.7271 23.6789 18.8356 24.7729 19.2481 25.7669C19.6607 26.7609 20.3587 27.6102 21.2539 28.2075C22.1491 28.8047 23.2013 29.1231 24.2775 29.1224C24.9921 29.1219 25.6995 28.9807 26.3595 28.7068C27.0195 28.4329 27.6191 28.0317 28.124 27.526C28.6289 27.0204 29.0293 26.4203 29.3023 25.76C29.5753 25.0996 29.7155 24.392 29.715 23.6774Z" fill="#F6B884"/>
<path d="M24.0149 37.8979C23.9849 38.1904 23.8799 39.2329 23.8424 40.3354C23.9624 39.2329 24.0074 38.1829 24.0149 37.8979ZM23.8349 40.3729C23.6699 41.8729 23.3699 43.4629 22.8299 43.3729C22.2899 43.2829 22.1999 41.8729 22.2374 40.4329L22.1924 40.4029C22.2091 40.3789 22.2241 40.3538 22.2374 40.3279H22.2599C22.6499 39.6079 22.4324 38.4379 22.1624 37.5379C22.0321 37.1057 21.8743 36.6823 21.6899 36.2704L22.1399 34.2679C22.8677 34.4192 23.6091 34.4946 24.3524 34.4929C26.1753 34.4947 27.9696 34.041 29.5724 33.1729L29.4224 35.2279C29.5399 35.2351 29.6559 35.2578 29.7674 35.2954C30.1184 35.4472 30.4069 35.7145 30.5849 36.0529C30.6484 36.1622 30.706 36.2749 30.7574 36.3904C30.9974 36.9004 31.2074 37.4254 31.4474 37.9354C31.6481 38.388 31.8838 38.8244 32.1524 39.2404C32.2569 39.4477 32.4036 39.6309 32.5832 39.7782C32.7627 39.9255 32.9711 40.0335 33.1949 40.0954C33.4121 40.1322 33.6348 40.1181 33.8456 40.0544C34.0564 39.9906 34.2496 39.8788 34.4099 39.7279L34.6799 40.0354C32.3085 42.1686 29.4661 43.7105 26.3849 44.5354L26.1824 43.4629C25.7324 43.4404 26.0174 37.8454 25.5674 37.8229C25.1174 37.8229 24.8249 43.3729 24.3749 43.3729C23.8649 43.3504 23.7974 41.8204 23.8349 40.3729Z" fill="#F2EEF7"/>
<path d="M34.38 37.605C34.6131 37.8113 34.7728 38.0878 34.835 38.3929C34.8972 38.6979 34.8585 39.0149 34.7247 39.296C34.5909 39.5772 34.3693 39.8071 34.0934 39.9512C33.8174 40.0954 33.5021 40.1458 33.195 40.095C32.9711 40.0331 32.7628 39.9251 32.5832 39.7779C32.4037 39.6306 32.2569 39.4474 32.1525 39.24C31.8839 38.824 31.6481 38.3877 31.4475 37.935C31.2075 37.425 30.9975 36.9 30.7575 36.39C30.706 36.2745 30.6484 36.1618 30.585 36.0525L32.04 36C32.1618 36.1705 32.3314 36.301 32.5275 36.375V36.3825L34.38 37.605Z" fill="#F2EEF7"/>
<path d="M33.2401 34.4554C33.3661 34.5021 33.4818 34.5733 33.5803 34.6648C33.6789 34.7562 33.7585 34.8662 33.8146 34.9884C33.8706 35.1107 33.9021 35.2427 33.9071 35.3771C33.9121 35.5115 33.8906 35.6455 33.8438 35.7716C33.797 35.8977 33.7259 36.0133 33.6344 36.1119C33.543 36.2104 33.433 36.29 33.3107 36.3461C33.1885 36.4021 33.0564 36.4336 32.9221 36.4386C32.7877 36.4436 32.6536 36.4221 32.5276 36.3754C32.3316 36.3013 32.1619 36.1708 32.0401 36.0004C31.9174 35.8207 31.8549 35.6068 31.8616 35.3894C31.8682 35.172 31.9437 34.9624 32.0771 34.7906C32.2105 34.6188 32.395 34.4938 32.604 34.4336C32.813 34.3733 33.0357 34.3809 33.2401 34.4554ZM9.86258 30.3529C8.54258 30.6529 7.07258 30.8629 6.99758 30.3754C6.92258 29.8879 8.07008 29.4229 9.28508 29.0554C9.28508 29.0554 12.3076 28.2304 11.3476 27.0604L11.4376 26.9329L11.9851 27.3304L13.8901 26.7979C14.4738 28.6657 15.5466 30.3434 16.9973 31.6569C18.448 32.9704 20.2236 33.8719 22.1401 34.2679L21.6901 36.2704C21.8744 36.6823 22.0323 37.1057 22.1626 37.5379C19.6951 40.2079 21.0301 41.2129 21.7726 40.8079C21.9483 40.7156 22.094 40.5751 22.1926 40.4029L22.2376 40.4329C22.2001 41.8729 22.2826 43.2829 22.8301 43.3729C23.3776 43.4629 23.6701 41.8729 23.8351 40.3729C23.7976 41.8204 23.8651 43.3504 24.3751 43.3729C24.8251 43.3729 25.1176 37.8229 25.5676 37.8229C26.0176 37.8454 25.7326 43.4404 26.1826 43.4629L26.3851 44.5354C25.1557 44.8627 23.8972 45.0687 22.6276 45.1504C19.136 44.8873 15.7702 43.7337 12.8514 41.7997C9.93261 39.8656 7.55828 37.2157 5.95508 34.1029L7.86758 33.2104C7.75508 32.8279 12.5251 31.4854 12.4126 31.0954C12.3001 30.7054 7.54508 32.0554 7.43258 31.6729C7.30508 31.2304 8.61758 30.7279 9.86258 30.3529ZM11.9251 29.8204C11.7076 29.8654 10.8076 30.0679 9.87008 30.3529C10.8301 30.1354 11.7151 29.8804 11.9251 29.8204Z" fill="#F2EEF7"/>
<path d="M22.1624 37.5373C22.4324 38.4373 22.6499 39.6073 22.2599 40.3273H22.2374C22.2241 40.3533 22.2091 40.3783 22.1924 40.4023C22.0939 40.5746 21.9482 40.7151 21.7724 40.8073C21.0299 41.2123 19.6949 40.2073 22.1624 37.5373ZM10.4099 16.7773C10.3483 16.7319 10.295 16.676 10.2524 16.6123C10.1203 16.3559 10.0934 16.0581 10.1775 15.7822C10.2615 15.5063 10.4498 15.2741 10.7024 15.1348C10.9254 14.951 11.211 14.8609 11.4991 14.8832C11.7872 14.9056 12.0555 15.0388 12.2474 15.2548C12.3762 15.5126 12.4005 15.8102 12.3153 16.0854C12.2301 16.3607 12.0419 16.5924 11.7899 16.7323C11.5934 16.8831 11.3547 16.9685 11.1071 16.9766C10.8596 16.9847 10.6158 16.915 10.4099 16.7773Z" fill="#F2EEF7"/>
<path d="M24.0001 2.04785C12.2701 2.04785 2.72705 11.8954 2.72705 23.9996C2.72705 36.1038 12.2701 45.9513 24.0001 45.9513C35.7301 45.9513 45.273 36.1038 45.273 23.9996C45.273 11.8954 35.7301 2.04785 24.0001 2.04785ZM24.0001 44.4513C13.0973 44.4513 4.22705 35.2766 4.22705 23.9996C4.22705 12.7226 13.0973 3.54785 24.0001 3.54785C34.9028 3.54785 43.773 12.7226 43.773 23.9996C43.773 35.2766 34.9028 44.4513 24.0001 44.4513Z" fill="#232323"/>
<path d="M22.3089 7.29167C22.3089 7.39112 22.3484 7.48651 22.4187 7.55683C22.489 7.62716 22.5844 7.66667 22.6839 7.66667H23.2599C23.2619 7.93181 23.1991 8.19343 23.0769 8.42873C22.9546 8.66403 22.7767 8.86588 22.5586 9.01667C22.4749 9.04593 22.4042 9.10394 22.3592 9.18038C22.3142 9.25682 22.2977 9.34674 22.3128 9.43417C22.3278 9.5216 22.3733 9.60087 22.4413 9.6579C22.5092 9.71493 22.5952 9.74603 22.6839 9.74567C22.7265 9.74571 22.7688 9.73861 22.8091 9.72467C23.1768 9.52214 23.4826 9.2236 23.694 8.86089C23.9053 8.49819 24.0142 8.08492 24.0091 7.66517H24.7591C24.7539 8.08493 24.8628 8.49824 25.0742 8.86096C25.2855 9.22368 25.5914 9.5222 25.9591 9.72467C25.9994 9.73861 26.0417 9.74571 26.0844 9.74567C26.1731 9.74603 26.2591 9.71493 26.327 9.6579C26.3949 9.60087 26.4405 9.5216 26.4555 9.43417C26.4705 9.34674 26.4541 9.25682 26.409 9.18038C26.364 9.10394 26.2934 9.04593 26.2096 9.01667C25.9918 8.86575 25.8141 8.66385 25.6921 8.42855C25.5702 8.19325 25.5076 7.93169 25.5099 7.66667H26.0844C26.1838 7.66667 26.2792 7.62716 26.3495 7.55683C26.4199 7.48651 26.4594 7.39112 26.4594 7.29167C26.4594 7.19221 26.4199 7.09683 26.3495 7.0265C26.2792 6.95618 26.1838 6.91667 26.0844 6.91667H25.5151C25.513 6.65167 25.5756 6.39016 25.6976 6.15488C25.8195 5.9196 25.9971 5.71767 26.2149 5.56667C26.2613 5.55022 26.3041 5.52478 26.3407 5.49182C26.3773 5.45885 26.407 5.41899 26.4282 5.37453C26.4494 5.33006 26.4617 5.28185 26.4643 5.23265C26.4668 5.18345 26.4597 5.13423 26.4433 5.08779C26.4268 5.04135 26.4014 4.99861 26.3684 4.962C26.3354 4.92539 26.2956 4.89563 26.2511 4.87443C26.2066 4.85322 26.1584 4.84098 26.1092 4.8384C26.06 4.83583 26.0108 4.84297 25.9644 4.85942C25.5965 5.06176 25.2906 5.36025 25.0792 5.723C24.8678 6.08575 24.759 6.49912 24.7644 6.91892H24.0144C24.0197 6.49912 23.9109 6.08575 23.6996 5.723C23.4882 5.36025 23.1822 5.06176 22.8144 4.85942C22.7679 4.84297 22.7187 4.83583 22.6695 4.8384C22.6203 4.84098 22.5721 4.85322 22.5276 4.87443C22.4832 4.89563 22.4433 4.92539 22.4104 4.962C22.3774 4.99861 22.352 5.04135 22.3355 5.08779C22.3191 5.13423 22.3119 5.18345 22.3145 5.23265C22.3171 5.28185 22.3293 5.33006 22.3505 5.37453C22.3717 5.41899 22.4015 5.45885 22.4381 5.49182C22.4747 5.52478 22.5174 5.55022 22.5639 5.56667C22.7819 5.71755 22.9597 5.91941 23.0819 6.15469C23.2042 6.38997 23.267 6.65155 23.2651 6.91667H22.6891C22.6394 6.91597 22.5901 6.92516 22.544 6.94369C22.4979 6.96222 22.4559 6.98974 22.4206 7.02463C22.3852 7.05952 22.3571 7.10109 22.3379 7.14694C22.3187 7.19278 22.3089 7.24198 22.3089 7.29167ZM30.6294 8.01917C30.6665 7.98678 30.697 7.94739 30.7189 7.90324C30.7408 7.8591 30.7538 7.81106 30.7572 7.76188C30.7605 7.7127 30.7541 7.66335 30.7384 7.61664C30.7226 7.56993 30.6978 7.52678 30.6654 7.48967C30.605 7.41993 30.5675 7.33331 30.558 7.24155C30.5484 7.14979 30.5673 7.05732 30.6121 6.97667C30.6707 6.87337 30.7678 6.79743 30.8821 6.7654C30.9965 6.73337 31.1189 6.74784 31.2226 6.80567C31.3143 6.85845 31.3848 6.94142 31.4221 7.04042C31.4702 7.25063 31.4575 7.47019 31.3854 7.67342L31.3501 7.83167C31.2751 8.19767 31.1904 8.56142 31.1049 8.92367C31.0134 9.30842 30.9181 9.69317 30.8236 10.0779C30.7344 10.4372 30.6451 10.7972 30.5596 11.1564C30.5589 11.1702 30.5589 11.1839 30.5596 11.1977C30.5574 11.2226 30.5574 11.2477 30.5596 11.2727C30.5619 11.2965 30.5664 11.3202 30.5731 11.3432C30.5795 11.3653 30.5878 11.3869 30.5979 11.4077C30.6091 11.4308 30.6232 11.4525 30.6399 11.4722C30.6467 11.4841 30.6542 11.4956 30.6624 11.5067C30.6691 11.5134 30.6781 11.5157 30.6856 11.5224C30.7053 11.5384 30.7263 11.5524 30.7486 11.5644C30.7699 11.5773 30.7926 11.5879 30.8161 11.5959C30.8251 11.5959 30.8319 11.6049 30.8416 11.6079C30.9143 11.6247 30.9902 11.6195 31.0599 11.5929C31.0726 11.5877 31.0839 11.5794 31.0959 11.5734C31.125 11.5591 31.1522 11.5412 31.1769 11.5202C31.1814 11.5157 31.1881 11.5142 31.1926 11.5097C31.4426 11.2597 31.6926 11.0097 31.9426 10.7597C32.2344 10.4679 32.5254 10.1754 32.8201 9.88667C33.0856 9.62467 33.3541 9.36592 33.6256 9.11042L33.7381 9.00017C33.8756 8.833 34.0576 8.70818 34.2631 8.64017C34.3674 8.62114 34.475 8.6389 34.5676 8.69042C34.6188 8.71914 34.6638 8.75773 34.7 8.80394C34.7361 8.85016 34.7628 8.90309 34.7784 8.95967C34.7946 9.01606 34.7992 9.07512 34.7922 9.13335C34.7851 9.19159 34.7664 9.2478 34.7371 9.29867C34.6919 9.38006 34.6225 9.44542 34.5385 9.48572C34.4546 9.52602 34.3602 9.53928 34.2684 9.52367C34.2191 9.51343 34.1682 9.51322 34.1189 9.52306C34.0695 9.5329 34.0226 9.55257 33.981 9.58092C33.9394 9.60927 33.9039 9.6457 33.8767 9.68805C33.8495 9.7304 33.831 9.7778 33.8225 9.82742C33.814 9.87704 33.8156 9.92787 33.8271 9.97687C33.8387 10.0259 33.86 10.072 33.8898 10.1126C33.9195 10.1532 33.9572 10.1874 34.0005 10.2131C34.0437 10.2389 34.0917 10.2556 34.1416 10.2624C34.3405 10.2963 34.5448 10.2795 34.7354 10.2136C34.9261 10.1477 35.0971 10.0347 35.2326 9.88518C35.368 9.73566 35.4636 9.55439 35.5105 9.35815C35.5573 9.1619 35.5539 8.95701 35.5006 8.76242C35.4588 8.6108 35.3873 8.469 35.2902 8.34526C35.1932 8.22153 35.0725 8.11833 34.9351 8.04167C34.688 7.90226 34.3994 7.85496 34.1206 7.90817C33.771 7.99829 33.4571 8.19265 33.2206 8.46542L33.1134 8.56892C32.8359 8.82842 32.5636 9.09392 32.2936 9.35792C32.0641 9.58292 31.8369 9.81167 31.6089 10.0389C31.6839 9.72692 31.7634 9.41417 31.8339 9.10067C31.9214 8.73267 32.0046 8.36242 32.0836 7.98992L32.1159 7.84442C32.2273 7.5002 32.2307 7.13012 32.1256 6.78392C32.0659 6.61726 31.9701 6.46589 31.845 6.34064C31.7199 6.21539 31.5686 6.11937 31.402 6.05946C31.2354 5.99956 31.0577 5.97725 30.8815 5.99414C30.7052 6.01103 30.5349 6.0667 30.3828 6.15715C30.2306 6.24761 30.1003 6.37061 30.0013 6.51735C29.9023 6.66408 29.8369 6.8309 29.81 7.00586C29.783 7.18082 29.7951 7.35958 29.8453 7.52932C29.8956 7.69907 29.9828 7.85559 30.1006 7.98767C30.1666 8.06185 30.2594 8.10683 30.3585 8.11274C30.4576 8.11864 30.555 8.08499 30.6294 8.01917ZM34.7874 15.3152C34.6925 15.5345 34.6425 15.7707 34.6403 16.0097C34.6381 16.2487 34.6838 16.4858 34.7747 16.7068C34.8657 16.9279 34.9999 17.1285 35.1696 17.2969C35.3393 17.4652 35.541 17.5979 35.7627 17.687C35.9845 17.7762 36.2219 17.82 36.4609 17.816C36.6999 17.8119 36.9357 17.76 37.1543 17.6634C37.3729 17.5667 37.5699 17.4273 37.7338 17.2533C37.8977 17.0793 38.025 16.8742 38.1084 16.6502C38.1426 16.5602 38.1697 16.4677 38.1894 16.3734C38.414 16.4628 38.6469 16.5302 38.8846 16.5744C39.3811 16.6787 39.6684 16.7544 39.8071 17.0814C39.8264 17.1267 39.8545 17.1678 39.8896 17.2023C39.9248 17.2367 39.9664 17.2639 40.0121 17.2823C40.0578 17.3007 40.1067 17.3099 40.1559 17.3094C40.2052 17.3089 40.2538 17.2987 40.2991 17.2794C40.3444 17.2601 40.3855 17.2321 40.42 17.1969C40.4544 17.1617 40.4816 17.1201 40.5 17.0744C40.5184 17.0287 40.5276 16.9799 40.5271 16.9306C40.5266 16.8814 40.5164 16.8327 40.4971 16.7874C40.3581 16.5162 40.1505 16.286 39.895 16.1199C39.6395 15.9537 39.3449 15.8573 39.0406 15.8402C38.5441 15.7352 38.2569 15.6602 38.1174 15.3324C37.9779 15.0047 38.1234 14.7482 38.3911 14.3184C38.5904 14.0876 38.7256 13.8086 38.7833 13.5092C38.8409 13.2097 38.819 12.9004 38.7196 12.6122C38.6805 12.5207 38.6067 12.4484 38.5144 12.4114C38.422 12.3743 38.3188 12.3755 38.2273 12.4145C38.1358 12.4536 38.0635 12.5275 38.0265 12.6198C37.9894 12.7121 37.9905 12.8154 38.0296 12.9069C38.1691 13.2324 38.0236 13.4912 37.7559 13.9209C37.6359 14.103 37.5311 14.2947 37.4424 14.4939C37.3398 14.4254 37.2305 14.3676 37.1161 14.3214C36.6763 14.1448 36.1844 14.15 35.7484 14.3359C35.3124 14.5218 34.9681 14.8732 34.7911 15.3129L34.7874 15.3152ZM35.4826 15.5949C35.5603 15.4025 35.6937 15.2377 35.8657 15.1215C36.0376 15.0054 36.2404 14.9433 36.4479 14.9432C36.581 14.9433 36.7128 14.9688 36.8364 15.0182C37.0279 15.0944 37.1925 15.2258 37.3093 15.3957C37.426 15.5655 37.4897 15.7663 37.4923 15.9724C37.4949 16.1785 37.4362 16.3808 37.3237 16.5535C37.2112 16.7262 37.0499 16.8617 36.8604 16.9427C36.6708 17.0236 36.4615 17.0465 36.2589 17.0084C36.0563 16.9703 35.8696 16.8729 35.7224 16.7285C35.5753 16.5842 35.4743 16.3994 35.4322 16.1976C35.3902 15.9958 35.4091 15.786 35.4864 15.5949H35.4826ZM42.1674 24.7194C41.8096 24.5754 41.4519 23.8194 41.4714 22.8122C41.4909 21.8049 41.8764 21.0647 42.2386 20.9327C42.2876 20.9181 42.3331 20.8938 42.3723 20.861C42.4115 20.8283 42.4436 20.7879 42.4666 20.7423C42.4897 20.6967 42.5032 20.6469 42.5063 20.5959C42.5094 20.5449 42.502 20.4939 42.4847 20.4458C42.4673 20.3978 42.4403 20.3538 42.4054 20.3165C42.3704 20.2793 42.3282 20.2496 42.2814 20.2292C42.2346 20.2089 42.184 20.1983 42.133 20.1982C42.0819 20.198 42.0313 20.2083 41.9844 20.2284C41.7126 20.3649 41.4749 20.5606 41.2888 20.8012C41.1027 21.0417 40.9728 21.3208 40.9089 21.6182L37.7949 21.5589C37.7436 21.2582 37.6245 20.9731 37.4466 20.7253C37.2687 20.4775 37.0366 20.2734 36.7681 20.1287C36.6758 20.0914 36.5725 20.0923 36.4809 20.1312C36.3892 20.17 36.3168 20.2437 36.2795 20.336C36.2422 20.4283 36.2431 20.5317 36.282 20.6233C36.3209 20.7149 36.3946 20.7874 36.4869 20.8247C36.8446 20.9687 37.2031 21.7247 37.1829 22.7319C37.1626 23.7392 36.7779 24.4802 36.4156 24.6069C36.3322 24.6366 36.262 24.6949 36.2175 24.7714C36.1729 24.8479 36.1568 24.9376 36.1721 25.0248C36.1874 25.112 36.233 25.191 36.3009 25.2478C36.3688 25.3046 36.4546 25.3356 36.5431 25.3352C36.5865 25.3348 36.6296 25.3275 36.6706 25.3134C36.9552 25.167 37.2025 24.9573 37.3933 24.7004C37.5842 24.4434 37.7136 24.1462 37.7716 23.8314L40.8369 23.8899C40.8815 24.2078 40.9997 24.511 41.182 24.7753C41.3642 25.0395 41.6056 25.2577 41.8869 25.4124C41.9315 25.4301 41.9791 25.4392 42.0271 25.4394C42.1143 25.4397 42.1989 25.4096 42.2664 25.3543C42.3338 25.2989 42.3798 25.2218 42.3965 25.1362C42.4132 25.0506 42.3995 24.9618 42.3578 24.8852C42.3162 24.8086 42.2491 24.7489 42.1681 24.7164L42.1674 24.7194ZM40.7311 23.1407L37.9096 23.0867C37.9201 22.9749 37.9306 22.8617 37.9329 22.7454C37.9329 22.5954 37.9329 22.4529 37.9201 22.3112L40.7506 22.3652C40.7349 22.5062 40.7244 22.6509 40.7214 22.7979C40.7191 22.9149 40.7251 23.0252 40.7311 23.1407ZM40.5474 28.5804C40.5369 28.5737 40.5309 28.5624 40.5204 28.5557C40.5099 28.5489 40.5084 28.5557 40.5024 28.5482C40.3666 28.4592 40.2125 28.4021 40.0516 28.3808C39.8907 28.3596 39.727 28.3749 39.5728 28.4256C39.4186 28.4763 39.2778 28.5611 39.1609 28.6736C39.0439 28.7862 38.9538 28.9236 38.8973 29.0758C38.8407 29.2279 38.8192 29.3909 38.8342 29.5525C38.8493 29.7141 38.9005 29.8703 38.9842 30.0094C39.0678 30.1484 39.1818 30.2669 39.3175 30.356C39.4532 30.445 39.6072 30.5023 39.7681 30.5237C39.8156 30.5297 39.8635 30.5327 39.9114 30.5327C40.0311 30.5308 40.1498 30.509 40.2624 30.4682C40.1568 30.8357 39.9932 31.1841 39.7779 31.5002C39.4257 32.0827 38.8728 32.5164 38.2231 32.7197C38.132 32.7382 38.051 32.7899 37.9958 32.8648C37.9407 32.9396 37.9153 33.0323 37.9246 33.1249C37.934 33.2174 37.9774 33.3031 38.0464 33.3655C38.1154 33.4278 38.2051 33.4623 38.2981 33.4622C38.3233 33.4624 38.3485 33.4599 38.3731 33.4547C39.2184 33.2176 39.9431 32.6704 40.4026 31.9224C40.7929 31.3714 41.0361 30.7299 41.1091 30.0587C41.1388 29.8329 41.1235 29.6035 41.0638 29.3837C41.0042 29.164 40.9016 28.9582 40.7619 28.7784C40.6992 28.7034 40.6271 28.6369 40.5474 28.5804ZM39.8679 29.7804C39.7804 29.7683 39.7012 29.7221 39.6477 29.6518C39.5942 29.5816 39.5706 29.493 39.5821 29.4054C39.5877 29.3622 39.6018 29.3206 39.6235 29.2829C39.6453 29.2452 39.6743 29.2121 39.7089 29.1857C39.7792 29.1326 39.8674 29.1089 39.9549 29.1197C40.023 29.1306 40.0859 29.1626 40.1349 29.2112C40.1513 29.2262 40.1668 29.2423 40.1814 29.2592C40.2209 29.3116 40.244 29.3746 40.2475 29.4401C40.2511 29.5057 40.235 29.5708 40.2013 29.6272C40.1677 29.6836 40.118 29.7286 40.0586 29.7566C39.9992 29.7845 39.9328 29.7941 39.8679 29.7842V29.7804ZM37.3606 30.6849C37.2213 30.5913 37.0621 30.5313 36.8956 30.5098C36.7291 30.4884 36.5599 30.5059 36.4014 30.5612C36.5076 30.195 36.6712 29.848 36.8859 29.5329C37.2378 28.9502 37.7909 28.5165 38.4406 28.3134C38.5341 28.2902 38.6151 28.232 38.6668 28.1507C38.7185 28.0695 38.737 27.9715 38.7183 27.877C38.6997 27.7825 38.6455 27.6988 38.5668 27.6432C38.4882 27.5876 38.3912 27.5644 38.2959 27.5784C37.4504 27.8155 36.7255 28.3626 36.2656 29.1107C35.8759 29.6619 35.633 30.3033 35.5599 30.9744C35.5132 31.2537 35.5427 31.5405 35.6452 31.8045C35.7478 32.0684 35.9196 32.2999 36.1426 32.4744C36.3213 32.5967 36.5328 32.6624 36.7494 32.6627C36.8179 32.6627 36.8862 32.6559 36.9534 32.6424C37.164 32.6027 37.358 32.5014 37.511 32.3513C37.6639 32.2011 37.7688 32.009 37.8125 31.7992C37.8561 31.5894 37.8364 31.3713 37.756 31.1727C37.6755 30.974 37.5379 30.8038 37.3606 30.6834V30.6849ZM37.0269 31.7679C37.0024 31.8041 36.971 31.8351 36.9344 31.8591C36.8978 31.883 36.8569 31.8995 36.8139 31.9074C36.7711 31.9163 36.7269 31.9163 36.6841 31.9075C36.6413 31.8988 36.6007 31.8814 36.5649 31.8564C36.5302 31.8296 36.4994 31.798 36.4734 31.7627C36.4498 31.726 36.4333 31.6853 36.4246 31.6427C36.4163 31.5998 36.4166 31.5557 36.4255 31.513C36.4344 31.4702 36.4517 31.4297 36.4764 31.3937C36.5068 31.3491 36.5477 31.3125 36.5953 31.2872C36.643 31.2619 36.6961 31.2485 36.7501 31.2482C36.8167 31.2478 36.8818 31.2677 36.9369 31.3052C37.0099 31.3548 37.0604 31.4313 37.0772 31.518C37.0941 31.6047 37.076 31.6945 37.0269 31.7679ZM33.5754 36.6264C33.8073 36.4958 33.997 36.3016 34.1221 36.0667C34.2472 35.8317 34.3025 35.5659 34.2815 35.3006C34.2604 35.0352 34.1639 34.7815 34.0033 34.5692C33.8427 34.3569 33.6247 34.1951 33.3751 34.1027C33.0382 33.9811 32.6675 33.9935 32.3396 34.1375C32.0116 34.2815 31.7516 34.546 31.6131 34.8763C31.4746 35.2066 31.4683 35.5775 31.5955 35.9123C31.7228 36.247 31.9737 36.5202 32.2966 36.6752C32.3049 36.6812 32.3094 36.6902 32.3184 36.6962L34.1326 37.8819C34.2438 37.9796 34.3333 38.0994 34.3954 38.2338C34.4574 38.3682 34.4906 38.514 34.4928 38.662C34.495 38.81 34.4661 38.9568 34.4081 39.0929C34.3501 39.2291 34.2641 39.3515 34.1559 39.4524C34.0365 39.5632 33.8933 39.6453 33.7373 39.6922C33.5813 39.7391 33.4166 39.7497 33.2559 39.7232C32.9206 39.6669 32.7084 39.3864 32.4661 39.0242C32.2053 38.6265 31.9771 38.2084 31.7836 37.7739C31.6696 37.5279 31.5586 37.2782 31.4514 37.0284C31.3344 36.7607 31.2181 36.4929 31.0944 36.2282C30.9901 35.9449 30.8302 35.6854 30.6241 35.4649C30.418 35.2444 30.1699 35.0673 29.8944 34.9442C29.6637 34.8532 29.4132 34.8241 29.1677 34.8596C28.9223 34.8951 28.6904 34.994 28.4949 35.1467C28.2063 35.3781 28.0215 35.7146 27.981 36.0822C27.9405 36.4498 28.0476 36.8185 28.2789 37.1072C28.3087 37.1484 28.3465 37.1831 28.3901 37.2092C28.4337 37.2353 28.4822 37.2523 28.5326 37.2591C28.5829 37.2659 28.6342 37.2624 28.6831 37.2488C28.7321 37.2352 28.7778 37.2118 28.8175 37.18C28.8571 37.1482 28.8899 37.1087 28.9138 37.0638C28.9377 37.0189 28.9522 36.9697 28.9565 36.919C28.9608 36.8683 28.9547 36.8174 28.9386 36.7691C28.9226 36.7209 28.8969 36.6764 28.8631 36.6384C28.7565 36.5048 28.7071 36.3344 28.7258 36.1644C28.7445 35.9945 28.8297 35.8389 28.9629 35.7317C29.0571 35.6615 29.1677 35.6167 29.2842 35.6014C29.4006 35.5862 29.5191 35.6011 29.6281 35.6447C29.9969 35.8312 30.2785 36.154 30.4134 36.5447C30.5341 36.8034 30.6481 37.0697 30.7629 37.3277C30.8776 37.5857 30.9879 37.8369 31.1019 38.0889C31.3117 38.5582 31.5593 39.0097 31.8421 39.4389C31.9729 39.6901 32.1553 39.9109 32.3773 40.0867C32.5994 40.2625 32.8561 40.3893 33.1306 40.4589C33.228 40.4751 33.3266 40.4831 33.4254 40.4829C33.798 40.4844 34.162 40.3706 34.4675 40.1572C34.773 39.9437 35.005 39.641 35.1317 39.2906C35.2584 38.9401 35.2737 38.5591 35.1754 38.1996C35.0771 37.8401 34.8701 37.5199 34.5826 37.2827L33.5754 36.6264ZM33.4959 35.6409C33.4547 35.7525 33.3838 35.8506 33.2907 35.9247C33.1977 35.9987 33.0861 36.0459 32.9682 36.0609C32.8502 36.076 32.7304 36.0584 32.6217 36.0101C32.513 35.9618 32.4197 35.8846 32.3518 35.787C32.284 35.6893 32.2442 35.575 32.2368 35.4563C32.2294 35.3376 32.2547 35.2191 32.31 35.1138C32.3652 35.0085 32.4483 34.9204 32.5501 34.859C32.652 34.7976 32.7687 34.7653 32.8876 34.7657C32.9644 34.7653 33.0406 34.7788 33.1126 34.8054C33.1928 34.835 33.2662 34.8801 33.3289 34.9381C33.3916 34.9961 33.4421 35.066 33.4778 35.1436C33.5134 35.2212 33.5333 35.3051 33.5364 35.3904C33.5395 35.4758 33.5257 35.5609 33.4959 35.6409ZM26.2501 40.6329C26.1751 38.1317 26.1346 37.4762 25.5864 37.4492C25.0059 37.4154 24.9286 38.0679 24.6001 40.5467C24.5169 41.1722 24.4051 42.0159 24.3001 42.5717C24.2087 41.8802 24.1791 41.1819 24.2116 40.4852C24.3339 39.4119 24.3804 38.3582 24.3969 37.8377C24.3998 37.7409 24.3653 37.6468 24.3004 37.5749C24.2356 37.5031 24.1454 37.4591 24.0489 37.4522C23.9524 37.4461 23.8573 37.4771 23.783 37.5389C23.7087 37.6007 23.6608 37.6885 23.6491 37.7844C23.5921 38.2997 23.4871 39.3594 23.4579 40.4357C23.4239 41.3104 23.2254 42.1709 22.8729 42.9722C22.7844 42.8484 22.5639 42.3474 22.6179 40.4529C22.9265 39.5399 22.9162 38.5491 22.5886 37.6427C22.8006 37.4212 23.0429 37.1864 23.3154 36.9384C23.389 36.8714 23.4329 36.7779 23.4376 36.6784C23.4422 36.579 23.4072 36.4818 23.3401 36.4082C23.2731 36.3346 23.1796 36.2906 23.0801 36.286C22.9807 36.2813 22.8835 36.3164 22.8099 36.3834C22.6389 36.5394 22.4786 36.6909 22.3291 36.8379C22.1934 36.4682 22.0741 36.2034 22.0359 36.1202C21.9926 36.0327 21.9168 35.9656 21.8248 35.9331C21.7328 35.9005 21.6317 35.9052 21.543 35.946C21.4544 35.9868 21.3851 36.0606 21.35 36.1516C21.3148 36.2427 21.3166 36.3439 21.3549 36.4337C21.5035 36.7648 21.6332 37.1041 21.7434 37.4499C19.9666 39.4344 20.3139 40.4604 20.5861 40.8414C20.683 40.9758 20.8106 41.0852 20.9583 41.1603C21.1059 41.2354 21.2694 41.2742 21.4351 41.2734C21.5818 41.2708 21.7263 41.2378 21.8596 41.1767C21.8739 42.8814 22.1499 43.6404 22.7709 43.7447C22.8651 43.7608 22.9617 43.7557 23.0537 43.7298C23.1457 43.7038 23.2307 43.6577 23.3026 43.5947C23.4627 43.4438 23.5856 43.258 23.6619 43.0517C23.7062 43.2174 23.7826 43.3729 23.8869 43.5092C23.9443 43.5803 24.016 43.6386 24.0974 43.6802C24.1788 43.7219 24.2681 43.7458 24.3594 43.7507C24.8979 43.7552 25.0149 43.1289 25.3426 40.6487C25.3801 40.3682 25.4229 40.0442 25.4686 39.7224C25.4821 40.0479 25.4911 40.3749 25.4994 40.6584C25.5744 43.1597 25.6149 43.8152 26.1639 43.8422H26.1826C26.2603 43.8425 26.3362 43.8186 26.3997 43.7739C26.4633 43.7293 26.5114 43.666 26.5374 43.5928C26.5634 43.5196 26.566 43.4401 26.5449 43.3653C26.5239 43.2906 26.4801 43.2242 26.4196 43.1754C26.3036 42.3329 26.2469 41.4833 26.2501 40.6329ZM21.9691 40.0727C21.947 40.0951 21.9278 40.1203 21.9121 40.1477C21.839 40.2866 21.7266 40.4008 21.5889 40.4762C21.525 40.5145 21.4491 40.5276 21.3761 40.513C21.303 40.4985 21.238 40.4573 21.1936 40.3974C21.0226 40.1597 21.0579 39.4749 21.9796 38.3237C22.1434 38.8957 22.1402 39.5028 21.9691 40.0727ZM15.8349 37.5662C15.7792 37.5089 15.7059 37.472 15.6268 37.4614C15.5476 37.4508 15.4672 37.4671 15.3984 37.5077C15.3245 37.5499 15.2655 37.6139 15.2295 37.691C15.1935 37.7681 15.1823 37.8544 15.1974 37.9382C15.2426 38.2009 15.2011 38.4712 15.079 38.7082C14.957 38.9452 14.7611 39.136 14.5209 39.2517C14.2808 39.3674 14.0095 39.4018 13.7481 39.3497C13.4866 39.2975 13.2493 39.1616 13.072 38.9626C12.8947 38.7635 12.787 38.5122 12.7653 38.2465C12.7435 37.9808 12.8089 37.7152 12.9515 37.49C13.0941 37.2648 13.3062 37.0921 13.5556 36.9982C13.8051 36.9042 14.0784 36.894 14.3341 36.9692C14.4122 36.992 14.4956 36.9888 14.5718 36.96C14.6479 36.9313 14.7126 36.8785 14.7561 36.8098C14.7996 36.741 14.8196 36.66 14.813 36.5789C14.8065 36.4978 14.7737 36.421 14.7196 36.3602L13.0996 34.5407C13.0678 34.501 13.0282 34.4682 12.9833 34.4444C12.9384 34.4205 12.8892 34.406 12.8385 34.4017C12.7878 34.3975 12.7368 34.4036 12.6886 34.4197C12.6403 34.4358 12.5959 34.4615 12.5579 34.4953C12.5199 34.5291 12.4892 34.5703 12.4676 34.6163C12.446 34.6624 12.4341 34.7124 12.4324 34.7632C12.4307 34.814 12.4394 34.8646 12.4579 34.912C12.4765 34.9594 12.5044 35.0025 12.5401 35.0387L13.5819 36.2102C13.1124 36.3082 12.6946 36.5735 12.4061 36.9566C12.1176 37.3398 11.9782 37.8147 12.0138 38.2929C12.0494 38.7712 12.2576 39.2202 12.5996 39.5565C12.9416 39.8927 13.3941 40.0932 13.8729 40.1207C13.9126 40.1207 13.9516 40.1244 13.9899 40.1244C14.4106 40.1235 14.8201 39.9887 15.1591 39.7395C15.4981 39.4903 15.7489 39.1397 15.8754 38.7384L16.8376 39.8192C16.9051 39.8876 16.9964 39.9276 17.0925 39.9307C17.1886 39.9339 17.2822 39.9 17.354 39.836C17.4258 39.7721 17.4704 39.683 17.4784 39.5872C17.4864 39.4914 17.4573 39.3962 17.3971 39.3212L15.8349 37.5662ZM14.3574 33.4209C14.2904 33.3504 14.1985 33.3086 14.1013 33.3045C14.0041 33.3004 13.9091 33.3343 13.8364 33.3989C13.7636 33.4636 13.7189 33.5539 13.7116 33.651C13.7042 33.748 13.7349 33.8441 13.7971 33.9189L18.0991 38.7497C18.1654 38.8239 18.2584 38.8687 18.3577 38.8743C18.457 38.88 18.5544 38.8459 18.6286 38.7797C18.7028 38.7134 18.7477 38.6204 18.7533 38.5211C18.7589 38.4218 18.7249 38.3244 18.6586 38.2502L14.3574 33.4209ZM12.7741 30.9962C12.6324 30.4907 12.0496 30.5844 9.84913 31.0164C9.39913 31.1064 8.81188 31.2212 8.34913 31.2954C8.82996 31.0845 9.32341 30.9037 9.82663 30.7539C10.7581 30.5529 11.6476 30.2957 12.0871 30.1622C12.18 30.1342 12.2585 30.0713 12.306 29.9867C12.3535 29.9021 12.3664 29.8024 12.3419 29.7085C12.3174 29.6146 12.2575 29.5339 12.1748 29.4832C12.092 29.4326 11.9929 29.416 11.8981 29.4369C11.4526 29.5344 10.5429 29.7444 9.63238 30.0249C8.91326 30.2233 8.16735 30.3071 7.42213 30.2732C8.01157 29.854 8.68136 29.5614 9.38938 29.4137C9.74863 29.3162 11.5584 28.7807 11.8644 27.8169C11.8755 27.7764 11.8842 27.7354 11.8906 27.6939C11.9747 27.7151 12.0634 27.7065 12.1418 27.6697C12.2203 27.6328 12.2835 27.5699 12.3208 27.4917C12.3581 27.4135 12.3671 27.3248 12.3464 27.2406C12.3257 27.1565 12.2765 27.0821 12.2071 27.0302L11.3686 26.4212C11.3227 26.3877 11.2698 26.3651 11.2138 26.3551C11.1579 26.3451 11.1004 26.3479 11.0457 26.3633C10.991 26.3788 10.9406 26.4065 10.8982 26.4443C10.8557 26.4821 10.8225 26.5291 10.8009 26.5817L10.4124 27.5304C10.3872 27.5825 10.3752 27.64 10.3775 27.6979C10.3797 27.7557 10.3961 27.8121 10.4252 27.8622C10.4543 27.9122 10.4952 27.9543 10.5443 27.9849C10.5935 28.0154 10.6494 28.0335 10.7071 28.0374C10.2304 28.326 9.71564 28.5466 9.17788 28.6929C7.25938 29.2802 6.51838 29.7857 6.62263 30.4374C6.63836 30.527 6.67333 30.612 6.72512 30.6867C6.77692 30.7614 6.8443 30.824 6.92263 30.8702C7.06676 30.9502 7.22632 30.9985 7.39063 31.0119C7.29381 31.0857 7.21057 31.1758 7.14463 31.2782C7.09815 31.3517 7.06777 31.4342 7.05549 31.5203C7.04321 31.6064 7.04931 31.6941 7.07338 31.7777C7.21738 32.2764 7.79788 32.1842 9.99838 31.7529L10.3141 31.6914L10.0141 31.8024C7.91413 32.5832 7.36663 32.8082 7.50913 33.3129C7.53134 33.3915 7.57859 33.4607 7.6437 33.5099C7.70881 33.5592 7.78822 33.5859 7.86988 33.5859C7.90432 33.5858 7.9386 33.5813 7.97188 33.5724C8.02642 33.557 8.07676 33.5294 8.1191 33.4917C8.16145 33.4541 8.19471 33.4073 8.21638 33.3549C8.88322 33.0272 9.57097 32.7438 10.2751 32.5067C12.3751 31.7252 12.9166 31.5002 12.7741 30.9962ZM6.88513 24.5342L7.78513 24.0594L8.56888 25.5467C8.60068 25.6071 8.64836 25.6576 8.70678 25.6929C8.76519 25.7282 8.83213 25.7469 8.90038 25.7469C8.96157 25.7471 9.02187 25.7322 9.07588 25.7034C9.16375 25.657 9.22961 25.5776 9.259 25.4827C9.28839 25.3878 9.2789 25.2851 9.23263 25.1972L8.44813 23.7099L9.43738 23.1849C9.48096 23.1619 9.51959 23.1306 9.55105 23.0926C9.58251 23.0547 9.6062 23.011 9.62076 22.9639C9.63531 22.9168 9.64045 22.8673 9.63588 22.8183C9.63131 22.7692 9.61713 22.7215 9.59413 22.6779C9.57113 22.6343 9.53977 22.5957 9.50185 22.5642C9.46392 22.5328 9.42017 22.5091 9.37309 22.4945C9.32601 22.48 9.27653 22.4748 9.22746 22.4794C9.1784 22.484 9.13071 22.4982 9.08713 22.5212L8.09863 23.0462L7.02163 21.0002L8.15938 21.3099C8.25493 21.3347 8.3564 21.3208 8.44177 21.2712C8.52714 21.2217 8.58952 21.1404 8.61538 21.0452C8.64125 20.9499 8.62851 20.8483 8.57993 20.7624C8.53134 20.6764 8.45084 20.6131 8.35588 20.5862L6.38563 20.0499C6.35133 20.0431 6.31624 20.041 6.28138 20.0439C6.27313 20.0439 6.26563 20.0379 6.25738 20.0387H6.24913C6.18658 20.0461 6.12695 20.0693 6.07588 20.1062C6.0632 20.1156 6.05118 20.1259 6.03988 20.1369C5.9993 20.1738 5.9673 20.2191 5.94613 20.2697C5.94613 20.2772 5.93488 20.2817 5.93188 20.2899L5.30413 22.1582C5.27251 22.2525 5.27964 22.3554 5.32394 22.4445C5.36824 22.5335 5.4461 22.6013 5.54038 22.6329C5.58703 22.6492 5.63647 22.656 5.68578 22.6529C5.73509 22.6498 5.78329 22.6368 5.82752 22.6148C5.87176 22.5928 5.91115 22.5622 5.94336 22.5247C5.97558 22.4872 5.99998 22.4437 6.01513 22.3967L6.36388 21.3579L7.43563 23.3919L6.53563 23.8667C6.46124 23.9056 6.40207 23.9684 6.36759 24.0449C6.33311 24.1215 6.32532 24.2074 6.34546 24.2889C6.36559 24.3704 6.4125 24.4428 6.47867 24.4944C6.54483 24.5461 6.62642 24.5741 6.71038 24.5739C6.77097 24.5748 6.83089 24.5612 6.88513 24.5342ZM8.58163 17.4002C8.74815 17.4563 8.92265 17.4852 9.09838 17.4857C9.37037 17.4888 9.63707 17.4104 9.86413 17.2607C9.95917 17.1952 10.0447 17.117 10.1184 17.0282L10.1259 17.0334C10.3902 17.448 10.5145 17.9364 10.4806 18.4269C10.4591 18.5279 10.4153 18.6228 10.3525 18.7048C10.2897 18.7868 10.2095 18.8538 10.1176 18.9009C10.0728 18.9244 10.0332 18.9566 10.0012 18.9958C9.96916 19.0349 9.94539 19.0801 9.9313 19.1287C9.91721 19.1773 9.91309 19.2282 9.91919 19.2784C9.92528 19.3286 9.94148 19.3771 9.96679 19.4209C9.9921 19.4647 10.026 19.5029 10.0665 19.5332C10.1069 19.5636 10.1531 19.5854 10.2022 19.5974C10.2514 19.6095 10.3024 19.6114 10.3523 19.6032C10.4022 19.595 10.4499 19.5768 10.4926 19.5497C10.6745 19.4496 10.8327 19.3117 10.9568 19.1454C11.0809 18.979 11.1678 18.788 11.2119 18.5852C11.2827 18.1676 11.2381 17.7387 11.0829 17.3447C11.4093 17.3314 11.7256 17.2275 11.9964 17.0447C12.3324 16.8515 12.579 16.534 12.6831 16.1607C12.7872 15.7874 12.7404 15.3881 12.5529 15.0489C12.3078 14.7489 11.9547 14.5571 11.5696 14.515C11.1844 14.473 10.7982 14.5839 10.4941 14.8239C10.398 14.8901 10.3086 14.9654 10.2271 15.0489C10.0769 14.7361 9.8558 14.4626 9.58138 14.2502C9.50257 14.194 9.4051 14.1705 9.30935 14.1845C9.21361 14.1986 9.12699 14.2491 9.06762 14.3255C9.00825 14.4019 8.98072 14.4983 8.99078 14.5946C9.00085 14.6908 9.04773 14.7794 9.12163 14.8419C9.25208 14.9441 9.36549 15.0664 9.45763 15.2042C9.81613 15.7337 9.80938 16.3907 9.44338 16.6389C9.35021 16.695 9.24531 16.7287 9.13691 16.7375C9.02851 16.7462 8.91956 16.7296 8.81863 16.6892C8.52621 16.5815 8.27633 16.3824 8.10613 16.1214C7.98474 15.9447 7.90124 15.7447 7.86088 15.5342C7.84141 15.4372 7.78494 15.3517 7.70345 15.2957C7.62196 15.2397 7.52186 15.2176 7.42438 15.2342C7.32677 15.2524 7.24038 15.3086 7.18414 15.3904C7.1279 15.4722 7.10641 15.573 7.12438 15.6707C7.18371 15.9834 7.30676 16.2806 7.48588 16.5437C7.7482 16.9408 8.13291 17.2415 8.58163 17.4002ZM10.5166 15.9579C10.5896 15.7477 10.7302 15.5676 10.9164 15.4457C11.0822 15.3304 11.2785 15.2668 11.4804 15.2627C11.5663 15.2575 11.6522 15.2733 11.7307 15.3089C11.8091 15.3444 11.8776 15.3986 11.9304 15.4667C12.1096 15.7314 11.9469 16.1679 11.5749 16.4207C11.3923 16.5484 11.1727 16.6122 10.9501 16.6022C10.861 16.5941 10.7746 16.5672 10.6966 16.5234C10.6216 16.3944 10.5579 16.3037 10.5361 16.2729C10.5248 16.2596 10.5128 16.2468 10.5001 16.2347C10.4848 16.1426 10.4905 16.0475 10.5166 15.9579ZM13.2001 11.8239C13.2996 11.8239 13.395 11.7844 13.4653 11.7141C13.5356 11.6438 13.5751 11.5484 13.5751 11.4489L13.5826 10.0989L14.5209 10.6029C14.5779 10.6339 14.6419 10.6496 14.7068 10.6485C14.7717 10.6473 14.8352 10.6293 14.891 10.5963C14.9469 10.5633 14.9932 10.5163 15.0255 10.46C15.0577 10.4038 15.0748 10.3401 15.0751 10.2752L15.0826 8.92517L16.0216 9.42842C16.0785 9.45904 16.1424 9.47445 16.207 9.47315C16.2716 9.47185 16.3347 9.45388 16.3903 9.42098C16.4459 9.38808 16.4921 9.34137 16.5243 9.28538C16.5566 9.2294 16.5738 9.16603 16.5744 9.10142L16.5841 7.75142L17.5246 8.25467C17.6121 8.30047 17.7142 8.30991 17.8086 8.28091C17.903 8.25192 17.9822 8.18684 18.0289 8.09982C18.0757 8.01279 18.0862 7.91084 18.0582 7.81612C18.0302 7.7214 17.9659 7.64155 17.8794 7.59392L16.3906 6.80042C16.3337 6.76976 16.2698 6.75435 16.2051 6.75569C16.1405 6.75703 16.0772 6.77506 16.0216 6.80805C15.966 6.84103 15.9198 6.88785 15.8876 6.94394C15.8554 7.00003 15.8383 7.06349 15.8379 7.12817L15.8281 8.47817L14.8884 7.97417C14.8314 7.94351 14.7675 7.9281 14.7029 7.92944C14.6382 7.93078 14.575 7.94881 14.5194 7.9818C14.4637 8.01479 14.4176 8.0616 14.3854 8.11769C14.3532 8.17378 14.336 8.23724 14.3356 8.30192L14.3281 9.65192L13.3899 9.15017C13.3329 9.11948 13.2689 9.10407 13.2042 9.10545C13.1395 9.10682 13.0762 9.12492 13.0205 9.15799C12.9649 9.19107 12.9187 9.23798 12.8866 9.29418C12.8545 9.35037 12.8374 9.41393 12.8371 9.47867L12.8251 11.4467C12.8248 11.4961 12.8343 11.5451 12.853 11.5909C12.8717 11.6366 12.8993 11.6782 12.9342 11.7133C12.969 11.7483 13.0105 11.7762 13.0561 11.7952C13.1017 11.8141 13.1507 11.8239 13.2001 11.8239Z" fill="#232323"/>
<path d="M17.006 8.32529C16.9503 8.35782 16.904 8.40434 16.8718 8.46025C16.8395 8.51616 16.8225 8.57951 16.8223 8.64404L16.8118 9.99404L15.872 9.49004C15.815 9.45954 15.7511 9.44427 15.6865 9.44574C15.6219 9.4472 15.5588 9.46533 15.5032 9.49839C15.4477 9.53144 15.4016 9.57828 15.3695 9.63438C15.3374 9.69047 15.3204 9.75391 15.32 9.81854L15.3118 11.1685L14.3735 10.6645C14.3166 10.6341 14.2528 10.6188 14.1882 10.6202C14.1237 10.6217 14.0606 10.6397 14.005 10.6727C13.9495 10.7057 13.9035 10.7524 13.8713 10.8084C13.8392 10.8644 13.822 10.9277 13.8215 10.9923L13.8095 12.9633C13.8095 13.0627 13.849 13.1581 13.9193 13.2285C13.9897 13.2988 14.0851 13.3383 14.1845 13.3383C14.284 13.3383 14.3794 13.2988 14.4497 13.2285C14.52 13.1581 14.5595 13.0627 14.5595 12.9633L14.5678 11.6133L15.506 12.1173C15.5629 12.1478 15.6268 12.163 15.6913 12.1616C15.7559 12.1602 15.819 12.1421 15.8745 12.1091C15.93 12.0762 15.9761 12.0294 16.0082 11.9734C16.0404 11.9175 16.0575 11.8541 16.058 11.7895L16.0663 10.4395L17.0053 10.9428C17.0622 10.9733 17.126 10.9885 17.1906 10.9871C17.2551 10.9857 17.3182 10.9676 17.3737 10.9346C17.4292 10.9017 17.4753 10.8549 17.5075 10.7989C17.5396 10.743 17.5568 10.6796 17.5573 10.615L17.5678 9.26504L18.5083 9.76829C18.5955 9.81145 18.6961 9.81899 18.7889 9.78931C18.8816 9.75964 18.9591 9.69507 19.0051 9.60926C19.051 9.52345 19.0618 9.42313 19.0352 9.3295C19.0085 9.23587 18.9465 9.15628 18.8623 9.10754L17.3743 8.31104C17.3168 8.28152 17.2528 8.26732 17.1883 8.26981C17.1238 8.27231 17.061 8.29142 17.006 8.32529ZM24.35 11.8338C22.0351 11.8338 19.7721 12.5202 17.8473 13.8064C15.9225 15.0925 14.4224 16.9205 13.5365 19.0592C12.6506 21.1979 12.4188 23.5513 12.8704 25.8217C13.322 28.0922 14.4368 30.1777 16.0737 31.8146C17.7106 33.4515 19.7961 34.5663 22.0666 35.0179C24.337 35.4695 26.6904 35.2377 28.8291 34.3518C30.9678 33.466 32.7958 31.9658 34.0819 30.041C35.3681 28.1162 36.0545 25.8532 36.0545 23.5383C36.0509 20.4352 34.8166 17.4602 32.6224 15.2659C30.4282 13.0717 27.4531 11.8374 24.35 11.8338ZM24.35 33.7428C22.3318 33.7428 20.3588 33.1443 18.6807 32.023C17.0026 30.9017 15.6946 29.308 14.9223 27.4434C14.1499 25.5788 13.9478 23.527 14.3416 21.5475C14.7353 19.568 15.7072 17.7497 17.1343 16.3226C18.5615 14.8955 20.3797 13.9236 22.3592 13.5299C24.3387 13.1361 26.3905 13.3382 28.2551 14.1106C30.1197 14.8829 31.7135 16.1909 32.8347 17.869C33.956 19.5471 34.5545 21.52 34.5545 23.5383C34.5515 26.2438 33.4755 28.8376 31.5624 30.7507C29.6493 32.6637 27.0555 33.7398 24.35 33.7428Z" fill="#232323"/>
<path d="M24.276 17.4873C23.0516 17.4873 21.8547 17.8504 20.8367 18.5306C19.8187 19.2108 19.0252 20.1776 18.5567 21.3088C18.0881 22.44 17.9655 23.6847 18.2044 24.8855C18.4433 26.0864 19.0328 27.1894 19.8986 28.0551C20.7644 28.9209 21.8674 29.5105 23.0682 29.7494C24.2691 29.9882 25.5138 29.8656 26.645 29.3971C27.7761 28.9285 28.7429 28.1351 29.4232 27.1171C30.1034 26.099 30.4665 24.9022 30.4665 23.6778C30.4645 22.0366 29.8116 20.4632 28.6511 19.3027C27.4906 18.1421 25.9172 17.4893 24.276 17.4873ZM24.276 28.3683C23.3483 28.3683 22.4414 28.0932 21.67 27.5778C20.8987 27.0624 20.2975 26.3299 19.9425 25.4728C19.5875 24.6157 19.4946 23.6726 19.6756 22.7627C19.8566 21.8529 20.3033 21.0171 20.9593 20.3611C21.6152 19.7051 22.451 19.2584 23.3609 19.0774C24.2707 18.8964 25.2139 18.9893 26.0709 19.3443C26.928 19.6994 27.6606 20.3006 28.176 21.0719C28.6914 21.8433 28.9665 22.7501 28.9665 23.6778C28.9651 24.9214 28.4704 26.1136 27.5911 26.993C26.7118 27.8723 25.5195 28.3669 24.276 28.3683Z" fill="#232323"/>
<path d="M24.3868 32.8341C24.7045 32.8341 24.962 32.5765 24.962 32.2588C24.962 31.9411 24.7045 31.6836 24.3868 31.6836C24.0691 31.6836 23.8115 31.9411 23.8115 32.2588C23.8115 32.5765 24.0691 32.8341 24.3868 32.8341Z" fill="#F6B884"/>
<path d="M24.3868 15.0978C24.7045 15.0978 24.962 14.8402 24.962 14.5225C24.962 14.2048 24.7045 13.9473 24.3868 13.9473C24.0691 13.9473 23.8115 14.2048 23.8115 14.5225C23.8115 14.8402 24.0691 15.0978 24.3868 15.0978Z" fill="#F6B884"/>
<path d="M33.2774 23.546C33.5951 23.546 33.8526 23.2885 33.8526 22.9708C33.8526 22.6531 33.5951 22.3955 33.2774 22.3955C32.9597 22.3955 32.7021 22.6531 32.7021 22.9708C32.7021 23.2885 32.9597 23.546 33.2774 23.546Z" fill="#F6B884"/>
<path d="M15.231 23.546C15.5487 23.546 15.8063 23.2885 15.8063 22.9708C15.8063 22.6531 15.5487 22.3955 15.231 22.3955C14.9133 22.3955 14.6558 22.6531 14.6558 22.9708C14.6558 23.2885 14.9133 23.546 15.231 23.546Z" fill="#F6B884"/>
<path d="M32.2171 45.7061C32.1297 45.7059 32.0452 45.6751 31.978 45.6192C31.9109 45.5633 31.8654 45.4857 31.8494 45.3998C31.8334 45.3139 31.8479 45.2251 31.8904 45.1487C31.9328 45.0724 32.0007 45.0133 32.0821 44.9816C34.7827 43.9415 37.256 42.3878 39.3654 40.4066C39.438 40.3386 39.5346 40.3022 39.6341 40.3054C39.7335 40.3086 39.8276 40.3512 39.8956 40.4238C39.9636 40.4964 40 40.5931 39.9968 40.6925C39.9936 40.792 39.951 40.8861 39.8784 40.9541C37.6984 43.0005 35.1426 44.6051 32.3521 45.6791C32.3092 45.6964 32.2634 45.7056 32.2171 45.7061ZM3.17111 14.9576C3.11752 14.9578 3.06453 14.9463 3.01586 14.9238C2.92543 14.8828 2.85498 14.8075 2.81997 14.7146C2.78496 14.6216 2.78825 14.5186 2.82911 14.4281C4.05324 11.7205 5.78731 9.27393 7.93661 7.22208C8.00852 7.15335 8.10478 7.11601 8.20422 7.11826C8.30366 7.12051 8.39814 7.16217 8.46686 7.23408C8.53559 7.30599 8.57293 7.40225 8.57068 7.50169C8.56843 7.60113 8.52677 7.6956 8.45486 7.76433C6.37477 9.75039 4.6967 12.1185 3.51236 14.7393C3.48235 14.8046 3.43424 14.8598 3.37374 14.8985C3.31325 14.9372 3.24292 14.9577 3.17111 14.9576Z" fill="#232323"/>
</svg>
