<svg width="48" height="48" viewBox="0 0 48 48" fill="none" xmlns="http://www.w3.org/2000/svg">
<path d="M23.7487 38.9066C31.7211 38.9066 38.184 32.4438 38.184 24.4714C38.184 16.499 31.7211 10.0361 23.7487 10.0361C15.7764 10.0361 9.31348 16.499 9.31348 24.4714C9.31348 32.4438 15.7764 38.9066 23.7487 38.9066Z" fill="#FFDDB5"/>
<path d="M40.7627 21.525L40.7177 35.67C40.7148 36.2966 40.5873 36.9163 40.3427 37.4931C40.0981 38.07 39.7411 38.5924 39.2927 39.03C38.1752 40.1175 35.6927 41.5425 35.6927 43.1025L35.6252 46.4925H33.4502L33.5177 43.4175C33.5177 41.775 35.9927 40.2825 37.1102 39.1425C38.0232 38.196 38.534 36.9326 38.5352 35.6175L38.5727 20.7675C38.5744 20.4528 38.5024 20.142 38.3627 19.86L38.3402 19.77C38.51 19.7159 38.687 19.6881 38.8652 19.6875H38.9327C39.1735 19.688 39.4119 19.7359 39.6342 19.8285C39.8564 19.9211 40.0583 20.0566 40.2283 20.2272C40.3982 20.3979 40.5328 20.6003 40.6245 20.823C40.7162 21.0456 40.7632 21.2842 40.7627 21.525ZM40.6877 24.255V21.8625C40.6877 21.6218 40.5921 21.391 40.4219 21.2208C40.2517 21.0506 40.0209 20.955 39.7802 20.955C39.5395 20.955 39.3087 21.0506 39.1385 21.2208C38.9683 21.391 38.8727 21.6218 38.8727 21.8625V24.255H40.6877Z" fill="#F2EEF7"/>
<path d="M40.6876 21.8626V24.2551H38.8726V21.8626C38.8726 21.6219 38.9682 21.3911 39.1384 21.2209C39.3085 21.0507 39.5394 20.9551 39.7801 20.9551C40.0207 20.9551 40.2516 21.0507 40.4218 21.2209C40.5919 21.3911 40.6876 21.6219 40.6876 21.8626Z" fill="#F6B884"/>
<path d="M36.9375 30.1195L36.96 30.112L37.035 21.5245C37.0363 21.1309 37.1637 20.748 37.3986 20.4322C37.6335 20.1163 37.9634 19.8841 38.34 19.7695L38.3625 19.8595C38.5023 20.1415 38.5742 20.4523 38.5725 20.767L38.535 35.617C38.5338 36.9321 38.023 38.1955 37.11 39.142C35.9925 40.282 33.5175 41.7745 33.5175 43.417L33.45 46.492H27.8325L27.855 39.1645C27.8836 38.7071 27.9514 38.2529 28.0575 37.807L28.2225 37.5595L33.8025 29.707C34.0807 29.3213 34.4997 29.0609 34.9687 28.9823C35.4377 28.9036 35.9188 29.0131 36.3075 29.287C36.5991 29.4921 36.8193 29.7832 36.9375 30.1195ZM36.735 31.717C36.8497 31.563 36.9127 31.3766 36.915 31.1845C36.9135 31.0414 36.8788 30.9006 36.8137 30.773C36.7487 30.6455 36.655 30.5348 36.54 30.4495C36.4443 30.3782 36.3354 30.3267 36.2196 30.2979C36.1038 30.269 35.9834 30.2636 35.8654 30.2817C35.7475 30.2998 35.6343 30.3413 35.5325 30.4036C35.4307 30.4659 35.3424 30.5478 35.2725 30.6445L33.855 32.572L35.3175 33.652L36.735 31.717Z" fill="#FDFDFD"/>
<path d="M36.915 31.1848C36.9126 31.3768 36.8496 31.5632 36.735 31.7173L35.3175 33.6523L33.855 32.5723L35.2725 30.6448C35.3423 30.548 35.4307 30.4661 35.5325 30.4038C35.6343 30.3415 35.7475 30.3001 35.8654 30.2819C35.9834 30.2638 36.1037 30.2693 36.2196 30.2981C36.3354 30.3269 36.4443 30.3785 36.54 30.4498C36.655 30.5351 36.7486 30.6458 36.8137 30.7733C36.8787 30.9008 36.9134 31.0416 36.915 31.1848Z" fill="#F6B884"/>
<path d="M11.0623 30.1199C11.1805 29.7836 11.4007 29.4925 11.6923 29.2874C12.0811 29.0135 12.5621 28.904 13.0311 28.9827C13.5001 29.0613 13.9192 29.3217 14.1973 29.7074L19.7773 37.5599L19.9423 37.8074C20.0485 38.2533 20.1162 38.7075 20.1448 39.1649L20.1673 46.4924H15.0448L14.9623 43.0874C14.9623 41.4449 12.2323 39.9524 11.0023 38.8049C10.5136 38.3564 10.1228 37.8118 9.85437 37.2053C9.58593 36.5987 9.44565 35.9432 9.44232 35.2799L9.38232 20.4299C9.38396 20.1904 9.43236 19.9534 9.52482 19.7324C9.93205 19.8246 10.2961 20.052 10.5575 20.3775C10.819 20.703 10.9626 21.1074 10.9648 21.5249L11.0398 30.1124L11.0623 30.1199ZM14.1448 32.5724L12.7273 30.6449C12.6575 30.5482 12.5691 30.4662 12.4673 30.404C12.3655 30.3417 12.2523 30.3002 12.1344 30.2821C12.0164 30.2639 11.8961 30.2694 11.7803 30.2983C11.6644 30.3271 11.5555 30.3786 11.4598 30.4499C11.3449 30.5352 11.2512 30.6459 11.1861 30.7734C11.1211 30.9009 11.0864 31.0418 11.0848 31.1849C11.0872 31.377 11.1502 31.5633 11.2648 31.7174L12.6823 33.6524L14.1448 32.5724Z" fill="#FDFDFD"/>
<path d="M14.9623 43.0875L15.0448 46.4925H12.3748L12.3073 43.1025C12.3073 41.5425 9.82481 40.1175 8.70731 39.03C8.25887 38.5924 7.90194 38.07 7.6573 37.4931C7.41266 36.9163 7.28519 36.2966 7.28231 35.67L7.23731 21.525C7.23682 21.2842 7.28376 21.0456 7.37546 20.823C7.46716 20.6003 7.60182 20.3979 7.77175 20.2272C7.94168 20.0566 8.14356 19.9211 8.36585 19.8285C8.58814 19.7359 8.8265 19.688 9.06731 19.6875H9.13481C9.26612 19.6872 9.39701 19.7023 9.52481 19.7325C9.43235 19.9535 9.38394 20.1904 9.38231 20.43L9.44231 35.28C9.44564 35.9433 9.58591 36.5988 9.85435 37.2053C10.1228 37.8119 10.5136 38.3565 11.0023 38.805C12.2323 39.9525 14.9623 41.445 14.9623 43.0875ZM9.12731 24.255V21.8625C9.12731 21.6218 9.0317 21.391 8.86151 21.2208C8.69132 21.0506 8.46049 20.955 8.21981 20.955C7.97912 20.955 7.7483 21.0506 7.57811 21.2208C7.40792 21.391 7.31231 21.6218 7.31231 21.8625V24.255H9.12731Z" fill="#F2EEF7"/>
<path d="M12.7275 30.6451L14.145 32.5726L12.6825 33.6526L11.265 31.7176C11.1503 31.5635 11.0873 31.3771 11.085 31.1851C11.0866 31.0419 11.1212 30.9011 11.1863 30.7736C11.2513 30.6461 11.345 30.5354 11.46 30.4501C11.5557 30.3788 11.6646 30.3272 11.7804 30.2984C11.8962 30.2696 12.0166 30.2641 12.1346 30.2822C12.2525 30.3004 12.3657 30.3418 12.4675 30.4041C12.5693 30.4664 12.6577 30.5483 12.7275 30.6451ZM9.1275 21.8626V24.2551H7.3125V21.8626C7.3125 21.6219 7.40811 21.3911 7.5783 21.2209C7.74849 21.0507 7.97932 20.9551 8.22 20.9551C8.46068 20.9551 8.69151 21.0507 8.8617 21.2209C9.03189 21.3911 9.1275 21.6219 9.1275 21.8626Z" fill="#F6B884"/>
<path d="M38.8678 18.9404C38.1835 18.941 37.5274 19.2126 37.043 19.6959C36.5586 20.1792 36.2854 20.8347 36.2833 21.5189L36.2248 28.3926C35.6932 28.177 35.1045 28.147 34.5537 28.3073C34.003 28.4676 33.5223 28.8089 33.1895 29.2761L27.5938 37.1511L27.4318 37.3956L27.4393 37.4009C27.2377 37.9675 27.1263 38.5622 27.1093 39.1634L27.0853 46.4939C27.0853 46.6928 27.1643 46.8836 27.3049 47.0242C27.4456 47.1649 27.6364 47.2439 27.8353 47.2439H35.6248C35.8209 47.2439 36.0092 47.1672 36.1493 47.0301C36.2895 46.893 36.3705 46.7064 36.3748 46.5104L36.4498 43.1054C36.4498 42.3134 37.7345 41.2881 38.672 40.5404C39.0988 40.1999 39.5015 39.8774 39.8225 39.5654C40.3409 39.0578 40.7536 38.4525 41.0368 37.7845C41.3199 37.1166 41.4681 36.3991 41.4725 35.6736L41.5108 21.5249C41.5087 21.1811 41.4385 20.8412 41.3043 20.5247C41.17 20.2082 40.9743 19.9215 40.7285 19.6812C40.4827 19.4408 40.1917 19.2516 39.8723 19.1244C39.5529 18.9973 39.2115 18.9347 38.8678 18.9404ZM39.782 21.3276C39.8557 21.3277 39.9285 21.3433 39.9958 21.3734C40.0042 21.423 40.0092 21.4731 40.0108 21.5234L40.0033 23.8821H39.2488V21.8571C39.25 21.7164 39.3066 21.5819 39.4065 21.4827C39.5063 21.3836 39.6413 21.3278 39.782 21.3276ZM36.2915 30.7379C36.3022 30.9596 36.2406 31.1789 36.116 31.3626L34.991 32.9459L34.376 32.4959L35.576 30.8676C35.6565 30.7592 35.7752 30.6854 35.9081 30.6613C36.041 30.6372 36.1781 30.6646 36.2915 30.7379ZM38.7748 38.4899C38.507 38.7509 38.1328 39.0501 37.736 39.3666C36.4303 40.4091 34.9498 41.5904 34.9498 43.0881L34.892 45.7431H28.592L28.613 39.1626C28.6368 38.8074 28.6869 38.4544 28.763 38.1066L34.418 30.1431C34.58 29.9184 34.8241 29.7668 35.0974 29.7213C35.3706 29.6757 35.6507 29.74 35.8768 29.9001L35.885 29.9084C35.7059 29.9248 35.5324 29.979 35.3757 30.0673C35.2191 30.1556 35.0828 30.276 34.976 30.4206L33.5555 32.3511C33.5262 32.3908 33.505 32.4359 33.4931 32.4837C33.4813 32.5316 33.479 32.5814 33.4863 32.6301C33.4937 32.6789 33.5107 32.7257 33.5362 32.7679C33.5617 32.8102 33.5953 32.8469 33.635 32.8761L34.5628 33.5586L30.6538 39.0621C30.5899 39.1419 30.5431 39.2338 30.516 39.3323C30.489 39.4308 30.4823 39.5337 30.4965 39.6349C30.5107 39.736 30.5453 39.8332 30.5984 39.9205C30.6514 40.0077 30.7218 40.0833 30.805 40.1424C30.8883 40.2015 30.9828 40.243 31.0827 40.2643C31.1825 40.2857 31.2857 40.2864 31.3859 40.2664C31.486 40.2464 31.5811 40.2062 31.6651 40.1482C31.7492 40.0902 31.8205 40.0157 31.8748 39.9291L37.3408 32.2334C37.5631 31.9196 37.7122 31.56 37.7771 31.181C37.842 30.802 37.821 30.4132 37.7158 30.0434L37.7908 21.5256C37.7928 21.3783 37.8245 21.2328 37.8837 21.0979C37.943 20.963 38.0288 20.8413 38.1359 20.7402C38.243 20.639 38.3694 20.5603 38.5075 20.5088C38.6455 20.4573 38.7925 20.434 38.9398 20.4404C39.1427 20.4412 39.3412 20.4997 39.512 20.6091C39.2272 20.6724 38.9724 20.8307 38.7896 21.0581C38.6068 21.2855 38.5068 21.5684 38.5063 21.8601V24.2601C38.5063 24.3596 38.5458 24.455 38.6161 24.5253C38.6864 24.5956 38.7818 24.6351 38.8813 24.6351H40.0063L39.971 35.6714C39.9676 36.1969 39.8601 36.7165 39.6548 37.2003C39.4495 37.684 39.1504 38.1223 38.7748 38.4899ZM20.561 37.3979L20.5685 37.3926L14.8123 29.2776C14.4796 28.8096 13.9988 28.4674 13.4475 28.3067C12.8962 28.1459 12.3069 28.176 11.7748 28.3919L11.7163 21.5249C11.7163 20.8317 11.4409 20.1669 10.9507 19.6767C10.4605 19.1865 9.79573 18.9111 9.10252 18.9111C8.40931 18.9111 7.74449 19.1865 7.25432 19.6767C6.76415 20.1669 6.48877 20.8317 6.48877 21.5249L6.53452 35.6691C6.53899 36.3946 6.68709 37.1121 6.97029 37.78C7.25349 38.448 7.66617 39.0533 8.18452 39.5609C8.50552 39.8736 8.90827 40.1961 9.33502 40.5359C10.2725 41.2859 11.5573 42.3089 11.5573 43.1166L11.6323 46.5059C11.6366 46.7019 11.7175 46.8885 11.8577 47.0256C11.9979 47.1627 12.1862 47.2394 12.3823 47.2394H20.165C20.3639 47.2394 20.5547 47.1604 20.6953 47.0197C20.836 46.8791 20.915 46.6883 20.915 46.4894L20.891 39.1611C20.874 38.5597 20.7626 37.9647 20.561 37.3979ZM11.8828 31.3611C11.7583 31.1774 11.6969 30.9581 11.708 30.7364C11.8208 30.661 11.9583 30.6322 12.0918 30.656C12.2253 30.6797 12.3445 30.7542 12.4243 30.8639L13.6243 32.4929L13.0093 32.9429L11.8828 31.3611ZM7.98877 21.5249C7.99034 21.4746 7.9956 21.4244 8.00452 21.3749C8.07148 21.3447 8.14408 21.3291 8.21752 21.3291C8.35876 21.3293 8.49416 21.3855 8.5941 21.4853C8.69404 21.5851 8.75037 21.7204 8.75077 21.8616V23.8866H7.99627L7.98877 21.5249ZM13.1113 45.7424L13.0535 43.1039C13.0535 41.5896 11.573 40.4084 10.2673 39.3659C9.87052 39.0494 9.49627 38.7501 9.22852 38.4891C8.85295 38.1211 8.55405 37.6822 8.34911 37.1979C8.14417 36.7136 8.03725 36.1935 8.03452 35.6676L7.99927 24.6314H9.12427C9.22373 24.6314 9.31911 24.5919 9.38943 24.5215C9.45976 24.4512 9.49927 24.3558 9.49927 24.2564V21.8564C9.49844 21.5668 9.39974 21.286 9.2192 21.0596C9.03867 20.8332 8.7869 20.6744 8.50477 20.6091C8.6933 20.4949 8.90983 20.4352 9.13027 20.4366C9.27321 20.437 9.41467 20.4656 9.54656 20.5207C9.67845 20.5758 9.79818 20.6564 9.8989 20.7578C9.99963 20.8592 10.0794 20.9795 10.1336 21.1118C10.1878 21.244 10.2154 21.3857 10.2148 21.5286L10.2898 30.0396C10.1848 30.4093 10.164 30.7977 10.2289 31.1764C10.2938 31.5552 10.4427 31.9145 10.6648 32.2281L16.1248 39.9291C16.1818 40.0095 16.2541 40.0778 16.3375 40.1301C16.4209 40.1825 16.5139 40.218 16.611 40.2344C16.7081 40.2509 16.8075 40.2481 16.9035 40.2261C16.9996 40.2042 17.0903 40.1635 17.1706 40.1065C17.251 40.0495 17.3193 39.9772 17.3716 39.8938C17.424 39.8103 17.4595 39.7174 17.4759 39.6203C17.4924 39.5232 17.4896 39.4238 17.4676 39.3277C17.4457 39.2317 17.405 39.141 17.348 39.0606L13.439 33.5571L14.3668 32.8746C14.4065 32.8454 14.4401 32.8087 14.4656 32.7664C14.4911 32.7242 14.5081 32.6774 14.5154 32.6286C14.5228 32.5799 14.5205 32.5301 14.5086 32.4822C14.4968 32.4344 14.4756 32.3893 14.4463 32.3496L13.0288 30.4199C12.9219 30.2756 12.7857 30.1555 12.6292 30.0675C12.4727 29.9795 12.2993 29.9255 12.1205 29.9091C12.1205 29.9091 12.1265 29.9009 12.131 29.8979C12.3574 29.7386 12.6375 29.6752 12.9104 29.7214C13.1833 29.7676 13.4269 29.9197 13.5883 30.1446L19.1555 37.9761L19.2418 38.1066C19.318 38.4552 19.3681 38.8089 19.3918 39.1649L19.4128 45.7431L13.1113 45.7424Z" fill="#232323"/>
<path fill-rule="evenodd" clip-rule="evenodd" d="M30.1008 8.27803L23.3823 1.55957L16.7209 8.22104L10.0594 14.8825L16.7778 21.601L23.4963 28.3194L30.1578 21.658L36.8193 14.9965L30.1008 8.27803ZM30.1008 8.27803L16.7209 8.22104L16.7778 21.601L30.1578 21.658L30.1008 8.27803Z" fill="#F6B884"/>
<path fill-rule="evenodd" clip-rule="evenodd" d="M23.3799 0.977539L37.401 14.9987L23.4988 28.9009L9.47768 14.8797L23.3799 0.977539ZM23.3848 2.14101L10.6412 14.8847L23.4939 27.7374L36.2376 14.9937L23.3848 2.14101Z" fill="#232323"/>
<path d="M30.1008 8.27803L30.1578 21.658L16.7778 21.601L16.7209 8.22104L30.1008 8.27803Z" fill="#CCBADE"/>
<path fill-rule="evenodd" clip-rule="evenodd" d="M30.1008 8.27803L28.3861 8.27073C28.388 8.72509 28.7579 9.095 29.2123 9.09693L29.2816 9.09723L29.2819 9.16652C29.2838 9.62089 29.6537 9.99079 30.1081 9.99273L30.1008 8.27803ZM30.1125 11.0233C29.6581 11.0214 29.2914 11.3881 29.2933 11.8425L29.3009 13.6265C29.3028 14.0809 29.6727 14.4508 30.1271 14.4527L30.1125 11.0233ZM30.1315 15.4833C29.6771 15.4814 29.3103 15.8481 29.3123 16.3025L29.3199 18.0865C29.3218 18.5408 29.6917 18.9107 30.1461 18.9127L30.1315 15.4833ZM30.1505 19.9433C29.6961 19.9413 29.3293 20.3081 29.3313 20.7625L29.3316 20.8318L29.2623 20.8315C28.8079 20.8295 28.4411 21.1963 28.4431 21.6507L30.1578 21.658L30.1505 19.9433ZM27.4125 21.6463C27.4106 21.1919 27.0407 20.822 26.5863 20.8201L24.8023 20.8125C24.3479 20.8105 23.9812 21.1773 23.9831 21.6317L27.4125 21.6463ZM22.9525 21.6273C22.9506 21.1729 22.5807 20.803 22.1263 20.8011L20.3423 20.7935C19.888 20.7915 19.5212 21.1583 19.5231 21.6127L22.9525 21.6273ZM18.4925 21.6083C18.4906 21.1539 18.1207 20.784 17.6663 20.7821L17.597 20.7818L17.5967 20.7125C17.5948 20.2581 17.2249 19.8882 16.7705 19.8863L16.7778 21.601L18.4925 21.6083ZM16.7662 18.8557C17.2205 18.8576 17.5873 18.4909 17.5853 18.0365L17.5777 16.2525C17.5758 15.7981 17.2059 15.4282 16.7515 15.4263L16.7662 18.8557ZM16.7472 14.3957C17.2015 14.3976 17.5683 14.0309 17.5663 13.5765L17.5588 11.7925C17.5568 11.3382 17.1869 10.9683 16.7325 10.9663L16.7472 14.3957ZM16.7282 9.93574C17.1825 9.93767 17.5493 9.57091 17.5474 9.11654L17.5471 9.04724L17.6164 9.04754C18.0707 9.04948 18.4375 8.68271 18.4355 8.22834L16.7209 8.22104L16.7282 9.93574ZM19.4661 8.23273C19.4681 8.6871 19.838 9.057 20.2923 9.05894L22.0763 9.06654C22.5307 9.06847 22.8975 8.70171 22.8955 8.24734L19.4661 8.23273ZM23.9261 8.25173C23.928 8.7061 24.298 9.076 24.7523 9.07794L26.5363 9.08553C26.9907 9.08747 27.3574 8.7207 27.3555 8.26634L23.9261 8.25173Z" fill="#232323"/>
<path fill-rule="evenodd" clip-rule="evenodd" d="M23.7937 1.56075C24.0209 1.56172 24.2059 1.74667 24.2068 1.97385L24.2105 2.83842C24.2115 3.0656 24.0281 3.24899 23.8009 3.24802C23.5737 3.24705 23.3888 3.0621 23.3878 2.83492L23.3841 1.97035C23.3832 1.74316 23.5665 1.55978 23.7937 1.56075ZM23.8085 5.01904C24.0356 5.02 24.2206 5.20496 24.2216 5.43214L24.2289 7.16128C24.2299 7.38847 24.0465 7.57185 23.8193 7.57088C23.5921 7.56991 23.4072 7.38496 23.4062 7.15778L23.3989 5.42863C23.3979 5.20145 23.5813 5.01807 23.8085 5.01904ZM23.8269 9.3419C24.0541 9.34287 24.239 9.52782 24.24 9.755L24.2473 11.4841C24.2483 11.7113 24.0649 11.8947 23.8377 11.8937C23.6106 11.8928 23.4256 11.7078 23.4246 11.4806L23.4173 9.7515C23.4163 9.52431 23.5997 9.34093 23.8269 9.3419ZM23.8453 13.6648C24.0725 13.6657 24.2574 13.8507 24.2584 14.0779L24.2658 15.807C24.2667 16.0342 24.0833 16.2176 23.8562 16.2166C23.629 16.2156 23.444 16.0307 23.4431 15.8035L23.4357 14.0744C23.4347 13.8472 23.6181 13.6638 23.8453 13.6648ZM23.8637 17.9876C24.0909 17.9886 24.2758 18.1735 24.2768 18.4007L24.2842 20.1299C24.2851 20.3571 24.1018 20.5404 23.8746 20.5395C23.6474 20.5385 23.4624 20.3535 23.4615 20.1264L23.4541 18.3972C23.4531 18.17 23.6365 17.9867 23.8637 17.9876ZM23.8821 22.3105C24.1093 22.3115 24.2942 22.4964 24.2952 22.7236L24.3026 24.4527C24.3035 24.6799 24.1202 24.8633 23.893 24.8623C23.6658 24.8614 23.4808 24.6764 23.4799 24.4492L23.4725 22.7201C23.4715 22.4929 23.6549 22.3095 23.8821 22.3105ZM23.9005 26.6333C24.1277 26.6343 24.3127 26.8193 24.3136 27.0464L24.3173 27.911C24.3183 28.1382 24.1349 28.3216 23.9077 28.3206C23.6805 28.3196 23.4956 28.1347 23.4946 27.9075L23.4909 27.0429C23.49 26.8158 23.6733 26.6324 23.9005 26.6333Z" fill="#232323"/>
<path fill-rule="evenodd" clip-rule="evenodd" d="M36.821 15.407C36.822 15.6342 36.6386 15.8176 36.4114 15.8166L35.5468 15.8129C35.3196 15.812 35.1347 15.627 35.1337 15.3998C35.1328 15.1726 35.3161 14.9893 35.5433 14.9902L36.4079 14.9939C36.6351 14.9949 36.82 15.1798 36.821 15.407ZM33.3627 15.3923C33.3637 15.6195 33.1803 15.8028 32.9531 15.8019L31.224 15.7945C30.9968 15.7935 30.8118 15.6086 30.8109 15.3814C30.8099 15.1542 30.9933 14.9708 31.2205 14.9718L32.9496 14.9792C33.1768 14.9801 33.3617 15.1651 33.3627 15.3923ZM29.0399 15.3739C29.0408 15.601 28.8574 15.7844 28.6303 15.7835L26.9011 15.7761C26.6739 15.7751 26.489 15.5902 26.488 15.363C26.487 15.1358 26.6704 14.9524 26.8976 14.9534L28.6267 14.9608C28.8539 14.9617 29.0389 15.1467 29.0399 15.3739ZM24.717 15.3555C24.718 15.5826 24.5346 15.766 24.3074 15.765L22.5782 15.7577C22.3511 15.7567 22.1661 15.5718 22.1651 15.3446C22.1642 15.1174 22.3476 14.934 22.5747 14.935L24.3039 14.9424C24.5311 14.9433 24.716 15.1283 24.717 15.3555ZM20.3941 15.337C20.3951 15.5642 20.2117 15.7476 19.9845 15.7466L18.2554 15.7393C18.0282 15.7383 17.8433 15.5534 17.8423 15.3262C17.8413 15.099 18.0247 14.9156 18.2519 14.9166L19.981 14.9239C20.2082 14.9249 20.3932 15.1099 20.3941 15.337ZM16.0713 15.3186C16.0722 15.5458 15.8889 15.7292 15.6617 15.7282L13.9325 15.7209C13.7053 15.7199 13.5204 15.5349 13.5194 15.3078C13.5185 15.0806 13.7018 14.8972 13.929 14.8982L15.6582 14.9055C15.8853 14.9065 16.0703 15.0914 16.0713 15.3186ZM11.7484 15.3002C11.7494 15.5274 11.566 15.7108 11.3388 15.7098L10.4742 15.7061C10.2471 15.7052 10.0621 15.5202 10.0611 15.293C10.0602 15.0658 10.2435 14.8825 10.4707 14.8834L11.3353 14.8871C11.5625 14.8881 11.7474 15.073 11.7484 15.3002Z" fill="#232323"/>
</svg>
