<svg width="48" height="48" viewBox="0 0 48 48" fill="none" xmlns="http://www.w3.org/2000/svg">
<path d="M44.1444 41.0386V16.8136C44.8998 16.9865 45.5739 17.411 46.0563 18.0174C46.5387 18.6238 46.8008 19.3762 46.7994 20.1511V40.2811C46.798 41.191 46.4354 42.0631 45.7913 42.7058C45.1472 43.3485 44.2743 43.7092 43.3644 43.7086H6.77941C5.86876 43.7094 4.99495 43.349 4.34962 42.7065C3.70428 42.0639 3.34009 41.1917 3.33691 40.2811V20.1511C3.34024 19.332 3.63602 18.5412 4.17095 17.921C4.70589 17.3008 5.44477 16.8921 6.25441 16.7686V41.0386C6.38191 41.0611 15.8094 41.0611 25.1994 41.0536C34.5744 41.0536 43.9194 41.0386 43.9194 41.0386H44.1444Z" fill="#F6B884"/>
<path d="M8.41455 8.33884V36.3438C8.41455 36.3438 22.1021 32.4513 24.8246 40.7688C24.9521 40.8588 25.0796 40.9488 25.1996 41.0388V9.71134C22.8176 7.91938 19.9765 6.83932 17.0056 6.5964C14.0348 6.35348 11.056 6.95764 8.41455 8.33884Z" fill="#FDFDFD"/>
<path d="M25.2004 41.0388V41.0538C15.8104 41.0613 6.38287 41.0613 6.25537 41.0388C8.92321 39.0331 12.159 37.9262 15.4964 37.8776C18.8337 37.8291 22.1003 38.8415 24.8254 40.7688C24.9521 40.8588 25.0796 40.9496 25.2004 41.0388ZM25.2004 41.0388C27.9321 38.9869 31.2563 37.8776 34.6729 37.8776C38.0894 37.8776 41.4136 38.9869 44.1454 41.0388H43.9204C43.9204 41.0388 34.5754 41.0538 25.2004 41.0538V41.0388Z" fill="#F2EEF7"/>
<path d="M24.8254 40.7689C22.1003 38.8415 18.8337 37.8292 15.4964 37.8777C12.159 37.9262 8.92321 39.0331 6.25537 41.0389V9.71137C6.93668 9.19564 7.65909 8.7366 8.41537 8.33887V36.3439C8.41537 36.3439 22.1021 32.4514 24.8254 40.7689Z" fill="#F2EEF7"/>
<path d="M39.8252 7.41626C37.3863 6.56945 34.7764 6.33587 32.2259 6.7361C29.6754 7.13634 27.2625 8.15811 25.2002 9.71126V41.0388C27.7877 32.4888 41.6627 36.4338 41.6627 36.4338V8.18126C41.0698 7.8816 40.4556 7.62591 39.8252 7.41626Z" fill="#FDFDFD"/>
<path d="M33.642 29.3612C37.3351 29.3612 40.329 26.3674 40.329 22.6743C40.329 18.9812 37.3351 15.9873 33.642 15.9873C29.9489 15.9873 26.9551 18.9812 26.9551 22.6743C26.9551 26.3674 29.9489 29.3612 33.642 29.3612Z" fill="#FFDDB5"/>
<path d="M28.8614 26.4816C28.5516 26.482 28.2529 26.3667 28.0237 26.1584C27.7944 25.9502 27.6511 25.6639 27.6218 25.3555C27.5925 25.0472 27.6793 24.739 27.8652 24.4913C28.0511 24.2435 28.3227 24.0741 28.627 24.016V23.9855C28.627 23.6007 28.752 23.2262 28.9832 22.9185C29.2144 22.6107 29.5393 22.3864 29.909 22.2793C30.2787 22.3864 30.6036 22.6107 30.8348 22.9185C31.066 23.2262 31.191 23.6007 31.191 23.9855V24.023C31.4932 24.0855 31.7612 24.2582 31.943 24.5074C32.1249 24.7566 32.2074 25.0646 32.1747 25.3714C32.1419 25.6781 31.9962 25.9617 31.7658 26.167C31.5355 26.3722 31.237 26.4844 30.9285 26.4816H28.8614Z" fill="#CCBADE"/>
<path d="M31.9248 26.4811H30.9287C31.2372 26.4838 31.5357 26.3716 31.766 26.1664C31.9964 25.9612 32.1421 25.6776 32.1748 25.3708C32.2076 25.064 32.125 24.7561 31.9432 24.5068C31.7614 24.2576 31.4933 24.0849 31.1912 24.0225V23.985C31.1912 23.6001 31.0662 23.2256 30.835 22.9179C30.6038 22.6102 30.2789 22.3859 29.9092 22.2787C30.0712 22.2305 30.2394 22.206 30.4084 22.2061C30.8802 22.2062 31.3326 22.3936 31.6661 22.7272C31.9997 23.0608 32.1872 23.5132 32.1873 23.985V24.0225C32.4894 24.0849 32.7575 24.2576 32.9393 24.5068C33.1211 24.7561 33.2037 25.064 33.1709 25.3708C33.1382 25.6776 32.9925 25.9612 32.7621 26.1664C32.5318 26.3716 32.2333 26.4838 31.9248 26.4811Z" fill="#F6B884"/>
<path d="M37.1865 24.2664C37.5388 23.7094 37.7779 23.0884 37.8901 22.4389C38.0023 21.7894 37.9854 21.1242 37.8404 20.4813C37.6955 19.8384 37.4253 19.2303 37.0452 18.6918C36.6652 18.1533 36.1828 17.695 35.6256 17.343L35.6607 17.2656C35.9027 17.3709 36.1362 17.4947 36.3592 17.6359C37.4284 18.3097 38.2039 19.3622 38.5306 20.583C38.8572 21.8039 38.711 23.103 38.121 24.2207C37.5311 25.3383 36.541 26.1921 35.3488 26.6112C34.1565 27.0303 32.8499 26.9839 31.6904 26.4813H31.8568C32.8651 26.7052 33.918 26.6127 34.8718 26.2164C35.8256 25.82 36.6339 25.1391 37.1865 24.2664Z" fill="#F6B884"/>
<path d="M37.1861 24.2666C36.6336 25.1393 35.8252 25.8202 34.8714 26.2166C33.9176 26.613 32.8648 26.7055 31.8564 26.4815H31.9244C32.118 26.4818 32.309 26.4369 32.4821 26.3504C32.6552 26.2638 32.8058 26.138 32.9217 25.983C33.0375 25.8279 33.1156 25.6479 33.1496 25.4574C33.1836 25.2668 33.1725 25.0709 33.1174 24.8854C33.8201 24.5625 34.4385 24.0813 34.9242 23.4795C35.4099 22.8778 35.7497 22.1717 35.917 21.4167C36.0843 20.6617 36.0745 19.8782 35.8885 19.1276C35.7025 18.377 35.3452 17.6796 34.8447 17.0901C34.8378 17.0822 34.8336 17.0723 34.8327 17.0618C34.8319 17.0514 34.8344 17.041 34.8399 17.032C34.8454 17.0231 34.8536 17.0162 34.8633 17.0123C34.8731 17.0084 34.8838 17.0077 34.8939 17.0104C35.1558 17.075 35.4121 17.1604 35.6604 17.2659L35.6252 17.3432C36.1824 17.6952 36.6648 18.1535 37.0448 18.692C37.4249 19.2305 37.6951 19.8386 37.8401 20.4815C37.985 21.1245 38.0019 21.7897 37.8897 22.4391C37.7775 23.0886 37.5384 23.7096 37.1861 24.2666Z" fill="#FFA467"/>
<path d="M39.8746 26.5352L39.2793 26.7719L39.1363 27.3977L38.7238 26.9031L38.084 26.9617L38.4285 26.418L38.1754 25.8273L38.7988 25.9867L39.2816 25.5625L39.3238 26.2047L39.8746 26.5352Z" fill="#F2EEF7"/>
<path d="M31.2521 18.8855L31.7209 19.5793L30.8842 19.5301L30.3686 20.191L30.1576 19.3777L29.3701 19.0918L30.0756 18.6418L30.1061 17.8027L30.7529 18.3348L31.5592 18.1051L31.2521 18.8855Z" fill="#F2EEF7"/>
<path d="M38.8006 20.7234C38.5868 19.775 38.114 18.9045 37.4349 18.2087C36.7558 17.513 35.897 17.0192 34.954 16.7824C34.8956 16.7674 34.8338 16.7713 34.7777 16.7937C34.7216 16.8161 34.6741 16.8559 34.6422 16.9071C34.6102 16.9583 34.5954 17.0184 34.5999 17.0787C34.6044 17.1389 34.6279 17.1961 34.6672 17.242C35.1309 17.7882 35.4658 18.4318 35.6469 19.1251C35.828 19.8183 35.8507 20.5434 35.7134 21.2466C35.5761 21.9499 35.2822 22.6132 34.8536 23.1873C34.425 23.7615 33.8726 24.2318 33.2375 24.5634C33.0662 24.2276 32.7726 23.9702 32.4172 23.8444C32.3808 23.3374 32.1541 22.863 31.7826 22.5161C31.4111 22.1693 30.9222 21.9757 30.414 21.9742C29.9058 21.9726 29.4157 22.1632 29.0421 22.5078C28.6685 22.8524 28.439 23.3255 28.3995 23.8322C28.0648 23.9416 27.78 24.1668 27.5965 24.4674C27.413 24.768 27.3428 25.1242 27.3985 25.472C27.4542 25.8197 27.6322 26.1361 27.9004 26.3644C28.1687 26.5926 28.5095 26.7176 28.8617 26.7169H31.6447C32.5336 27.0905 33.5083 27.2121 34.4617 27.0683C35.4152 26.9245 36.3107 26.521 37.0499 25.9018C37.7891 25.2827 38.3435 24.4719 38.6524 23.5585C38.9612 22.645 39.0125 21.6641 38.8006 20.7234ZM27.848 25.238C27.8486 25.0028 27.9309 24.7752 28.0809 24.5942C28.2309 24.4131 28.4393 24.2899 28.6702 24.2456C28.724 24.2356 28.7725 24.207 28.8074 24.165C28.8424 24.1229 28.8615 24.0699 28.8615 24.0152V23.9857C28.8615 23.5758 29.0243 23.1827 29.3141 22.8929C29.604 22.6031 29.9971 22.4402 30.4069 22.4402C30.8168 22.4402 31.2099 22.6031 31.4997 22.8929C31.7896 23.1827 31.9524 23.5758 31.9524 23.9857V24.023C31.9524 24.0766 31.9707 24.1286 32.0044 24.1703C32.038 24.212 32.0849 24.2409 32.1373 24.2522C32.3149 24.2904 32.4789 24.376 32.6119 24.4997C32.7448 24.6235 32.8419 24.7809 32.8927 24.9553C32.9203 25.0465 32.9342 25.1413 32.9337 25.2366C32.934 25.3693 32.9081 25.5008 32.8575 25.6235C32.8068 25.7462 32.7324 25.8577 32.6386 25.9516C32.5447 26.0454 32.4332 26.1198 32.3105 26.1705C32.1878 26.2211 32.0563 26.247 31.9236 26.2467H28.8608C28.5928 26.2468 28.3358 26.1407 28.146 25.9516C27.9562 25.7625 27.849 25.5059 27.848 25.238ZM32.6237 26.5409C32.6262 26.5395 32.6283 26.5376 32.6309 26.5362C32.6837 26.5071 32.7347 26.4748 32.7835 26.4394L32.8236 26.4099C32.8752 26.3708 32.9243 26.3286 32.9708 26.2835C33.1339 26.1196 33.2564 25.9197 33.3286 25.7C33.4007 25.4802 33.4205 25.2467 33.3863 25.0179V25.0153C34.0504 24.6801 34.6355 24.2076 35.1031 23.629C35.5706 23.0505 35.9098 22.3791 36.0982 21.6595C36.2866 20.9399 36.3199 20.1885 36.1958 19.4551C36.0717 18.7217 35.7931 18.023 35.3785 17.4054C35.6774 17.5201 35.9642 17.6642 36.2347 17.8355C37.3068 18.5135 38.0657 19.5896 38.3445 20.8272C38.6233 22.0647 38.3992 23.3623 37.7213 24.4345C37.1891 25.2649 36.415 25.9121 35.5035 26.2887C34.5919 26.6654 33.5868 26.7534 32.6237 26.5409ZM29.3293 19.2021L30.0591 19.4674L30.2544 20.2193C30.2598 20.2405 30.2711 20.2597 30.287 20.2747C30.3028 20.2898 30.3225 20.3002 30.3439 20.3046C30.3516 20.3064 30.3594 20.3072 30.3673 20.3072C30.3851 20.3072 30.4027 20.3031 30.4187 20.2953C30.4347 20.2874 30.4487 20.276 30.4597 20.262L30.9378 19.6498L31.7131 19.6967C31.735 19.6987 31.757 19.6942 31.7764 19.6837C31.7958 19.6733 31.8116 19.6573 31.8219 19.6378C31.8327 19.6189 31.838 19.5973 31.8372 19.5754C31.8365 19.5536 31.8296 19.5324 31.8174 19.5143L31.3831 18.8705L31.6672 18.1472C31.6751 18.1269 31.6771 18.1049 31.6732 18.0835C31.6693 18.0621 31.6594 18.0422 31.6448 18.0261C31.6303 18.0099 31.6115 17.9982 31.5906 17.9921C31.5697 17.9861 31.5475 17.986 31.5265 17.9918L30.7798 18.2063L30.1801 17.7124C30.1632 17.6986 30.1428 17.6897 30.1211 17.6868C30.0995 17.684 30.0775 17.6872 30.0576 17.6961C30.0376 17.7051 30.0206 17.7195 30.0085 17.7376C29.9963 17.7557 29.9894 17.7769 29.9886 17.7987L29.9616 18.5752L29.3068 18.9931C29.2883 19.0048 29.2735 19.0216 29.2641 19.0413C29.2547 19.0611 29.2509 19.0831 29.2534 19.1049C29.2558 19.1267 29.2643 19.1473 29.2779 19.1645C29.2915 19.1817 29.3096 19.1947 29.3302 19.2021H29.3293ZM30.139 18.7397C30.1549 18.7296 30.1682 18.7158 30.1776 18.6995C30.187 18.6831 30.1924 18.6648 30.1932 18.6459L30.214 18.0452L30.6781 18.427C30.6926 18.4395 30.7099 18.4481 30.7286 18.4522C30.7472 18.4563 30.7666 18.4557 30.785 18.4505L31.3625 18.2845L31.1426 18.8433C31.1358 18.8609 31.1333 18.88 31.1353 18.8988C31.1374 18.9176 31.144 18.9356 31.1546 18.9513L31.4907 19.4494L30.8909 19.4121C30.872 19.411 30.853 19.4145 30.8357 19.4224C30.8184 19.4302 30.8032 19.4421 30.7915 19.4571L30.4222 19.9306L30.2712 19.3491C30.2665 19.3307 30.2573 19.3138 30.2445 19.2997C30.2317 19.2857 30.2157 19.2749 30.1979 19.2684L29.6333 19.0629L30.139 18.7397ZM39.9357 26.4335L39.4367 26.1356L39.3987 25.5556C39.3974 25.5337 39.3899 25.5126 39.3772 25.4948C39.3645 25.4769 39.347 25.463 39.3268 25.4546C39.3066 25.4461 39.2844 25.4436 39.2627 25.4471C39.2411 25.4507 39.2209 25.4602 39.2044 25.4747L38.7669 25.8572L38.2034 25.7138C38.1824 25.7085 38.1602 25.7092 38.1395 25.7158C38.1189 25.7224 38.1004 25.7346 38.0862 25.751C38.072 25.7676 38.0627 25.7879 38.0594 25.8095C38.0561 25.8311 38.0589 25.8533 38.0675 25.8734L38.2962 26.4077L37.9855 26.8999C37.9738 26.9184 37.9675 26.9398 37.9674 26.9616C37.9672 26.9835 37.9731 27.0049 37.9845 27.0236C37.9959 27.0422 38.0123 27.0573 38.0318 27.0671C38.0513 27.077 38.0731 27.0812 38.0949 27.0792L38.6738 27.027L39.0451 27.4746C39.0561 27.4879 39.0699 27.4985 39.0855 27.5058C39.1011 27.5131 39.1181 27.5168 39.1353 27.5168C39.1444 27.5167 39.1536 27.5157 39.1625 27.5138C39.1837 27.5087 39.2031 27.4977 39.2185 27.4822C39.2339 27.4667 39.2446 27.4472 39.2494 27.4259L39.3788 26.8589L39.9179 26.6442C39.9386 26.6363 39.9566 26.6227 39.9699 26.605C39.9832 26.5873 39.9911 26.5662 39.9929 26.5441C39.9947 26.522 39.9901 26.4999 39.9799 26.4803C39.9696 26.4607 39.9539 26.4444 39.9348 26.4333L39.9357 26.4335ZM39.2349 26.663C39.2174 26.6701 39.2018 26.6813 39.1896 26.6957C39.1773 26.7101 39.1688 26.7273 39.1646 26.7457L39.0744 27.1413L38.8165 26.8292C38.8056 26.8159 38.7918 26.8052 38.7762 26.7979C38.7606 26.7905 38.7435 26.7867 38.7263 26.7867H38.7158L38.3119 26.8231L38.5287 26.4804C38.5389 26.4643 38.545 26.446 38.5465 26.4271C38.548 26.4082 38.5449 26.3891 38.5374 26.3717L38.378 25.999L38.7711 26.0991C38.7894 26.1038 38.8087 26.104 38.8271 26.0996C38.8456 26.0952 38.8627 26.0864 38.877 26.074L39.1817 25.807L39.208 26.2118C39.2091 26.2309 39.2148 26.2494 39.2247 26.2657C39.2346 26.2821 39.2483 26.2957 39.2647 26.3056L39.6127 26.5134L39.2349 26.663Z" fill="#232323"/>
<path d="M44.1442 16.8141V41.0391C41.4124 38.9873 38.0883 37.8779 34.6717 37.8779C31.2552 37.8779 27.931 38.9873 25.1992 41.0391C27.7867 32.4891 41.6617 36.4341 41.6617 36.4341V8.18164C41.8567 8.27914 42.0517 8.37664 42.2392 8.48164C42.9049 8.84201 43.5418 9.25323 44.1442 9.71164V16.8141Z" fill="#F2EEF7"/>
<path d="M44.2592 16.0062V9.4497C44.2592 9.33326 44.2321 9.21843 44.18 9.11429C44.1279 9.01015 44.0523 8.91956 43.9592 8.8497C43.3256 8.37319 42.6581 7.94355 41.9619 7.5642C41.1545 7.11643 40.309 6.74121 39.4352 6.44295C36.9671 5.58619 34.3305 5.32892 31.7433 5.69237C29.1561 6.05582 26.6925 7.02958 24.5559 8.5332C21.6994 6.54365 18.2891 5.50358 14.8085 5.56038C11.3278 5.61719 7.95331 6.76799 5.1632 8.8497C5.07005 8.91956 4.99445 9.01015 4.94238 9.11429C4.8903 9.21843 4.8632 9.33326 4.8632 9.4497V15.9297C4.02271 16.2002 3.28886 16.7288 2.76592 17.4402C2.24298 18.1516 1.95755 19.0098 1.9502 19.8927V40.0174C1.95258 41.1277 2.39536 42.1917 3.18137 42.9759C3.96738 43.7601 5.0324 44.2004 6.1427 44.2002H42.7314C43.8403 44.1988 44.9033 43.7577 45.6873 42.9735C46.4713 42.1894 46.9123 41.1263 46.9134 40.0174V19.8927C46.9169 19.0522 46.665 18.2306 46.191 17.5365C45.717 16.8425 45.0433 16.3088 44.2592 16.0062ZM38.9492 7.8612C39.7417 8.1309 40.5088 8.47049 41.2412 8.87595H41.2449C41.7684 9.16136 42.2741 9.47819 42.7592 9.8247V39.3559C42.4187 39.1444 42.0722 38.9472 41.7197 38.7642C41.6087 38.7064 41.4947 38.6577 41.3829 38.6022C41.1399 38.4822 40.8969 38.3614 40.6494 38.2542C40.5084 38.1934 40.3652 38.1424 40.2234 38.0854C39.9984 37.9962 39.7772 37.9047 39.5484 37.8252C39.3939 37.7712 39.2379 37.7269 39.0819 37.6752C38.8644 37.6062 38.6469 37.5349 38.4264 37.4749C38.2637 37.4307 38.0987 37.3947 37.9344 37.3557C37.7192 37.3039 37.5047 37.2514 37.2879 37.2057C37.1184 37.1719 36.9474 37.1457 36.7764 37.1172C36.5627 37.0819 36.3504 37.0467 36.1359 37.0189C35.9612 36.9972 35.7857 36.9822 35.6109 36.9657C35.3994 36.9454 35.1879 36.9259 34.9764 36.9147C34.7979 36.9042 34.6194 36.9004 34.4402 36.8959C34.2309 36.8914 34.0217 36.8869 33.8124 36.8899C33.6317 36.8899 33.4509 36.9004 33.2694 36.9087C33.0624 36.9177 32.8562 36.9297 32.6499 36.9469C32.4669 36.9619 32.2854 36.9814 32.1032 37.0024C31.8992 37.0264 31.6959 37.0527 31.4927 37.0842C31.3107 37.1117 31.1287 37.1429 30.9467 37.1779C30.7449 37.2154 30.5447 37.2574 30.3467 37.3024C30.1662 37.3434 29.9859 37.3872 29.8059 37.4337C29.6059 37.4862 29.4087 37.5422 29.2142 37.6017C29.0357 37.6557 28.8572 37.7112 28.6802 37.7719C28.4859 37.8372 28.2932 37.9084 28.1012 37.9819C27.9257 38.0494 27.7502 38.1169 27.5762 38.1897C27.3864 38.2699 27.2012 38.3562 27.0122 38.4432C26.8404 38.5234 26.6687 38.6029 26.4992 38.6899C26.3147 38.7837 26.1339 38.8849 25.9524 38.9862C25.7859 39.0792 25.6194 39.1707 25.4552 39.2697C25.4079 39.2982 25.3584 39.3229 25.3119 39.3522V9.8247C27.2621 8.43009 29.5184 7.52389 31.8915 7.18222C34.2645 6.84055 36.6848 7.0734 38.9492 7.8612ZM40.8992 40.0302C36.8289 40.0347 31.9592 40.0384 27.1539 40.0414C29.282 38.9573 31.6361 38.3912 34.0245 38.3892C36.4128 38.3873 38.7678 38.9495 40.8977 40.0302H40.8992ZM6.36395 9.8247C8.9141 8.01767 11.9625 7.04712 15.0879 7.04712C18.2134 7.04712 21.2618 8.01767 23.8119 9.8247V39.3574C23.7639 39.3274 23.7137 39.3027 23.6619 39.2734C23.5014 39.1767 23.3387 39.0867 23.1752 38.9959C22.9899 38.8924 22.8054 38.7889 22.6172 38.6959C22.4507 38.6119 22.2827 38.5339 22.1147 38.4552C21.9242 38.3659 21.7337 38.2782 21.5402 38.1972C21.3699 38.1222 21.1974 38.0584 21.0249 37.9924C20.8299 37.9174 20.6342 37.8424 20.4369 37.7787C20.2629 37.7194 20.0874 37.6654 19.9119 37.6122C19.7124 37.5514 19.5129 37.4944 19.3119 37.4419C19.1342 37.3954 18.9572 37.3527 18.7787 37.3122C18.5762 37.2664 18.3729 37.2237 18.1689 37.1854C17.9889 37.1514 17.8089 37.1207 17.6289 37.0932C17.4242 37.0617 17.2202 37.0347 17.0147 37.0107C16.8332 36.9897 16.6509 36.9702 16.4687 36.9552C16.2632 36.9379 16.0577 36.9267 15.8522 36.9169C15.6692 36.9087 15.4862 36.9012 15.3032 36.8989C15.2282 36.8989 15.1532 36.8914 15.0782 36.8914C14.9462 36.8914 14.8149 36.9012 14.6829 36.9042C14.4999 36.9087 14.3169 36.9132 14.1339 36.9229C13.9284 36.9349 13.7237 36.9537 13.5189 36.9724C13.3367 36.9897 13.1537 37.0054 12.9722 37.0287C12.7674 37.0549 12.5634 37.0887 12.3594 37.1224C12.1794 37.1524 11.9987 37.1794 11.8194 37.2154C11.6147 37.2559 11.4122 37.3054 11.2089 37.3542C11.0327 37.3962 10.8557 37.4344 10.6839 37.4824C10.4784 37.5387 10.2752 37.6054 10.0712 37.6699C9.9017 37.7232 9.7322 37.7719 9.56495 37.8304C9.3527 37.9054 9.1442 37.9909 8.9342 38.0742C8.77895 38.1364 8.62145 38.1927 8.4677 38.2594C8.2367 38.3592 8.0102 38.4724 7.78295 38.5842C7.65545 38.6464 7.52495 38.7027 7.39895 38.7687C7.04795 38.9524 6.70145 39.1482 6.3617 39.3589V9.8247H6.36395ZM21.9752 40.0444C16.2542 40.0444 11.1242 40.0444 8.19995 40.0444C10.333 38.957 12.6933 38.3901 15.0876 38.3901C17.4819 38.3901 19.8421 38.957 21.9752 40.0444ZM45.4119 40.0174C45.4112 40.7286 45.1284 41.4104 44.6256 41.9133C44.1228 42.4162 43.4411 42.6992 42.7299 42.7002H6.1427C5.4301 42.7008 4.74639 42.4187 4.24159 41.9157C3.7368 41.4127 3.45218 40.73 3.4502 40.0174V19.8927C3.45291 19.41 3.58555 18.937 3.83419 18.5233C4.08282 18.1095 4.43826 17.7704 4.8632 17.5414V40.7757C4.86524 40.8248 4.87228 40.8735 4.8842 40.9212C4.8842 40.9362 4.8842 40.9512 4.8902 40.9662C4.9128 41.0465 4.94853 41.1225 4.99595 41.1912C5.00945 41.2114 5.02595 41.2272 5.0417 41.2467C5.08084 41.2941 5.12597 41.3362 5.17595 41.3719C5.19925 41.3916 5.22407 41.4094 5.2502 41.4252C5.26145 41.4319 5.2697 41.4409 5.2817 41.4469C5.34534 41.4781 5.41298 41.5003 5.4827 41.5129C5.48795 41.5129 5.4917 41.5174 5.49695 41.5182C5.54795 41.5264 5.6657 41.5467 16.9494 41.5467C22.5384 41.5467 30.8679 41.5414 43.2819 41.5279H43.5159C43.5354 41.5251 43.5547 41.5211 43.5737 41.5159C43.629 41.5112 43.6836 41.5004 43.7364 41.4837C43.7702 41.4751 43.8033 41.464 43.8354 41.4507L43.8467 41.4469C43.9104 41.415 43.9693 41.3741 44.0214 41.3254C44.0489 41.2976 44.074 41.2675 44.0964 41.2354C44.1246 41.2017 44.1497 41.1656 44.1714 41.1274C44.1908 41.0916 44.2074 41.0542 44.2209 41.0157C44.2371 40.9633 44.247 40.9092 44.2502 40.8544C44.2569 40.8298 44.2622 40.8047 44.2659 40.7794C44.2659 40.7719 44.2622 40.7652 44.2614 40.7577V17.6824C44.6192 17.9291 44.9114 18.2593 45.1125 18.6445C45.3137 19.0297 45.4177 19.4582 45.4157 19.8927L45.4119 40.0174Z" fill="#232323"/>
<path d="M20.2686 25.4879C20.4314 25.4891 20.5929 25.458 20.7436 25.3962C20.8943 25.3344 21.0312 25.2433 21.1463 25.1282C21.2615 25.013 21.3526 24.8761 21.4144 24.7254C21.4761 24.5747 21.5073 24.4133 21.5061 24.2504C21.5073 24.1337 21.4907 24.0176 21.4569 23.9059C21.3948 23.6915 21.2757 23.4981 21.1122 23.3462C20.9487 23.1943 20.7471 23.0896 20.5287 23.0434C20.4767 23.0316 20.4302 23.0025 20.3969 22.9607C20.3637 22.9189 20.3457 22.8671 20.3459 22.8137V22.7692C20.345 22.274 20.1479 21.7995 19.7978 21.4493C19.4477 21.0992 18.9731 20.9021 18.478 20.9012C18.2138 20.9023 17.9528 20.9588 17.7118 21.067C17.4708 21.1751 17.2551 21.3327 17.0787 21.5293C16.8519 21.7843 16.6988 22.0963 16.6358 22.4317C16.6162 22.5431 16.606 22.656 16.6053 22.7692V22.8067C16.6052 22.861 16.5862 22.9137 16.5516 22.9556C16.5169 22.9975 16.4688 23.026 16.4155 23.0364C16.2262 23.0715 16.0477 23.1504 15.8944 23.2668C15.741 23.3831 15.6169 23.5337 15.532 23.7065C15.4471 23.8792 15.4037 24.0695 15.4053 24.262C15.4069 24.4545 15.4535 24.6439 15.5412 24.8153C15.6456 25.0181 15.8038 25.1881 15.9986 25.3068C16.1934 25.4255 16.4171 25.4882 16.6451 25.4879H20.2686ZM18.478 20.4325C19.0742 20.4333 19.6477 20.6618 20.0811 21.0713C20.5146 21.4808 20.7753 22.0403 20.81 22.6356C21.0709 22.7214 21.307 22.8696 21.4977 23.0673C21.6884 23.2649 21.8281 23.5061 21.9045 23.77C21.953 23.9254 21.9767 24.0876 21.9748 24.2504C21.9756 24.4747 21.932 24.6969 21.8465 24.9043C21.7611 25.1117 21.6354 25.3001 21.4768 25.4587C21.3182 25.6172 21.1298 25.7429 20.9224 25.8284C20.7151 25.9138 20.4929 25.9574 20.2686 25.9567H16.6451C16.3684 25.9572 16.0957 25.8903 15.8506 25.7616C15.6056 25.633 15.3956 25.4465 15.2389 25.2184C14.643 25.4647 13.9874 25.5287 13.3551 25.4025C12.7228 25.2762 12.1421 24.9653 11.6865 24.5091C11.2308 24.0529 10.9207 23.4718 10.7952 22.8394C10.6698 22.2069 10.7347 21.5514 10.9817 20.9558C11.2287 20.3602 11.6468 19.8512 12.183 19.4932C12.7193 19.1352 13.3496 18.9442 13.9944 18.9443C14.6392 18.9445 15.2695 19.1359 15.8055 19.4942C16.3416 19.8525 16.7594 20.3617 17.0061 20.9575C17.4218 20.6186 17.9416 20.4332 18.478 20.4325ZM13.6475 24.9746C14.1147 25.0363 14.5899 24.9774 15.028 24.8035C15.0233 24.7918 15.0233 24.7778 15.0186 24.7637C14.9978 24.7016 14.9814 24.6382 14.9694 24.5739C14.9647 24.5504 14.96 24.527 14.9576 24.5035C14.9447 24.4198 14.9377 24.3352 14.9365 24.2504C14.9364 24.0262 14.9809 23.8043 15.0674 23.5974C15.1539 23.3906 15.2807 23.2031 15.4405 23.0457C15.635 22.8481 15.8759 22.7023 16.1412 22.6215C16.1459 22.5606 16.153 22.4973 16.1623 22.4364C16.1647 22.4153 16.1694 22.3942 16.1717 22.3754C16.1787 22.3332 16.1858 22.2934 16.1951 22.2535C16.1998 22.2301 16.2069 22.2067 16.2139 22.1832C16.2233 22.1457 16.2326 22.1106 16.2444 22.0754C16.2514 22.0496 16.2608 22.0262 16.2678 22.0028C16.2795 21.9676 16.2936 21.9348 16.3076 21.8996C16.317 21.8762 16.3264 21.8528 16.3381 21.8293C16.3522 21.7965 16.3662 21.7637 16.3826 21.7309C16.3944 21.7075 16.4061 21.684 16.4201 21.6606C16.4365 21.6301 16.4553 21.5973 16.474 21.5668C16.4858 21.5457 16.4998 21.5223 16.5139 21.5012L16.5772 21.4098C16.5912 21.3887 16.6076 21.3676 16.6217 21.3465C16.6282 21.3375 16.6352 21.3288 16.6428 21.3207C16.4572 20.7666 16.1025 20.2845 15.6287 19.9423C15.1549 19.6001 14.5858 19.4149 14.0014 19.4129C13.2903 19.4101 12.605 19.6787 12.0852 20.1639C11.5654 20.6491 11.2504 21.3144 11.2043 22.024C11.1583 22.7335 11.3847 23.4339 11.8374 23.9823C12.2901 24.5306 12.935 24.8855 13.6405 24.9746H13.6475Z" fill="#232323"/>
<path d="M13.6615 19.4416C14.1751 19.5146 14.6583 19.7291 15.0569 20.0611C15.4555 20.3931 15.7538 20.8294 15.9186 21.3213C15.911 21.3294 15.9039 21.338 15.8975 21.3471C15.8811 21.3682 15.867 21.3893 15.8506 21.4104C15.8295 21.4408 15.8084 21.4713 15.7897 21.5018C15.7756 21.5229 15.7615 21.5463 15.7475 21.5674C15.7287 21.5979 15.7123 21.6307 15.6936 21.6611L15.6584 21.7314C15.642 21.7643 15.6256 21.7971 15.6115 21.8299C15.6022 21.8533 15.5904 21.8768 15.5811 21.9002C15.567 21.9354 15.5553 21.9682 15.5436 22.0033C15.5342 22.0268 15.5272 22.0502 15.5178 22.076C15.5084 22.1111 15.499 22.1463 15.4897 22.1838C15.4826 22.2072 15.4756 22.2307 15.4709 22.2541C15.4615 22.2939 15.4545 22.3338 15.4475 22.376C15.4422 22.396 15.4383 22.4164 15.4358 22.4369C15.4264 22.4979 15.4217 22.5611 15.417 22.6221C15.1514 22.7022 14.9104 22.8482 14.7162 23.0463C14.5561 23.2033 14.429 23.3908 14.3425 23.5977C14.2559 23.8046 14.2117 24.0267 14.2123 24.251C14.2127 24.3357 14.2189 24.4203 14.2311 24.5041L14.2451 24.5744C14.2574 24.6385 14.2731 24.7018 14.292 24.7643C14.2967 24.7783 14.299 24.7924 14.3037 24.8041C14.093 24.8884 13.8725 24.9459 13.6475 24.9752H13.6405C12.9652 24.8887 12.3448 24.5584 11.8961 24.0465C11.4473 23.5346 11.201 22.8763 11.2036 22.1956C11.2062 21.5148 11.4575 20.8584 11.9101 20.35C12.3628 19.8415 12.9857 19.5159 13.6615 19.4346V19.4416Z" fill="#FFA467"/>
<path d="M14.9951 20.0107C14.6095 19.7051 14.149 19.5084 13.6615 19.4412V19.4342C14.0256 19.389 14.3951 19.4167 14.7484 19.5156C15.1017 19.6146 15.4317 19.7829 15.7193 20.0107C16.1507 20.3458 16.4722 20.802 16.6428 21.3209C16.6352 21.329 16.6281 21.3376 16.6217 21.3467C16.6076 21.3677 16.5912 21.3888 16.5771 21.4099L16.5139 21.5013C16.4998 21.5224 16.4857 21.5459 16.474 21.567C16.4553 21.5974 16.4365 21.6302 16.4201 21.6607C16.4061 21.6842 16.3943 21.7076 16.3826 21.731C16.3662 21.7638 16.3521 21.7967 16.3381 21.8295C16.3264 21.8529 16.317 21.8763 16.3076 21.8998C16.2936 21.9349 16.2795 21.9677 16.2678 22.0029C16.2607 22.0263 16.2514 22.0498 16.2443 22.0756C16.2326 22.1107 16.2232 22.1459 16.2139 22.1834C16.2068 22.2068 16.1998 22.2302 16.1951 22.2537C16.1857 22.2935 16.1787 22.3334 16.1717 22.3756C16.1693 22.3943 16.1646 22.4154 16.1623 22.4365C16.1529 22.4974 16.1459 22.5607 16.1412 22.6217C15.8759 22.7024 15.635 22.8482 15.4404 23.0459C15.2807 23.2032 15.1539 23.3907 15.0674 23.5976C14.9809 23.8044 14.9364 24.0264 14.9365 24.2506C14.9376 24.3353 14.9447 24.4199 14.9576 24.5037C14.96 24.5271 14.9646 24.5506 14.9693 24.574C14.9813 24.6383 14.9978 24.7018 15.0186 24.7638C15.0232 24.7779 15.0232 24.792 15.0279 24.8037C14.5899 24.9775 14.1147 25.0364 13.6475 24.9748C13.8725 24.9455 14.093 24.888 14.3037 24.8037C14.299 24.792 14.2967 24.7779 14.292 24.7638C14.2731 24.7014 14.2574 24.6381 14.2451 24.574L14.2311 24.5037C14.2189 24.4198 14.2126 24.3353 14.2123 24.2506C14.2116 24.0263 14.2559 23.8042 14.3424 23.5973C14.429 23.3904 14.5561 23.2029 14.7162 23.0459C14.9104 22.8477 15.1514 22.7018 15.417 22.6217C15.4217 22.5607 15.4264 22.4974 15.4357 22.4365C15.4383 22.4159 15.4422 22.3956 15.4475 22.3756C15.4545 22.3334 15.4615 22.2935 15.4709 22.2537C15.4756 22.2302 15.4826 22.2068 15.4896 22.1834C15.499 22.1459 15.5084 22.1107 15.5178 22.0756C15.5271 22.0498 15.5342 22.0263 15.5436 22.0029C15.5553 21.9677 15.567 21.9349 15.5811 21.8998C15.5904 21.8763 15.6021 21.8529 15.6115 21.8295C15.6256 21.7967 15.642 21.7638 15.6584 21.731L15.6936 21.6607C15.7123 21.6302 15.7287 21.5974 15.7475 21.567C15.7615 21.5459 15.7756 21.5224 15.7896 21.5013C15.8084 21.4709 15.8295 21.4404 15.8506 21.4099C15.867 21.3888 15.8811 21.3677 15.8975 21.3467C15.9039 21.3376 15.911 21.329 15.9186 21.3209C15.748 20.802 15.4265 20.3458 14.9951 20.0107Z" fill="#F6B884"/>
<path d="M21.4568 23.9061C21.4907 24.0177 21.5073 24.1339 21.5061 24.2506C21.5073 24.4134 21.4761 24.5749 21.4143 24.7256C21.3526 24.8763 21.2615 25.0132 21.1463 25.1283C21.0312 25.2435 20.8943 25.3346 20.7436 25.3964C20.5929 25.4581 20.4314 25.4893 20.2686 25.4881H19.2795C19.4423 25.4893 19.6038 25.4581 19.7545 25.3964C19.9052 25.3346 20.0421 25.2435 20.1572 25.1283C20.2724 25.0132 20.3635 24.8763 20.4253 24.7256C20.487 24.5749 20.5182 24.4134 20.517 24.2506C20.5183 24.1339 20.5017 24.0177 20.4678 23.9061C20.4062 23.6918 20.2875 23.4984 20.1244 23.3465C19.9613 23.1946 19.76 23.0898 19.542 23.0436C19.4895 23.0323 19.4424 23.0033 19.4087 22.9615C19.375 22.9197 19.3567 22.8676 19.3568 22.8139V22.7693C19.3569 22.3602 19.2225 21.9624 18.9743 21.6372C18.7262 21.312 18.378 21.0773 17.9834 20.9693C18.1444 20.9243 18.3108 20.9014 18.4779 20.9014C18.9731 20.9023 19.4476 21.0994 19.7978 21.4495C20.1479 21.7996 20.345 22.2742 20.3459 22.7693V22.8139C20.3457 22.8672 20.3636 22.9191 20.3969 22.9609C20.4301 23.0026 20.4766 23.0318 20.5287 23.0436C20.747 23.0898 20.9487 23.1944 21.1122 23.3463C21.2756 23.4982 21.3948 23.6917 21.4568 23.9061Z" fill="#F6B884"/>
<path d="M20.4677 23.9064C20.5016 24.0181 20.5182 24.1343 20.5169 24.251C20.5182 24.4138 20.487 24.5753 20.4252 24.726C20.3635 24.8767 20.2724 25.0136 20.1572 25.1287C20.042 25.2439 19.9051 25.335 19.7545 25.3968C19.6038 25.4585 19.4423 25.4897 19.2794 25.4885H16.6451C16.417 25.4887 16.1933 25.426 15.9985 25.3074C15.8038 25.1887 15.6455 25.0186 15.5412 24.8158C15.4547 24.6443 15.4092 24.4551 15.4082 24.263C15.4072 24.0709 15.4508 23.8812 15.5356 23.7088C15.6203 23.5364 15.7438 23.386 15.8965 23.2694C16.0491 23.1528 16.2268 23.0733 16.4154 23.0369C16.4688 23.0266 16.5169 22.998 16.5515 22.9561C16.5861 22.9142 16.6051 22.8616 16.6052 22.8072V22.7697C16.606 22.6566 16.6162 22.5437 16.6357 22.4322C16.6987 22.0968 16.8519 21.7849 17.0787 21.5299C17.3187 21.2584 17.6333 21.0636 17.9834 20.9697C18.378 21.0777 18.7261 21.3124 18.9743 21.6376C19.2225 21.9628 19.3569 22.3606 19.3568 22.7697V22.8143C19.3567 22.868 19.375 22.9201 19.4087 22.9619C19.4424 23.0037 19.4894 23.0327 19.5419 23.0439C19.76 23.0902 19.9613 23.195 20.1244 23.3469C20.2875 23.4988 20.4061 23.6922 20.4677 23.9064Z" fill="#CCBADE"/>
<path d="M17.5946 18.5039C17.6106 18.5188 17.622 18.538 17.6274 18.5592C17.6328 18.5804 17.632 18.6027 17.6251 18.6235L17.2501 19.8164C17.2443 19.8353 17.2337 19.8524 17.2193 19.866C17.2049 19.8795 17.1873 19.8891 17.168 19.8938C17.1584 19.8976 17.148 19.8992 17.1376 19.8985C17.1083 19.898 17.0801 19.8872 17.0579 19.868L16.2657 19.1203C16.2508 19.1071 16.2398 19.0901 16.2336 19.0712C16.2274 19.0522 16.2264 19.032 16.2305 19.0125C16.2341 18.993 16.2427 18.9747 16.2554 18.9595C16.2681 18.9443 16.2846 18.9327 16.3032 18.9258L17.4727 18.4781C17.4935 18.4711 17.5158 18.4698 17.5372 18.4743C17.5586 18.4789 17.5785 18.4891 17.5946 18.5039ZM17.0813 19.568L17.3298 18.7852L16.561 19.0781L17.0813 19.568Z" fill="#232323"/>
<path d="M17.3298 18.7852L17.0813 19.568L16.561 19.0781L17.3298 18.7852Z" fill="#FFA467"/>
<path d="M15.2177 25.7622C15.2279 25.7796 15.2335 25.7992 15.2339 25.8193C15.2343 25.8395 15.2296 25.8593 15.2201 25.8771L14.0482 28.1013C14.0389 28.1206 14.0242 28.1369 14.0059 28.1481C13.9876 28.1593 13.9665 28.165 13.9451 28.1646H13.9427C13.921 28.1636 13.8999 28.1568 13.8818 28.1448C13.8636 28.1329 13.849 28.1162 13.8396 28.0966L12.7685 25.8208C12.7601 25.8029 12.7566 25.7831 12.7582 25.7633C12.7598 25.7436 12.7666 25.7246 12.7779 25.7083C12.7881 25.6909 12.8029 25.6767 12.8207 25.6672C12.8385 25.6577 12.8585 25.6532 12.8787 25.6544L15.1193 25.7036C15.1392 25.7047 15.1586 25.7105 15.1758 25.7207C15.1929 25.731 15.2073 25.7452 15.2177 25.7622ZM13.9521 27.7849L14.9248 25.9357L13.0615 25.8935L13.9521 27.7849ZM15.1404 18.6185C15.1496 18.6361 15.1541 18.6559 15.1534 18.6758C15.1528 18.6957 15.147 18.7151 15.1366 18.732C15.1262 18.749 15.1116 18.763 15.0942 18.7727C15.0768 18.7824 15.0572 18.7874 15.0373 18.7872L12.9185 18.8036C12.8985 18.804 12.8787 18.7992 12.8611 18.7898C12.8435 18.7804 12.8285 18.7666 12.8177 18.7497C12.8074 18.733 12.8014 18.714 12.8001 18.6944C12.7989 18.6747 12.8025 18.6551 12.8107 18.6372L13.8537 16.4388C13.8633 16.4191 13.8783 16.4025 13.897 16.3908C13.9156 16.3792 13.9372 16.3731 13.9591 16.3732C13.9813 16.3722 14.0032 16.3779 14.022 16.3896C14.0409 16.4013 14.0557 16.4185 14.0646 16.4388L15.1404 18.6185ZM14.8474 18.5552L13.9615 16.7599L13.1037 18.5693L14.8474 18.5552Z" fill="#232323"/>
<path d="M14.9248 25.9357L13.9521 27.785L13.0615 25.8936L14.9248 25.9357Z" fill="#FFA467"/>
<path d="M13.9618 16.7598L14.8478 18.5551L13.104 18.5691L13.9618 16.7598Z" fill="#FFA467"/>
<path d="M11.5712 24.9115C11.5837 24.9266 11.5921 24.9446 11.5958 24.9639C11.5995 24.9831 11.5983 25.003 11.5923 25.0216C11.5857 25.0405 11.5745 25.0574 11.5598 25.0709C11.5451 25.0843 11.5273 25.094 11.5079 25.099L10.2939 25.3943C10.2846 25.3962 10.2752 25.397 10.2658 25.3966C10.2483 25.3968 10.2311 25.3932 10.2153 25.3859C10.1995 25.3786 10.1855 25.3678 10.1743 25.3544C10.1604 25.3373 10.1514 25.3166 10.1485 25.2947C10.1456 25.2727 10.1489 25.2504 10.1579 25.2302L10.6829 24.0935C10.6914 24.0758 10.7043 24.0605 10.7203 24.049C10.7362 24.0375 10.7548 24.0303 10.7743 24.0279C10.7941 24.0249 10.8143 24.0272 10.8328 24.0346C10.8514 24.042 10.8676 24.0543 10.8798 24.0701L11.5712 24.9115ZM11.2712 24.9162L10.8165 24.363L10.472 25.1084L11.2712 24.9162ZM11.4259 19.0357C11.4317 19.0542 11.433 19.0739 11.4298 19.093C11.4265 19.1122 11.4188 19.1303 11.4072 19.1459L10.7322 20.0037C10.7213 20.0176 10.7075 20.0288 10.6916 20.0365C10.6758 20.0442 10.6584 20.0482 10.6408 20.0482C10.6367 20.0488 10.6325 20.048 10.629 20.0459C10.6093 20.0441 10.5904 20.0373 10.574 20.0263C10.5576 20.0152 10.5443 20.0002 10.5353 19.9826L9.98685 18.8576C9.9775 18.8376 9.97386 18.8154 9.97634 18.7935C9.97883 18.7716 9.98733 18.7507 10.0009 18.7334C10.0145 18.716 10.0327 18.7029 10.0534 18.6954C10.0742 18.6879 10.0966 18.6865 10.1181 18.6912L11.3392 18.9607C11.359 18.9643 11.3775 18.9732 11.3928 18.9864C11.408 18.9996 11.4195 19.0166 11.4259 19.0357ZM10.6642 19.7107L11.1072 19.1482L10.3056 18.9724L10.6642 19.7107Z" fill="#232323"/>
<path d="M10.8162 24.3633L11.2709 24.9164L10.4717 25.1086L10.8162 24.3633Z" fill="#FFA467"/>
<path d="M11.1072 19.1484L10.6643 19.7109L10.3057 18.9727L11.1072 19.1484Z" fill="#FFA467"/>
<path d="M10.3594 20.7186L10.3547 22.8373C10.3537 22.8681 10.3411 22.8973 10.3193 22.9191C10.2975 22.9409 10.2683 22.9535 10.2375 22.9545C10.2197 22.9543 10.2022 22.9503 10.186 22.9428L7.99925 21.8787C7.97922 21.8695 7.96234 21.8545 7.95068 21.8358C7.93902 21.8171 7.93309 21.7953 7.93363 21.7733C7.93358 21.7513 7.93971 21.7298 7.95132 21.7111C7.96292 21.6925 7.97953 21.6775 7.99925 21.6678L10.1907 20.6131C10.2082 20.6038 10.228 20.5996 10.2479 20.6008C10.2677 20.602 10.2869 20.6087 10.3032 20.6201C10.3202 20.6303 10.3344 20.6447 10.3442 20.662C10.3541 20.6792 10.3593 20.6987 10.3594 20.7186ZM10.1203 22.6498L10.1227 20.9037L8.318 21.7733L10.1203 22.6498Z" fill="#232323"/>
<path d="M10.1226 20.9033L10.1202 22.6494L8.31787 21.7729L10.1226 20.9033Z" fill="#FFA467"/>
</svg>
