<svg width="89" height="76" viewBox="0 0 89 76" fill="none" xmlns="http://www.w3.org/2000/svg">
<path d="M2.08568 63.0151L7.55768 48.0871C7.82968 47.3671 8.25368 46.8311 8.82968 46.4791C9.42168 46.1111 10.0857 45.9271 10.8217 45.9271C11.5577 45.9271 12.2217 46.1031 12.8137 46.4551C13.4057 46.7911 13.8297 47.3271 14.0857 48.0631L19.5817 63.0151H15.8137L14.6857 59.6311H6.86168L5.68568 63.0151H2.08568ZM7.89368 56.6071H13.6777L11.2537 49.2391C11.2217 49.1271 11.1657 49.0471 11.0857 48.9991C11.0217 48.9511 10.9417 48.9271 10.8457 48.9271C10.7497 48.9271 10.6697 48.9591 10.6057 49.0231C10.5417 49.0711 10.4937 49.1431 10.4617 49.2391L7.89368 56.6071ZM21.2015 63.0151V60.2071H27.1775C27.3695 60.2071 27.5375 60.1671 27.6815 60.0871C27.8415 60.0071 27.9615 59.8951 28.0415 59.7511C28.1375 59.6071 28.1855 59.4471 28.1855 59.2711C28.1855 59.0791 28.1375 58.9111 28.0415 58.7671C27.9615 58.6231 27.8415 58.5111 27.6815 58.4311C27.5375 58.3351 27.3695 58.2871 27.1775 58.2871H24.8735C24.0895 58.2871 23.3775 58.1671 22.7375 57.9271C22.1135 57.6711 21.6095 57.2711 21.2255 56.7271C20.8575 56.1671 20.6735 55.4391 20.6735 54.5431C20.6735 53.8551 20.8415 53.2311 21.1775 52.6711C21.5295 52.0951 21.9935 51.6391 22.5695 51.3031C23.1615 50.9511 23.8095 50.7751 24.5135 50.7751H30.2495V53.5831H24.8255C24.5855 53.5831 24.3695 53.6631 24.1775 53.8231C24.0015 53.9831 23.9135 54.1911 23.9135 54.4471C23.9135 54.7031 24.0015 54.9191 24.1775 55.0951C24.3535 55.2551 24.5695 55.3351 24.8255 55.3351H27.1295C28.0095 55.3351 28.7695 55.4711 29.4095 55.7431C30.0495 55.9991 30.5455 56.4071 30.8975 56.9671C31.2495 57.5271 31.4255 58.2631 31.4255 59.1751C31.4255 59.8791 31.2495 60.5271 30.8975 61.1191C30.5455 61.6951 30.0735 62.1591 29.4815 62.5111C28.8895 62.8471 28.2255 63.0151 27.4895 63.0151H21.2015ZM37.8937 63.0151C36.8057 63.0151 35.9497 62.7031 35.3257 62.0791C34.7177 61.4551 34.4137 60.6071 34.4137 59.5351V47.7031H37.7017V59.4391C37.7017 59.6471 37.7737 59.8311 37.9177 59.9911C38.0777 60.1351 38.2617 60.2071 38.4697 60.2071H41.1337V63.0151H37.8937ZM32.3257 53.5831V50.7751H41.1337V53.5831H32.3257ZM43.5335 63.0151V54.2551C43.5335 53.1671 43.8375 52.3191 44.4455 51.7111C45.0695 51.0871 45.9255 50.7751 47.0135 50.7751H50.3975V53.5831H47.5895C47.3815 53.5831 47.1975 53.6551 47.0375 53.7991C46.8935 53.9431 46.8215 54.1271 46.8215 54.3511V63.0151H43.5335ZM58.0882 63.3031C56.8242 63.3031 55.6962 63.0231 54.7042 62.4631C53.7122 61.8871 52.9282 61.1191 52.3522 60.1591C51.7762 59.1831 51.4882 58.0951 51.4882 56.8951C51.4882 55.6951 51.7762 54.6151 52.3522 53.6551C52.9282 52.6791 53.7122 51.9111 54.7042 51.3511C55.6962 50.7751 56.8242 50.4871 58.0882 50.4871C59.3522 50.4871 60.4802 50.7751 61.4722 51.3511C62.4642 51.9111 63.2482 52.6791 63.8242 53.6551C64.4002 54.6151 64.6882 55.6951 64.6882 56.8951C64.6882 58.0951 64.4002 59.1831 63.8242 60.1591C63.2482 61.1191 62.4642 61.8871 61.4722 62.4631C60.4802 63.0231 59.3522 63.3031 58.0882 63.3031ZM58.0882 60.4951C58.7602 60.4951 59.3362 60.3351 59.8162 60.0151C60.3122 59.6951 60.6882 59.2631 60.9442 58.7191C61.2162 58.1751 61.3522 57.5671 61.3522 56.8951C61.3522 56.2231 61.2162 55.6151 60.9442 55.0711C60.6882 54.5271 60.3122 54.0951 59.8162 53.7751C59.3362 53.4551 58.7602 53.2951 58.0882 53.2951C57.4162 53.2951 56.8322 53.4551 56.3362 53.7751C55.8562 54.0951 55.4802 54.5271 55.2082 55.0711C54.9522 55.6151 54.8242 56.2231 54.8242 56.8951C54.8242 57.5671 54.9522 58.1751 55.2082 58.7191C55.4802 59.2631 55.8562 59.6951 56.3362 60.0151C56.8322 60.3351 57.4162 60.4951 58.0882 60.4951Z" fill="#FFDEB7"/>
<path d="M75.443 51.2791C75.443 51.6951 75.387 52.0871 75.275 52.4551C75.163 52.8071 75.011 53.1351 74.819 53.4391C74.643 53.7431 74.443 54.0151 74.219 54.2551C73.995 54.4791 73.771 54.6711 73.547 54.8311C73.787 54.9431 74.059 55.0551 74.363 55.1671C74.683 55.2631 75.003 55.3511 75.323 55.4311C75.659 55.4951 75.987 55.5511 76.307 55.5991C76.643 55.6311 76.947 55.6471 77.219 55.6471V47.7511H81.851V49.7671H79.811V63.0151H77.219V58.4791L69.707 62.9911L68.075 60.7591L74.603 57.4711V57.3751C74.219 57.2951 73.763 57.1671 73.235 56.9911C72.707 56.8151 72.195 56.5671 71.699 56.2471C71.171 56.5351 70.515 56.8231 69.731 57.1111C68.963 57.3831 68.051 57.6631 66.995 57.9511L65.747 55.6471C66.611 55.4231 67.387 55.1991 68.075 54.9751C68.779 54.7511 69.507 54.4551 70.259 54.0871C71.059 53.6871 71.675 53.2631 72.107 52.8151C72.555 52.3671 72.779 51.8311 72.779 51.2071C72.779 50.7111 72.643 50.3191 72.371 50.0311C72.099 49.7271 71.747 49.5751 71.315 49.5751C70.947 49.5751 70.611 49.7031 70.307 49.9591C70.003 50.1991 69.851 50.5591 69.851 51.0391C69.851 51.4071 69.931 51.7271 70.091 51.9991C70.251 52.2711 70.459 52.5191 70.715 52.7431L68.891 53.8471C68.427 53.4791 68.059 53.0631 67.787 52.5991C67.515 52.1191 67.379 51.5431 67.379 50.8711C67.379 50.4391 67.475 50.0231 67.667 49.6231C67.859 49.2231 68.123 48.8711 68.459 48.5671C68.811 48.2471 69.235 47.9911 69.731 47.7991C70.227 47.6071 70.779 47.5111 71.387 47.5111C71.995 47.5111 72.547 47.6151 73.043 47.8231C73.555 48.0151 73.987 48.2871 74.339 48.6391C74.691 48.9751 74.963 49.3751 75.155 49.8391C75.347 50.2871 75.443 50.7671 75.443 51.2791ZM83.4091 49.7671H81.3691V47.7511H83.1931C83.0651 47.3351 82.9131 46.9031 82.7371 46.4551C82.5611 46.0071 82.3451 45.5991 82.0891 45.2311C81.8491 44.8631 81.5691 44.5591 81.2491 44.3191C80.9131 44.0791 80.5291 43.9591 80.0971 43.9591C79.6171 43.9591 79.2411 44.1031 78.9691 44.3911C78.6971 44.6631 78.5611 45.0631 78.5611 45.5911C78.5611 46.0551 78.6331 46.4871 78.7771 46.8871C78.9211 47.2871 79.1051 47.6551 79.3291 47.9911L77.5291 49.0231L77.1691 48.5911C76.8491 48.1591 76.5771 47.6711 76.3531 47.1271C76.1291 46.5671 76.0171 45.9831 76.0171 45.3751C76.0171 44.8631 76.1131 44.3911 76.3051 43.9591C76.4811 43.5271 76.7451 43.1591 77.0971 42.8551C77.4331 42.5351 77.8411 42.2871 78.3211 42.1111C78.8011 41.9351 79.3451 41.8471 79.9531 41.8471C80.8331 41.8471 81.5931 42.0391 82.2331 42.4231C82.8731 42.8071 83.4091 43.2951 83.8411 43.8871C84.2891 44.4631 84.6491 45.0951 84.9211 45.7831C85.2091 46.4711 85.4251 47.1271 85.5691 47.7511H88.0411V49.7671H86.0011V63.0151H83.4091V49.7671Z" fill="#F5F5F5"/>
<path d="M45.7559 5.03174L67.8457 15.016V34.9844L45.7559 44.9686L23.6661 34.9844V15.016L45.7559 5.03174Z" fill="#FFDEB7"/>
<path d="M23.6156 34.9844V15.0008L45.7558 5.03174L23.6156 34.9844Z" fill="url(#paint0_linear_99_58)"/>
<path d="M23.5138 14.9759L45.6197 4.98437L67.6921 14.9759L23.5138 14.9759Z" fill="url(#paint1_linear_99_58)"/>
<path d="M67.7943 34.9844V15.0008L45.7562 5.03174L67.7943 34.9844Z" fill="url(#paint2_linear_99_58)"/>
<path d="M23.6159 35.0241L45.7218 45.0156L67.7941 35.0242L23.6159 35.0241Z" fill="url(#paint3_linear_99_58)"/>
<path d="M67.8962 15.0156V34.9992L45.756 44.9683L67.8962 15.0156Z" fill="url(#paint4_linear_99_58)"/>
<path d="M23.514 15.0156V34.9992L45.6541 44.9683L23.514 15.0156Z" fill="url(#paint5_linear_99_58)"/>
<path d="M40.2121 25.2744H46.3819L47.1673 26.4438H40.2121C39.4609 26.4438 38.8518 26.9673 38.8518 27.6131C38.8518 28.2589 39.4609 28.7825 40.2121 28.7825H48.738C49.2417 29.5321 50.1553 29.9514 51.0948 29.9518H40.2121C38.7096 29.9518 37.4916 28.9047 37.4916 27.6131C37.4916 26.3215 38.7096 25.2744 40.2121 25.2744Z" fill="url(#paint6_linear_99_58)"/>
<path d="M40.2121 27.0284H47.5599L48.3453 28.1978H40.2121C39.8365 28.1978 39.532 27.936 39.532 27.6131C39.532 27.2902 39.8365 27.0284 40.2121 27.0284Z" fill="url(#paint7_linear_99_58)"/>
<path d="M48.7396 28.7819L45.6545 24.1886L46.4399 23.0193L49.9177 28.1973C50.2934 28.7566 51.1254 28.9482 51.776 28.6253C52.4267 28.3024 52.6496 27.5872 52.2739 27.0279L48.0107 20.6806C48.5141 19.9308 48.4797 19.041 48.0103 18.3413L53.452 26.4432C54.2033 27.5618 53.7575 28.9921 52.4562 29.638C51.1549 30.2838 49.4909 29.9005 48.7396 28.7819Z" fill="url(#paint8_linear_99_58)"/>
<path d="M50.5068 27.9049L46.8326 22.4346L47.618 21.2653L51.6849 27.3203C51.8727 27.5999 51.7612 27.9575 51.4359 28.1189C51.1106 28.2804 50.6946 28.1846 50.5068 27.9049Z" fill="url(#paint9_linear_99_58)"/>
<path d="M48.0105 20.6808L44.9254 25.2741H43.3546L46.8324 20.0961C47.208 19.5368 46.9851 18.8217 46.3344 18.4988C45.6838 18.1759 44.8518 18.3675 44.4762 18.9268L40.213 25.2741C39.2059 25.2743 38.3266 25.7448 37.8564 26.444L43.2981 18.3421C44.0494 17.2235 45.7133 16.8403 47.0146 17.4861C48.3159 18.1319 48.7618 19.5622 48.0105 20.6808Z" fill="url(#paint10_linear_99_58)"/>
<path d="M46.2433 19.8038L42.5692 25.2741H40.9984L45.0652 19.2191C45.253 18.9395 45.669 18.8437 45.9944 19.0051C46.3197 19.1666 46.4311 19.5241 46.2433 19.8038Z" fill="url(#paint11_linear_99_58)"/>
<defs>
<linearGradient id="paint0_linear_99_58" x1="29.5917" y1="1.79977" x2="21.1171" y2="30.9746" gradientUnits="userSpaceOnUse">
<stop offset="0.236" stop-color="#8C64B4"/>
<stop offset="0.601" stop-color="#CEBC1B" stop-opacity="0"/>
</linearGradient>
<linearGradient id="paint1_linear_99_58" x1="63.2538" y1="5.03204" x2="23.6559" y2="4.39184" gradientUnits="userSpaceOnUse">
<stop offset="0.280035" stop-color="#8C64B4"/>
<stop offset="0.7079" stop-color="#CEBC1B" stop-opacity="0"/>
</linearGradient>
<linearGradient id="paint2_linear_99_58" x1="61.817" y1="1.91528" x2="69.833" y2="31.7388" gradientUnits="userSpaceOnUse">
<stop offset="0.221" stop-color="#CEBC1B" stop-opacity="0"/>
<stop offset="0.621" stop-color="#8C64B4"/>
</linearGradient>
<linearGradient id="paint3_linear_99_58" x1="67.9109" y1="45.3992" x2="27.2719" y2="45.4863" gradientUnits="userSpaceOnUse">
<stop offset="0.286" stop-color="#CEBC1B" stop-opacity="0"/>
<stop offset="0.741" stop-color="#8C64B4"/>
</linearGradient>
<linearGradient id="paint4_linear_99_58" x1="59.4727" y1="46.4704" x2="69.5725" y2="18.4893" gradientUnits="userSpaceOnUse">
<stop offset="0.256" stop-color="#8C64B4"/>
<stop offset="0.651" stop-color="#CEBC1B" stop-opacity="0"/>
</linearGradient>
<linearGradient id="paint5_linear_99_58" x1="29.2624" y1="48.701" x2="21.2874" y2="19.1175" gradientUnits="userSpaceOnUse">
<stop offset="0.0874176" stop-color="#CEBC1B" stop-opacity="0"/>
<stop offset="0.75291" stop-color="#8C64B4"/>
</linearGradient>
<linearGradient id="paint6_linear_99_58" x1="37.4916" y1="27.6131" x2="51.0948" y2="27.6131" gradientUnits="userSpaceOnUse">
<stop stop-color="#8C64B4"/>
<stop offset="1" stop-color="#FFDEB7"/>
</linearGradient>
<linearGradient id="paint7_linear_99_58" x1="37.4916" y1="27.6131" x2="51.0948" y2="27.6131" gradientUnits="userSpaceOnUse">
<stop stop-color="#8C64B4"/>
<stop offset="1" stop-color="#FFDEB7"/>
</linearGradient>
<linearGradient id="paint8_linear_99_58" x1="52.7232" y1="29.4767" x2="47.1277" y2="18.3483" gradientUnits="userSpaceOnUse">
<stop stop-color="#8C64B4"/>
<stop offset="1" stop-color="#FFDEB7"/>
</linearGradient>
<linearGradient id="paint9_linear_99_58" x1="52.7232" y1="29.4767" x2="47.1277" y2="18.3483" gradientUnits="userSpaceOnUse">
<stop stop-color="#8C64B4"/>
<stop offset="1" stop-color="#FFDEB7"/>
</linearGradient>
<linearGradient id="paint10_linear_99_58" x1="46.7187" y1="17.3679" x2="41.2471" y2="28.5388" gradientUnits="userSpaceOnUse">
<stop stop-color="#8C64B4"/>
<stop offset="1" stop-color="#FFDEB7"/>
</linearGradient>
<linearGradient id="paint11_linear_99_58" x1="46.7187" y1="17.3679" x2="41.2471" y2="28.5388" gradientUnits="userSpaceOnUse">
<stop stop-color="#8C64B4"/>
<stop offset="1" stop-color="#FFDEB7"/>
</linearGradient>
</defs>
</svg>
