<svg width="48" height="48" viewBox="0 0 48 48" fill="none" xmlns="http://www.w3.org/2000/svg">
<circle cx="25.743" cy="23.2442" r="20.2442" fill="#FFDDB5"/>
<path d="M23.1856 33.6438H6.5465C5.36786 33.6438 4.37989 33.3242 3.58257 32.6848C2.78526 32.0454 2.3866 31.2447 2.3866 30.2828V16.7022C2.3866 15.7402 2.77895 14.9338 3.56364 14.2831C4.34834 13.6324 5.33099 13.307 6.5116 13.307H23.1787C24.3593 13.307 25.3488 13.6318 26.1475 14.2815C26.9461 14.9312 27.3454 15.7362 27.3454 16.6965V18.4845C27.3454 18.8296 27.7098 19.053 28.0173 18.8964L34.3212 15.6861C34.9362 15.3729 35.6651 15.8197 35.6651 16.5099V30.441C35.6651 31.1312 34.9362 31.5779 34.3212 31.2647L28.0173 28.0544C27.7098 27.8978 27.3454 28.1212 27.3454 28.4663V30.2544C27.3454 31.2148 26.9468 32.0198 26.1495 32.6695C25.3522 33.3191 24.3643 33.6438 23.1856 33.6438Z" fill="#8C64B4"/>
<path fill-rule="evenodd" clip-rule="evenodd" d="M27.0254 33.7444C25.9451 34.6246 24.6342 35.0305 23.1856 35.0305H6.5465C5.1032 35.0305 3.79535 34.6328 2.7151 33.7665C1.61323 32.8829 1 31.6948 1 30.2828V16.7022C1 15.3001 1.59788 14.1119 2.67852 13.2158C3.75053 12.3268 5.06158 11.9204 6.5116 11.9204H23.1787C24.6287 11.9204 25.9409 12.326 27.0225 13.2059C28.1181 14.0971 28.732 15.2856 28.732 16.6965V16.9764L33.6919 14.4505C35.2294 13.6675 37.0517 14.7844 37.0517 16.5099V30.441C37.0517 32.1664 35.2294 33.2833 33.6919 32.5003L28.732 29.9744V30.2544C28.732 31.6643 28.1195 32.8528 27.0254 33.7444ZM27.3881 29.2901L27.3892 29.2906L27.3881 29.2901ZM26.1495 32.6695C26.9468 32.0198 27.3454 31.2148 27.3454 30.2544V28.4663C27.3454 28.1212 27.7098 27.8978 28.0173 28.0544L34.3212 31.2647C34.9362 31.5779 35.6651 31.1312 35.6651 30.441V16.5099C35.6651 15.8197 34.9362 15.3729 34.3212 15.6861L28.0173 18.8964C27.7098 19.053 27.3454 18.8296 27.3454 18.4845V16.6965C27.3454 15.7362 26.9461 14.9312 26.1475 14.2815C25.3488 13.6318 24.3593 13.307 23.1787 13.307H6.5116C5.33099 13.307 4.34834 13.6324 3.56364 14.2831C2.77895 14.9338 2.3866 15.7402 2.3866 16.7022V30.2828C2.3866 31.2447 2.78526 32.0454 3.58257 32.6848C4.37989 33.3242 5.36786 33.6438 6.5465 33.6438H23.1856C24.3643 33.6438 25.3522 33.3191 26.1495 32.6695Z" fill="#232323"/>
<path fill-rule="evenodd" clip-rule="evenodd" d="M4.69772 31.795H21.3368C22.5155 31.795 23.5034 31.4703 24.3008 30.8207C25.098 30.171 25.4966 29.366 25.4966 28.4056V27.3716C25.4966 26.6814 26.2255 26.2346 26.8405 26.5478L32.4724 29.4159C33.0874 29.7291 33.8163 29.2824 33.8163 28.5922V15.9432L34.3212 15.6861C34.9362 15.3729 35.6651 15.8197 35.6651 16.5099V30.441C35.6651 31.1312 34.9362 31.5779 34.3212 31.2647L28.0173 28.0544C27.7098 27.8978 27.3454 28.1212 27.3454 28.4663V30.2544C27.3454 31.2148 26.9468 32.0198 26.1495 32.6695C25.3522 33.3191 24.3643 33.6438 23.1856 33.6438H6.5465C5.36786 33.6438 4.37989 33.3242 3.58257 32.6848C3.1047 32.3016 2.77 31.8604 2.57855 31.3613C3.19871 31.6505 3.9051 31.795 4.69772 31.795Z" fill="#CCBADE"/>
<path d="M34.4867 41.8905C34.0263 41.8313 33.6075 41.5921 33.321 41.2246C33.0344 40.8571 32.9031 40.3908 32.9555 39.9266V39.8941C32.9557 39.6946 32.8792 39.5028 32.7421 39.3588C32.605 39.2147 32.4179 39.1296 32.2199 39.1212C32.0172 39.1151 31.8201 39.1889 31.6708 39.3269C31.5214 39.465 31.4316 39.6563 31.4205 39.8601C31.4053 40.3631 31.2069 40.8428 30.863 41.208C30.7186 41.3633 30.5431 41.486 30.3481 41.568C30.1531 41.6499 29.9431 41.6892 29.7319 41.6834C29.529 41.6764 29.3315 41.75 29.182 41.8882C29.0324 42.0264 28.9428 42.2182 28.9325 42.4223V42.4563C28.9323 42.6556 29.0087 42.8473 29.1456 42.9914C29.2825 43.1354 29.4695 43.2206 29.6674 43.2292C29.8788 43.2413 30.0853 43.2985 30.273 43.3971C30.4607 43.4957 30.6255 43.6335 30.7562 43.8011C31.0689 44.1942 31.2261 44.6896 31.1978 45.1923V45.2271C31.1976 45.4265 31.274 45.6182 31.4109 45.7622C31.5478 45.9062 31.7348 45.9914 31.9327 46H31.9665C32.1645 46.0002 32.355 45.9233 32.4981 45.7855C32.6412 45.6477 32.7258 45.4595 32.7344 45.2603C32.7258 45.0287 32.7628 44.7977 32.8432 44.5805C32.9235 44.3633 33.0457 44.1642 33.2026 43.9946C33.3595 43.825 33.5482 43.6883 33.7577 43.5922C33.9673 43.4961 34.1936 43.4426 34.4237 43.4348C34.5249 43.4412 34.6264 43.4271 34.7221 43.3931C34.8177 43.3591 34.9055 43.306 34.9803 43.237C35.055 43.168 35.1151 43.0844 35.157 42.9915C35.1988 42.8985 35.2216 42.7979 35.2239 42.6959V42.6619C35.2236 42.4624 35.1468 42.2707 35.0094 42.127C34.872 41.9832 34.6847 41.8985 34.4867 41.8905ZM32.0632 42.9726C32.024 42.9192 31.9864 42.8667 31.9419 42.818C31.8627 42.7212 31.7784 42.6289 31.6892 42.5413C31.7851 42.4627 31.8764 42.3785 31.9626 42.2893C32.0087 42.2422 32.0532 42.1935 32.0955 42.1448C32.2082 42.2996 32.3338 42.4444 32.471 42.5776C32.3239 42.6982 32.1875 42.8314 32.0632 42.9757V42.9726ZM41.8626 9.55428C41.3043 9.48473 40.7957 9.19682 40.4466 8.7528C40.0976 8.30878 39.9362 7.74433 39.9974 7.18149V7.14826C39.9976 6.9489 39.9212 6.75719 39.7843 6.61316C39.6473 6.46913 39.4604 6.38393 39.2625 6.37536C39.1613 6.36931 39.0599 6.38382 38.9644 6.41802C38.8689 6.45221 38.7812 6.5054 38.7066 6.57442C38.6319 6.64343 38.5718 6.72686 38.5299 6.81973C38.4879 6.91261 38.465 7.01303 38.4623 7.11502C38.4451 7.72083 38.2061 8.29887 37.7912 8.7381C37.6148 8.92776 37.4003 9.07751 37.162 9.17744C36.9237 9.27738 36.667 9.32521 36.409 9.31778C36.206 9.31082 36.0084 9.38434 35.8588 9.52253C35.7092 9.66072 35.6194 9.85253 35.6088 10.0567V10.0907C35.6087 10.29 35.685 10.4817 35.822 10.6258C35.9589 10.7698 36.1458 10.855 36.3437 10.8636C36.9019 10.9329 37.4104 11.2207 37.7594 11.6646C38.1083 12.1086 38.2695 12.6729 38.2082 13.2356V13.2696C38.208 13.469 38.2843 13.6607 38.4213 13.8047C38.5582 13.9487 38.7452 14.0339 38.9431 14.0425H38.9768C39.1749 14.0427 39.3654 13.9658 39.5085 13.828C39.6516 13.6902 39.7362 13.502 39.7447 13.3028C39.7627 12.6972 40.0016 12.1194 40.4159 11.6797C40.5934 11.4915 40.808 11.3426 41.0461 11.2428C41.2841 11.143 41.5403 11.0943 41.7981 11.1001C41.8993 11.1064 42.0007 11.0922 42.0963 11.0582C42.1919 11.0241 42.2797 10.971 42.3544 10.902C42.4291 10.833 42.4892 10.7496 42.5311 10.6566C42.573 10.5637 42.5959 10.4632 42.5982 10.3612V10.3256C42.598 10.1264 42.5214 9.93498 42.3843 9.79126C42.2473 9.64755 42.0603 9.56265 41.8626 9.55428ZM39.3147 10.5977C39.2302 10.6858 39.1496 10.777 39.0744 10.8721C38.9053 10.6189 38.7059 10.3876 38.4808 10.1834C38.6265 10.0731 38.7636 9.95168 38.8908 9.82016C38.9761 9.73205 39.0559 9.64085 39.132 9.54578C39.301 9.79873 39.5001 10.03 39.7248 10.2344C39.5792 10.3449 39.4421 10.4664 39.3147 10.5977ZM28.453 8.92644C28.1841 8.92644 27.9212 9.0067 27.6976 9.15707C27.4739 9.30744 27.2996 9.52118 27.1967 9.77125C27.0937 10.0213 27.0667 10.2965 27.1192 10.562C27.1716 10.8275 27.301 11.0714 27.4911 11.2629C27.6812 11.4543 27.9235 11.5847 28.1872 11.6376C28.451 11.6905 28.7244 11.6635 28.9729 11.5601C29.2214 11.4566 29.4339 11.2813 29.5834 11.0563C29.7329 10.8313 29.8128 10.5667 29.813 10.296C29.8128 9.93298 29.6695 9.58486 29.4145 9.32808C29.1595 9.0713 28.8137 8.92685 28.453 8.92644ZM28.453 10.8911C28.3359 10.8911 28.2214 10.8562 28.124 10.7907C28.0266 10.7252 27.9508 10.632 27.906 10.5231C27.8612 10.4142 27.8495 10.2943 27.8724 10.1787C27.8953 10.0631 27.9518 9.95691 28.0347 9.8736C28.1175 9.79029 28.2231 9.7336 28.338 9.71069C28.4529 9.68779 28.572 9.6997 28.6801 9.74492C28.7883 9.79014 28.8807 9.86664 28.9457 9.96474C29.0106 10.0628 29.0452 10.1781 29.0451 10.296C29.0449 10.4539 28.9824 10.6053 28.8714 10.7169C28.7604 10.8285 28.6099 10.8911 28.453 10.8911ZM23.2974 43.9157C23.5664 43.9157 23.8293 43.8354 24.053 43.685C24.2766 43.5346 24.4509 43.3208 24.5539 43.0707C24.6568 42.8206 24.6837 42.5454 24.6313 42.2799C24.5788 42.0144 24.4493 41.7705 24.2591 41.579C24.0689 41.3876 23.8266 41.2572 23.5628 41.2044C23.299 41.1516 23.0255 41.1787 22.777 41.2823C22.5285 41.3859 22.3161 41.5614 22.1667 41.7864C22.0173 42.0115 21.9375 42.2762 21.9375 42.5469C21.9381 42.9097 22.0816 43.2576 22.3365 43.5141C22.5914 43.7707 22.937 43.9151 23.2974 43.9157ZM23.2974 41.951C23.4145 41.951 23.529 41.986 23.6264 42.0514C23.7237 42.1169 23.7996 42.21 23.8444 42.3189C23.8892 42.4278 23.901 42.5476 23.8781 42.6632C23.8553 42.7788 23.7989 42.8849 23.7161 42.9683C23.6333 43.0516 23.5278 43.1084 23.4129 43.1314C23.2981 43.1544 23.1791 43.1426 23.0709 43.0975C22.9627 43.0524 22.8702 42.976 22.8052 42.878C22.7401 42.78 22.7054 42.6648 22.7054 42.5469C22.7056 42.3889 22.768 42.2375 22.879 42.1258C22.99 42.0141 23.1405 41.9512 23.2974 41.951Z" fill="#8C64B4"/>
<path d="M40.7531 22.9418C40.9221 22.7669 41.1531 22.6656 41.3963 22.6598L45.438 22.6137C45.6832 22.6109 45.9195 22.7055 46.0949 22.8769C46.2703 23.0482 46.3704 23.2823 46.3733 23.5274C46.3761 23.7726 46.2815 24.0089 46.1101 24.1843C45.9388 24.3597 45.7048 24.4599 45.4596 24.4627L41.417 24.5084C41.1738 24.5081 40.9406 24.412 40.7677 24.2409C40.5949 24.0699 40.4964 23.8375 40.4937 23.5944C40.491 23.3512 40.5842 23.1167 40.7531 22.9418Z" fill="#F2EEF7"/>
<path d="M39.6165 27.8316C39.6103 27.5868 39.7015 27.3495 39.8701 27.1719C39.9537 27.0837 40.0538 27.0129 40.1648 26.9635C40.2757 26.9141 40.3954 26.887 40.5168 26.8839C40.6382 26.8807 40.7591 26.9015 40.8725 26.9451C40.9858 26.9887 41.0895 27.0541 41.1776 27.1378L43.9686 29.793C44.1462 29.962 44.2495 30.1947 44.2556 30.4398C44.2617 30.685 44.1702 30.9225 44.0012 31.1002C43.8322 31.2779 43.5995 31.3811 43.3544 31.3872C43.1092 31.3934 42.8717 31.3018 42.694 31.1328L39.9031 28.4776C39.7257 28.3087 39.6227 28.0764 39.6165 27.8316Z" fill="#F2EEF7"/>
<path d="M40.7411 18.5435L43.3775 16.7502L43.3712 16.7465C43.574 16.6086 43.8233 16.5569 44.0642 16.6028C44.3051 16.6486 44.518 16.7884 44.6559 16.9912C44.7938 17.194 44.8455 17.4433 44.7996 17.6842C44.7537 17.9252 44.614 18.138 44.4112 18.2759L41.7748 20.0692C41.6012 20.1851 41.3936 20.2389 41.1856 20.2218C40.9776 20.2046 40.7815 20.1177 40.6292 19.9749C40.477 19.8322 40.3775 19.6422 40.3469 19.4357C40.3164 19.2292 40.3566 19.0185 40.4611 18.8378C40.5317 18.7203 40.6273 18.6198 40.7411 18.5435Z" fill="#F2EEF7"/>
</svg>
