<svg width="300" height="120" viewBox="0 0 300 120" fill="none" xmlns="http://www.w3.org/2000/svg">
<g clip-path="url(#clip0_7379_1280)">
<rect width="300" height="120" rx="12" fill="#4470AD"/>
<path d="M18.9 23.62C18.18 23.62 17.5967 23.36 17.15 22.84C16.7033 22.32 16.48 21.59 16.48 20.65C16.48 19.8967 16.6233 19.2 16.91 18.56C17.2033 17.9133 17.6233 17.3933 18.17 17C18.7233 16.6 19.3167 16.4 19.95 16.4C20.59 16.4 21.1167 16.5267 21.53 16.78C21.95 17.0333 22.16 17.3667 22.16 17.78C22.16 18.1867 22.0467 18.51 21.82 18.75C21.5533 18.75 21.2467 18.6967 20.9 18.59C20.5533 18.4833 20.2933 18.3533 20.12 18.2L20.31 17.23C20.17 17.1633 20.0333 17.13 19.9 17.13C19.5133 17.13 19.1733 17.4667 18.88 18.14C18.5867 18.8067 18.44 19.59 18.44 20.49C18.44 21.8367 18.82 22.51 19.58 22.51C20.0333 22.51 20.54 22.2633 21.1 21.77L21.57 22.24C21.5167 22.3267 21.38 22.47 21.16 22.67C20.94 22.8633 20.73 23.02 20.53 23.14C20.3367 23.26 20.09 23.37 19.79 23.47C19.4967 23.57 19.2 23.62 18.9 23.62ZM26.9013 23.62C26.6146 23.62 26.3679 23.5333 26.1613 23.36C25.9546 23.1867 25.8513 22.9367 25.8513 22.61C25.8513 22.2833 25.9913 21.5467 26.2713 20.4C26.0713 20.3533 25.8313 20.33 25.5513 20.33C25.2713 20.33 24.9746 20.37 24.6613 20.45C24.3479 21.8033 24.1846 22.7433 24.1713 23.27C23.8779 23.4433 23.2813 23.53 22.3813 23.53H22.1913C22.1913 23.15 22.3813 22.19 22.7613 20.65C23.1413 19.11 23.3313 18.1033 23.3313 17.63C23.3313 17.5167 23.2946 17.3933 23.2213 17.26C23.1546 17.12 23.0846 17.01 23.0113 16.93L22.9013 16.81L22.9213 16.61C23.3679 16.47 24.1146 16.4 25.1613 16.4C25.2679 16.5467 25.3213 16.7733 25.3213 17.08C25.3213 17.3867 25.1713 18.2033 24.8713 19.53H26.4713C26.7179 18.4833 26.8413 17.6533 26.8413 17.04C26.8413 16.92 26.8379 16.8233 26.8312 16.75C27.4846 16.5167 28.1146 16.4 28.7213 16.4C28.7679 16.4467 28.7913 16.6167 28.7913 16.91C28.7913 17.1967 28.6246 18.0633 28.2913 19.51C27.9646 20.9567 27.8013 21.8867 27.8013 22.3C27.8013 22.44 27.8446 22.51 27.9313 22.51C28.0979 22.51 28.2779 22.4667 28.4713 22.38L28.6913 22.94C28.4513 23.1467 28.1646 23.3133 27.8313 23.44C27.5046 23.56 27.1946 23.62 26.9013 23.62ZM29.8504 23.37C29.8037 23.5167 29.6471 23.59 29.3804 23.59C29.1204 23.59 28.8604 23.5 28.6004 23.32C28.8071 22.76 29.2171 21.83 29.8304 20.53C30.4504 19.2233 30.8637 18.25 31.0704 17.61C31.0904 17.53 31.1004 17.4633 31.1004 17.41C31.1004 17.35 31.0771 17.27 31.0304 17.17C30.9837 17.07 30.9337 16.99 30.8804 16.93L30.8104 16.84L30.8504 16.64C31.4437 16.48 32.1471 16.4 32.9604 16.4L33.7304 16.44C33.7971 16.5 33.8637 16.6567 33.9304 16.91C33.9971 17.1633 34.0404 17.5433 34.0604 18.05C34.0804 18.5567 34.0937 19.5067 34.1004 20.9C34.1071 21.9733 34.2404 22.51 34.5004 22.51C34.5671 22.51 34.7104 22.4767 34.9304 22.41L35.0304 22.38L35.2404 22.95C34.9671 23.1567 34.6471 23.32 34.2804 23.44C33.9137 23.56 33.5837 23.62 33.2904 23.62C32.8637 23.62 32.5704 23.49 32.4104 23.23C32.2571 22.9633 32.1804 22.6233 32.1804 22.21C32.1804 21.79 32.1837 21.5 32.1904 21.34C32.0637 21.3133 31.8171 21.3 31.4504 21.3C31.0837 21.3 30.7671 21.3367 30.5004 21.41C30.2537 22.07 30.0371 22.7233 29.8504 23.37ZM32.2304 20.5C32.2637 19.92 32.2804 19.3367 32.2804 18.75C32.2804 18.1633 32.2471 17.7367 32.1804 17.47C32.1137 17.47 32.0671 17.4767 32.0404 17.49C31.8937 17.9367 31.5004 18.94 30.8604 20.5H32.2304ZM36.3637 23.57H36.1337C36.1337 23.0167 36.2903 22.0067 36.6037 20.54C36.917 19.0733 37.0903 18.1967 37.1237 17.91C37.1637 17.6167 37.187 17.3967 37.1937 17.25C36.567 17.2633 36.067 17.36 35.6937 17.54C35.5003 17.32 35.3803 16.9967 35.3337 16.57C35.6603 16.4567 36.2203 16.4 37.0137 16.4L40.1637 16.5C40.317 16.5 40.5603 16.4933 40.8937 16.48C40.9203 16.6933 40.9337 16.8733 40.9337 17.02C40.9337 17.3333 40.737 17.49 40.3437 17.49C40.2237 17.49 40.0337 17.47 39.7737 17.43C39.5203 17.39 39.297 17.3667 39.1037 17.36C39.0837 17.5733 38.9103 18.44 38.5837 19.96C38.2637 21.48 38.1037 22.5967 38.1037 23.31C37.8103 23.4833 37.2303 23.57 36.3637 23.57Z" fill="#FDFDFD"/>
<path d="M20.74 46.608C19.892 46.608 19.172 46.432 18.58 46.08C17.988 45.728 17.532 45.228 17.212 44.58C16.9 43.932 16.744 43.16 16.744 42.264C16.744 41.368 16.9 40.6 17.212 39.96C17.532 39.312 17.988 38.812 18.58 38.46C19.172 38.108 19.892 37.932 20.74 37.932C21.34 37.932 21.876 38.024 22.348 38.208C22.82 38.392 23.232 38.66 23.584 39.012L23.212 39.804C22.828 39.468 22.448 39.224 22.072 39.072C21.696 38.912 21.256 38.832 20.752 38.832C19.784 38.832 19.048 39.132 18.544 39.732C18.04 40.332 17.788 41.176 17.788 42.264C17.788 43.352 18.04 44.2 18.544 44.808C19.048 45.408 19.784 45.708 20.752 45.708C21.256 45.708 21.696 45.632 22.072 45.48C22.448 45.32 22.828 45.068 23.212 44.724L23.584 45.528C23.232 45.872 22.82 46.14 22.348 46.332C21.876 46.516 21.34 46.608 20.74 46.608ZM25.1511 46.5V37.668H26.1231V41.808H25.9671C26.1351 41.336 26.4151 40.98 26.8071 40.74C27.2071 40.492 27.6671 40.368 28.1871 40.368C28.9071 40.368 29.4431 40.564 29.7951 40.956C30.1471 41.34 30.3231 41.924 30.3231 42.708V46.5H29.3511V42.768C29.3511 42.208 29.2391 41.8 29.0151 41.544C28.7991 41.288 28.4471 41.16 27.9591 41.16C27.3991 41.16 26.9511 41.332 26.6151 41.676C26.2871 42.02 26.1231 42.472 26.1231 43.032V46.5H25.1511ZM34.4744 46.608C33.9384 46.608 33.4704 46.484 33.0704 46.236C32.6704 45.98 32.3584 45.62 32.1344 45.156C31.9184 44.692 31.8104 44.136 31.8104 43.488C31.8104 42.832 31.9184 42.272 32.1344 41.808C32.3584 41.344 32.6704 40.988 33.0704 40.74C33.4704 40.492 33.9384 40.368 34.4744 40.368C35.0184 40.368 35.4864 40.508 35.8784 40.788C36.2784 41.06 36.5424 41.432 36.6704 41.904H36.5264L36.6584 40.476H37.5944C37.5704 40.708 37.5464 40.944 37.5224 41.184C37.5064 41.416 37.4984 41.644 37.4984 41.868V46.5H36.5264V45.084H36.6584C36.5304 45.556 36.2664 45.928 35.8664 46.2C35.4664 46.472 35.0024 46.608 34.4744 46.608ZM34.6664 45.816C35.2424 45.816 35.6984 45.62 36.0344 45.228C36.3704 44.828 36.5384 44.248 36.5384 43.488C36.5384 42.72 36.3704 42.14 36.0344 41.748C35.6984 41.348 35.2424 41.148 34.6664 41.148C34.0984 41.148 33.6424 41.348 33.2984 41.748C32.9624 42.14 32.7944 42.72 32.7944 43.488C32.7944 44.248 32.9624 44.828 33.2984 45.228C33.6424 45.62 34.0984 45.816 34.6664 45.816ZM41.5137 46.608C40.9217 46.608 40.4697 46.44 40.1577 46.104C39.8457 45.76 39.6897 45.244 39.6897 44.556V41.232H38.5137V40.476H39.6897V38.832L40.6617 38.556V40.476H42.3897V41.232H40.6617V44.448C40.6617 44.928 40.7417 45.272 40.9017 45.48C41.0697 45.68 41.3177 45.78 41.6457 45.78C41.7977 45.78 41.9337 45.768 42.0537 45.744C42.1737 45.712 42.2817 45.676 42.3777 45.636V46.452C42.2657 46.5 42.1297 46.536 41.9697 46.56C41.8177 46.592 41.6657 46.608 41.5137 46.608ZM48.3099 46.5L46.0779 40.476H47.1099L48.9699 45.78H48.6579L50.5779 40.476H51.4179L53.3019 45.78H53.0019L54.8739 40.476H55.8579L53.6139 46.5H52.6779L50.7339 41.112H51.2139L49.2579 46.5H48.3099ZM57.1316 46.5V40.476H58.1036V46.5H57.1316ZM57.0116 39.108V38.016H58.2116V39.108H57.0116ZM62.127 46.608C61.535 46.608 61.083 46.44 60.771 46.104C60.459 45.76 60.303 45.244 60.303 44.556V41.232H59.127V40.476H60.303V38.832L61.275 38.556V40.476H63.003V41.232H61.275V44.448C61.275 44.928 61.355 45.272 61.515 45.48C61.683 45.68 61.931 45.78 62.259 45.78C62.411 45.78 62.547 45.768 62.667 45.744C62.787 45.712 62.895 45.676 62.991 45.636V46.452C62.879 46.5 62.743 46.536 62.583 46.56C62.431 46.592 62.279 46.608 62.127 46.608ZM64.1863 46.5V37.668H65.1583V41.808H65.0023C65.1703 41.336 65.4503 40.98 65.8423 40.74C66.2423 40.492 66.7023 40.368 67.2223 40.368C67.9423 40.368 68.4783 40.564 68.8303 40.956C69.1823 41.34 69.3583 41.924 69.3583 42.708V46.5H68.3863V42.768C68.3863 42.208 68.2743 41.8 68.0503 41.544C67.8343 41.288 67.4823 41.16 66.9943 41.16C66.4343 41.16 65.9863 41.332 65.6503 41.676C65.3223 42.02 65.1583 42.472 65.1583 43.032V46.5H64.1863ZM74.4544 46.5V38.04H75.4504V46.5H74.4544ZM77.4519 46.5V41.868C77.4519 41.644 77.4399 41.416 77.4159 41.184C77.3999 40.944 77.3799 40.708 77.3559 40.476H78.2919L78.4119 41.796H78.2679C78.4439 41.332 78.7239 40.98 79.1079 40.74C79.4999 40.492 79.9519 40.368 80.4639 40.368C81.1759 40.368 81.7119 40.56 82.0719 40.944C82.4399 41.32 82.6239 41.916 82.6239 42.732V46.5H81.6519V42.792C81.6519 42.224 81.5359 41.812 81.3039 41.556C81.0799 41.292 80.7279 41.16 80.2479 41.16C79.6879 41.16 79.2439 41.332 78.9159 41.676C78.5879 42.02 78.4239 42.48 78.4239 43.056V46.5H77.4519ZM86.7632 46.608C86.2352 46.608 85.7712 46.484 85.3712 46.236C84.9712 45.98 84.6592 45.62 84.4352 45.156C84.2192 44.692 84.1112 44.136 84.1112 43.488C84.1112 42.832 84.2192 42.272 84.4352 41.808C84.6592 41.344 84.9712 40.988 85.3712 40.74C85.7712 40.492 86.2352 40.368 86.7632 40.368C87.3072 40.368 87.7752 40.504 88.1672 40.776C88.5672 41.048 88.8352 41.416 88.9712 41.88H88.8272V37.668H89.7992V46.5H88.8392V45.06H88.9712C88.8432 45.54 88.5792 45.92 88.1792 46.2C87.7792 46.472 87.3072 46.608 86.7632 46.608ZM86.9672 45.816C87.5352 45.816 87.9912 45.62 88.3352 45.228C88.6792 44.828 88.8512 44.248 88.8512 43.488C88.8512 42.72 88.6792 42.14 88.3352 41.748C87.9912 41.348 87.5352 41.148 86.9672 41.148C86.3992 41.148 85.9432 41.348 85.5992 41.748C85.2632 42.14 85.0952 42.72 85.0952 43.488C85.0952 44.248 85.2632 44.828 85.5992 45.228C85.9432 45.62 86.3992 45.816 86.9672 45.816ZM91.6785 46.5V40.476H92.6505V46.5H91.6785ZM91.5585 39.108V38.016H92.7585V39.108H91.5585ZM96.8298 46.608C96.2938 46.608 95.8258 46.484 95.4258 46.236C95.0258 45.98 94.7138 45.62 94.4898 45.156C94.2738 44.692 94.1658 44.136 94.1658 43.488C94.1658 42.832 94.2738 42.272 94.4898 41.808C94.7138 41.344 95.0258 40.988 95.4258 40.74C95.8258 40.492 96.2938 40.368 96.8298 40.368C97.3738 40.368 97.8418 40.508 98.2338 40.788C98.6338 41.06 98.8978 41.432 99.0258 41.904H98.8818L99.0138 40.476H99.9498C99.9258 40.708 99.9018 40.944 99.8778 41.184C99.8618 41.416 99.8538 41.644 99.8538 41.868V46.5H98.8818V45.084H99.0138C98.8858 45.556 98.6218 45.928 98.2218 46.2C97.8218 46.472 97.3578 46.608 96.8298 46.608ZM97.0218 45.816C97.5978 45.816 98.0538 45.62 98.3898 45.228C98.7258 44.828 98.8938 44.248 98.8938 43.488C98.8938 42.72 98.7258 42.14 98.3898 41.748C98.0538 41.348 97.5978 41.148 97.0218 41.148C96.4538 41.148 95.9978 41.348 95.6538 41.748C95.3178 42.14 95.1498 42.72 95.1498 43.488C95.1498 44.248 95.3178 44.828 95.6538 45.228C95.9978 45.62 96.4538 45.816 97.0218 45.816ZM101.835 40.632L101.379 40.284C101.595 40.06 101.735 39.852 101.799 39.66C101.871 39.46 101.907 39.264 101.907 39.072L102.207 39.264H101.331V38.04H102.555V38.904C102.555 39.224 102.503 39.524 102.399 39.804C102.295 40.084 102.107 40.36 101.835 40.632ZM105.893 46.608C105.413 46.608 104.965 46.544 104.549 46.416C104.133 46.28 103.789 46.092 103.517 45.852L103.853 45.168C104.149 45.4 104.469 45.572 104.813 45.684C105.165 45.796 105.529 45.852 105.905 45.852C106.385 45.852 106.745 45.768 106.985 45.6C107.233 45.424 107.357 45.184 107.357 44.88C107.357 44.648 107.277 44.464 107.117 44.328C106.965 44.184 106.713 44.072 106.361 43.992L105.245 43.764C104.733 43.652 104.349 43.464 104.093 43.2C103.837 42.928 103.709 42.584 103.709 42.168C103.709 41.816 103.801 41.508 103.985 41.244C104.169 40.972 104.437 40.76 104.789 40.608C105.141 40.448 105.553 40.368 106.025 40.368C106.465 40.368 106.869 40.436 107.237 40.572C107.613 40.7 107.925 40.888 108.173 41.136L107.825 41.808C107.585 41.576 107.309 41.404 106.997 41.292C106.693 41.172 106.377 41.112 106.049 41.112C105.577 41.112 105.221 41.208 104.981 41.4C104.749 41.584 104.633 41.828 104.633 42.132C104.633 42.364 104.705 42.556 104.849 42.708C105.001 42.852 105.233 42.96 105.545 43.032L106.661 43.26C107.205 43.38 107.609 43.568 107.873 43.824C108.145 44.072 108.281 44.408 108.281 44.832C108.281 45.192 108.181 45.508 107.981 45.78C107.781 46.044 107.501 46.248 107.141 46.392C106.789 46.536 106.373 46.608 105.893 46.608ZM115.131 46.5V38.88H112.143V38.04H119.103V38.88H116.127V46.5H115.131ZM121.772 46.608C121.196 46.608 120.692 46.484 120.26 46.236C119.836 45.98 119.508 45.62 119.276 45.156C119.044 44.684 118.928 44.128 118.928 43.488C118.928 42.84 119.044 42.284 119.276 41.82C119.508 41.356 119.836 41 120.26 40.752C120.692 40.496 121.196 40.368 121.772 40.368C122.356 40.368 122.86 40.496 123.284 40.752C123.716 41 124.048 41.356 124.28 41.82C124.52 42.284 124.64 42.84 124.64 43.488C124.64 44.128 124.52 44.684 124.28 45.156C124.048 45.62 123.716 45.98 123.284 46.236C122.86 46.484 122.356 46.608 121.772 46.608ZM121.772 45.816C122.348 45.816 122.804 45.62 123.14 45.228C123.476 44.828 123.644 44.248 123.644 43.488C123.644 42.72 123.472 42.14 123.128 41.748C122.792 41.348 122.34 41.148 121.772 41.148C121.204 41.148 120.752 41.348 120.416 41.748C120.08 42.14 119.912 42.72 119.912 43.488C119.912 44.248 120.08 44.828 120.416 45.228C120.752 45.62 121.204 45.816 121.772 45.816ZM126.155 49.092V41.868C126.155 41.644 126.143 41.416 126.119 41.184C126.103 40.944 126.083 40.708 126.059 40.476H126.995L127.127 41.904H126.983C127.111 41.432 127.371 41.06 127.763 40.788C128.155 40.508 128.623 40.368 129.167 40.368C129.711 40.368 130.179 40.492 130.571 40.74C130.971 40.988 131.283 41.344 131.507 41.808C131.731 42.272 131.843 42.832 131.843 43.488C131.843 44.136 131.731 44.692 131.507 45.156C131.291 45.62 130.983 45.98 130.583 46.236C130.183 46.484 129.711 46.608 129.167 46.608C128.631 46.608 128.167 46.472 127.775 46.2C127.383 45.928 127.123 45.556 126.995 45.084H127.127V49.092H126.155ZM128.975 45.816C129.551 45.816 130.007 45.62 130.343 45.228C130.687 44.828 130.859 44.248 130.859 43.488C130.859 42.72 130.687 42.14 130.343 41.748C130.007 41.348 129.551 41.148 128.975 41.148C128.407 41.148 127.951 41.348 127.607 41.748C127.271 42.14 127.103 42.72 127.103 43.488C127.103 44.248 127.271 44.828 127.607 45.228C127.951 45.62 128.407 45.816 128.975 45.816ZM133.442 43.608V42.804H136.862V43.608H133.442ZM138.767 46.5V38.04H142.223C143.111 38.04 143.799 38.252 144.287 38.676C144.775 39.092 145.019 39.676 145.019 40.428C145.019 40.924 144.907 41.348 144.683 41.7C144.467 42.044 144.159 42.308 143.759 42.492C143.367 42.676 142.907 42.768 142.379 42.768L142.595 42.612H142.835C143.163 42.612 143.455 42.692 143.711 42.852C143.975 43.012 144.183 43.28 144.335 43.656L145.535 46.5H144.443L143.291 43.704C143.155 43.344 142.951 43.112 142.679 43.008C142.407 42.896 142.067 42.84 141.659 42.84H139.763V46.5H138.767ZM139.763 42.06H142.079C142.719 42.06 143.203 41.924 143.531 41.652C143.867 41.372 144.035 40.972 144.035 40.452C144.035 39.932 143.867 39.536 143.531 39.264C143.203 38.992 142.719 38.856 142.079 38.856H139.763V42.06ZM149.236 46.608C148.7 46.608 148.232 46.484 147.832 46.236C147.432 45.98 147.12 45.62 146.896 45.156C146.68 44.692 146.572 44.136 146.572 43.488C146.572 42.832 146.68 42.272 146.896 41.808C147.12 41.344 147.432 40.988 147.832 40.74C148.232 40.492 148.7 40.368 149.236 40.368C149.78 40.368 150.248 40.508 150.64 40.788C151.04 41.06 151.304 41.432 151.432 41.904H151.288L151.42 40.476H152.356C152.332 40.708 152.308 40.944 152.284 41.184C152.268 41.416 152.26 41.644 152.26 41.868V46.5H151.288V45.084H151.42C151.292 45.556 151.028 45.928 150.628 46.2C150.228 46.472 149.764 46.608 149.236 46.608ZM149.428 45.816C150.004 45.816 150.46 45.62 150.796 45.228C151.132 44.828 151.3 44.248 151.3 43.488C151.3 42.72 151.132 42.14 150.796 41.748C150.46 41.348 150.004 41.148 149.428 41.148C148.86 41.148 148.404 41.348 148.06 41.748C147.724 42.14 147.556 42.72 147.556 43.488C147.556 44.248 147.724 44.828 148.06 45.228C148.404 45.62 148.86 45.816 149.428 45.816ZM156.275 46.608C155.683 46.608 155.231 46.44 154.919 46.104C154.607 45.76 154.451 45.244 154.451 44.556V41.232H153.275V40.476H154.451V38.832L155.423 38.556V40.476H157.151V41.232H155.423V44.448C155.423 44.928 155.503 45.272 155.663 45.48C155.831 45.68 156.079 45.78 156.407 45.78C156.559 45.78 156.695 45.768 156.815 45.744C156.935 45.712 157.043 45.676 157.139 45.636V46.452C157.027 46.5 156.891 46.536 156.731 46.56C156.579 46.592 156.427 46.608 156.275 46.608ZM160.952 46.608C160.008 46.608 159.264 46.336 158.72 45.792C158.176 45.24 157.904 44.476 157.904 43.5C157.904 42.868 158.024 42.32 158.264 41.856C158.504 41.384 158.84 41.02 159.272 40.764C159.704 40.5 160.2 40.368 160.76 40.368C161.312 40.368 161.776 40.484 162.152 40.716C162.528 40.948 162.816 41.28 163.016 41.712C163.216 42.136 163.316 42.64 163.316 43.224V43.584H158.648V42.972H162.68L162.476 43.128C162.476 42.488 162.332 41.988 162.044 41.628C161.756 41.268 161.328 41.088 160.76 41.088C160.16 41.088 159.692 41.3 159.356 41.724C159.02 42.14 158.852 42.704 158.852 43.416V43.524C158.852 44.276 159.036 44.848 159.404 45.24C159.78 45.624 160.304 45.816 160.976 45.816C161.336 45.816 161.672 45.764 161.984 45.66C162.304 45.548 162.608 45.368 162.896 45.12L163.232 45.804C162.968 46.06 162.632 46.26 162.224 46.404C161.824 46.54 161.4 46.608 160.952 46.608ZM167.083 46.608C166.555 46.608 166.091 46.484 165.691 46.236C165.291 45.98 164.979 45.62 164.755 45.156C164.539 44.692 164.431 44.136 164.431 43.488C164.431 42.832 164.539 42.272 164.755 41.808C164.979 41.344 165.291 40.988 165.691 40.74C166.091 40.492 166.555 40.368 167.083 40.368C167.627 40.368 168.095 40.504 168.487 40.776C168.887 41.048 169.155 41.416 169.291 41.88H169.147V37.668H170.119V46.5H169.159V45.06H169.291C169.163 45.54 168.899 45.92 168.499 46.2C168.099 46.472 167.627 46.608 167.083 46.608ZM167.287 45.816C167.855 45.816 168.311 45.62 168.655 45.228C168.999 44.828 169.171 44.248 169.171 43.488C169.171 42.72 168.999 42.14 168.655 41.748C168.311 41.348 167.855 41.148 167.287 41.148C166.719 41.148 166.263 41.348 165.919 41.748C165.583 42.14 165.415 42.72 165.415 43.488C165.415 44.248 165.583 44.828 165.919 45.228C166.263 45.62 166.719 45.816 167.287 45.816ZM16.216 66.5L19.948 58.04H20.812L24.604 66.5H23.572L22.516 64.088L22.96 64.34H17.788L18.268 64.088L17.236 66.5H16.216ZM20.368 59.18L18.424 63.74L18.136 63.524H22.6L22.384 63.74L20.392 59.18H20.368ZM27.7059 66.608C27.2259 66.608 26.7779 66.544 26.3619 66.416C25.9459 66.28 25.6019 66.092 25.3299 65.852L25.6659 65.168C25.9619 65.4 26.2819 65.572 26.6259 65.684C26.9779 65.796 27.3419 65.852 27.7179 65.852C28.1979 65.852 28.5579 65.768 28.7979 65.6C29.0459 65.424 29.1699 65.184 29.1699 64.88C29.1699 64.648 29.0899 64.464 28.9299 64.328C28.7779 64.184 28.5259 64.072 28.1739 63.992L27.0579 63.764C26.5459 63.652 26.1619 63.464 25.9059 63.2C25.6499 62.928 25.5219 62.584 25.5219 62.168C25.5219 61.816 25.6139 61.508 25.7979 61.244C25.9819 60.972 26.2499 60.76 26.6019 60.608C26.9539 60.448 27.3659 60.368 27.8379 60.368C28.2779 60.368 28.6819 60.436 29.0499 60.572C29.4259 60.7 29.7379 60.888 29.9859 61.136L29.6379 61.808C29.3979 61.576 29.1219 61.404 28.8099 61.292C28.5059 61.172 28.1899 61.112 27.8619 61.112C27.3899 61.112 27.0339 61.208 26.7939 61.4C26.5619 61.584 26.4459 61.828 26.4459 62.132C26.4459 62.364 26.5179 62.556 26.6619 62.708C26.8139 62.852 27.0459 62.96 27.3579 63.032L28.4739 63.26C29.0179 63.38 29.4219 63.568 29.6859 63.824C29.9579 64.072 30.0939 64.408 30.0939 64.832C30.0939 65.192 29.9939 65.508 29.7939 65.78C29.5939 66.044 29.3139 66.248 28.9539 66.392C28.6019 66.536 28.1859 66.608 27.7059 66.608ZM33.7324 66.608C33.1404 66.608 32.6884 66.44 32.3764 66.104C32.0644 65.76 31.9084 65.244 31.9084 64.556V61.232H30.7324V60.476H31.9084V58.832L32.8804 58.556V60.476H34.6084V61.232H32.8804V64.448C32.8804 64.928 32.9604 65.272 33.1204 65.48C33.2884 65.68 33.5364 65.78 33.8644 65.78C34.0164 65.78 34.1524 65.768 34.2724 65.744C34.3924 65.712 34.5004 65.676 34.5964 65.636V66.452C34.4844 66.5 34.3484 66.536 34.1884 66.56C34.0364 66.592 33.8844 66.608 33.7324 66.608ZM35.7678 66.5V61.928C35.7678 61.688 35.7598 61.444 35.7438 61.196C35.7358 60.948 35.7198 60.708 35.6958 60.476H36.6318L36.7518 61.94L36.5838 61.952C36.6638 61.592 36.8038 61.296 37.0038 61.064C37.2038 60.832 37.4398 60.66 37.7118 60.548C37.9838 60.428 38.2678 60.368 38.5638 60.368C38.6838 60.368 38.7878 60.372 38.8758 60.38C38.9718 60.388 39.0598 60.408 39.1398 60.44L39.1278 61.304C39.0078 61.264 38.8958 61.24 38.7918 61.232C38.6958 61.216 38.5838 61.208 38.4558 61.208C38.1038 61.208 37.7958 61.292 37.5318 61.46C37.2758 61.628 37.0798 61.844 36.9438 62.108C36.8158 62.372 36.7518 62.652 36.7518 62.948V66.5H35.7678ZM42.5528 66.608C41.9768 66.608 41.4728 66.484 41.0408 66.236C40.6168 65.98 40.2888 65.62 40.0568 65.156C39.8248 64.684 39.7088 64.128 39.7088 63.488C39.7088 62.84 39.8248 62.284 40.0568 61.82C40.2888 61.356 40.6168 61 41.0408 60.752C41.4728 60.496 41.9768 60.368 42.5528 60.368C43.1368 60.368 43.6408 60.496 44.0648 60.752C44.4968 61 44.8288 61.356 45.0608 61.82C45.3008 62.284 45.4208 62.84 45.4208 63.488C45.4208 64.128 45.3008 64.684 45.0608 65.156C44.8288 65.62 44.4968 65.98 44.0648 66.236C43.6408 66.484 43.1368 66.608 42.5528 66.608ZM42.5528 65.816C43.1288 65.816 43.5848 65.62 43.9208 65.228C44.2568 64.828 44.4248 64.248 44.4248 63.488C44.4248 62.72 44.2528 62.14 43.9088 61.748C43.5728 61.348 43.1208 61.148 42.5528 61.148C41.9848 61.148 41.5328 61.348 41.1968 61.748C40.8608 62.14 40.6928 62.72 40.6928 63.488C40.6928 64.248 40.8608 64.828 41.1968 65.228C41.5328 65.62 41.9848 65.816 42.5528 65.816ZM46.9363 66.5V57.668H47.9083V66.5H46.9363ZM52.2677 66.608C51.6917 66.608 51.1877 66.484 50.7557 66.236C50.3317 65.98 50.0037 65.62 49.7717 65.156C49.5397 64.684 49.4237 64.128 49.4237 63.488C49.4237 62.84 49.5397 62.284 49.7717 61.82C50.0037 61.356 50.3317 61 50.7557 60.752C51.1877 60.496 51.6917 60.368 52.2677 60.368C52.8517 60.368 53.3557 60.496 53.7797 60.752C54.2117 61 54.5437 61.356 54.7757 61.82C55.0157 62.284 55.1357 62.84 55.1357 63.488C55.1357 64.128 55.0157 64.684 54.7757 65.156C54.5437 65.62 54.2117 65.98 53.7797 66.236C53.3557 66.484 52.8517 66.608 52.2677 66.608ZM52.2677 65.816C52.8437 65.816 53.2997 65.62 53.6357 65.228C53.9717 64.828 54.1397 64.248 54.1397 63.488C54.1397 62.72 53.9677 62.14 53.6237 61.748C53.2877 61.348 52.8357 61.148 52.2677 61.148C51.6997 61.148 51.2477 61.348 50.9117 61.748C50.5757 62.14 50.4077 62.72 50.4077 63.488C50.4077 64.248 50.5757 64.828 50.9117 65.228C51.2477 65.62 51.6997 65.816 52.2677 65.816ZM59.3031 69.176C58.7831 69.176 58.3031 69.112 57.8631 68.984C57.4231 68.856 57.0271 68.66 56.6751 68.396L56.9631 67.664C57.2111 67.84 57.4551 67.98 57.6951 68.084C57.9351 68.188 58.1831 68.264 58.4391 68.312C58.6951 68.368 58.9671 68.396 59.2551 68.396C59.8471 68.396 60.2951 68.24 60.5991 67.928C60.9031 67.616 61.0551 67.172 61.0551 66.596V64.832H61.1751C61.0471 65.304 60.7831 65.68 60.3831 65.96C59.9831 66.232 59.5151 66.368 58.9791 66.368C58.4271 66.368 57.9471 66.248 57.5391 66.008C57.1391 65.76 56.8271 65.412 56.6031 64.964C56.3871 64.508 56.2791 63.972 56.2791 63.356C56.2791 62.748 56.3871 62.22 56.6031 61.772C56.8271 61.324 57.1391 60.98 57.5391 60.74C57.9471 60.492 58.4271 60.368 58.9791 60.368C59.5231 60.368 59.9911 60.504 60.3831 60.776C60.7831 61.048 61.0471 61.424 61.1751 61.904L61.0551 61.784L61.1631 60.476H62.1111C62.0791 60.708 62.0551 60.944 62.0391 61.184C62.0231 61.416 62.0151 61.644 62.0151 61.868V66.464C62.0151 67.36 61.7831 68.036 61.3191 68.492C60.8631 68.948 60.1911 69.176 59.3031 69.176ZM59.1591 65.576C59.7431 65.576 60.2031 65.384 60.5391 65C60.8751 64.608 61.0431 64.06 61.0431 63.356C61.0431 62.652 60.8751 62.108 60.5391 61.724C60.2031 61.34 59.7431 61.148 59.1591 61.148C58.5831 61.148 58.1231 61.34 57.7791 61.724C57.4351 62.108 57.2631 62.652 57.2631 63.356C57.2631 64.06 57.4351 64.608 57.7791 65C58.1231 65.384 58.5831 65.576 59.1591 65.576ZM66.5576 66.608C65.6136 66.608 64.8696 66.336 64.3256 65.792C63.7816 65.24 63.5096 64.476 63.5096 63.5C63.5096 62.868 63.6296 62.32 63.8696 61.856C64.1096 61.384 64.4456 61.02 64.8776 60.764C65.3096 60.5 65.8056 60.368 66.3656 60.368C66.9176 60.368 67.3816 60.484 67.7576 60.716C68.1336 60.948 68.4216 61.28 68.6216 61.712C68.8216 62.136 68.9216 62.64 68.9216 63.224V63.584H64.2536V62.972H68.2856L68.0816 63.128C68.0816 62.488 67.9376 61.988 67.6496 61.628C67.3616 61.268 66.9336 61.088 66.3656 61.088C65.7656 61.088 65.2976 61.3 64.9616 61.724C64.6256 62.14 64.4576 62.704 64.4576 63.416V63.524C64.4576 64.276 64.6416 64.848 65.0096 65.24C65.3856 65.624 65.9096 65.816 66.5816 65.816C66.9416 65.816 67.2776 65.764 67.5896 65.66C67.9096 65.548 68.2136 65.368 68.5016 65.12L68.8376 65.804C68.5736 66.06 68.2376 66.26 67.8296 66.404C67.4296 66.54 67.0056 66.608 66.5576 66.608ZM70.3849 66.5V61.928C70.3849 61.688 70.3769 61.444 70.3609 61.196C70.3529 60.948 70.3369 60.708 70.3129 60.476H71.2489L71.3689 61.94L71.2009 61.952C71.2809 61.592 71.4209 61.296 71.6209 61.064C71.8209 60.832 72.0569 60.66 72.3289 60.548C72.6009 60.428 72.8849 60.368 73.1809 60.368C73.3009 60.368 73.4049 60.372 73.4929 60.38C73.5889 60.388 73.6769 60.408 73.7569 60.44L73.7449 61.304C73.6249 61.264 73.5129 61.24 73.4089 61.232C73.3129 61.216 73.2009 61.208 73.0729 61.208C72.7209 61.208 72.4129 61.292 72.1489 61.46C71.8929 61.628 71.6969 61.844 71.5609 62.108C71.4329 62.372 71.3689 62.652 71.3689 62.948V66.5H70.3849ZM76.7137 66.608C76.2337 66.608 75.7857 66.544 75.3697 66.416C74.9537 66.28 74.6097 66.092 74.3377 65.852L74.6737 65.168C74.9697 65.4 75.2897 65.572 75.6337 65.684C75.9857 65.796 76.3497 65.852 76.7257 65.852C77.2057 65.852 77.5657 65.768 77.8057 65.6C78.0537 65.424 78.1777 65.184 78.1777 64.88C78.1777 64.648 78.0977 64.464 77.9377 64.328C77.7857 64.184 77.5337 64.072 77.1817 63.992L76.0657 63.764C75.5537 63.652 75.1697 63.464 74.9137 63.2C74.6577 62.928 74.5297 62.584 74.5297 62.168C74.5297 61.816 74.6217 61.508 74.8057 61.244C74.9897 60.972 75.2577 60.76 75.6097 60.608C75.9617 60.448 76.3737 60.368 76.8457 60.368C77.2857 60.368 77.6897 60.436 78.0577 60.572C78.4337 60.7 78.7457 60.888 78.9937 61.136L78.6457 61.808C78.4057 61.576 78.1297 61.404 77.8177 61.292C77.5137 61.172 77.1977 61.112 76.8697 61.112C76.3977 61.112 76.0417 61.208 75.8017 61.4C75.5697 61.584 75.4537 61.828 75.4537 62.132C75.4537 62.364 75.5257 62.556 75.6697 62.708C75.8217 62.852 76.0537 62.96 76.3657 63.032L77.4817 63.26C78.0257 63.38 78.4297 63.568 78.6937 63.824C78.9657 64.072 79.1017 64.408 79.1017 64.832C79.1017 65.192 79.0017 65.508 78.8017 65.78C78.6017 66.044 78.3217 66.248 77.9617 66.392C77.6097 66.536 77.1937 66.608 76.7137 66.608ZM80.4123 66.5V65.276H81.6363V66.5H80.4123ZM86.5716 66.5V58.04H91.8516V58.856H87.5676V61.82H91.5876V62.636H87.5676V66.5H86.5716ZM93.2019 66.5V60.476H94.1739V66.5H93.2019ZM93.0819 59.108V58.016H94.2819V59.108H93.0819ZM96.0373 66.5V61.928C96.0373 61.688 96.0293 61.444 96.0133 61.196C96.0053 60.948 95.9893 60.708 95.9653 60.476H96.9013L97.0213 61.94L96.8533 61.952C96.9333 61.592 97.0733 61.296 97.2733 61.064C97.4733 60.832 97.7093 60.66 97.9813 60.548C98.2533 60.428 98.5373 60.368 98.8333 60.368C98.9533 60.368 99.0573 60.372 99.1453 60.38C99.2413 60.388 99.3293 60.408 99.4093 60.44L99.3973 61.304C99.2773 61.264 99.1653 61.24 99.0613 61.232C98.9653 61.216 98.8533 61.208 98.7253 61.208C98.3733 61.208 98.0653 61.292 97.8013 61.46C97.5453 61.628 97.3493 61.844 97.2133 62.108C97.0853 62.372 97.0213 62.652 97.0213 62.948V66.5H96.0373ZM102.366 66.608C101.886 66.608 101.438 66.544 101.022 66.416C100.606 66.28 100.262 66.092 99.9901 65.852L100.326 65.168C100.622 65.4 100.942 65.572 101.286 65.684C101.638 65.796 102.002 65.852 102.378 65.852C102.858 65.852 103.218 65.768 103.458 65.6C103.706 65.424 103.83 65.184 103.83 64.88C103.83 64.648 103.75 64.464 103.59 64.328C103.438 64.184 103.186 64.072 102.834 63.992L101.718 63.764C101.206 63.652 100.822 63.464 100.566 63.2C100.31 62.928 100.182 62.584 100.182 62.168C100.182 61.816 100.274 61.508 100.458 61.244C100.642 60.972 100.91 60.76 101.262 60.608C101.614 60.448 102.026 60.368 102.498 60.368C102.938 60.368 103.342 60.436 103.71 60.572C104.086 60.7 104.398 60.888 104.646 61.136L104.298 61.808C104.058 61.576 103.782 61.404 103.47 61.292C103.166 61.172 102.85 61.112 102.522 61.112C102.05 61.112 101.694 61.208 101.454 61.4C101.222 61.584 101.106 61.828 101.106 62.132C101.106 62.364 101.178 62.556 101.322 62.708C101.474 62.852 101.706 62.96 102.018 63.032L103.134 63.26C103.678 63.38 104.082 63.568 104.346 63.824C104.618 64.072 104.754 64.408 104.754 64.832C104.754 65.192 104.654 65.508 104.454 65.78C104.254 66.044 103.974 66.248 103.614 66.392C103.262 66.536 102.846 66.608 102.366 66.608ZM108.393 66.608C107.801 66.608 107.349 66.44 107.037 66.104C106.725 65.76 106.569 65.244 106.569 64.556V61.232H105.393V60.476H106.569V58.832L107.541 58.556V60.476H109.269V61.232H107.541V64.448C107.541 64.928 107.621 65.272 107.781 65.48C107.949 65.68 108.197 65.78 108.525 65.78C108.677 65.78 108.813 65.768 108.933 65.744C109.053 65.712 109.161 65.676 109.257 65.636V66.452C109.145 66.5 109.009 66.536 108.849 66.56C108.697 66.592 108.545 66.608 108.393 66.608ZM116.113 66.608C115.521 66.608 115.005 66.48 114.565 66.224C114.133 65.968 113.797 65.604 113.557 65.132C113.325 64.66 113.209 64.1 113.209 63.452C113.209 62.796 113.329 62.24 113.569 61.784C113.809 61.32 114.145 60.968 114.577 60.728C115.017 60.488 115.529 60.368 116.113 60.368C116.497 60.368 116.869 60.436 117.229 60.572C117.597 60.708 117.901 60.9 118.141 61.148L117.793 61.844C117.553 61.612 117.289 61.44 117.001 61.328C116.721 61.216 116.445 61.16 116.173 61.16C115.549 61.16 115.065 61.356 114.721 61.748C114.377 62.14 114.205 62.712 114.205 63.464C114.205 64.208 114.377 64.784 114.721 65.192C115.065 65.6 115.549 65.804 116.173 65.804C116.437 65.804 116.709 65.752 116.989 65.648C117.277 65.544 117.545 65.372 117.793 65.132L118.141 65.816C117.893 66.072 117.585 66.268 117.217 66.404C116.849 66.54 116.481 66.608 116.113 66.608ZM119.522 66.5V57.668H120.494V61.808H120.338C120.506 61.336 120.786 60.98 121.178 60.74C121.578 60.492 122.038 60.368 122.558 60.368C123.278 60.368 123.814 60.564 124.166 60.956C124.518 61.34 124.694 61.924 124.694 62.708V66.5H123.722V62.768C123.722 62.208 123.61 61.8 123.386 61.544C123.17 61.288 122.818 61.16 122.33 61.16C121.77 61.16 121.322 61.332 120.986 61.676C120.658 62.02 120.494 62.472 120.494 63.032V66.5H119.522ZM128.845 66.608C128.309 66.608 127.841 66.484 127.441 66.236C127.041 65.98 126.729 65.62 126.505 65.156C126.289 64.692 126.181 64.136 126.181 63.488C126.181 62.832 126.289 62.272 126.505 61.808C126.729 61.344 127.041 60.988 127.441 60.74C127.841 60.492 128.309 60.368 128.845 60.368C129.389 60.368 129.857 60.508 130.249 60.788C130.649 61.06 130.913 61.432 131.041 61.904H130.897L131.029 60.476H131.965C131.941 60.708 131.917 60.944 131.893 61.184C131.877 61.416 131.869 61.644 131.869 61.868V66.5H130.897V65.084H131.029C130.901 65.556 130.637 65.928 130.237 66.2C129.837 66.472 129.373 66.608 128.845 66.608ZM129.037 65.816C129.613 65.816 130.069 65.62 130.405 65.228C130.741 64.828 130.909 64.248 130.909 63.488C130.909 62.72 130.741 62.14 130.405 61.748C130.069 61.348 129.613 61.148 129.037 61.148C128.469 61.148 128.013 61.348 127.669 61.748C127.333 62.14 127.165 62.72 127.165 63.488C127.165 64.248 127.333 64.828 127.669 65.228C128.013 65.62 128.469 65.816 129.037 65.816ZM135.885 66.608C135.293 66.608 134.841 66.44 134.529 66.104C134.217 65.76 134.061 65.244 134.061 64.556V61.232H132.885V60.476H134.061V58.832L135.033 58.556V60.476H136.761V61.232H135.033V64.448C135.033 64.928 135.113 65.272 135.273 65.48C135.441 65.68 135.689 65.78 136.017 65.78C136.169 65.78 136.305 65.768 136.425 65.744C136.545 65.712 136.653 65.676 136.749 65.636V66.452C136.637 66.5 136.501 66.536 136.341 66.56C136.189 66.592 136.037 66.608 135.885 66.608ZM141.181 66.5V58.04H146.461V58.856H142.177V61.82H146.197V62.636H142.177V66.5H141.181ZM147.919 66.5V58.04H151.375C152.263 58.04 152.951 58.252 153.439 58.676C153.927 59.092 154.171 59.676 154.171 60.428C154.171 60.924 154.059 61.348 153.835 61.7C153.619 62.044 153.311 62.308 152.911 62.492C152.519 62.676 152.059 62.768 151.531 62.768L151.747 62.612H151.987C152.315 62.612 152.607 62.692 152.863 62.852C153.127 63.012 153.335 63.28 153.487 63.656L154.687 66.5H153.595L152.443 63.704C152.307 63.344 152.103 63.112 151.831 63.008C151.559 62.896 151.219 62.84 150.811 62.84H148.915V66.5H147.919ZM148.915 62.06H151.231C151.871 62.06 152.355 61.924 152.683 61.652C153.019 61.372 153.187 60.972 153.187 60.452C153.187 59.932 153.019 59.536 152.683 59.264C152.355 58.992 151.871 58.856 151.231 58.856H148.915V62.06ZM156.228 66.5V58.04H161.628V58.856H157.2V61.796H161.364V62.624H157.2V65.672H161.628V66.5H156.228ZM163.283 66.5V58.04H168.683V58.856H164.255V61.796H168.419V62.624H164.255V65.672H168.683V66.5H163.283ZM170.349 64.292L170.049 58.04H171.249L170.949 64.292H170.349ZM170.037 66.5V65.276H171.261V66.5H170.037Z" fill="#FDFDFD"/>
<rect x="16" y="79.5" width="83" height="24" rx="6" fill="#F2EEF7"/>
<path d="M37.016 95.62C36.064 95.62 35.264 95.444 34.616 95.092C33.968 94.74 33.48 94.24 33.152 93.592C32.824 92.944 32.66 92.176 32.66 91.288C32.66 90.392 32.836 89.62 33.188 88.972C33.54 88.316 34.044 87.812 34.7 87.46C35.364 87.1 36.16 86.92 37.088 86.92C37.704 86.92 38.244 87.004 38.708 87.172C39.172 87.332 39.58 87.568 39.932 87.88L39.416 89.08C39.16 88.88 38.916 88.72 38.684 88.6C38.452 88.48 38.212 88.396 37.964 88.348C37.716 88.292 37.428 88.264 37.1 88.264C36.172 88.264 35.468 88.528 34.988 89.056C34.516 89.576 34.28 90.324 34.28 91.3C34.28 92.276 34.504 93.02 34.952 93.532C35.408 94.044 36.12 94.3 37.088 94.3C37.416 94.3 37.744 94.268 38.072 94.204C38.408 94.14 38.736 94.048 39.056 93.928L38.768 94.576V92.044H36.788V90.916H40.052V94.984C39.66 95.184 39.192 95.34 38.648 95.452C38.104 95.564 37.56 95.62 37.016 95.62ZM44.6268 95.62C43.6108 95.62 42.8148 95.34 42.2388 94.78C41.6628 94.22 41.3748 93.452 41.3748 92.476C41.3748 91.844 41.4988 91.292 41.7468 90.82C41.9948 90.348 42.3388 89.98 42.7788 89.716C43.2268 89.452 43.7468 89.32 44.3388 89.32C44.9228 89.32 45.4108 89.444 45.8028 89.692C46.1948 89.94 46.4908 90.288 46.6908 90.736C46.8988 91.184 47.0028 91.708 47.0028 92.308V92.704H42.5868V91.912H45.9348L45.7308 92.08C45.7308 91.52 45.6108 91.092 45.3708 90.796C45.1388 90.5 44.7988 90.352 44.3508 90.352C43.8548 90.352 43.4708 90.528 43.1988 90.88C42.9348 91.232 42.8028 91.724 42.8028 92.356V92.512C42.8028 93.168 42.9628 93.66 43.2828 93.988C43.6108 94.308 44.0708 94.468 44.6628 94.468C45.0068 94.468 45.3268 94.424 45.6228 94.336C45.9268 94.24 46.2148 94.088 46.4868 93.88L46.9308 94.888C46.6428 95.12 46.2988 95.3 45.8988 95.428C45.4988 95.556 45.0748 95.62 44.6268 95.62ZM50.865 95.62C50.145 95.62 49.601 95.432 49.233 95.056C48.865 94.68 48.681 94.116 48.681 93.364V90.568H47.517V89.44H48.681V87.892L50.181 87.508V89.44H51.801V90.568H50.181V93.268C50.181 93.684 50.261 93.976 50.421 94.144C50.581 94.312 50.801 94.396 51.081 94.396C51.233 94.396 51.361 94.384 51.465 94.36C51.577 94.336 51.685 94.304 51.789 94.264V95.452C51.653 95.508 51.501 95.548 51.333 95.572C51.173 95.604 51.017 95.62 50.865 95.62ZM56.2329 95.5V87.04H57.3969L62.3049 93.388H61.9929V87.04H63.4329V95.5H62.2689L57.3729 89.152H57.6729V95.5H56.2329ZM67.9075 95.62C67.2835 95.62 66.7435 95.492 66.2875 95.236C65.8315 94.98 65.4755 94.616 65.2195 94.144C64.9715 93.672 64.8475 93.112 64.8475 92.464C64.8475 91.816 64.9715 91.26 65.2195 90.796C65.4755 90.324 65.8315 89.96 66.2875 89.704C66.7435 89.448 67.2835 89.32 67.9075 89.32C68.5315 89.32 69.0715 89.448 69.5275 89.704C69.9915 89.96 70.3475 90.324 70.5955 90.796C70.8515 91.26 70.9795 91.816 70.9795 92.464C70.9795 93.112 70.8515 93.672 70.5955 94.144C70.3475 94.616 69.9915 94.98 69.5275 95.236C69.0715 95.492 68.5315 95.62 67.9075 95.62ZM67.9075 94.468C68.3795 94.468 68.7555 94.304 69.0355 93.976C69.3155 93.64 69.4555 93.136 69.4555 92.464C69.4555 91.792 69.3155 91.292 69.0355 90.964C68.7555 90.636 68.3795 90.472 67.9075 90.472C67.4355 90.472 67.0595 90.636 66.7795 90.964C66.4995 91.292 66.3595 91.792 66.3595 92.464C66.3595 93.136 66.4995 93.64 66.7795 93.976C67.0595 94.304 67.4355 94.468 67.9075 94.468ZM73.953 95.5L71.589 89.44H73.137L74.841 94.156H74.529L76.257 89.44H77.325L79.041 94.156H78.765L80.457 89.44H81.921L79.557 95.5H78.237L76.425 90.676H77.061L75.285 95.5H73.953Z" fill="#8C64B4"/>
<rect x="180" width="160" height="160" rx="80" stroke="white" stroke-opacity="0.12" stroke-width="80"/>
<path d="M273.39 52.2359C273.39 49.9817 273.39 48.2114 273.261 46.7958C271.845 46.6668 270.075 46.6668 267.821 46.6668H252.002C246.752 46.6668 244.126 46.6668 242.495 48.2979C240.864 49.9291 240.864 52.5544 240.864 57.8051V102.195C240.864 104.449 240.864 106.22 240.993 107.635C242.409 107.764 244.179 107.764 246.433 107.764H262.252C267.502 107.764 270.128 107.764 271.759 106.133C273.39 104.502 273.39 101.877 273.39 96.6259V52.2359Z" fill="#8C64B4"/>
<path d="M273.261 46.7958C273.39 48.2114 273.39 49.9817 273.39 52.2359V96.6259C273.39 101.877 273.39 104.502 271.759 106.133C270.128 107.764 267.502 107.764 262.252 107.764H246.433C244.179 107.764 242.409 107.764 240.993 107.635C241.165 109.517 241.564 110.771 242.495 111.702C244.126 113.333 246.752 113.333 252.002 113.333H267.821C273.071 113.333 275.697 113.333 277.328 111.702C278.959 110.071 278.959 107.446 278.959 102.195V57.8051C278.959 52.5544 278.959 49.9291 277.328 48.2979C276.397 47.367 275.142 46.9674 273.261 46.7958Z" fill="#CCBADE"/>
<path fill-rule="evenodd" clip-rule="evenodd" d="M273.261 46.7958C273.72 46.8377 274.141 46.8931 274.53 46.9664C275.735 47.1939 276.624 47.594 277.328 48.2979C278.959 49.9291 278.959 52.5544 278.959 57.8051V102.195C278.959 107.446 278.959 110.071 277.328 111.702C275.697 113.333 273.071 113.333 267.821 113.333H252.002C246.752 113.333 244.126 113.333 242.495 111.702C241.791 110.998 241.391 110.109 241.164 108.904C241.09 108.515 241.035 108.094 240.993 107.635C240.864 106.22 240.864 104.449 240.864 102.195V57.8051C240.864 52.5544 240.864 49.9291 242.495 48.2979C244.126 46.6668 246.752 46.6668 252.002 46.6668H267.821C270.075 46.6668 271.845 46.6668 273.261 46.7958ZM279.096 46.5301C280.453 47.8877 280.992 49.5673 281.233 51.3611C281.459 53.0451 281.459 55.1553 281.459 57.637V102.363C281.459 104.845 281.459 106.955 281.233 108.639C280.992 110.433 280.453 112.113 279.096 113.47C277.738 114.828 276.059 115.366 274.265 115.607C272.581 115.834 270.471 115.834 267.989 115.833H251.834C249.352 115.834 247.242 115.834 245.558 115.607C243.764 115.366 242.085 114.828 240.727 113.47C239.177 111.919 238.693 109.947 238.503 107.862C238.364 106.333 238.364 104.467 238.364 102.303L238.364 57.8051C238.364 57.7489 238.364 57.6929 238.364 57.637C238.364 55.1553 238.364 53.0451 238.59 51.3611C238.831 49.5673 239.37 47.8877 240.727 46.5302C242.085 45.1727 243.764 44.6341 245.558 44.3929C247.242 44.1665 249.352 44.1666 251.834 44.1668C251.89 44.1668 251.946 44.1668 252.002 44.1668L267.928 44.1668C270.093 44.1667 271.958 44.1667 273.488 44.3062C275.573 44.4963 277.545 44.9794 279.096 46.5301Z" fill="#232323"/>
<path d="M281.19 58.0955H277.857C271.572 58.0955 268.429 58.0955 266.476 60.0481C264.524 62.0007 264.524 65.1434 264.524 71.4288V75.9398C264.524 78.5801 264.524 79.9003 265.377 80.3773C266.231 80.8543 267.355 80.1624 269.604 78.7786L270.714 78.0955H281.19C284.297 78.0955 285.85 78.0955 287.075 77.588C288.709 76.9114 290.006 75.6135 290.683 73.98C291.19 72.7549 291.19 71.2017 291.19 68.0955C291.19 64.9892 291.19 63.436 290.683 62.2109C290.006 60.5774 288.709 59.2796 287.075 58.6029C285.85 58.0955 284.297 58.0955 281.19 58.0955Z" fill="#FFDDB5"/>
<path fill-rule="evenodd" clip-rule="evenodd" d="M277.763 56.8455L281.236 56.8455C282.751 56.8455 283.951 56.8454 284.923 56.9118C285.917 56.9796 286.763 57.1207 287.553 57.4481C289.493 58.2516 291.034 59.7927 291.838 61.7325C292.165 62.5228 292.306 63.3693 292.374 64.3627C292.441 65.335 292.44 66.5353 292.44 68.0498V68.1411C292.44 69.6556 292.441 70.8559 292.374 71.8283C292.306 72.8216 292.165 73.6681 291.838 74.4584C291.034 76.3982 289.493 77.9394 287.553 78.7428C286.763 79.0702 285.917 79.2114 284.923 79.2791C283.951 79.3455 282.751 79.3455 281.236 79.3455H271.068L270.176 79.8946C269.123 80.5425 268.214 81.1019 267.46 81.4249C266.678 81.7593 265.712 81.9959 264.768 81.4685C263.824 80.9411 263.519 79.9937 263.394 79.1531C263.274 78.3412 263.274 77.274 263.274 76.0379L263.274 71.3348C263.274 68.2718 263.274 65.8458 263.529 63.9471C263.792 61.9931 264.345 60.4115 265.593 59.1642C266.84 57.9169 268.421 57.3634 270.375 57.1007C272.274 56.8454 274.7 56.8454 277.763 56.8455ZM270.709 59.5784C269.032 59.8038 268.066 60.2266 267.36 60.932C266.655 61.6373 266.232 62.6034 266.007 64.2802C265.776 65.993 265.774 68.2508 265.774 71.4288V75.9398C265.774 77.3023 265.777 78.1804 265.867 78.7865C265.911 79.0804 265.962 79.2183 265.993 79.2766C266.058 79.272 266.203 79.2436 266.476 79.1266C267.039 78.8855 267.789 78.4282 268.949 77.7141L270.36 76.8455H281.19C282.761 76.8455 283.876 76.8448 284.753 76.7849C285.619 76.7258 286.162 76.6133 286.597 76.4331C287.924 75.8834 288.978 74.8289 289.528 73.5017C289.708 73.0668 289.821 72.5241 289.88 71.6581C289.94 70.7808 289.94 69.6657 289.94 68.0955C289.94 66.5252 289.94 65.4101 289.88 64.5328C289.821 63.6668 289.708 63.1241 289.528 62.6893C288.978 61.362 287.924 60.3075 286.597 59.7578C286.162 59.5776 285.619 59.4651 284.753 59.406C283.876 59.3461 282.761 59.3455 281.19 59.3455H277.857C274.679 59.3455 272.421 59.3481 270.709 59.5784ZM265.947 79.2735C265.947 79.2735 265.956 79.2727 265.968 79.2772C265.953 79.2768 265.947 79.2735 265.947 79.2735ZM266.005 79.2977C266.015 79.3059 266.019 79.3137 266.019 79.3137C266.019 79.3137 266.013 79.3108 266.005 79.2977Z" fill="#232323"/>
<path d="M238.333 80H241.667C247.952 80 251.095 80 253.047 81.9526C255 83.9052 255 87.0479 255 93.3333V97.8443C255 100.485 255 101.805 254.146 102.282C253.293 102.759 252.168 102.067 249.92 100.683L248.81 100H238.333C235.227 100 233.674 100 232.449 99.4925C230.815 98.8159 229.517 97.5181 228.841 95.8846C228.333 94.6594 228.333 93.1063 228.333 90C228.333 86.8937 228.333 85.3406 228.841 84.1154C229.517 82.4819 230.815 81.1841 232.449 80.5075C233.674 80 235.227 80 238.333 80Z" fill="#FFDDB5"/>
<path fill-rule="evenodd" clip-rule="evenodd" d="M241.761 78.75L238.288 78.75C236.773 78.75 235.573 78.75 234.601 78.8163C233.607 78.8841 232.761 79.0253 231.97 79.3526C230.031 80.1561 228.489 81.6973 227.686 83.6371C227.359 84.4274 227.217 85.2739 227.15 86.2672C227.083 87.2396 227.083 88.4399 227.083 89.9544V90.0456C227.083 91.5601 227.083 92.7604 227.15 93.7328C227.217 94.7262 227.359 95.5726 227.686 96.3629C228.489 98.3027 230.031 99.8439 231.97 100.647C232.761 100.975 233.607 101.116 234.601 101.184C235.573 101.25 236.773 101.25 238.288 101.25H248.456L249.348 101.799C250.401 102.447 251.31 103.006 252.064 103.329C252.846 103.664 253.812 103.9 254.756 103.373C255.7 102.846 256.005 101.898 256.13 101.058C256.25 100.246 256.25 99.1786 256.25 97.9424L256.25 93.2393C256.25 90.1764 256.25 87.7503 255.995 85.8516C255.732 83.8976 255.179 82.316 253.931 81.0687C252.684 79.8215 251.102 79.2679 249.148 79.0052C247.25 78.75 244.824 78.75 241.761 78.75ZM248.815 81.4829C250.492 81.7084 251.458 82.1312 252.164 82.8365C252.869 83.5419 253.292 84.5079 253.517 86.1847C253.747 87.8975 253.75 90.1553 253.75 93.3333V97.8443C253.75 99.2068 253.747 100.085 253.657 100.691C253.613 100.985 253.562 101.123 253.531 101.181C253.466 101.177 253.321 101.148 253.048 101.031C252.485 100.79 251.735 100.333 250.575 99.6186L249.163 98.75H238.333C236.763 98.75 235.648 98.7493 234.771 98.6895C233.905 98.6304 233.362 98.5178 232.927 98.3377C231.6 97.7879 230.545 96.7334 229.996 95.4062C229.816 94.9713 229.703 94.4287 229.644 93.5626C229.584 92.6853 229.583 91.5702 229.583 90C229.583 88.4298 229.584 87.3147 229.644 86.4374C229.703 85.5713 229.816 85.0287 229.996 84.5938C230.545 83.2666 231.6 82.2121 232.927 81.6623C233.362 81.4822 233.905 81.3696 234.771 81.3105C235.648 81.2507 236.763 81.25 238.333 81.25H241.667C244.845 81.25 247.103 81.2527 248.815 81.4829ZM253.577 101.178C253.577 101.178 253.568 101.177 253.556 101.182C253.571 101.181 253.577 101.178 253.577 101.178ZM253.519 101.202C253.509 101.21 253.505 101.218 253.505 101.218C253.505 101.218 253.511 101.215 253.519 101.202Z" fill="#232323"/>
</g>
<defs>
<clipPath id="clip0_7379_1280">
<rect width="300" height="120" rx="12" fill="white"/>
</clipPath>
</defs>
</svg>
