<svg width="300" height="120" viewBox="0 0 300 120" fill="none" xmlns="http://www.w3.org/2000/svg">
<g clip-path="url(#clip0_7379_13636)">
<rect width="300" height="120" rx="12" fill="#F6B884"/>
<path d="M21.12 25.62C20.8333 25.62 20.5867 25.5333 20.38 25.36C20.1733 25.1867 20.07 24.9367 20.07 24.61C20.07 24.2833 20.21 23.5467 20.49 22.4C20.29 22.3533 20.05 22.33 19.77 22.33C19.49 22.33 19.1933 22.37 18.88 22.45C18.5667 23.8033 18.4033 24.7433 18.39 25.27C18.0967 25.4433 17.5 25.53 16.6 25.53H16.41C16.41 25.15 16.6 24.19 16.98 22.65C17.36 21.11 17.55 20.1033 17.55 19.63C17.55 19.5167 17.5133 19.3933 17.44 19.26C17.3733 19.12 17.3033 19.01 17.23 18.93L17.12 18.81L17.14 18.61C17.5867 18.47 18.3333 18.4 19.38 18.4C19.4867 18.5467 19.54 18.7733 19.54 19.08C19.54 19.3867 19.39 20.2033 19.09 21.53H20.69C20.9367 20.4833 21.06 19.6533 21.06 19.04C21.06 18.92 21.0567 18.8233 21.05 18.75C21.7033 18.5167 22.3333 18.4 22.94 18.4C22.9867 18.4467 23.01 18.6167 23.01 18.91C23.01 19.1967 22.8433 20.0633 22.51 21.51C22.1833 22.9567 22.02 23.8867 22.02 24.3C22.02 24.44 22.0633 24.51 22.15 24.51C22.3167 24.51 22.4967 24.4667 22.69 24.38L22.91 24.94C22.67 25.1467 22.3833 25.3133 22.05 25.44C21.7233 25.56 21.4133 25.62 21.12 25.62ZM29.2791 19.29C29.4725 19.5567 29.6158 19.84 29.7091 20.14C29.8025 20.44 29.8491 20.7967 29.8491 21.21C29.8491 21.6233 29.7758 22.0833 29.6291 22.59C29.4891 23.0967 29.2758 23.5833 28.9891 24.05C28.7091 24.51 28.3191 24.8867 27.8191 25.18C27.3191 25.4733 26.7491 25.62 26.1091 25.62C25.3291 25.62 24.7158 25.3567 24.2691 24.83C23.8225 24.3033 23.5991 23.64 23.5991 22.84C23.5991 22.04 23.7491 21.31 24.0491 20.65C24.3558 19.9833 24.7891 19.4433 25.3491 19.03C25.9158 18.61 26.5458 18.4 27.2391 18.4C27.7058 18.4 28.1125 18.48 28.4591 18.64C28.8125 18.8 29.0858 19.0167 29.2791 19.29ZM25.9291 24.72C26.0491 24.8133 26.2225 24.86 26.4491 24.86C26.6825 24.86 26.8991 24.7267 27.0991 24.46C27.3058 24.1867 27.4658 23.8367 27.5791 23.41C27.7925 22.57 27.8991 21.7 27.8991 20.8C27.8991 19.7067 27.6325 19.16 27.0991 19.16C26.8458 19.16 26.6158 19.28 26.4091 19.52C26.2091 19.7533 26.0491 20.06 25.9291 20.44C25.6825 21.2133 25.5591 22.0433 25.5591 22.93C25.5591 23.9233 25.6825 24.52 25.9291 24.72ZM32.2372 25.31C31.8439 25.4833 31.3639 25.57 30.7972 25.57C30.6039 25.57 30.4305 25.5533 30.2772 25.52C30.2772 25.08 30.4639 24.09 30.8372 22.55C31.2172 21.0033 31.4072 20.03 31.4072 19.63C31.4072 19.47 31.2872 19.2567 31.0472 18.99L30.9372 18.86L30.9672 18.64C31.8739 18.48 32.8805 18.4 33.9872 18.4C34.6539 18.4 35.1805 18.53 35.5672 18.79C35.9539 19.0433 36.1472 19.4167 36.1472 19.91C36.1472 20.3967 36.0139 20.8433 35.7472 21.25C35.4805 21.65 35.1005 21.9633 34.6072 22.19C34.8272 22.9367 35.0372 23.52 35.2372 23.94C35.4372 24.36 35.6005 24.57 35.7272 24.57C35.8339 24.57 36.0005 24.53 36.2272 24.45L36.3472 24.41L36.5872 24.95C36.0005 25.3967 35.3805 25.62 34.7272 25.62C34.0805 25.62 33.6572 25.2933 33.4572 24.64C33.2839 24.0667 33.1439 23.3567 33.0372 22.51H32.6872C32.3872 23.91 32.2372 24.8433 32.2372 25.31ZM33.0972 21.64C33.3105 21.64 33.4939 21.5733 33.6472 21.44C33.8072 21.3067 33.9272 21.1333 34.0072 20.92C34.1539 20.5 34.2272 20.0933 34.2272 19.7C34.2272 19.3067 34.0505 19.11 33.6972 19.11C33.5905 19.11 33.4839 19.12 33.3772 19.14C33.3705 19.3467 33.2072 20.1733 32.8872 21.62C32.9339 21.6333 33.0039 21.64 33.0972 21.64ZM42.5409 19.29C42.7342 19.5567 42.8775 19.84 42.9709 20.14C43.0642 20.44 43.1109 20.7967 43.1109 21.21C43.1109 21.6233 43.0375 22.0833 42.8909 22.59C42.7509 23.0967 42.5375 23.5833 42.2509 24.05C41.9709 24.51 41.5809 24.8867 41.0809 25.18C40.5809 25.4733 40.0109 25.62 39.3709 25.62C38.5909 25.62 37.9775 25.3567 37.5309 24.83C37.0842 24.3033 36.8609 23.64 36.8609 22.84C36.8609 22.04 37.0109 21.31 37.3109 20.65C37.6175 19.9833 38.0509 19.4433 38.6109 19.03C39.1775 18.61 39.8075 18.4 40.5009 18.4C40.9675 18.4 41.3742 18.48 41.7209 18.64C42.0742 18.8 42.3475 19.0167 42.5409 19.29ZM39.1909 24.72C39.3109 24.8133 39.4842 24.86 39.7109 24.86C39.9442 24.86 40.1609 24.7267 40.3609 24.46C40.5675 24.1867 40.7275 23.8367 40.8409 23.41C41.0542 22.57 41.1609 21.7 41.1609 20.8C41.1609 19.7067 40.8942 19.16 40.3609 19.16C40.1075 19.16 39.8775 19.28 39.6709 19.52C39.4709 19.7533 39.3109 20.06 39.1909 20.44C38.9442 21.2133 38.8209 22.0433 38.8209 22.93C38.8209 23.9233 38.9442 24.52 39.1909 24.72ZM47.8589 23.67C47.8589 24.2233 47.5922 24.6867 47.0589 25.06C46.5322 25.4333 45.9189 25.62 45.2189 25.62C44.6722 25.62 44.2089 25.5033 43.8289 25.27C43.4556 25.0367 43.2689 24.8133 43.2689 24.6C43.3756 24.34 43.5789 24.06 43.8789 23.76C44.1789 23.46 44.4556 23.3033 44.7089 23.29C44.8756 23.3633 45.0289 23.5467 45.1689 23.84C45.3156 24.1267 45.4322 24.46 45.5189 24.84C45.8789 24.8267 46.0589 24.6233 46.0589 24.23C46.0589 23.97 45.9589 23.6533 45.7589 23.28C45.5656 22.9 45.3522 22.5467 45.1189 22.22C44.8856 21.8933 44.6689 21.53 44.4689 21.13C44.2756 20.73 44.1789 20.38 44.1789 20.08C44.1789 19.5867 44.4056 19.1833 44.8589 18.87C45.3122 18.5567 45.8156 18.4 46.3689 18.4C46.9289 18.4 47.3622 18.52 47.6689 18.76C47.9822 19 48.1389 19.2767 48.1389 19.59C48.1389 19.85 48.0856 20.06 47.9789 20.22C47.8722 20.3733 47.7856 20.4933 47.7189 20.58C47.6589 20.66 47.5756 20.7467 47.4689 20.84C47.2689 21.0133 47.1156 21.14 47.0089 21.22L46.8589 21.33C47.2522 21.8167 47.5489 22.3833 47.7489 23.03C47.8222 23.2633 47.8589 23.4767 47.8589 23.67ZM47.3389 19.66C47.3389 19.3467 47.1389 19.19 46.7389 19.19C46.5056 19.19 46.3156 19.24 46.1689 19.34C46.0289 19.44 45.9589 19.5667 45.9589 19.72C45.9589 19.8667 46.0189 20.0467 46.1389 20.26C46.2656 20.4733 46.3656 20.6233 46.4389 20.71C46.5989 20.63 46.7889 20.4833 47.0089 20.27C47.2289 20.0567 47.3389 19.8533 47.3389 19.66ZM51.107 25.62C50.387 25.62 49.8037 25.36 49.357 24.84C48.9104 24.32 48.687 23.59 48.687 22.65C48.687 21.8967 48.8304 21.2 49.117 20.56C49.4104 19.9133 49.8304 19.3933 50.377 19C50.9304 18.6 51.5237 18.4 52.157 18.4C52.797 18.4 53.3237 18.5267 53.737 18.78C54.157 19.0333 54.367 19.3667 54.367 19.78C54.367 20.1867 54.2537 20.51 54.027 20.75C53.7604 20.75 53.4537 20.6967 53.107 20.59C52.7604 20.4833 52.5004 20.3533 52.327 20.2L52.517 19.23C52.377 19.1633 52.2404 19.13 52.107 19.13C51.7204 19.13 51.3804 19.4667 51.087 20.14C50.7937 20.8067 50.647 21.59 50.647 22.49C50.647 23.8367 51.027 24.51 51.787 24.51C52.2404 24.51 52.747 24.2633 53.307 23.77L53.777 24.24C53.7237 24.3267 53.587 24.47 53.367 24.67C53.147 24.8633 52.937 25.02 52.737 25.14C52.5437 25.26 52.297 25.37 51.997 25.47C51.7037 25.57 51.407 25.62 51.107 25.62ZM60.1483 19.29C60.3416 19.5567 60.4849 19.84 60.5783 20.14C60.6716 20.44 60.7183 20.7967 60.7183 21.21C60.7183 21.6233 60.6449 22.0833 60.4983 22.59C60.3583 23.0967 60.1449 23.5833 59.8583 24.05C59.5783 24.51 59.1883 24.8867 58.6883 25.18C58.1883 25.4733 57.6183 25.62 56.9783 25.62C56.1983 25.62 55.5849 25.3567 55.1383 24.83C54.6916 24.3033 54.4683 23.64 54.4683 22.84C54.4683 22.04 54.6183 21.31 54.9183 20.65C55.2249 19.9833 55.6583 19.4433 56.2183 19.03C56.7849 18.61 57.4149 18.4 58.1083 18.4C58.5749 18.4 58.9816 18.48 59.3283 18.64C59.6816 18.8 59.9549 19.0167 60.1483 19.29ZM56.7983 24.72C56.9183 24.8133 57.0916 24.86 57.3183 24.86C57.5516 24.86 57.7683 24.7267 57.9683 24.46C58.1749 24.1867 58.3349 23.8367 58.4483 23.41C58.6616 22.57 58.7683 21.7 58.7683 20.8C58.7683 19.7067 58.5016 19.16 57.9683 19.16C57.7149 19.16 57.4849 19.28 57.2783 19.52C57.0783 19.7533 56.9183 20.06 56.7983 20.44C56.5516 21.2133 56.4283 22.0433 56.4283 22.93C56.4283 23.9233 56.5516 24.52 56.7983 24.72ZM63.9063 22.87C63.7197 22.87 63.583 22.8667 63.4963 22.86C63.2297 24.0733 63.0963 24.8867 63.0963 25.3C62.723 25.4733 62.233 25.56 61.6263 25.56C61.4597 25.56 61.2997 25.55 61.1463 25.53C61.1463 25.11 61.3297 24.1367 61.6963 22.61C62.063 21.0767 62.2463 20.1267 62.2463 19.76C62.2463 19.6467 62.2063 19.5167 62.1263 19.37C62.053 19.2233 61.9763 19.1067 61.8963 19.02L61.7863 18.88L61.8263 18.64C62.0797 18.5933 62.5063 18.5433 63.1063 18.49C63.713 18.43 64.2697 18.4 64.7763 18.4C65.523 18.4 66.0763 18.5533 66.4363 18.86C66.7963 19.1667 66.9763 19.58 66.9763 20.1C66.9763 20.9067 66.7163 21.57 66.1963 22.09C65.683 22.61 64.9197 22.87 63.9063 22.87ZM63.8863 22.01C64.2597 22.01 64.5463 21.7967 64.7463 21.37C64.953 20.9433 65.0563 20.43 65.0563 19.83C65.0563 19.3433 64.8963 19.1 64.5763 19.1L64.2563 19.14C64.2563 19.4 64.0697 20.3567 63.6963 22.01H63.8863ZM69.2664 25.63C68.4264 25.63 67.7797 25.36 67.3264 24.82C67.0797 24.5267 66.9564 24.17 66.9564 23.75C66.9564 23.1833 67.1564 22.72 67.5564 22.36C67.9564 21.9933 68.4297 21.78 68.9764 21.72C68.1364 21.4933 67.7164 21.01 67.7164 20.27C67.7164 19.6967 67.9631 19.2433 68.4564 18.91C68.9497 18.57 69.5097 18.4 70.1364 18.4C70.7697 18.4 71.2964 18.53 71.7164 18.79C72.1364 19.05 72.3464 19.3933 72.3464 19.82C72.3464 20.0667 72.2797 20.3 72.1464 20.52L72.0764 20.63C71.8031 20.63 71.5097 20.59 71.1964 20.51C70.8831 20.4233 70.6464 20.3133 70.4864 20.18L70.5864 19.16C70.4864 19.1133 70.3864 19.09 70.2864 19.09C70.0797 19.09 69.9197 19.2 69.8064 19.42C69.6997 19.64 69.6464 19.8967 69.6464 20.19C69.6464 20.4833 69.6764 20.7167 69.7364 20.89C69.8031 21.0633 69.9031 21.1967 70.0364 21.29C70.1764 21.3767 70.2964 21.44 70.3964 21.48C70.5031 21.5133 70.6497 21.55 70.8364 21.59L70.7564 22.17C70.2964 22.17 69.8731 22.3 69.4864 22.56C69.0997 22.82 68.9064 23.17 68.9064 23.61C68.9064 23.9233 69.0064 24.1533 69.2064 24.3C69.4064 24.44 69.6431 24.51 69.9164 24.51C70.1964 24.51 70.4897 24.44 70.7964 24.3C71.1031 24.16 71.3664 23.9833 71.5864 23.77L72.0364 24.22C71.7497 24.6133 71.3531 24.9467 70.8464 25.22C70.3397 25.4933 69.8131 25.63 69.2664 25.63Z" fill="#191919"/>
<path opacity="0.9" d="M21.6 47.626C20.592 47.626 19.7333 47.4207 19.024 47.01C18.3147 46.5993 17.7687 46.016 17.386 45.26C17.0127 44.4947 16.826 43.594 16.826 42.558C16.826 41.522 17.0127 40.626 17.386 39.87C17.7687 39.114 18.3147 38.5307 19.024 38.12C19.7333 37.7093 20.592 37.504 21.6 37.504C22.3 37.504 22.9253 37.6067 23.476 37.812C24.0267 38.0173 24.5073 38.316 24.918 38.708L24.414 39.87C23.966 39.4873 23.5273 39.212 23.098 39.044C22.678 38.876 22.188 38.792 21.628 38.792C20.564 38.792 19.752 39.1187 19.192 39.772C18.632 40.4253 18.352 41.354 18.352 42.558C18.352 43.762 18.632 44.6953 19.192 45.358C19.752 46.0113 20.564 46.338 21.628 46.338C22.188 46.338 22.678 46.254 23.098 46.086C23.5273 45.918 23.966 45.638 24.414 45.246L24.918 46.408C24.5073 46.8 24.0267 47.1033 23.476 47.318C22.9253 47.5233 22.3 47.626 21.6 47.626ZM26.62 47.5V37.196H28.034V41.942H27.838C28.0433 41.41 28.3747 41.0087 28.832 40.738C29.2893 40.458 29.8167 40.318 30.414 40.318C31.254 40.318 31.8793 40.5513 32.29 41.018C32.7007 41.4753 32.906 42.1707 32.906 43.104V47.5H31.492V43.188C31.492 42.5813 31.3707 42.1427 31.128 41.872C30.8947 41.592 30.5213 41.452 30.008 41.452C29.4107 41.452 28.93 41.6387 28.566 42.012C28.2113 42.376 28.034 42.8613 28.034 43.468V47.5H26.62ZM38.1808 47.626C37.0421 47.626 36.1461 47.304 35.4928 46.66C34.8395 46.016 34.5128 45.1247 34.5128 43.986C34.5128 43.2487 34.6528 42.6047 34.9328 42.054C35.2221 41.5033 35.6188 41.0787 36.1228 40.78C36.6361 40.472 37.2288 40.318 37.9008 40.318C38.5635 40.318 39.1188 40.458 39.5668 40.738C40.0148 41.018 40.3555 41.4147 40.5888 41.928C40.8221 42.432 40.9388 43.0293 40.9388 43.72V44.168H35.6188V43.356H39.9728L39.7348 43.538C39.7348 42.838 39.5761 42.2967 39.2588 41.914C38.9508 41.522 38.5028 41.326 37.9148 41.326C37.2615 41.326 36.7575 41.5547 36.4028 42.012C36.0481 42.46 35.8708 43.0807 35.8708 43.874V44.014C35.8708 44.8447 36.0715 45.47 36.4728 45.89C36.8835 46.31 37.4621 46.52 38.2088 46.52C38.6195 46.52 39.0021 46.464 39.3568 46.352C39.7208 46.2307 40.0661 46.0347 40.3928 45.764L40.8548 46.73C40.5281 47.0193 40.1315 47.2433 39.6648 47.402C39.1981 47.5513 38.7035 47.626 38.1808 47.626ZM45.6554 47.626C44.9461 47.626 44.3254 47.4813 43.7934 47.192C43.2707 46.8933 42.8647 46.4687 42.5754 45.918C42.2954 45.358 42.1554 44.6953 42.1554 43.93C42.1554 43.174 42.3001 42.5253 42.5894 41.984C42.8787 41.4427 43.2847 41.032 43.8074 40.752C44.3301 40.4627 44.9461 40.318 45.6554 40.318C46.1127 40.318 46.5561 40.3973 46.9854 40.556C47.4147 40.7053 47.7694 40.92 48.0494 41.2L47.5874 42.194C47.3261 41.942 47.0321 41.7553 46.7054 41.634C46.3787 41.5033 46.0614 41.438 45.7534 41.438C45.0814 41.438 44.5541 41.6527 44.1714 42.082C43.7887 42.5113 43.5974 43.132 43.5974 43.944C43.5974 44.7653 43.7887 45.3953 44.1714 45.834C44.5541 46.2727 45.0814 46.492 45.7534 46.492C46.0521 46.492 46.3647 46.436 46.6914 46.324C47.0181 46.2027 47.3167 46.0113 47.5874 45.75L48.0494 46.744C47.7601 47.024 47.3961 47.2433 46.9574 47.402C46.5281 47.5513 46.0941 47.626 45.6554 47.626ZM49.5477 47.5V37.196H50.9617V43.524H50.9897L54.0697 40.444H55.8197L52.0957 44.154L52.1097 43.524L56.1277 47.5H54.3357L50.9897 44.266H50.9617V47.5H49.5477ZM60.5213 50.678L60.1853 49.53C60.624 49.4367 60.988 49.3247 61.2773 49.194C61.576 49.0633 61.8233 48.8907 62.0193 48.676C62.2153 48.4707 62.3833 48.2047 62.5233 47.878L62.8733 47.052L62.8453 47.626L59.7793 40.444H61.2913L63.6713 46.324H63.2933L65.6733 40.444H67.1293L63.8953 48.004C63.69 48.4707 63.4706 48.8627 63.2373 49.18C63.004 49.4973 62.752 49.754 62.4813 49.95C62.2106 50.146 61.912 50.3 61.5853 50.412C61.2586 50.524 60.904 50.6127 60.5213 50.678ZM71.1381 47.626C70.4381 47.626 69.8315 47.4813 69.3181 47.192C68.8048 46.8933 68.4081 46.4733 68.1281 45.932C67.8481 45.3813 67.7081 44.728 67.7081 43.972C67.7081 43.216 67.8481 42.5673 68.1281 42.026C68.4081 41.4753 68.8048 41.0553 69.3181 40.766C69.8315 40.4673 70.4381 40.318 71.1381 40.318C71.8381 40.318 72.4448 40.4673 72.9581 40.766C73.4808 41.0553 73.8821 41.4753 74.1621 42.026C74.4515 42.5673 74.5961 43.216 74.5961 43.972C74.5961 44.728 74.4515 45.3813 74.1621 45.932C73.8821 46.4733 73.4808 46.8933 72.9581 47.192C72.4448 47.4813 71.8381 47.626 71.1381 47.626ZM71.1381 46.52C71.7541 46.52 72.2441 46.3053 72.6081 45.876C72.9721 45.4467 73.1541 44.812 73.1541 43.972C73.1541 43.132 72.9721 42.502 72.6081 42.082C72.2441 41.6527 71.7541 41.438 71.1381 41.438C70.5315 41.438 70.0461 41.6527 69.6821 42.082C69.3181 42.502 69.1361 43.132 69.1361 43.972C69.1361 44.812 69.3135 45.4467 69.6681 45.876C70.0321 46.3053 70.5221 46.52 71.1381 46.52ZM78.7549 47.626C77.9056 47.626 77.2662 47.3973 76.8369 46.94C76.4169 46.4733 76.2069 45.7593 76.2069 44.798V40.444H77.6209V44.77C77.6209 45.358 77.7422 45.792 77.9849 46.072C78.2276 46.352 78.5962 46.492 79.0909 46.492C79.6509 46.492 80.1036 46.3053 80.4489 45.932C80.7942 45.5587 80.9669 45.064 80.9669 44.448V40.444H82.3809V47.5H81.0089V45.988H81.1909C80.9949 46.5107 80.6822 46.9167 80.2529 47.206C79.8236 47.486 79.3242 47.626 78.7549 47.626ZM84.424 47.5V42.194C84.424 41.9047 84.4147 41.6153 84.396 41.326C84.3867 41.0273 84.368 40.7333 84.34 40.444H85.712L85.866 42.264H85.642C85.7353 41.8253 85.894 41.4613 86.118 41.172C86.342 40.8827 86.6127 40.668 86.93 40.528C87.2567 40.388 87.5973 40.318 87.952 40.318C88.1013 40.318 88.2273 40.3273 88.33 40.346C88.4327 40.3553 88.5353 40.374 88.638 40.402L88.624 41.662C88.4653 41.5967 88.3253 41.5593 88.204 41.55C88.092 41.5313 87.952 41.522 87.784 41.522C87.3733 41.522 87.0233 41.6153 86.734 41.802C86.4447 41.9793 86.2253 42.222 86.076 42.53C85.9267 42.838 85.852 43.1693 85.852 43.524V47.5H84.424ZM96.1638 47.626C95.5478 47.626 95.0018 47.4813 94.5258 47.192C94.0591 46.9027 93.6951 46.4827 93.4338 45.932C93.1818 45.3813 93.0558 44.728 93.0558 43.972C93.0558 43.2067 93.1818 42.5533 93.4338 42.012C93.6951 41.4707 94.0591 41.0553 94.5258 40.766C95.0018 40.4673 95.5478 40.318 96.1638 40.318C96.7704 40.318 97.3024 40.472 97.7598 40.78C98.2264 41.0787 98.5344 41.4893 98.6838 42.012H98.5158V37.196H99.9298V47.5H98.5298V45.904H98.6978C98.5391 46.436 98.2311 46.856 97.7738 47.164C97.3164 47.472 96.7798 47.626 96.1638 47.626ZM96.5138 46.52C97.1204 46.52 97.6104 46.3053 97.9838 45.876C98.3571 45.4467 98.5438 44.812 98.5438 43.972C98.5438 43.132 98.3571 42.502 97.9838 42.082C97.6104 41.6527 97.1204 41.438 96.5138 41.438C95.8978 41.438 95.4031 41.6527 95.0298 42.082C94.6658 42.502 94.4838 43.132 94.4838 43.972C94.4838 44.812 94.6658 45.4467 95.0298 45.876C95.4031 46.3053 95.8978 46.52 96.5138 46.52ZM104.695 47.626C104.07 47.626 103.524 47.4813 103.057 47.192C102.59 46.9027 102.226 46.4827 101.965 45.932C101.713 45.3813 101.587 44.728 101.587 43.972C101.587 43.2067 101.713 42.5533 101.965 42.012C102.226 41.4707 102.59 41.0553 103.057 40.766C103.524 40.4673 104.07 40.318 104.695 40.318C105.311 40.318 105.848 40.472 106.305 40.78C106.762 41.088 107.066 41.508 107.215 42.04H107.061L107.201 40.444H108.573C108.545 40.7333 108.517 41.0227 108.489 41.312C108.47 41.592 108.461 41.8673 108.461 42.138V47.5H107.047V45.932H107.201C107.052 46.4547 106.744 46.87 106.277 47.178C105.82 47.4767 105.292 47.626 104.695 47.626ZM105.045 46.52C105.652 46.52 106.137 46.3053 106.501 45.876C106.874 45.4467 107.061 44.812 107.061 43.972C107.061 43.132 106.874 42.502 106.501 42.082C106.137 41.6527 105.652 41.438 105.045 41.438C104.429 41.438 103.934 41.6527 103.561 42.082C103.197 42.502 103.015 43.132 103.015 43.972C103.015 44.812 103.197 45.4467 103.561 45.876C103.925 46.3053 104.42 46.52 105.045 46.52ZM110.524 47.5V40.444H111.938V47.5H110.524ZM110.412 38.974V37.504H112.05V38.974H110.412ZM114.011 47.5V37.196H115.425V47.5H114.011ZM117.287 50.678L116.951 49.53C117.39 49.4367 117.754 49.3247 118.043 49.194C118.342 49.0633 118.589 48.8907 118.785 48.676C118.981 48.4707 119.149 48.2047 119.289 47.878L119.639 47.052L119.611 47.626L116.545 40.444H118.057L120.437 46.324H120.059L122.439 40.444H123.895L120.661 48.004C120.456 48.4707 120.236 48.8627 120.003 49.18C119.77 49.4973 119.518 49.754 119.247 49.95C118.976 50.146 118.678 50.3 118.351 50.412C118.024 50.524 117.67 50.6127 117.287 50.678ZM128.861 47.5V37.63H130.317V41.886H135.861V37.63H137.317V47.5H135.861V43.104H130.317V47.5H128.861ZM142.533 47.626C141.833 47.626 141.226 47.4813 140.713 47.192C140.199 46.8933 139.803 46.4733 139.523 45.932C139.243 45.3813 139.103 44.728 139.103 43.972C139.103 43.216 139.243 42.5673 139.523 42.026C139.803 41.4753 140.199 41.0553 140.713 40.766C141.226 40.4673 141.833 40.318 142.533 40.318C143.233 40.318 143.839 40.4673 144.353 40.766C144.875 41.0553 145.277 41.4753 145.557 42.026C145.846 42.5673 145.991 43.216 145.991 43.972C145.991 44.728 145.846 45.3813 145.557 45.932C145.277 46.4733 144.875 46.8933 144.353 47.192C143.839 47.4813 143.233 47.626 142.533 47.626ZM142.533 46.52C143.149 46.52 143.639 46.3053 144.003 45.876C144.367 45.4467 144.549 44.812 144.549 43.972C144.549 43.132 144.367 42.502 144.003 42.082C143.639 41.6527 143.149 41.438 142.533 41.438C141.926 41.438 141.441 41.6527 141.077 42.082C140.713 42.502 140.531 43.132 140.531 43.972C140.531 44.812 140.708 45.4467 141.063 45.876C141.427 46.3053 141.917 46.52 142.533 46.52ZM147.615 47.5V42.194C147.615 41.9047 147.606 41.6153 147.587 41.326C147.578 41.0273 147.559 40.7333 147.531 40.444H148.903L149.057 42.264H148.833C148.927 41.8253 149.085 41.4613 149.309 41.172C149.533 40.8827 149.804 40.668 150.121 40.528C150.448 40.388 150.789 40.318 151.143 40.318C151.293 40.318 151.419 40.3273 151.521 40.346C151.624 40.3553 151.727 40.374 151.829 40.402L151.815 41.662C151.657 41.5967 151.517 41.5593 151.395 41.55C151.283 41.5313 151.143 41.522 150.975 41.522C150.565 41.522 150.215 41.6153 149.925 41.802C149.636 41.9793 149.417 42.222 149.267 42.53C149.118 42.838 149.043 43.1693 149.043 43.524V47.5H147.615ZM155.849 47.626C155.149 47.626 154.542 47.4813 154.029 47.192C153.516 46.8933 153.119 46.4733 152.839 45.932C152.559 45.3813 152.419 44.728 152.419 43.972C152.419 43.216 152.559 42.5673 152.839 42.026C153.119 41.4753 153.516 41.0553 154.029 40.766C154.542 40.4673 155.149 40.318 155.849 40.318C156.549 40.318 157.156 40.4673 157.669 40.766C158.192 41.0553 158.593 41.4753 158.873 42.026C159.162 42.5673 159.307 43.216 159.307 43.972C159.307 44.728 159.162 45.3813 158.873 45.932C158.593 46.4733 158.192 46.8933 157.669 47.192C157.156 47.4813 156.549 47.626 155.849 47.626ZM155.849 46.52C156.465 46.52 156.955 46.3053 157.319 45.876C157.683 45.4467 157.865 44.812 157.865 43.972C157.865 43.132 157.683 42.502 157.319 42.082C156.955 41.6527 156.465 41.438 155.849 41.438C155.242 41.438 154.757 41.6527 154.393 42.082C154.029 42.502 153.847 43.132 153.847 43.972C153.847 44.812 154.024 45.4467 154.379 45.876C154.743 46.3053 155.233 46.52 155.849 46.52ZM163.382 47.626C162.794 47.626 162.252 47.5513 161.758 47.402C161.263 47.2527 160.852 47.0427 160.526 46.772L160.96 45.806C161.305 46.0673 161.688 46.2633 162.108 46.394C162.528 46.5247 162.957 46.59 163.396 46.59C163.909 46.59 164.296 46.5013 164.558 46.324C164.819 46.1373 164.95 45.8853 164.95 45.568C164.95 45.3253 164.866 45.1293 164.698 44.98C164.539 44.8307 164.273 44.7187 163.9 44.644L162.556 44.378C161.958 44.2473 161.506 44.0233 161.198 43.706C160.89 43.3887 160.736 42.9827 160.736 42.488C160.736 42.068 160.848 41.6947 161.072 41.368C161.305 41.0413 161.632 40.7847 162.052 40.598C162.481 40.4113 162.98 40.318 163.55 40.318C164.072 40.318 164.558 40.3927 165.006 40.542C165.454 40.6913 165.827 40.906 166.126 41.186L165.678 42.124C165.388 41.8813 165.062 41.6947 164.698 41.564C164.334 41.424 163.965 41.354 163.592 41.354C163.069 41.354 162.682 41.452 162.43 41.648C162.178 41.844 162.052 42.1007 162.052 42.418C162.052 42.6607 162.126 42.8613 162.276 43.02C162.434 43.1693 162.682 43.286 163.018 43.37L164.362 43.636C164.996 43.7667 165.472 43.9813 165.79 44.28C166.107 44.5787 166.266 44.98 166.266 45.484C166.266 45.9227 166.144 46.3053 165.902 46.632C165.659 46.9587 165.323 47.206 164.894 47.374C164.464 47.542 163.96 47.626 163.382 47.626ZM171.026 47.626C170.317 47.626 169.696 47.4813 169.164 47.192C168.642 46.8933 168.236 46.4687 167.946 45.918C167.666 45.358 167.526 44.6953 167.526 43.93C167.526 43.174 167.671 42.5253 167.96 41.984C168.25 41.4427 168.656 41.032 169.178 40.752C169.701 40.4627 170.317 40.318 171.026 40.318C171.484 40.318 171.927 40.3973 172.356 40.556C172.786 40.7053 173.14 40.92 173.42 41.2L172.958 42.194C172.697 41.942 172.403 41.7553 172.076 41.634C171.75 41.5033 171.432 41.438 171.124 41.438C170.452 41.438 169.925 41.6527 169.542 42.082C169.16 42.5113 168.968 43.132 168.968 43.944C168.968 44.7653 169.16 45.3953 169.542 45.834C169.925 46.2727 170.452 46.492 171.124 46.492C171.423 46.492 171.736 46.436 172.062 46.324C172.389 46.2027 172.688 46.0113 172.958 45.75L173.42 46.744C173.131 47.024 172.767 47.2433 172.328 47.402C171.899 47.5513 171.465 47.626 171.026 47.626ZM177.806 47.626C177.106 47.626 176.499 47.4813 175.986 47.192C175.473 46.8933 175.076 46.4733 174.796 45.932C174.516 45.3813 174.376 44.728 174.376 43.972C174.376 43.216 174.516 42.5673 174.796 42.026C175.076 41.4753 175.473 41.0553 175.986 40.766C176.499 40.4673 177.106 40.318 177.806 40.318C178.506 40.318 179.113 40.4673 179.626 40.766C180.149 41.0553 180.55 41.4753 180.83 42.026C181.119 42.5673 181.264 43.216 181.264 43.972C181.264 44.728 181.119 45.3813 180.83 45.932C180.55 46.4733 180.149 46.8933 179.626 47.192C179.113 47.4813 178.506 47.626 177.806 47.626ZM177.806 46.52C178.422 46.52 178.912 46.3053 179.276 45.876C179.64 45.4467 179.822 44.812 179.822 43.972C179.822 43.132 179.64 42.502 179.276 42.082C178.912 41.6527 178.422 41.438 177.806 41.438C177.199 41.438 176.714 41.6527 176.35 42.082C175.986 42.502 175.804 43.132 175.804 43.972C175.804 44.812 175.981 45.4467 176.336 45.876C176.7 46.3053 177.19 46.52 177.806 46.52ZM182.917 50.524V42.138C182.917 41.8673 182.903 41.592 182.875 41.312C182.856 41.0227 182.833 40.7333 182.805 40.444H184.177L184.317 42.04H184.163C184.312 41.508 184.611 41.088 185.059 40.78C185.516 40.472 186.058 40.318 186.683 40.318C187.308 40.318 187.854 40.4673 188.321 40.766C188.788 41.0553 189.147 41.4707 189.399 42.012C189.66 42.5533 189.791 43.2067 189.791 43.972C189.791 44.728 189.66 45.3813 189.399 45.932C189.147 46.4827 188.788 46.9027 188.321 47.192C187.854 47.4813 187.308 47.626 186.683 47.626C186.067 47.626 185.53 47.4767 185.073 47.178C184.625 46.87 184.326 46.4547 184.177 45.932H184.331V50.524H182.917ZM186.333 46.52C186.949 46.52 187.439 46.3053 187.803 45.876C188.176 45.4467 188.363 44.812 188.363 43.972C188.363 43.132 188.176 42.502 187.803 42.082C187.439 41.6527 186.949 41.438 186.333 41.438C185.717 41.438 185.222 41.6527 184.849 42.082C184.485 42.502 184.303 43.132 184.303 43.972C184.303 44.812 184.485 45.4467 184.849 45.876C185.222 46.3053 185.717 46.52 186.333 46.52ZM194.71 47.626C193.571 47.626 192.675 47.304 192.022 46.66C191.369 46.016 191.042 45.1247 191.042 43.986C191.042 43.2487 191.182 42.6047 191.462 42.054C191.751 41.5033 192.148 41.0787 192.652 40.78C193.165 40.472 193.758 40.318 194.43 40.318C195.093 40.318 195.648 40.458 196.096 40.738C196.544 41.018 196.885 41.4147 197.118 41.928C197.351 42.432 197.468 43.0293 197.468 43.72V44.168H192.148V43.356H196.502L196.264 43.538C196.264 42.838 196.105 42.2967 195.788 41.914C195.48 41.522 195.032 41.326 194.444 41.326C193.791 41.326 193.287 41.5547 192.932 42.012C192.577 42.46 192.4 43.0807 192.4 43.874V44.014C192.4 44.8447 192.601 45.47 193.002 45.89C193.413 46.31 193.991 46.52 194.738 46.52C195.149 46.52 195.531 46.464 195.886 46.352C196.25 46.2307 196.595 46.0347 196.922 45.764L197.384 46.73C197.057 47.0193 196.661 47.2433 196.194 47.402C195.727 47.5513 195.233 47.626 194.71 47.626ZM203.243 47.5V41.536H201.871V40.444H203.635L203.243 40.808V39.688C203.243 38.8573 203.453 38.2273 203.873 37.798C204.293 37.3593 204.909 37.14 205.721 37.14C205.917 37.14 206.122 37.154 206.337 37.182C206.552 37.21 206.729 37.2567 206.869 37.322V38.47C206.757 38.4233 206.617 38.386 206.449 38.358C206.29 38.3207 206.127 38.302 205.959 38.302C205.688 38.302 205.455 38.358 205.259 38.47C205.063 38.5727 204.909 38.7313 204.797 38.946C204.694 39.1607 204.643 39.436 204.643 39.772V40.724L204.433 40.444H206.561V41.536H204.657V47.5H203.243ZM210.578 47.626C209.878 47.626 209.271 47.4813 208.758 47.192C208.244 46.8933 207.848 46.4733 207.568 45.932C207.288 45.3813 207.148 44.728 207.148 43.972C207.148 43.216 207.288 42.5673 207.568 42.026C207.848 41.4753 208.244 41.0553 208.758 40.766C209.271 40.4673 209.878 40.318 210.578 40.318C211.278 40.318 211.884 40.4673 212.398 40.766C212.92 41.0553 213.322 41.4753 213.602 42.026C213.891 42.5673 214.036 43.216 214.036 43.972C214.036 44.728 213.891 45.3813 213.602 45.932C213.322 46.4733 212.92 46.8933 212.398 47.192C211.884 47.4813 211.278 47.626 210.578 47.626ZM210.578 46.52C211.194 46.52 211.684 46.3053 212.048 45.876C212.412 45.4467 212.594 44.812 212.594 43.972C212.594 43.132 212.412 42.502 212.048 42.082C211.684 41.6527 211.194 41.438 210.578 41.438C209.971 41.438 209.486 41.6527 209.122 42.082C208.758 42.502 208.576 43.132 208.576 43.972C208.576 44.812 208.753 45.4467 209.108 45.876C209.472 46.3053 209.962 46.52 210.578 46.52ZM215.66 47.5V42.194C215.66 41.9047 215.651 41.6153 215.632 41.326C215.623 41.0273 215.604 40.7333 215.576 40.444H216.948L217.102 42.264H216.878C216.972 41.8253 217.13 41.4613 217.354 41.172C217.578 40.8827 217.849 40.668 218.166 40.528C218.493 40.388 218.834 40.318 219.188 40.318C219.338 40.318 219.464 40.3273 219.566 40.346C219.669 40.3553 219.772 40.374 219.874 40.402L219.86 41.662C219.702 41.5967 219.562 41.5593 219.44 41.55C219.328 41.5313 219.188 41.522 219.02 41.522C218.61 41.522 218.26 41.6153 217.97 41.802C217.681 41.9793 217.462 42.222 217.312 42.53C217.163 42.838 217.088 43.1693 217.088 43.524V47.5H215.66ZM17.162 65.5V55.63H23.49V56.792H18.618V59.956H23.168V61.118H18.618V65.5H17.162ZM25.1054 65.5V55.63H29.2774C30.332 55.63 31.1487 55.882 31.7274 56.386C32.306 56.8807 32.5954 57.576 32.5954 58.472C32.5954 59.06 32.4647 59.564 32.2034 59.984C31.942 60.404 31.5734 60.726 31.0974 60.95C30.6214 61.1647 30.0614 61.272 29.4174 61.272L29.6414 61.048H30.0194C30.402 61.048 30.7427 61.146 31.0414 61.342C31.3494 61.538 31.6014 61.8507 31.7974 62.28L33.2114 65.5H31.6154L30.2154 62.266C30.0754 61.8833 29.856 61.636 29.5574 61.524C29.268 61.412 28.9087 61.356 28.4794 61.356H26.5614V65.5H25.1054ZM26.5614 60.25H29.0394C29.7394 60.25 30.2667 60.1007 30.6214 59.802C30.9854 59.5033 31.1674 59.074 31.1674 58.514C31.1674 57.9447 30.9854 57.5153 30.6214 57.226C30.2667 56.9367 29.7394 56.792 29.0394 56.792H26.5614V60.25ZM34.8671 65.5V55.63H41.3351V56.792H36.2811V59.9H41.0131V61.076H36.2811V64.324H41.3351V65.5H34.8671ZM43.1386 65.5V55.63H49.6066V56.792H44.5526V59.9H49.2846V61.076H44.5526V64.324H49.6066V65.5H43.1386ZM51.48 62.77L51.032 55.63H52.782L52.348 62.77H51.48ZM51.074 65.5V63.834H52.74V65.5H51.074Z" fill="#232323"/>
<rect x="16" y="77.5" width="112" height="24" rx="6" fill="#F2EEF7"/>
<path d="M36.872 93.62C35.992 93.62 35.236 93.444 34.604 93.092C33.98 92.732 33.5 92.228 33.164 91.58C32.828 90.924 32.66 90.152 32.66 89.264C32.66 88.376 32.828 87.608 33.164 86.96C33.5 86.312 33.98 85.812 34.604 85.46C35.236 85.1 35.992 84.92 36.872 84.92C37.464 84.92 37.996 85.004 38.468 85.172C38.948 85.34 39.36 85.588 39.704 85.916L39.2 87.14C38.824 86.836 38.46 86.62 38.108 86.492C37.764 86.356 37.368 86.288 36.92 86.288C36.064 86.288 35.408 86.548 34.952 87.068C34.504 87.58 34.28 88.312 34.28 89.264C34.28 90.216 34.504 90.952 34.952 91.472C35.408 91.992 36.064 92.252 36.92 92.252C37.368 92.252 37.764 92.188 38.108 92.06C38.46 91.924 38.824 91.7 39.2 91.388L39.704 92.612C39.36 92.932 38.948 93.18 38.468 93.356C37.996 93.532 37.464 93.62 36.872 93.62ZM43.7668 93.62C43.1428 93.62 42.6028 93.492 42.1468 93.236C41.6908 92.98 41.3348 92.616 41.0788 92.144C40.8308 91.672 40.7068 91.112 40.7068 90.464C40.7068 89.816 40.8308 89.26 41.0788 88.796C41.3348 88.324 41.6908 87.96 42.1468 87.704C42.6028 87.448 43.1428 87.32 43.7668 87.32C44.3908 87.32 44.9308 87.448 45.3868 87.704C45.8508 87.96 46.2068 88.324 46.4548 88.796C46.7108 89.26 46.8388 89.816 46.8388 90.464C46.8388 91.112 46.7108 91.672 46.4548 92.144C46.2068 92.616 45.8508 92.98 45.3868 93.236C44.9308 93.492 44.3908 93.62 43.7668 93.62ZM43.7668 92.468C44.2388 92.468 44.6148 92.304 44.8948 91.976C45.1748 91.64 45.3148 91.136 45.3148 90.464C45.3148 89.792 45.1748 89.292 44.8948 88.964C44.6148 88.636 44.2388 88.472 43.7668 88.472C43.2948 88.472 42.9188 88.636 42.6388 88.964C42.3588 89.292 42.2188 89.792 42.2188 90.464C42.2188 91.136 42.3588 91.64 42.6388 91.976C42.9188 92.304 43.2948 92.468 43.7668 92.468ZM48.1324 93.5V88.952C48.1324 88.704 48.1244 88.452 48.1084 88.196C48.0924 87.94 48.0684 87.688 48.0364 87.44H49.4884L49.6084 88.64H49.4644C49.6324 88.224 49.8884 87.9 50.2324 87.668C50.5844 87.436 51.0004 87.32 51.4804 87.32C51.9604 87.32 52.3564 87.436 52.6684 87.668C52.9884 87.892 53.2124 88.244 53.3404 88.724H53.1484C53.3164 88.292 53.5924 87.952 53.9764 87.704C54.3604 87.448 54.8004 87.32 55.2964 87.32C55.9764 87.32 56.4844 87.52 56.8204 87.92C57.1564 88.32 57.3244 88.944 57.3244 89.792V93.5H55.8244V89.852C55.8244 89.372 55.7444 89.028 55.5844 88.82C55.4244 88.604 55.1684 88.496 54.8164 88.496C54.4004 88.496 54.0724 88.644 53.8324 88.94C53.5924 89.228 53.4724 89.62 53.4724 90.116V93.5H51.9724V89.852C51.9724 89.372 51.8924 89.028 51.7324 88.82C51.5724 88.604 51.3164 88.496 50.9644 88.496C50.5484 88.496 50.2204 88.644 49.9804 88.94C49.7484 89.228 49.6324 89.62 49.6324 90.116V93.5H48.1324ZM58.9254 93.5V87.44H60.4254V93.5H58.9254ZM58.8414 86.3V84.836H60.5094V86.3H58.8414ZM62.0543 93.5V88.952C62.0543 88.704 62.0463 88.452 62.0303 88.196C62.0143 87.94 61.9903 87.688 61.9583 87.44H63.4103L63.5303 88.64H63.3863C63.5783 88.216 63.8623 87.892 64.2383 87.668C64.6143 87.436 65.0503 87.32 65.5463 87.32C66.2583 87.32 66.7943 87.52 67.1543 87.92C67.5143 88.32 67.6943 88.944 67.6943 89.792V93.5H66.1943V89.864C66.1943 89.376 66.0983 89.028 65.9063 88.82C65.7223 88.604 65.4423 88.496 65.0663 88.496C64.6023 88.496 64.2343 88.64 63.9623 88.928C63.6903 89.216 63.5543 89.6 63.5543 90.08V93.5H62.0543ZM72.0928 96.188C71.5328 96.188 71.0248 96.128 70.5688 96.008C70.1208 95.888 69.7208 95.704 69.3688 95.456L69.6928 94.376C69.9248 94.528 70.1648 94.652 70.4128 94.748C70.6608 94.844 70.9168 94.916 71.1808 94.964C71.4448 95.012 71.7128 95.036 71.9848 95.036C72.5448 95.036 72.9608 94.896 73.2328 94.616C73.5128 94.344 73.6528 93.952 73.6528 93.44V91.988H73.7728C73.6448 92.404 73.3848 92.736 72.9928 92.984C72.6088 93.232 72.1648 93.356 71.6608 93.356C71.1168 93.356 70.6408 93.236 70.2327 92.996C69.8328 92.748 69.5208 92.396 69.2968 91.94C69.0728 91.484 68.9608 90.948 68.9608 90.332C68.9608 89.716 69.0728 89.184 69.2968 88.736C69.5208 88.28 69.8328 87.932 70.2327 87.692C70.6408 87.444 71.1168 87.32 71.6608 87.32C72.1728 87.32 72.6168 87.444 72.9928 87.692C73.3768 87.932 73.6328 88.26 73.7608 88.676L73.6528 88.604L73.7728 87.44H75.2248C75.1928 87.688 75.1688 87.94 75.1528 88.196C75.1368 88.452 75.1288 88.704 75.1288 88.952V93.26C75.1288 94.212 74.8688 94.936 74.3488 95.432C73.8368 95.936 73.0848 96.188 72.0928 96.188ZM72.0688 92.204C72.5488 92.204 72.9288 92.044 73.2088 91.724C73.4968 91.396 73.6408 90.932 73.6408 90.332C73.6408 89.732 73.4968 89.272 73.2088 88.952C72.9288 88.632 72.5488 88.472 72.0688 88.472C71.5808 88.472 71.1928 88.632 70.9048 88.952C70.6168 89.272 70.4728 89.732 70.4728 90.332C70.4728 90.932 70.6168 91.396 70.9048 91.724C71.1928 92.044 71.5808 92.204 72.0688 92.204ZM83.1146 93.62C82.4346 93.62 81.8066 93.536 81.2306 93.368C80.6626 93.192 80.1746 92.952 79.7666 92.648L80.2466 91.436C80.5186 91.628 80.8026 91.792 81.0986 91.928C81.3946 92.056 81.7106 92.156 82.0466 92.228C82.3826 92.292 82.7386 92.324 83.1146 92.324C83.7466 92.324 84.2026 92.22 84.4826 92.012C84.7626 91.804 84.9026 91.532 84.9026 91.196C84.9026 90.9 84.8066 90.676 84.6146 90.524C84.4226 90.364 84.0786 90.232 83.5826 90.128L82.2266 89.852C81.4506 89.692 80.8706 89.424 80.4866 89.048C80.1026 88.672 79.9106 88.168 79.9106 87.536C79.9106 87.008 80.0506 86.548 80.3306 86.156C80.6106 85.764 81.0026 85.46 81.5066 85.244C82.0106 85.028 82.5986 84.92 83.2706 84.92C83.8706 84.92 84.4266 85.008 84.9386 85.184C85.4506 85.352 85.8786 85.596 86.2226 85.916L85.7426 87.068C85.3986 86.78 85.0226 86.568 84.6146 86.432C84.2066 86.288 83.7506 86.216 83.2466 86.216C82.6786 86.216 82.2346 86.328 81.9146 86.552C81.6026 86.768 81.4466 87.068 81.4466 87.452C81.4466 87.748 81.5426 87.984 81.7346 88.16C81.9346 88.336 82.2706 88.472 82.7426 88.568L84.0866 88.832C84.8866 88.992 85.4786 89.256 85.8626 89.624C86.2466 89.984 86.4386 90.472 86.4386 91.088C86.4386 91.592 86.3026 92.036 86.0306 92.42C85.7586 92.796 85.3746 93.092 84.8786 93.308C84.3826 93.516 83.7946 93.62 83.1146 93.62ZM90.5129 93.62C89.8889 93.62 89.3489 93.492 88.8929 93.236C88.4369 92.98 88.0809 92.616 87.8249 92.144C87.5769 91.672 87.4529 91.112 87.4529 90.464C87.4529 89.816 87.5769 89.26 87.8249 88.796C88.0809 88.324 88.4369 87.96 88.8929 87.704C89.3489 87.448 89.8889 87.32 90.5129 87.32C91.1369 87.32 91.6769 87.448 92.1329 87.704C92.5969 87.96 92.9529 88.324 93.2009 88.796C93.4569 89.26 93.5849 89.816 93.5849 90.464C93.5849 91.112 93.4569 91.672 93.2009 92.144C92.9529 92.616 92.5969 92.98 92.1329 93.236C91.6769 93.492 91.1369 93.62 90.5129 93.62ZM90.5129 92.468C90.9849 92.468 91.3609 92.304 91.6409 91.976C91.9209 91.64 92.0609 91.136 92.0609 90.464C92.0609 89.792 91.9209 89.292 91.6409 88.964C91.3609 88.636 90.9849 88.472 90.5129 88.472C90.0409 88.472 89.6649 88.636 89.3849 88.964C89.1049 89.292 88.9649 89.792 88.9649 90.464C88.9649 91.136 89.1049 91.64 89.3849 91.976C89.6649 92.304 90.0409 92.468 90.5129 92.468ZM97.6145 93.62C96.9905 93.62 96.4505 93.492 95.9945 93.236C95.5385 92.98 95.1825 92.616 94.9265 92.144C94.6785 91.672 94.5545 91.112 94.5545 90.464C94.5545 89.816 94.6785 89.26 94.9265 88.796C95.1825 88.324 95.5385 87.96 95.9945 87.704C96.4505 87.448 96.9905 87.32 97.6145 87.32C98.2385 87.32 98.7785 87.448 99.2345 87.704C99.6985 87.96 100.055 88.324 100.303 88.796C100.559 89.26 100.687 89.816 100.687 90.464C100.687 91.112 100.559 91.672 100.303 92.144C100.055 92.616 99.6985 92.98 99.2345 93.236C98.7785 93.492 98.2385 93.62 97.6145 93.62ZM97.6145 92.468C98.0865 92.468 98.4625 92.304 98.7425 91.976C99.0225 91.64 99.1625 91.136 99.1625 90.464C99.1625 89.792 99.0225 89.292 98.7425 88.964C98.4625 88.636 98.0865 88.472 97.6145 88.472C97.1425 88.472 96.7665 88.636 96.4865 88.964C96.2065 89.292 96.0665 89.792 96.0665 90.464C96.0665 91.136 96.2065 91.64 96.4865 91.976C96.7665 92.304 97.1425 92.468 97.6145 92.468ZM101.98 93.5V88.952C101.98 88.704 101.972 88.452 101.956 88.196C101.94 87.94 101.916 87.688 101.884 87.44H103.336L103.456 88.64H103.312C103.504 88.216 103.788 87.892 104.164 87.668C104.54 87.436 104.976 87.32 105.472 87.32C106.184 87.32 106.72 87.52 107.08 87.92C107.44 88.32 107.62 88.944 107.62 89.792V93.5H106.12V89.864C106.12 89.376 106.024 89.028 105.832 88.82C105.648 88.604 105.368 88.496 104.992 88.496C104.528 88.496 104.16 88.64 103.888 88.928C103.616 89.216 103.48 89.6 103.48 90.08V93.5H101.98ZM109.427 90.992L108.959 85.04H110.807L110.339 90.992H109.427ZM109.043 93.5V91.832H110.723V93.5H109.043Z" fill="#8C64B4"/>
<rect x="190" y="10" width="140" height="140" rx="70" stroke="white" stroke-opacity="0.4" stroke-width="60"/>
<path d="M262.799 117.401C281.425 117.401 296.525 102.301 296.525 83.675C296.525 65.0485 281.425 49.9487 262.799 49.9487C244.172 49.9487 229.072 65.0485 229.072 83.675C229.072 102.301 244.172 117.401 262.799 117.401Z" fill="#FFF9ED"/>
<path d="M289.3 75.0751C288.979 72.6656 288.414 70.2951 287.612 68.0001C286.771 65.571 285.66 63.2439 284.3 61.0626C281.496 56.4155 277.618 52.5087 272.992 49.6703C268.365 46.8319 263.126 45.1446 257.712 44.7501C258.462 44.6876 259.225 44.6626 260 44.6626C278.887 44.6626 294.2 60.4876 294.2 80.0001C294.2 99.5126 278.887 115.338 260 115.338C259.225 115.338 258.462 115.313 257.712 115.25C259.828 115.114 261.926 114.771 263.975 114.225C269.11 112.85 273.848 110.28 277.8 106.725C281.362 103.527 284.242 99.6441 286.27 95.3079C288.297 90.9717 289.43 86.2713 289.6 81.4876C289.625 81.0001 289.637 80.5001 289.637 80.0001C289.639 78.3526 289.526 76.707 289.3 75.0751Z" fill="#8C64B4"/>
<path d="M289.637 80C289.637 80.5 289.625 80.9999 289.6 81.4874C289.01 80.8562 288.645 80.0476 288.562 79.1875C288.511 78.7979 288.486 78.4053 288.487 78.0125C288.498 77.5713 288.548 77.132 288.637 76.7C288.747 76.1192 288.972 75.5665 289.3 75.075C289.526 76.7068 289.639 78.3524 289.637 80Z" fill="#F2EEF7"/>
<path d="M289.3 75.075C288.972 75.5666 288.747 76.1193 288.637 76.7001L288.525 76.6625L282.625 76.55L282.5 76.5751C282.471 76.0807 282.324 75.6005 282.072 75.1744C281.82 74.7483 281.469 74.3885 281.05 74.125L278.262 74.6625C277.668 72.3677 276.632 70.2108 275.212 68.3125L278.575 67.5625C278.809 68.1411 279.263 68.603 279.837 68.8468C280.411 69.0906 281.059 69.0963 281.637 68.8625C282.216 68.6288 282.678 68.1749 282.922 67.6005C283.166 67.0262 283.171 66.3786 282.937 65.8H282.95C283.7 67.55 286.175 66.4875 286.925 68.225L287.612 68C288.414 70.295 288.979 72.6656 289.3 75.075Z" fill="#F2EEF7"/>
<path d="M288.525 76.6625L288.638 76.7C288.548 77.1321 288.498 77.5714 288.488 78.0125C288.486 78.4054 288.511 78.798 288.563 79.1876L288.475 79.2001L282.575 79.0876L282.475 79.075C282.55 78.6877 282.592 78.2946 282.6 77.9C282.612 77.4561 282.579 77.0121 282.5 76.575L282.625 76.55L288.525 76.6625Z" fill="#F2EEF7"/>
<path d="M287.538 88.4749C287.523 88.428 287.492 88.3879 287.45 88.3624C287.38 88.2671 287.295 88.1828 287.2 88.1125H287.188C287.037 88.0026 286.86 87.9337 286.675 87.9125C286.444 87.8816 286.209 87.92 286 88.0228C285.79 88.1255 285.616 88.288 285.499 88.4896C285.383 88.6913 285.328 88.9231 285.343 89.1557C285.358 89.3883 285.441 89.6113 285.583 89.7966C285.724 89.9818 285.917 90.1209 286.138 90.1963C286.359 90.2716 286.597 90.2799 286.822 90.2201C287.047 90.1603 287.25 90.035 287.404 89.8601C287.558 89.6852 287.657 89.4685 287.688 89.2374C287.722 88.9737 287.669 88.706 287.538 88.4749ZM280.363 93.4124C280.429 93.4885 280.504 93.5558 280.588 93.6124C280.78 93.7435 281.008 93.8144 281.241 93.8162C281.474 93.818 281.702 93.7506 281.897 93.6226C282.092 93.4946 282.245 93.3117 282.335 93.097C282.426 92.8823 282.452 92.6455 282.408 92.4165C282.364 92.1875 282.253 91.9766 282.09 91.8105C281.926 91.6443 281.717 91.5304 281.489 91.4832C281.261 91.4359 281.023 91.4574 280.807 91.5449C280.591 91.6325 280.406 91.7821 280.275 91.975C280.132 92.1918 280.064 92.4491 280.079 92.7083C280.095 92.9674 280.195 93.2145 280.363 93.4124ZM288.563 79.1875C288.645 80.0476 289.01 80.8562 289.6 81.4874C289.43 86.2712 288.297 90.9716 286.27 95.3078C284.243 99.644 281.362 103.527 277.8 106.725L277.35 106.212C277.595 105.986 277.79 105.711 277.922 105.404C278.054 105.097 278.12 104.766 278.115 104.433C278.11 104.099 278.035 103.77 277.895 103.467C277.754 103.164 277.552 102.894 277.3 102.675L274.213 100.637V100.625C274.592 100.762 275.007 100.76 275.385 100.617C275.762 100.475 276.076 100.202 276.27 99.8486C276.464 99.4951 276.525 99.0838 276.442 98.6891C276.359 98.2944 276.138 97.9423 275.819 97.6965C275.499 97.4506 275.102 97.3271 274.699 97.3483C274.296 97.3696 273.915 97.5341 273.623 97.8122C273.331 98.0904 273.148 98.4637 273.107 98.8649C273.066 99.2661 273.17 99.6687 273.4 99.9999L270.975 100.087C270.678 99.5235 270.197 99.078 269.613 98.825C269.427 98.7624 269.233 98.7245 269.038 98.7125L269.288 95.2874C271.863 93.8865 274.064 91.8867 275.704 89.4566C277.345 87.0265 278.376 84.2375 278.713 81.325L280.9 81.5999C281.347 81.3375 281.724 80.9707 281.998 80.531C282.272 80.0913 282.436 79.5917 282.475 79.075L282.575 79.0875L288.475 79.2L288.563 79.1875Z" fill="#F2EEF7"/>
<path d="M287.537 88.475C287.669 88.706 287.722 88.9738 287.688 89.2375C287.657 89.4685 287.558 89.6852 287.404 89.8601C287.25 90.035 287.047 90.1603 286.822 90.2201C286.597 90.28 286.359 90.2717 286.138 90.1963C285.917 90.1209 285.724 89.9818 285.583 89.7966C285.441 89.6114 285.358 89.3884 285.343 89.1557C285.328 88.9231 285.383 88.6913 285.499 88.4897C285.616 88.288 285.79 88.1255 286 88.0228C286.209 87.9201 286.444 87.8817 286.675 87.9125C286.86 87.9338 287.037 88.0027 287.188 88.1125H287.2C287.295 88.1829 287.38 88.2671 287.45 88.3625C287.483 88.3969 287.512 88.4346 287.537 88.475ZM287.613 68L286.925 68.225C286.175 66.4875 283.7 67.55 282.95 65.8C282.2 64.05 284.7 63.0125 283.962 61.275L284.3 61.0625C285.66 63.2438 286.771 65.5709 287.613 68Z" fill="#F2EEF7"/>
<path d="M239.063 84.8875L238.913 85.1C240.513 87.05 235.475 88.425 235.475 88.425C233.45 89.0375 231.525 89.825 231.663 90.625C231.8 91.425 234.238 91.0875 236.438 90.5875C234.363 91.2125 232.175 92.05 232.388 92.7875C232.575 93.425 240.512 91.1875 240.688 91.825C240.863 92.4625 232.925 94.7125 233.113 95.35L229.925 96.8375C227.081 91.3839 225.666 85.2988 225.81 79.15C225.954 73.0013 227.654 66.9893 230.75 61.675C232.453 58.7805 234.557 56.1417 237 53.8375C242.643 48.5007 249.964 45.2887 257.712 44.75C263.126 45.1445 268.365 46.8318 272.992 49.6702C277.618 52.5086 281.496 56.4154 284.3 61.0625L283.962 61.275C284.7 63.0125 282.212 64.0625 282.95 65.8H282.937C282.935 65.7695 282.927 65.7397 282.912 65.7125C282.791 65.4277 282.615 65.1696 282.393 64.953C282.172 64.7363 281.91 64.5654 281.623 64.4499C281.336 64.3344 281.029 64.2766 280.719 64.2799C280.409 64.2831 280.104 64.3473 279.819 64.4688C279.534 64.5902 279.276 64.7666 279.059 64.9878C278.843 65.209 278.672 65.4708 278.556 65.758C278.441 66.0453 278.383 66.3525 278.386 66.6621C278.389 66.9718 278.454 67.2777 278.575 67.5625L275.212 68.3125C272.636 64.8606 268.921 62.4309 264.726 61.4531C260.531 60.4753 256.125 61.0123 252.288 62.9692C248.45 64.9261 245.428 68.1768 243.756 72.1466C242.084 76.1165 241.869 80.5497 243.15 84.6625L239.975 85.55L239.063 84.8875ZM237.35 67.9625C237.693 68.1919 238.1 68.308 238.512 68.2946C238.925 68.2811 239.323 68.1388 239.65 67.8875C240.07 67.6544 240.384 67.2681 240.526 66.8093C240.668 66.3505 240.627 65.8546 240.413 65.425C240.093 65.065 239.646 64.843 239.165 64.8057C238.685 64.7684 238.209 64.9187 237.838 65.225C237.417 65.457 237.103 65.8441 236.963 66.304C236.823 66.7638 236.867 67.2602 237.088 67.6875C237.158 67.7937 237.247 67.8867 237.35 67.9625Z" fill="#F2EEF7"/>
<path d="M282.937 65.8001C283.081 66.3474 283.004 66.9294 282.721 67.4197C282.438 67.91 281.974 68.269 281.428 68.4187C280.882 68.5684 280.299 68.4968 279.806 68.2193C279.313 67.9418 278.949 67.481 278.793 66.9368C278.638 66.3926 278.703 65.8091 278.976 65.3129C279.248 64.8168 279.705 64.448 280.247 64.2868C280.79 64.1256 281.374 64.1849 281.873 64.4518C282.372 64.7188 282.746 65.1718 282.912 65.7126C282.927 65.7398 282.935 65.7695 282.937 65.8001ZM282.5 76.5751C282.579 77.0122 282.612 77.4562 282.6 77.9001C282.592 78.2946 282.55 78.6877 282.475 79.0751C282.436 79.5918 282.272 80.0914 281.998 80.5311C281.724 80.9708 281.347 81.3376 280.9 81.6001L278.712 81.3251C278.798 80.6284 278.84 79.927 278.837 79.2251C278.838 77.6861 278.645 76.1532 278.262 74.6626L281.05 74.1251C281.469 74.3885 281.82 74.7483 282.072 75.1744C282.324 75.6006 282.471 76.0808 282.5 76.5751ZM281.912 91.6626C282.051 91.7566 282.168 91.8791 282.256 92.022C282.344 92.1649 282.4 92.3249 282.421 92.4912C282.442 92.6576 282.427 92.8265 282.378 92.9867C282.328 93.1468 282.245 93.2946 282.134 93.4201C282.023 93.5456 281.886 93.646 281.733 93.7145C281.58 93.783 281.414 93.818 281.246 93.8173C281.079 93.8166 280.913 93.7801 280.761 93.7103C280.608 93.6405 280.473 93.539 280.362 93.4126C280.195 93.2146 280.095 92.9676 280.079 92.7084C280.064 92.4493 280.132 92.192 280.275 91.9751C280.361 91.8463 280.472 91.7358 280.602 91.6503C280.731 91.5647 280.876 91.5057 281.028 91.4766C281.181 91.4475 281.337 91.449 281.489 91.4809C281.641 91.5129 281.785 91.5746 281.912 91.6626Z" fill="#F2EEF7"/>
<path d="M278.838 79.225C278.84 79.9269 278.798 80.6283 278.713 81.325C278.206 85.7759 276.078 89.8844 272.735 92.8658C269.392 95.8472 265.067 97.4925 260.588 97.4875C259.349 97.4903 258.113 97.3647 256.9 97.1125C253.512 96.4192 250.391 94.7789 247.898 92.3823C245.406 89.9856 243.644 86.9309 242.819 83.573C241.993 80.2151 242.137 76.6918 243.234 73.4125C244.331 70.1332 246.336 67.2325 249.016 65.0473C251.696 62.8621 254.941 61.4822 258.374 61.0677C261.807 60.6533 265.287 61.2215 268.41 62.7062C271.533 64.1909 274.17 66.5312 276.016 69.4553C277.862 72.3793 278.84 75.7671 278.838 79.225ZM269.525 79.4625C269.524 77.6689 268.991 75.9159 267.993 74.4252C266.996 72.9346 265.579 71.7732 263.921 71.0879C262.263 70.4027 260.44 70.2243 258.681 70.5755C256.922 70.9266 255.307 71.7914 254.039 73.0606C252.772 74.3298 251.909 75.9463 251.561 77.7057C251.212 79.4651 251.393 81.2884 252.08 82.945C252.768 84.6016 253.931 86.0172 255.423 87.0126C256.915 88.0081 258.669 88.5387 260.463 88.5375C261.653 88.5367 262.833 88.3013 263.932 87.8448C265.032 87.3883 266.032 86.7196 266.873 85.8769C267.715 85.0342 268.382 84.034 268.837 82.9334C269.292 81.8328 269.526 80.6534 269.525 79.4625Z" fill="#8C64B4"/>
<path d="M260.025 103.163C259.975 103.65 259.8 105.388 259.737 107.225C259.937 105.388 260.012 103.638 260.025 103.163ZM259.725 107.288C259.45 109.788 258.95 112.438 258.05 112.288C257.15 112.138 257 109.788 257.062 107.388L256.987 107.338C257.015 107.298 257.04 107.256 257.062 107.213H257.1C257.75 106.013 257.387 104.063 256.937 102.563C256.72 101.842 256.457 101.137 256.15 100.45L256.9 97.1126C258.113 97.3648 259.349 97.4904 260.587 97.4876C263.626 97.4907 266.616 96.7344 269.287 95.2876L269.037 98.7126C269.233 98.7247 269.427 98.7625 269.612 98.8251C270.197 99.0781 270.678 99.5236 270.975 100.088C271.081 100.27 271.177 100.458 271.262 100.65C271.662 101.5 272.012 102.375 272.412 103.225C272.747 103.98 273.14 104.707 273.587 105.4C273.762 105.746 274.006 106.051 274.305 106.297C274.605 106.542 274.952 106.722 275.325 106.825C275.687 106.886 276.058 106.863 276.409 106.757C276.761 106.651 277.083 106.464 277.35 106.213L277.8 106.725C273.848 110.28 269.11 112.85 263.975 114.225L263.637 112.438C262.887 112.4 263.362 103.075 262.612 103.038C261.862 103.038 261.375 112.288 260.625 112.288C259.775 112.25 259.662 109.7 259.725 107.288Z" fill="#F2EEF7"/>
<path d="M277.3 102.675C277.689 103.019 277.955 103.48 278.058 103.988C278.162 104.497 278.098 105.025 277.875 105.493C277.652 105.962 277.282 106.345 276.822 106.585C276.362 106.826 275.837 106.91 275.325 106.825C274.952 106.722 274.605 106.542 274.305 106.296C274.006 106.051 273.762 105.746 273.588 105.4C273.14 104.707 272.747 103.979 272.413 103.225C272.013 102.375 271.663 101.5 271.263 100.65C271.177 100.458 271.081 100.27 270.975 100.087L273.4 100C273.603 100.284 273.886 100.502 274.213 100.625V100.637L277.3 102.675Z" fill="#F2EEF7"/>
<path d="M275.4 97.4251C275.61 97.5031 275.803 97.6217 275.967 97.7741C276.131 97.9266 276.264 98.1099 276.357 98.3136C276.451 98.5173 276.503 98.7374 276.512 98.9614C276.52 99.1853 276.484 99.4087 276.406 99.6188C276.328 99.829 276.21 100.022 276.057 100.186C275.905 100.35 275.721 100.483 275.518 100.576C275.314 100.67 275.094 100.722 274.87 100.731C274.646 100.739 274.423 100.703 274.213 100.625C273.886 100.502 273.603 100.284 273.4 100C273.196 99.7007 273.091 99.3442 273.102 98.9819C273.114 98.6196 273.239 98.2701 273.462 97.9838C273.684 97.6975 273.992 97.4892 274.34 97.3888C274.688 97.2884 275.059 97.3011 275.4 97.4251ZM236.438 90.5876C234.238 91.0876 231.788 91.4376 231.663 90.6251C231.538 89.8126 233.45 89.0376 235.475 88.4251C235.475 88.4251 240.513 87.0501 238.913 85.1001L239.063 84.8876L239.975 85.5501L243.15 84.6626C244.123 87.7757 245.911 90.5718 248.329 92.761C250.746 94.9502 253.706 96.4527 256.9 97.1126L256.15 100.45C256.457 101.137 256.72 101.842 256.938 102.563C252.825 107.013 255.05 108.688 256.288 108.013C256.58 107.859 256.823 107.625 256.988 107.338L257.063 107.388C257 109.788 257.138 112.138 258.05 112.288C258.963 112.438 259.45 109.788 259.725 107.288C259.663 109.7 259.775 112.25 260.625 112.288C261.375 112.288 261.863 103.038 262.613 103.038C263.363 103.075 262.888 112.4 263.638 112.438L263.975 114.225C261.926 114.771 259.828 115.114 257.713 115.25C251.893 114.812 246.284 112.889 241.419 109.666C236.554 106.442 232.597 102.026 229.925 96.8376L233.113 95.3501C232.925 94.7126 240.875 92.4751 240.688 91.8251C240.5 91.1751 232.575 93.4251 232.388 92.7876C232.175 92.0501 234.363 91.2126 236.438 90.5876ZM239.875 89.7001C239.513 89.7751 238.013 90.1126 236.45 90.5876C238.05 90.2251 239.525 89.8001 239.875 89.7001Z" fill="#F2EEF7"/>
<path d="M256.937 102.562C257.387 104.062 257.75 106.012 257.1 107.212H257.062C257.04 107.256 257.015 107.297 256.987 107.337C256.823 107.625 256.58 107.859 256.287 108.012C255.05 108.687 252.825 107.012 256.937 102.562ZM237.35 67.9625C237.247 67.8867 237.158 67.7936 237.087 67.6875C236.867 67.2601 236.823 66.7638 236.963 66.3039C237.103 65.8441 237.417 65.457 237.837 65.225C238.209 64.9186 238.685 64.7683 239.165 64.8056C239.646 64.8429 240.093 65.0649 240.412 65.425C240.627 65.8546 240.668 66.3505 240.526 66.8093C240.384 67.2681 240.07 67.6543 239.65 67.8875C239.323 68.1387 238.925 68.2811 238.512 68.2945C238.1 68.308 237.693 68.1919 237.35 67.9625Z" fill="#F2EEF7"/>
<path d="M260 43.4138C240.45 43.4138 224.545 59.8263 224.545 80.0001C224.545 100.174 240.45 116.586 260 116.586C279.55 116.586 295.455 100.174 295.455 80.0001C295.455 59.8263 279.55 43.4138 260 43.4138ZM260 114.086C241.829 114.086 227.045 98.7951 227.045 80.0001C227.045 61.2051 241.829 45.9138 260 45.9138C278.171 45.9138 292.955 61.2051 292.955 80.0001C292.955 98.7951 278.171 114.086 260 114.086Z" fill="#232323"/>
<path d="M257.181 52.1526C257.181 52.3184 257.247 52.4773 257.364 52.5946C257.482 52.7118 257.64 52.7776 257.806 52.7776H258.766C258.77 53.2195 258.665 53.6556 258.461 54.0477C258.258 54.4399 257.961 54.7763 257.598 55.0276C257.458 55.0764 257.34 55.1731 257.265 55.3005C257.19 55.4279 257.163 55.5777 257.188 55.7235C257.213 55.8692 257.289 56.0013 257.402 56.0963C257.515 56.1914 257.658 56.2432 257.806 56.2426C257.877 56.2427 257.948 56.2309 258.015 56.2076C258.628 55.8701 259.138 55.3725 259.49 54.768C259.842 54.1635 260.024 53.4747 260.015 52.7751H261.265C261.256 53.4747 261.438 54.1636 261.79 54.7681C262.142 55.3726 262.652 55.8702 263.265 56.2076C263.332 56.2309 263.403 56.2427 263.474 56.2426C263.622 56.2432 263.765 56.1914 263.878 56.0963C263.991 56.0013 264.067 55.8692 264.092 55.7235C264.117 55.5777 264.09 55.4279 264.015 55.3005C263.94 55.1731 263.822 55.0764 263.683 55.0276C263.319 54.7761 263.023 54.4396 262.82 54.0474C262.617 53.6552 262.512 53.2193 262.516 52.7776H263.474C263.64 52.7776 263.798 52.7118 263.916 52.5946C264.033 52.4773 264.099 52.3184 264.099 52.1526C264.099 51.9869 264.033 51.8279 263.916 51.7107C263.798 51.5935 263.64 51.5276 263.474 51.5276H262.525C262.521 51.0859 262.626 50.6501 262.829 50.258C263.032 49.8658 263.328 49.5293 263.691 49.2776C263.769 49.2502 263.84 49.2078 263.901 49.1529C263.962 49.0979 264.012 49.0315 264.047 48.9574C264.082 48.8833 264.103 48.8029 264.107 48.7209C264.111 48.6389 264.099 48.5569 264.072 48.4795C264.044 48.4021 264.002 48.3309 263.947 48.2698C263.892 48.2088 263.826 48.1592 263.752 48.1239C263.678 48.0885 263.597 48.0681 263.515 48.0638C263.433 48.0596 263.351 48.0715 263.274 48.0989C262.661 48.4361 262.151 48.9336 261.798 49.5382C261.446 50.1428 261.265 50.8317 261.274 51.5314H260.024C260.033 50.8317 259.851 50.1428 259.499 49.5382C259.147 48.9336 258.637 48.4361 258.024 48.0989C257.946 48.0715 257.864 48.0596 257.782 48.0638C257.7 48.0681 257.62 48.0885 257.546 48.1239C257.472 48.1592 257.405 48.2088 257.35 48.2698C257.295 48.3309 257.253 48.4021 257.226 48.4795C257.198 48.5569 257.186 48.6389 257.191 48.7209C257.195 48.8029 257.215 48.8833 257.251 48.9574C257.286 49.0315 257.336 49.0979 257.397 49.1529C257.458 49.2078 257.529 49.2502 257.606 49.2776C257.97 49.5291 258.266 49.8655 258.47 50.2577C258.673 50.6498 258.778 51.0857 258.775 51.5276H257.815C257.732 51.5265 257.65 51.5418 257.573 51.5727C257.496 51.6035 257.426 51.6494 257.367 51.7076C257.308 51.7657 257.262 51.835 257.23 51.9114C257.198 51.9878 257.181 52.0698 257.181 52.1526ZM271.049 53.3651C271.111 53.3111 271.161 53.2455 271.198 53.1719C271.234 53.0983 271.256 53.0183 271.262 52.9363C271.267 52.8543 271.257 52.7721 271.23 52.6942C271.204 52.6164 271.163 52.5445 271.109 52.4826C271.008 52.3664 270.946 52.222 270.93 52.0691C270.914 51.9162 270.945 51.762 271.02 51.6276C271.118 51.4555 271.279 51.3289 271.47 51.2755C271.661 51.2221 271.865 51.2462 272.038 51.3426C272.19 51.4306 272.308 51.5689 272.37 51.7339C272.45 52.0842 272.429 52.4501 272.309 52.7889L272.25 53.0526C272.125 53.6626 271.984 54.2689 271.841 54.8726C271.689 55.5139 271.53 56.1551 271.373 56.7964C271.224 57.3951 271.075 57.9951 270.933 58.5939C270.931 58.6168 270.931 58.6397 270.933 58.6626C270.929 58.7042 270.929 58.746 270.933 58.7876C270.936 58.8274 270.944 58.8668 270.955 58.9051C270.966 58.9421 270.979 58.9781 270.996 59.0126C271.015 59.0512 271.039 59.0874 271.066 59.1201C271.078 59.14 271.09 59.1592 271.104 59.1776C271.115 59.1889 271.13 59.1926 271.143 59.2039C271.175 59.2305 271.21 59.2539 271.248 59.2739C271.283 59.2954 271.321 59.313 271.36 59.3264C271.375 59.3264 271.386 59.3414 271.403 59.3464C271.524 59.3744 271.65 59.3657 271.766 59.3214C271.788 59.3126 271.806 59.2989 271.826 59.2889C271.875 59.265 271.92 59.2352 271.961 59.2001C271.969 59.1926 271.98 59.1901 271.988 59.1826C272.404 58.7659 272.821 58.3493 273.238 57.9326C273.724 57.4464 274.209 56.9589 274.7 56.4776C275.143 56.0409 275.59 55.6097 276.043 55.1839L276.23 55.0001C276.459 54.7215 276.763 54.5135 277.105 54.4001C277.279 54.3684 277.458 54.398 277.613 54.4839C277.698 54.5317 277.773 54.596 277.833 54.6731C277.893 54.7501 277.938 54.8383 277.964 54.9326C277.991 55.0266 277.999 55.125 277.987 55.2221C277.975 55.3191 277.944 55.4128 277.895 55.4976C277.82 55.6333 277.704 55.7422 277.564 55.8094C277.424 55.8765 277.267 55.8986 277.114 55.8726C277.032 55.8556 276.947 55.8552 276.865 55.8716C276.782 55.888 276.704 55.9208 276.635 55.968C276.565 56.0153 276.506 56.076 276.461 56.1466C276.416 56.2172 276.385 56.2962 276.371 56.3789C276.356 56.4616 276.359 56.5463 276.378 56.628C276.398 56.7096 276.433 56.7866 276.483 56.8542C276.532 56.9219 276.595 56.9789 276.667 57.0218C276.739 57.0646 276.819 57.0926 276.903 57.1039C277.234 57.1604 277.574 57.1324 277.892 57.0225C278.21 56.9126 278.495 56.7243 278.721 56.4751C278.947 56.2259 279.106 55.9238 279.184 55.5968C279.262 55.2697 279.256 54.9282 279.168 54.6039C279.098 54.3512 278.979 54.1148 278.817 53.9086C278.655 53.7024 278.454 53.5304 278.225 53.4026C277.813 53.1703 277.332 53.0914 276.868 53.1801C276.285 53.3303 275.762 53.6543 275.368 54.1089L275.189 54.2814C274.726 54.7139 274.273 55.1564 273.823 55.5964C273.44 55.9714 273.061 56.3526 272.681 56.7314C272.806 56.2114 272.939 55.6901 273.056 55.1676C273.202 54.5543 273.341 53.9372 273.473 53.3164L273.526 53.0739C273.712 52.5002 273.718 51.8834 273.543 51.3064C273.443 51.0286 273.283 50.7763 273.075 50.5676C272.866 50.3588 272.614 50.1988 272.337 50.0989C272.059 49.9991 271.763 49.9619 271.469 49.9901C271.175 50.0182 270.891 50.111 270.638 50.2618C270.384 50.4125 270.167 50.6175 270.002 50.8621C269.837 51.1066 269.728 51.3847 269.683 51.6763C269.638 51.9679 269.658 52.2658 269.742 52.5487C269.826 52.8316 269.971 53.0925 270.168 53.3126C270.278 53.4363 270.432 53.5112 270.597 53.5211C270.762 53.5309 270.925 53.4748 271.049 53.3651ZM277.979 65.5251C277.821 65.8907 277.737 66.2844 277.734 66.6827C277.73 67.0811 277.806 67.4761 277.958 67.8446C278.109 68.213 278.333 68.5474 278.616 68.828C278.899 69.1085 279.235 69.3296 279.604 69.4782C279.974 69.6268 280.37 69.6999 280.768 69.6931C281.166 69.6863 281.559 69.5999 281.924 69.4388C282.288 69.2777 282.616 69.0453 282.889 68.7553C283.163 68.4653 283.375 68.1235 283.514 67.7501C283.571 67.6002 283.616 67.4459 283.649 67.2889C284.023 67.4379 284.411 67.5501 284.808 67.6239C285.635 67.7976 286.114 67.9239 286.345 68.4689C286.377 68.5444 286.424 68.6128 286.483 68.6703C286.541 68.7277 286.611 68.7731 286.687 68.8037C286.763 68.8343 286.844 68.8497 286.926 68.8489C287.008 68.848 287.089 68.831 287.165 68.7989C287.241 68.7667 287.309 68.72 287.366 68.6613C287.424 68.6027 287.469 68.5334 287.5 68.4572C287.53 68.3811 287.546 68.2996 287.545 68.2176C287.544 68.1355 287.527 68.0544 287.495 67.9789C287.263 67.5268 286.917 67.1432 286.491 66.8663C286.066 66.5893 285.575 66.4286 285.068 66.4001C284.24 66.2251 283.761 66.1001 283.529 65.5539C283.296 65.0076 283.539 64.5801 283.985 63.8639C284.317 63.4792 284.542 63.0141 284.639 62.5151C284.735 62.0161 284.698 61.5006 284.533 61.0201C284.467 60.8676 284.344 60.7472 284.19 60.6855C284.037 60.6237 283.864 60.6256 283.712 60.6907C283.559 60.7559 283.439 60.8789 283.377 61.0328C283.315 61.1867 283.317 61.3589 283.383 61.5114C283.615 62.0539 283.373 62.4851 282.926 63.2014C282.726 63.5049 282.552 63.8243 282.404 64.1564C282.233 64.0422 282.051 63.9459 281.86 63.8689C281.127 63.5745 280.307 63.5832 279.58 63.893C278.854 64.2029 278.28 64.7886 277.985 65.5214L277.979 65.5251ZM279.138 65.9914C279.267 65.6707 279.489 65.396 279.776 65.2024C280.063 65.0089 280.4 64.9054 280.746 64.9051C280.968 64.9054 281.188 64.9478 281.394 65.0301C281.713 65.1572 281.987 65.3762 282.182 65.6593C282.377 65.9424 282.483 66.2769 282.487 66.6205C282.491 66.964 282.393 67.3011 282.206 67.589C282.018 67.8769 281.75 68.1026 281.434 68.2376C281.118 68.3726 280.769 68.4107 280.431 68.3472C280.094 68.2836 279.782 68.1213 279.537 67.8807C279.292 67.6401 279.124 67.3321 279.054 66.9958C278.983 66.6594 279.015 66.3099 279.144 65.9914H279.138ZM290.279 81.1989C289.683 80.9589 289.086 79.6989 289.119 78.0201C289.151 76.3414 289.794 75.1076 290.398 74.8876C290.479 74.8634 290.555 74.8228 290.62 74.7682C290.686 74.7136 290.739 74.6463 290.778 74.5703C290.816 74.4944 290.838 74.4113 290.844 74.3264C290.849 74.2414 290.836 74.1563 290.808 74.0762C290.779 73.9961 290.734 73.9228 290.675 73.8607C290.617 73.7987 290.547 73.7492 290.469 73.7152C290.391 73.6813 290.307 73.6637 290.221 73.6634C290.136 73.6632 290.052 73.6804 289.974 73.7139C289.521 73.9414 289.125 74.2676 288.814 74.6684C288.504 75.0693 288.288 75.5346 288.181 76.0301L282.991 75.9314C282.906 75.4302 282.707 74.955 282.411 74.542C282.114 74.129 281.728 73.7889 281.28 73.5476C281.126 73.4855 280.954 73.4869 280.801 73.5518C280.649 73.6166 280.528 73.7394 280.466 73.8932C280.403 74.0471 280.405 74.2193 280.47 74.372C280.535 74.5247 280.657 74.6455 280.811 74.7076C281.408 74.9476 282.005 76.2076 281.971 77.8864C281.938 79.5651 281.296 80.8001 280.693 81.0114C280.554 81.0609 280.437 81.158 280.362 81.2854C280.288 81.4129 280.261 81.5626 280.287 81.7079C280.312 81.8532 280.388 81.9849 280.501 82.0795C280.614 82.1742 280.757 82.2258 280.905 82.2251C280.977 82.2246 281.049 82.2123 281.118 82.1889C281.592 81.9448 282.004 81.5953 282.322 81.1671C282.64 80.7389 282.856 80.2435 282.953 79.7189L288.061 79.8164C288.136 80.3462 288.333 80.8515 288.636 81.2919C288.94 81.7324 289.342 82.096 289.811 82.3539C289.886 82.3833 289.965 82.3986 290.045 82.3989C290.19 82.3994 290.331 82.3492 290.444 82.2569C290.556 82.1647 290.633 82.0362 290.661 81.8935C290.688 81.7508 290.666 81.6029 290.596 81.4752C290.527 81.3475 290.415 81.248 290.28 81.1939L290.279 81.1989ZM287.885 78.5676L283.183 78.4776C283.2 78.2914 283.218 78.1026 283.221 77.9089C283.221 77.6589 283.221 77.4214 283.2 77.1851L287.918 77.2751C287.891 77.5101 287.874 77.7514 287.869 77.9964C287.865 78.1914 287.875 78.3751 287.885 78.5676ZM287.579 87.6339C287.561 87.6226 287.551 87.6039 287.534 87.5926C287.516 87.5814 287.514 87.5926 287.504 87.5801C287.277 87.4319 287.021 87.3366 286.752 87.3012C286.484 87.2659 286.211 87.2914 285.954 87.3758C285.697 87.4603 285.463 87.6016 285.268 87.7892C285.073 87.9768 284.923 88.2059 284.829 88.4595C284.734 88.7131 284.698 88.9846 284.723 89.254C284.749 89.5233 284.834 89.7836 284.973 90.0154C285.113 90.2473 285.303 90.4447 285.529 90.5931C285.755 90.7415 286.012 90.837 286.28 90.8726C286.359 90.8826 286.439 90.8876 286.519 90.8876C286.718 90.8844 286.916 90.8481 287.104 90.7801C286.928 91.3928 286.655 91.9734 286.296 92.5001C285.709 93.471 284.788 94.1939 283.705 94.5326C283.553 94.5635 283.418 94.6496 283.326 94.7744C283.234 94.8992 283.192 95.0537 283.208 95.2079C283.223 95.3621 283.295 95.5051 283.41 95.6089C283.525 95.7128 283.675 95.7703 283.83 95.7701C283.872 95.7706 283.914 95.7664 283.955 95.7576C285.364 95.3624 286.572 94.4505 287.338 93.2039C287.988 92.2856 288.393 91.2164 288.515 90.0976C288.565 89.7214 288.539 89.339 288.44 88.9727C288.34 88.6064 288.169 88.2635 287.936 87.9639C287.832 87.8389 287.712 87.728 287.579 87.6339ZM286.446 89.6339C286.3 89.6137 286.169 89.5366 286.079 89.4195C285.99 89.3024 285.951 89.1548 285.97 89.0089C285.979 88.9369 286.003 88.8675 286.039 88.8046C286.075 88.7418 286.124 88.6867 286.181 88.6426C286.298 88.5542 286.445 88.5147 286.591 88.5326C286.705 88.5508 286.81 88.6041 286.891 88.6851C286.919 88.7102 286.945 88.7369 286.969 88.7651C287.035 88.8524 287.073 88.9575 287.079 89.0667C287.085 89.176 287.058 89.2845 287.002 89.3785C286.946 89.4724 286.863 89.5475 286.764 89.5941C286.665 89.6407 286.554 89.6567 286.446 89.6401V89.6339ZM282.268 91.1414C282.035 90.9853 281.77 90.8854 281.492 90.8496C281.215 90.8138 280.933 90.8431 280.669 90.9351C280.846 90.3249 281.118 89.7465 281.476 89.2214C282.063 88.2502 282.985 87.5273 284.068 87.1889C284.223 87.1502 284.358 87.0532 284.444 86.9177C284.531 86.7823 284.561 86.6189 284.53 86.4615C284.499 86.304 284.409 86.1644 284.278 86.0718C284.147 85.9792 283.985 85.9405 283.826 85.9639C282.417 86.359 281.209 87.2709 280.443 88.5176C279.793 89.4364 279.388 90.5054 279.266 91.6239C279.188 92.0894 279.238 92.5673 279.408 93.0073C279.579 93.4472 279.866 93.833 280.238 94.1239C280.535 94.3277 280.888 94.4371 281.249 94.4376C281.363 94.4376 281.477 94.4263 281.589 94.4039C281.94 94.3377 282.263 94.1688 282.518 93.9186C282.773 93.6684 282.948 93.3482 283.021 92.9985C283.093 92.6488 283.061 92.2854 282.926 91.9543C282.792 91.6232 282.563 91.3394 282.268 91.1389V91.1414ZM281.711 92.9464C281.67 93.0067 281.618 93.0584 281.557 93.0983C281.496 93.1382 281.428 93.1656 281.356 93.1789C281.285 93.1936 281.211 93.1937 281.14 93.1791C281.069 93.1645 281.001 93.1355 280.941 93.0939C280.883 93.0491 280.832 92.9965 280.789 92.9376C280.75 92.8766 280.722 92.8087 280.708 92.7376C280.694 92.6662 280.694 92.5927 280.709 92.5215C280.724 92.4502 280.753 92.3826 280.794 92.3226C280.845 92.2483 280.913 92.1874 280.992 92.1452C281.071 92.1029 281.16 92.0806 281.25 92.0801C281.361 92.0796 281.47 92.1127 281.561 92.1751C281.683 92.2578 281.767 92.3853 281.795 92.5298C281.823 92.6743 281.793 92.824 281.711 92.9464ZM275.959 101.044C276.345 100.826 276.661 100.502 276.87 100.111C277.079 99.7194 277.171 99.2763 277.136 98.8341C277.101 98.3919 276.94 97.9689 276.672 97.6152C276.404 97.2614 276.041 96.9916 275.625 96.8376C275.064 96.6349 274.446 96.6557 273.899 96.8957C273.353 97.1357 272.919 97.5765 272.688 98.127C272.457 98.6775 272.447 99.2956 272.659 99.8536C272.871 100.412 273.289 100.867 273.828 101.125C273.841 101.135 273.849 101.15 273.864 101.16L276.888 103.136C277.073 103.299 277.222 103.499 277.325 103.723C277.429 103.947 277.484 104.19 277.488 104.437C277.491 104.683 277.443 104.928 277.347 105.155C277.25 105.382 277.107 105.586 276.926 105.754C276.727 105.939 276.489 106.075 276.229 106.153C275.969 106.232 275.694 106.249 275.426 106.205C274.868 106.111 274.514 105.644 274.11 105.04C273.675 104.377 273.295 103.68 272.973 102.956C272.783 102.546 272.598 102.13 272.419 101.714C272.224 101.268 272.03 100.821 271.824 100.38C271.65 99.9081 271.383 99.4755 271.04 99.108C270.697 98.7405 270.283 98.4454 269.824 98.2401C269.439 98.0885 269.022 98.0399 268.613 98.0991C268.204 98.1583 267.817 98.3232 267.491 98.5776C267.01 98.9633 266.702 99.5241 266.635 100.137C266.567 100.75 266.746 101.364 267.131 101.845C267.181 101.914 267.244 101.972 267.317 102.015C267.389 102.059 267.47 102.087 267.554 102.098C267.638 102.11 267.723 102.104 267.805 102.081C267.887 102.059 267.963 102.02 268.029 101.967C268.095 101.914 268.15 101.848 268.189 101.773C268.229 101.698 268.253 101.616 268.261 101.532C268.268 101.447 268.258 101.362 268.231 101.282C268.204 101.201 268.161 101.127 268.105 101.064C267.927 100.841 267.845 100.557 267.876 100.274C267.907 99.9907 268.049 99.7313 268.271 99.5526C268.428 99.4357 268.613 99.361 268.807 99.3356C269.001 99.3102 269.198 99.335 269.38 99.4076C269.995 99.7185 270.464 100.257 270.689 100.908C270.89 101.339 271.08 101.783 271.271 102.213C271.463 102.643 271.646 103.061 271.836 103.481C272.186 104.263 272.599 105.016 273.07 105.731C273.288 106.15 273.592 106.518 273.962 106.811C274.332 107.104 274.76 107.315 275.218 107.431C275.38 107.458 275.544 107.472 275.709 107.471C276.33 107.474 276.937 107.284 277.446 106.928C277.955 106.573 278.341 106.068 278.553 105.484C278.764 104.9 278.789 104.265 278.625 103.666C278.462 103.067 278.117 102.533 277.638 102.138L275.959 101.044ZM275.826 99.4014C275.758 99.5873 275.639 99.7509 275.484 99.8743C275.329 99.9977 275.143 100.076 274.947 100.101C274.75 100.126 274.55 100.097 274.369 100.017C274.188 99.9362 274.033 99.8076 273.92 99.6448C273.806 99.4821 273.74 99.2914 273.728 99.0936C273.715 98.8958 273.758 98.6984 273.85 98.5229C273.942 98.3474 274.08 98.2005 274.25 98.0982C274.42 97.9959 274.614 97.9421 274.813 97.9426C274.94 97.942 275.068 97.9644 275.188 98.0089C275.321 98.0581 275.444 98.1333 275.548 98.23C275.652 98.3267 275.737 98.4431 275.796 98.5725C275.855 98.7018 275.889 98.8417 275.894 98.9839C275.899 99.1262 275.876 99.268 275.826 99.4014ZM263.75 107.721C263.625 103.553 263.558 102.46 262.644 102.415C261.676 102.359 261.548 103.446 261 107.578C260.861 108.62 260.675 110.026 260.5 110.953C260.348 109.8 260.298 108.636 260.353 107.475C260.556 105.686 260.634 103.93 260.661 103.063C260.666 102.901 260.609 102.744 260.5 102.625C260.392 102.505 260.242 102.432 260.081 102.42C259.921 102.41 259.762 102.462 259.638 102.565C259.514 102.668 259.434 102.814 259.415 102.974C259.32 103.833 259.145 105.599 259.096 107.393C259.04 108.851 258.709 110.285 258.121 111.62C257.974 111.414 257.606 110.579 257.696 107.421C258.211 105.9 258.193 104.248 257.648 102.738C258.001 102.368 258.405 101.977 258.859 101.564C258.981 101.452 259.055 101.296 259.062 101.131C259.07 100.965 259.012 100.803 258.9 100.68C258.788 100.557 258.632 100.484 258.467 100.476C258.301 100.469 258.139 100.527 258.016 100.639C257.731 100.899 257.464 101.151 257.215 101.396C256.989 100.78 256.79 100.339 256.726 100.2C256.654 100.054 256.528 99.9425 256.374 99.8883C256.221 99.8341 256.053 99.8418 255.905 99.9098C255.757 99.9778 255.642 100.101 255.583 100.253C255.525 100.404 255.527 100.573 255.591 100.723C255.839 101.275 256.055 101.84 256.239 102.416C253.278 105.724 253.856 107.434 254.31 108.069C254.471 108.293 254.684 108.475 254.93 108.6C255.176 108.726 255.449 108.79 255.725 108.789C255.969 108.784 256.21 108.73 256.433 108.628C256.456 111.469 256.916 112.734 257.951 112.908C258.108 112.935 258.269 112.926 258.423 112.883C258.576 112.84 258.718 112.763 258.838 112.658C259.104 112.406 259.309 112.096 259.436 111.753C259.51 112.029 259.637 112.288 259.811 112.515C259.907 112.634 260.026 112.731 260.162 112.8C260.298 112.87 260.447 112.91 260.599 112.918C261.496 112.925 261.691 111.881 262.238 107.748C262.3 107.28 262.371 106.74 262.448 106.204C262.47 106.746 262.485 107.291 262.499 107.764C262.624 111.933 262.691 113.025 263.606 113.07H263.638C263.767 113.071 263.893 113.031 263.999 112.956C264.105 112.882 264.185 112.776 264.229 112.654C264.272 112.532 264.277 112.4 264.241 112.275C264.206 112.151 264.133 112.04 264.033 111.959C263.839 110.555 263.745 109.139 263.75 107.721ZM256.615 106.788C256.578 106.825 256.546 106.867 256.52 106.913C256.398 107.144 256.211 107.335 255.981 107.46C255.875 107.524 255.748 107.546 255.627 107.522C255.505 107.497 255.396 107.429 255.323 107.329C255.038 106.933 255.096 105.791 256.633 103.873C256.905 104.826 256.9 105.838 256.615 106.788ZM246.391 102.61C246.298 102.515 246.176 102.453 246.044 102.435C245.912 102.418 245.778 102.445 245.664 102.513C245.541 102.583 245.442 102.69 245.382 102.818C245.322 102.947 245.304 103.091 245.329 103.23C245.404 103.668 245.335 104.118 245.131 104.513C244.928 104.908 244.602 105.226 244.201 105.419C243.801 105.612 243.349 105.67 242.913 105.583C242.478 105.496 242.082 105.269 241.786 104.937C241.491 104.606 241.311 104.187 241.275 103.744C241.239 103.301 241.348 102.859 241.586 102.483C241.823 102.108 242.177 101.82 242.593 101.663C243.008 101.507 243.464 101.49 243.89 101.615C244.02 101.653 244.159 101.648 244.286 101.6C244.413 101.552 244.521 101.464 244.593 101.349C244.666 101.235 244.699 101.1 244.688 100.965C244.677 100.829 244.623 100.702 244.533 100.6L241.833 97.5676C241.779 97.5015 241.714 97.4469 241.639 97.4071C241.564 97.3673 241.482 97.3431 241.397 97.336C241.313 97.329 241.228 97.3392 241.147 97.366C241.067 97.3928 240.993 97.4357 240.93 97.492C240.866 97.5484 240.815 97.617 240.779 97.6937C240.743 97.7705 240.723 97.8538 240.72 97.9385C240.718 98.0232 240.732 98.1076 240.763 98.1865C240.794 98.2654 240.841 98.3373 240.9 98.3976L242.636 100.35C241.854 100.513 241.157 100.956 240.677 101.594C240.196 102.233 239.964 103.024 240.023 103.821C240.082 104.618 240.429 105.367 240.999 105.927C241.569 106.488 242.323 106.822 243.121 106.868C243.188 106.868 243.253 106.874 243.316 106.874C244.017 106.872 244.7 106.648 245.265 106.232C245.83 105.817 246.248 105.233 246.459 104.564L248.063 106.365C248.175 106.479 248.327 106.546 248.487 106.551C248.647 106.556 248.803 106.5 248.923 106.393C249.043 106.287 249.117 106.138 249.13 105.979C249.144 105.819 249.095 105.66 248.995 105.535L246.391 102.61ZM243.929 95.7014C243.817 95.5838 243.664 95.5142 243.502 95.5074C243.34 95.5005 243.182 95.5569 243.06 95.6647C242.939 95.7724 242.865 95.9231 242.852 96.0848C242.84 96.2465 242.891 96.4067 242.995 96.5314L250.165 104.583C250.275 104.706 250.43 104.781 250.596 104.79C250.761 104.8 250.924 104.743 251.048 104.633C251.171 104.522 251.246 104.367 251.255 104.202C251.265 104.036 251.208 103.874 251.098 103.75L243.929 95.7014ZM241.29 91.6601C241.054 90.8176 240.083 90.9739 236.415 91.6939C235.665 91.8439 234.686 92.0351 233.915 92.1589C234.716 91.8074 235.539 91.506 236.378 91.2564C237.93 90.9214 239.413 90.4926 240.145 90.2701C240.3 90.2235 240.431 90.1187 240.51 89.9777C240.589 89.8367 240.61 89.6705 240.57 89.514C240.529 89.3576 240.429 89.223 240.291 89.1386C240.153 89.0542 239.988 89.0265 239.83 89.0614C239.088 89.2239 237.571 89.5739 236.054 90.0414C234.855 90.3721 233.612 90.5117 232.37 90.4551C233.352 89.7566 234.469 89.2688 235.649 89.0226C236.248 88.8601 239.264 87.9676 239.774 86.3614C239.792 86.2939 239.807 86.2255 239.818 86.1564C239.958 86.1917 240.105 86.1774 240.236 86.1159C240.367 86.0545 240.472 85.9497 240.534 85.8193C240.597 85.689 240.612 85.5411 240.577 85.4009C240.543 85.2606 240.461 85.1367 240.345 85.0501L238.948 84.0351C238.871 83.9793 238.783 83.9417 238.69 83.925C238.596 83.9083 238.5 83.913 238.409 83.9387C238.318 83.9645 238.234 84.0107 238.163 84.0737C238.093 84.1367 238.037 84.215 238.001 84.3026L237.354 85.8839C237.312 85.9707 237.292 86.0666 237.296 86.163C237.299 86.2594 237.327 86.3534 237.375 86.4368C237.424 86.5202 237.492 86.5904 237.574 86.6413C237.656 86.6922 237.749 86.7223 237.845 86.7289C237.05 87.2098 236.193 87.5775 235.296 87.8214C232.099 88.8001 230.864 89.6426 231.038 90.7289C231.064 90.8781 231.122 91.0199 231.208 91.1444C231.295 91.2689 231.407 91.3732 231.538 91.4501C231.778 91.5835 232.044 91.664 232.318 91.6864C232.156 91.8094 232.017 91.9595 231.908 92.1301C231.83 92.2526 231.779 92.3902 231.759 92.5336C231.738 92.6771 231.749 92.8233 231.789 92.9626C232.029 93.7939 232.996 93.6401 236.664 92.9214L237.19 92.8189L236.69 93.0039C233.19 94.3051 232.278 94.6801 232.515 95.5214C232.552 95.6523 232.631 95.7676 232.739 95.8497C232.848 95.9319 232.98 95.9763 233.116 95.9764C233.174 95.9762 233.231 95.9686 233.286 95.9539C233.377 95.9282 233.461 95.8822 233.532 95.8194C233.602 95.7566 233.658 95.6787 233.694 95.5914C234.805 95.0452 235.951 94.5729 237.125 94.1776C240.625 92.8751 241.528 92.5001 241.29 91.6601ZM231.475 80.8901L232.975 80.0989L234.281 82.5776C234.334 82.6783 234.414 82.7625 234.511 82.8213C234.608 82.8801 234.72 82.9113 234.834 82.9114C234.936 82.9117 235.036 82.8868 235.126 82.8389C235.273 82.7615 235.382 82.6292 235.431 82.471C235.48 82.3128 235.465 82.1417 235.388 81.9951L234.08 79.5164L235.729 78.6414C235.801 78.603 235.866 78.5508 235.918 78.4876C235.971 78.4244 236.01 78.3514 236.034 78.273C236.059 78.1945 236.067 78.112 236.06 78.0303C236.052 77.9485 236.028 77.869 235.99 77.7964C235.952 77.7237 235.899 77.6593 235.836 77.6069C235.773 77.5545 235.7 77.515 235.622 77.4907C235.543 77.4665 235.461 77.4579 235.379 77.4655C235.297 77.4731 235.218 77.4968 235.145 77.5351L233.498 78.4101L231.703 75.0001L233.599 75.5164C233.758 75.5577 233.927 75.5345 234.069 75.4519C234.212 75.3693 234.316 75.2339 234.359 75.0751C234.402 74.9164 234.381 74.747 234.3 74.6038C234.219 74.4606 234.085 74.355 233.926 74.3101L230.643 73.4164C230.585 73.4049 230.527 73.4016 230.469 73.4064C230.455 73.4064 230.443 73.3964 230.429 73.3976H230.415C230.311 73.41 230.211 73.4487 230.126 73.5101C230.105 73.5258 230.085 73.543 230.066 73.5614C229.999 73.6228 229.945 73.6983 229.91 73.7826C229.91 73.7951 229.891 73.8026 229.886 73.8164L228.84 76.9301C228.787 77.0873 228.799 77.2589 228.873 77.4073C228.947 77.5557 229.077 77.6686 229.234 77.7214C229.312 77.7485 229.394 77.7598 229.476 77.7546C229.558 77.7494 229.639 77.7279 229.712 77.6912C229.786 77.6545 229.852 77.6034 229.905 77.541C229.959 77.4786 230 77.406 230.025 77.3276L230.606 75.5964L232.393 78.9864L230.893 79.7776C230.769 79.8425 230.67 79.9471 230.612 80.0747C230.555 80.2023 230.542 80.3454 230.576 80.4813C230.609 80.6171 230.687 80.7378 230.798 80.8239C230.908 80.91 231.044 80.9567 231.184 80.9564C231.285 80.9579 231.385 80.9351 231.475 80.8901ZM234.303 69.0001C234.58 69.0937 234.871 69.1418 235.164 69.1426C235.617 69.1479 236.062 69.0173 236.44 68.7676C236.598 68.6586 236.741 68.5282 236.864 68.3801L236.876 68.3889C237.317 69.0798 237.524 69.8939 237.468 70.7114C237.432 70.8797 237.359 71.0379 237.254 71.1745C237.149 71.3112 237.016 71.4228 236.863 71.5014C236.788 71.5404 236.722 71.5942 236.668 71.6595C236.615 71.7247 236.575 71.8001 236.552 71.881C236.528 71.962 236.522 72.0469 236.532 72.1305C236.542 72.2142 236.569 72.295 236.611 72.3679C236.653 72.4409 236.71 72.5046 236.777 72.5552C236.845 72.6058 236.922 72.6422 237.004 72.6622C237.085 72.6823 237.17 72.6856 237.254 72.6719C237.337 72.6582 237.416 72.6278 237.488 72.5826C237.791 72.4158 238.054 72.1861 238.261 71.9088C238.468 71.6315 238.613 71.3131 238.686 70.9751C238.804 70.2792 238.73 69.5643 238.471 68.9076C239.015 68.8855 239.543 68.7124 239.994 68.4076C240.554 68.0856 240.965 67.5565 241.138 66.9343C241.312 66.3121 241.234 65.6467 240.921 65.0814C240.513 64.5813 239.924 64.2617 239.282 64.1916C238.641 64.1214 237.997 64.3063 237.49 64.7064C237.33 64.8166 237.181 64.9422 237.045 65.0814C236.795 64.56 236.426 64.1042 235.969 63.7501C235.837 63.6565 235.675 63.6173 235.515 63.6407C235.356 63.6641 235.211 63.7483 235.112 63.8756C235.014 64.003 234.968 64.1637 234.984 64.3241C235.001 64.4845 235.079 64.6322 235.203 64.7364C235.42 64.9067 235.609 65.1105 235.763 65.3401C236.36 66.2226 236.349 67.3176 235.739 67.7314C235.583 67.8249 235.409 67.8811 235.228 67.8956C235.047 67.9101 234.866 67.8826 234.698 67.8151C234.21 67.6357 233.794 67.3039 233.51 66.8689C233.308 66.5743 233.169 66.2411 233.101 65.8901C233.069 65.7285 232.975 65.586 232.839 65.4926C232.703 65.3993 232.536 65.3625 232.374 65.3901C232.211 65.4205 232.067 65.5141 231.973 65.6505C231.88 65.7869 231.844 65.9549 231.874 66.1176C231.973 66.6388 232.178 67.1341 232.476 67.5726C232.913 68.2345 233.555 68.7357 234.303 69.0001ZM237.528 66.5964C237.649 66.246 237.883 65.9458 238.194 65.7426C238.47 65.5506 238.797 65.4445 239.134 65.4376C239.277 65.4289 239.42 65.4554 239.551 65.5146C239.682 65.5739 239.796 65.6642 239.884 65.7776C240.183 66.2189 239.911 66.9464 239.291 67.3676C238.987 67.5805 238.621 67.6869 238.25 67.6701C238.102 67.6566 237.958 67.6119 237.828 67.5389C237.703 67.3239 237.596 67.1726 237.56 67.1214C237.541 67.0991 237.521 67.0778 237.5 67.0576C237.474 66.9042 237.484 66.7457 237.528 66.5964ZM242 59.7064C242.166 59.7064 242.325 59.6405 242.442 59.5233C242.559 59.4061 242.625 59.2471 242.625 59.0814L242.638 56.8314L244.201 57.6714C244.296 57.7231 244.403 57.7492 244.511 57.7473C244.619 57.7454 244.725 57.7154 244.818 57.6604C244.911 57.6053 244.988 57.5271 245.042 57.4332C245.096 57.3394 245.125 57.2333 245.125 57.1251L245.138 54.8751L246.703 55.7139C246.797 55.7649 246.904 55.7906 247.011 55.7884C247.119 55.7863 247.224 55.7563 247.317 55.7015C247.41 55.6466 247.487 55.5688 247.54 55.4755C247.594 55.3822 247.623 55.2765 247.624 55.1689L247.64 52.9189L249.208 53.7576C249.353 53.834 249.523 53.8497 249.681 53.8014C249.838 53.753 249.97 53.6446 250.048 53.4995C250.126 53.3545 250.143 53.1846 250.097 53.0267C250.05 52.8688 249.943 52.7358 249.799 52.6564L247.318 51.3339C247.223 51.2828 247.116 51.2571 247.008 51.2593C246.901 51.2615 246.795 51.2916 246.702 51.3466C246.61 51.4016 246.533 51.4796 246.479 51.5731C246.426 51.6666 246.397 51.7723 246.396 51.8801L246.38 54.1301L244.814 53.2901C244.719 53.239 244.612 53.2133 244.505 53.2156C244.397 53.2178 244.291 53.2479 244.199 53.3028C244.106 53.3578 244.029 53.4358 243.975 53.5293C243.922 53.6228 243.893 53.7286 243.893 53.8364L243.88 56.0864L242.316 55.2501C242.221 55.199 242.115 55.1733 242.007 55.1756C241.899 55.1779 241.793 55.208 241.701 55.2632C241.608 55.3183 241.531 55.3965 241.477 55.4901C241.424 55.5838 241.395 55.6897 241.395 55.7976L241.375 59.0776C241.375 59.16 241.39 59.2417 241.422 59.3179C241.453 59.3942 241.499 59.4635 241.557 59.522C241.615 59.5804 241.684 59.6268 241.76 59.6584C241.836 59.6901 241.918 59.7064 242 59.7064Z" fill="#232323"/>
<path d="M248.344 53.8749C248.251 53.9291 248.174 54.0067 248.12 54.0998C248.066 54.193 248.038 54.2986 248.038 54.4062L248.02 56.6562L246.454 55.8162C246.359 55.7653 246.252 55.7399 246.145 55.7423C246.037 55.7448 245.932 55.775 245.839 55.8301C245.747 55.8852 245.67 55.9632 245.616 56.0567C245.563 56.1502 245.534 56.256 245.534 56.3637L245.52 58.6137L243.956 57.7737C243.861 57.7229 243.755 57.6974 243.647 57.6998C243.54 57.7022 243.435 57.7323 243.342 57.7872C243.25 57.8422 243.173 57.9201 243.119 58.0134C243.066 58.1067 243.037 58.2123 243.036 58.3199L243.016 61.6049C243.016 61.7707 243.082 61.9297 243.199 62.0469C243.317 62.1641 243.475 62.2299 243.641 62.2299C243.807 62.2299 243.966 62.1641 244.083 62.0469C244.2 61.9297 244.266 61.7707 244.266 61.6049L244.28 59.3549L245.844 60.1949C245.939 60.2457 246.045 60.2712 246.153 60.2688C246.26 60.2664 246.365 60.2363 246.458 60.1813C246.55 60.1264 246.627 60.0485 246.681 59.9552C246.734 59.8619 246.763 59.7563 246.764 59.6487L246.778 57.3987L248.343 58.2374C248.437 58.2882 248.544 58.3137 248.651 58.3113C248.759 58.3089 248.864 58.2788 248.957 58.2238C249.049 58.1689 249.126 58.091 249.18 57.9977C249.233 57.9044 249.262 57.7988 249.263 57.6912L249.28 55.4412L250.848 56.2799C250.993 56.3519 251.161 56.3644 251.315 56.315C251.47 56.2655 251.599 56.1579 251.676 56.0149C251.752 55.8718 251.77 55.7046 251.726 55.5486C251.681 55.3926 251.578 55.2599 251.438 55.1787L248.958 53.8512C248.862 53.802 248.755 53.7783 248.648 53.7824C248.54 53.7866 248.435 53.8185 248.344 53.8749ZM260.584 59.7224C256.726 59.7224 252.954 60.8665 249.746 63.01C246.538 65.1535 244.038 68.2002 242.561 71.7647C241.085 75.3293 240.698 79.2516 241.451 83.0356C242.204 86.8197 244.062 90.2956 246.79 93.0238C249.518 95.752 252.994 97.6099 256.778 98.3626C260.562 99.1153 264.484 98.729 268.049 97.2525C271.613 95.776 274.66 93.2757 276.804 90.0677C278.947 86.8597 280.091 83.0881 280.091 79.2299C280.085 74.058 278.028 69.0997 274.371 65.4426C270.714 61.7855 265.756 59.7284 260.584 59.7224ZM260.584 96.2374C257.22 96.2374 253.932 95.2399 251.135 93.3711C248.338 91.5023 246.158 88.8461 244.871 85.7384C243.584 82.6307 243.247 79.2111 243.903 75.9119C244.559 72.6128 246.179 69.5823 248.558 67.2038C250.936 64.8253 253.967 63.2055 257.266 62.5492C260.565 61.893 263.985 62.2298 267.092 63.517C270.2 64.8043 272.856 66.9842 274.725 69.7811C276.594 72.5779 277.591 75.8662 277.591 79.2299C277.586 83.7391 275.793 88.0621 272.604 91.2506C269.416 94.439 265.093 96.2325 260.584 96.2374Z" fill="#232323"/>
<path d="M260.46 69.1462C258.419 69.1462 256.425 69.7514 254.728 70.8851C253.031 72.0188 251.709 73.6301 250.928 75.5154C250.147 77.4007 249.943 79.4752 250.341 81.4766C250.739 83.478 251.721 85.3164 253.164 86.7593C254.607 88.2022 256.446 89.1849 258.447 89.583C260.449 89.9811 262.523 89.7768 264.408 88.9959C266.294 88.215 267.905 86.8925 269.039 85.1958C270.172 83.4991 270.777 81.5043 270.777 79.4637C270.774 76.7284 269.686 74.106 267.752 72.1718C265.818 70.2376 263.195 69.1495 260.46 69.1462ZM260.46 87.2812C258.914 87.2812 257.402 86.8228 256.117 85.9638C254.831 85.1048 253.829 83.8838 253.238 82.4554C252.646 81.0269 252.491 79.4551 252.793 77.9386C253.094 76.4222 253.839 75.0292 254.932 73.9359C256.025 72.8426 257.418 72.0981 258.935 71.7965C260.451 71.4948 262.023 71.6496 263.452 72.2413C264.88 72.833 266.101 73.835 266.96 75.1206C267.819 76.4062 268.277 77.9176 268.277 79.4637C268.275 81.5364 267.451 83.5234 265.985 84.989C264.52 86.4546 262.533 87.2789 260.46 87.2812Z" fill="#232323"/>
<path d="M260.645 94.7237C261.174 94.7237 261.604 94.2944 261.604 93.7649C261.604 93.2354 261.174 92.8062 260.645 92.8062C260.115 92.8062 259.686 93.2354 259.686 93.7649C259.686 94.2944 260.115 94.7237 260.645 94.7237Z" fill="#F6B884"/>
<path d="M260.645 65.1638C261.174 65.1638 261.604 64.7346 261.604 64.2051C261.604 63.6756 261.174 63.2463 260.645 63.2463C260.115 63.2463 259.686 63.6756 259.686 64.2051C259.686 64.7346 260.115 65.1638 260.645 65.1638Z" fill="#F6B884"/>
<path d="M275.463 79.2437C275.992 79.2437 276.421 78.8144 276.421 78.2849C276.421 77.7554 275.992 77.3262 275.463 77.3262C274.933 77.3262 274.504 77.7554 274.504 78.2849C274.504 78.8144 274.933 79.2437 275.463 79.2437Z" fill="#F6B884"/>
<path d="M245.385 79.2437C245.915 79.2437 246.344 78.8144 246.344 78.2849C246.344 77.7554 245.915 77.3262 245.385 77.3262C244.856 77.3262 244.426 77.7554 244.426 78.2849C244.426 78.8144 244.856 79.2437 245.385 79.2437Z" fill="#F6B884"/>
<path d="M273.695 116.176C273.549 116.176 273.408 116.125 273.297 116.031C273.185 115.938 273.109 115.809 273.082 115.666C273.055 115.523 273.08 115.375 273.15 115.247C273.221 115.12 273.334 115.022 273.47 114.969C277.971 113.235 282.093 110.646 285.609 107.344C285.73 107.23 285.891 107.17 286.057 107.175C286.222 107.18 286.379 107.251 286.492 107.372C286.606 107.493 286.667 107.655 286.661 107.82C286.656 107.986 286.585 108.143 286.464 108.256C282.831 111.667 278.571 114.341 273.92 116.131C273.848 116.16 273.772 116.175 273.695 116.176ZM225.285 64.9287C225.196 64.9291 225.107 64.9099 225.026 64.8725C224.876 64.804 224.758 64.6786 224.7 64.5237C224.641 64.3688 224.647 64.1971 224.715 64.0462C226.755 59.5336 229.645 55.456 233.228 52.0362C233.347 51.9217 233.508 51.8594 233.674 51.8632C233.839 51.8669 233.997 51.9364 234.111 52.0562C234.226 52.1761 234.288 52.3365 234.284 52.5022C234.281 52.668 234.211 52.8254 234.091 52.94C230.624 56.2501 227.828 60.197 225.854 64.565C225.804 64.6737 225.724 64.7658 225.623 64.8303C225.522 64.8947 225.405 64.9289 225.285 64.9287Z" fill="#232323"/>
</g>
<defs>
<clipPath id="clip0_7379_13636">
<rect width="300" height="120" rx="12" fill="white"/>
</clipPath>
</defs>
</svg>
