<svg width="49" height="48" viewBox="0 0 49 48" fill="none" xmlns="http://www.w3.org/2000/svg">
<path d="M24.2487 38.9071C32.2211 38.9071 38.684 32.4442 38.684 24.4719C38.684 16.4995 32.2211 10.0366 24.2487 10.0366C16.2764 10.0366 9.81348 16.4995 9.81348 24.4719C9.81348 32.4442 16.2764 38.9071 24.2487 38.9071Z" fill="#FFDDB5"/>
<path d="M41.2625 21.525L41.2175 35.67C41.2146 36.2966 41.0872 36.9163 40.8425 37.4931C40.5979 38.07 40.241 38.5924 39.7925 39.03C38.675 40.1175 36.1925 41.5425 36.1925 43.1025L36.125 46.4925H33.95L34.0175 43.4175C34.0175 41.775 36.4925 40.2825 37.61 39.1425C38.523 38.196 39.0338 36.9326 39.035 35.6175L39.0725 20.7675C39.0742 20.4528 39.0023 20.142 38.8625 19.86L38.84 19.77C39.0098 19.7159 39.1868 19.6881 39.365 19.6875H39.4325C39.6733 19.688 39.9117 19.7359 40.134 19.8285C40.3563 19.9211 40.5581 20.0566 40.7281 20.2272C40.898 20.3979 41.0327 20.6003 41.1244 20.823C41.2161 21.0456 41.263 21.2842 41.2625 21.525ZM41.1875 24.255V21.8625C41.1875 21.6218 41.0919 21.391 40.9217 21.2208C40.7515 21.0506 40.5207 20.955 40.28 20.955C40.0393 20.955 39.8085 21.0506 39.6383 21.2208C39.4681 21.391 39.3725 21.6218 39.3725 21.8625V24.255H41.1875Z" fill="#F2EEF7"/>
<path d="M41.1875 21.8626V24.2551H39.3725V21.8626C39.3725 21.6219 39.4681 21.3911 39.6383 21.2209C39.8085 21.0507 40.0393 20.9551 40.28 20.9551C40.5207 20.9551 40.7515 21.0507 40.9217 21.2209C41.0919 21.3911 41.1875 21.6219 41.1875 21.8626Z" fill="#8C64B4"/>
<path d="M37.4375 30.12L37.46 30.1125L37.535 21.525C37.5363 21.1314 37.6637 20.7485 37.8986 20.4327C38.1335 20.1168 38.4634 19.8845 38.84 19.77L38.8625 19.86C39.0023 20.142 39.0742 20.4528 39.0725 20.7675L39.035 35.6175C39.0338 36.9326 38.523 38.196 37.61 39.1425C36.4925 40.2825 34.0175 41.775 34.0175 43.4175L33.95 46.4925H28.3325L28.355 39.165C28.3836 38.7076 28.4514 38.2534 28.5575 37.8075L28.7225 37.56L34.3025 29.7075C34.5807 29.3218 34.9997 29.0614 35.4687 28.9828C35.9377 28.9041 36.4188 29.0136 36.8075 29.2875C37.0991 29.4926 37.3193 29.7837 37.4375 30.12ZM37.235 31.7175C37.3497 31.5634 37.4127 31.3771 37.415 31.185C37.4135 31.0419 37.3788 30.901 37.3137 30.7735C37.2487 30.646 37.155 30.5353 37.04 30.45C36.9443 30.3787 36.8354 30.3272 36.7196 30.2983C36.6038 30.2695 36.4834 30.264 36.3654 30.2822C36.2475 30.3003 36.1343 30.3418 36.0325 30.404C35.9307 30.4663 35.8424 30.5483 35.7725 30.645L34.355 32.5725L35.8175 33.6525L37.235 31.7175Z" fill="#FDFDFD"/>
<path d="M37.415 31.185C37.4126 31.3771 37.3496 31.5634 37.235 31.7175L35.8175 33.6525L34.355 32.5725L35.7725 30.645C35.8423 30.5483 35.9307 30.4663 36.0325 30.4041C36.1343 30.3418 36.2475 30.3003 36.3654 30.2822C36.4834 30.264 36.6037 30.2695 36.7196 30.2984C36.8354 30.3272 36.9443 30.3787 37.04 30.45C37.155 30.5353 37.2486 30.646 37.3137 30.7735C37.3787 30.901 37.4134 31.0419 37.415 31.185Z" fill="#8C64B4"/>
<path d="M11.5625 30.1199C11.6807 29.7836 11.9009 29.4925 12.1925 29.2874C12.5812 29.0135 13.0623 28.904 13.5313 28.9827C14.0003 29.0613 14.4194 29.3217 14.6975 29.7074L20.2775 37.5599L20.4425 37.8074C20.5487 38.2533 20.6164 38.7075 20.645 39.1649L20.6675 46.4924H15.545L15.4625 43.0874C15.4625 41.4449 12.7325 39.9524 11.5025 38.8049C11.0138 38.3564 10.623 37.8118 10.3546 37.2053C10.0861 36.5987 9.94584 35.9432 9.94251 35.2799L9.88251 20.4299C9.88414 20.1904 9.93255 19.9534 10.025 19.7324C10.4322 19.8246 10.7962 20.052 11.0577 20.3775C11.3192 20.703 11.4628 21.1074 11.465 21.5249L11.54 30.1124L11.5625 30.1199ZM14.645 32.5724L13.2275 30.6449C13.1577 30.5482 13.0693 30.4662 12.9675 30.404C12.8657 30.3417 12.7525 30.3002 12.6346 30.2821C12.5166 30.2639 12.3962 30.2694 12.2804 30.2983C12.1646 30.3271 12.0557 30.3786 11.96 30.4499C11.845 30.5352 11.7514 30.6459 11.6863 30.7734C11.6212 30.9009 11.5866 31.0418 11.585 31.1849C11.5873 31.377 11.6503 31.5633 11.765 31.7174L13.1825 33.6524L14.645 32.5724Z" fill="#FDFDFD"/>
<path d="M15.4625 43.0875L15.545 46.4925H12.875L12.8075 43.1025C12.8075 41.5425 10.325 40.1175 9.20749 39.03C8.75905 38.5924 8.40212 38.07 8.15748 37.4931C7.91284 36.9163 7.78537 36.2966 7.78249 35.67L7.73749 21.525C7.737 21.2842 7.78394 21.0456 7.87564 20.823C7.96734 20.6003 8.102 20.3979 8.27193 20.2272C8.44186 20.0566 8.64374 19.9211 8.86603 19.8285C9.08832 19.7359 9.32668 19.688 9.56749 19.6875H9.63499C9.7663 19.6872 9.89719 19.7023 10.025 19.7325C9.93253 19.9535 9.88413 20.1904 9.88249 20.43L9.94249 35.28C9.94582 35.9433 10.0861 36.5988 10.3545 37.2053C10.623 37.8119 11.0138 38.3565 11.5025 38.805C12.7325 39.9525 15.4625 41.445 15.4625 43.0875ZM9.62749 24.255V21.8625C9.62749 21.6218 9.53188 21.391 9.36169 21.2208C9.1915 21.0506 8.96068 20.955 8.71999 20.955C8.47931 20.955 8.24848 21.0506 8.07829 21.2208C7.9081 21.391 7.81249 21.6218 7.81249 21.8625V24.255H9.62749Z" fill="#F2EEF7"/>
<path d="M13.2275 30.6451L14.645 32.5726L13.1825 33.6526L11.765 31.7176C11.6503 31.5635 11.5873 31.3771 11.585 31.1851C11.5866 31.0419 11.6212 30.9011 11.6863 30.7736C11.7513 30.6461 11.845 30.5354 11.96 30.4501C12.0557 30.3788 12.1646 30.3272 12.2804 30.2984C12.3962 30.2696 12.5166 30.2641 12.6346 30.2822C12.7525 30.3004 12.8657 30.3418 12.9675 30.4041C13.0693 30.4664 13.1577 30.5483 13.2275 30.6451ZM9.6275 21.8626V24.2551H7.8125V21.8626C7.8125 21.6219 7.90811 21.3911 8.0783 21.2209C8.24849 21.0507 8.47932 20.9551 8.72 20.9551C8.96068 20.9551 9.19151 21.0507 9.3617 21.2209C9.53189 21.3911 9.6275 21.6219 9.6275 21.8626Z" fill="#8C64B4"/>
<path d="M39.368 18.9404C38.6838 18.941 38.0277 19.2126 37.5433 19.6959C37.0589 20.1792 36.7857 20.8347 36.7835 21.5189L36.725 28.3926C36.1934 28.177 35.6047 28.147 35.054 28.3073C34.5032 28.4676 34.0226 28.8089 33.6898 29.2761L28.094 37.1511L27.932 37.3956L27.9395 37.4009C27.7379 37.9675 27.6266 38.5622 27.6095 39.1634L27.5855 46.4939C27.5855 46.6928 27.6645 46.8836 27.8052 47.0242C27.9458 47.1649 28.1366 47.2439 28.3355 47.2439H36.125C36.3211 47.2439 36.5094 47.1672 36.6496 47.0301C36.7898 46.893 36.8707 46.7064 36.875 46.5104L36.95 43.1054C36.95 42.3134 38.2348 41.2881 39.1723 40.5404C39.599 40.1999 40.0018 39.8774 40.3228 39.5654C40.8411 39.0578 41.2538 38.4525 41.537 37.7845C41.8202 37.1166 41.9683 36.3991 41.9728 35.6736L42.011 21.5249C42.009 21.1811 41.9388 20.8412 41.8045 20.5247C41.6703 20.2082 41.4746 19.9215 41.2288 19.6812C40.983 19.4408 40.692 19.2516 40.3726 19.1244C40.0532 18.9973 39.7117 18.9347 39.368 18.9404ZM40.2823 21.3276C40.3559 21.3277 40.4288 21.3433 40.496 21.3734C40.5044 21.423 40.5094 21.4731 40.511 21.5234L40.5035 23.8821H39.749V21.8571C39.7502 21.7164 39.8069 21.5819 39.9067 21.4827C40.0066 21.3836 40.1415 21.3278 40.2823 21.3276ZM36.7918 30.7379C36.8025 30.9596 36.7409 31.1789 36.6163 31.3626L35.4913 32.9459L34.8763 32.4959L36.0763 30.8676C36.1568 30.7592 36.2755 30.6854 36.4084 30.6613C36.5413 30.6372 36.6783 30.6646 36.7918 30.7379ZM39.275 38.4899C39.0073 38.7509 38.633 39.0501 38.2363 39.3666C36.9305 40.4091 35.45 41.5904 35.45 43.0881L35.3923 45.7431H29.0923L29.1133 39.1626C29.137 38.8074 29.1872 38.4544 29.2633 38.1066L34.9183 30.1431C35.0802 29.9184 35.3244 29.7668 35.5976 29.7213C35.8708 29.6757 36.151 29.74 36.377 29.9001L36.3853 29.9084C36.2062 29.9248 36.0326 29.979 35.876 30.0673C35.7193 30.1556 35.5831 30.276 35.4763 30.4206L34.0558 32.3511C34.0265 32.3908 34.0053 32.4359 33.9934 32.4837C33.9815 32.5316 33.9792 32.5814 33.9866 32.6301C33.994 32.6789 34.0109 32.7257 34.0364 32.7679C34.0619 32.8102 34.0955 32.8469 34.1353 32.8761L35.063 33.5586L31.154 39.0621C31.0902 39.1419 31.0433 39.2338 31.0163 39.3323C30.9892 39.4308 30.9826 39.5337 30.9967 39.6349C31.0109 39.736 31.0456 39.8332 31.0986 39.9205C31.1517 40.0077 31.222 40.0833 31.3053 40.1424C31.3885 40.2015 31.483 40.243 31.5829 40.2643C31.6828 40.2857 31.786 40.2864 31.8861 40.2664C31.9863 40.2464 32.0813 40.2062 32.1654 40.1482C32.2494 40.0902 32.3208 40.0157 32.375 39.9291L37.841 32.2334C38.0633 31.9196 38.2124 31.56 38.2773 31.181C38.3422 30.802 38.3213 30.4132 38.216 30.0434L38.291 21.5256C38.2931 21.3783 38.3247 21.2328 38.384 21.0979C38.4433 20.963 38.529 20.8413 38.6361 20.7402C38.7433 20.639 38.8696 20.5603 39.0077 20.5088C39.1458 20.4573 39.2928 20.434 39.44 20.4404C39.6429 20.4412 39.8414 20.4997 40.0123 20.6091C39.7274 20.6724 39.4726 20.8307 39.2898 21.0581C39.107 21.2855 39.0071 21.5684 39.0065 21.8601V24.2601C39.0065 24.3596 39.046 24.455 39.1163 24.5253C39.1867 24.5956 39.2821 24.6351 39.3815 24.6351H40.5065L40.4713 35.6714C40.4678 36.1969 40.3604 36.7165 40.1551 37.2003C39.9497 37.684 39.6506 38.1223 39.275 38.4899ZM21.0613 37.3979L21.0688 37.3926L15.3125 29.2776C14.9799 28.8096 14.499 28.4674 13.9477 28.3067C13.3965 28.1459 12.8071 28.176 12.275 28.3919L12.2165 21.5249C12.2165 20.8317 11.9411 20.1669 11.451 19.6767C10.9608 19.1865 10.296 18.9111 9.60276 18.9111C8.90955 18.9111 8.24474 19.1865 7.75456 19.6767C7.26439 20.1669 6.98901 20.8317 6.98901 21.5249L7.03476 35.6691C7.03923 36.3946 7.18734 37.1121 7.47053 37.78C7.75373 38.448 8.16641 39.0533 8.68476 39.5609C9.00576 39.8736 9.40851 40.1961 9.83526 40.5359C10.7728 41.2859 12.0575 42.3089 12.0575 43.1166L12.1325 46.5059C12.1368 46.7019 12.2177 46.8885 12.3579 47.0256C12.4981 47.1627 12.6864 47.2394 12.8825 47.2394H20.6653C20.8642 47.2394 21.0549 47.1604 21.1956 47.0197C21.3362 46.8791 21.4153 46.6883 21.4153 46.4894L21.3913 39.1611C21.3742 38.5597 21.2629 37.9647 21.0613 37.3979ZM12.383 31.3611C12.2585 31.1774 12.1972 30.9581 12.2083 30.7364C12.321 30.661 12.4585 30.6322 12.5921 30.656C12.7256 30.6797 12.8447 30.7542 12.9245 30.8639L14.1245 32.4929L13.5095 32.9429L12.383 31.3611ZM8.48901 21.5249C8.49058 21.4746 8.49584 21.4244 8.50476 21.3749C8.57173 21.3447 8.64433 21.3291 8.71776 21.3291C8.859 21.3293 8.99441 21.3855 9.09434 21.4853C9.19428 21.5851 9.25062 21.7204 9.25101 21.8616V23.8866H8.49651L8.48901 21.5249ZM13.6115 45.7424L13.5538 43.1039C13.5538 41.5896 12.0733 40.4084 10.7675 39.3659C10.3708 39.0494 9.99651 38.7501 9.72876 38.4891C9.35319 38.121 9.0543 37.6822 8.84936 37.1979C8.64441 36.7136 8.53749 36.1935 8.53476 35.6676L8.49951 24.6314H9.62451C9.72397 24.6314 9.81935 24.5919 9.88968 24.5215C9.96 24.4512 9.99951 24.3558 9.99951 24.2564V21.8564C9.99868 21.5668 9.89998 21.286 9.71945 21.0596C9.53891 20.8332 9.28714 20.6744 9.00501 20.6091C9.19355 20.4949 9.41007 20.4352 9.63051 20.4366C9.77345 20.437 9.91491 20.4656 10.0468 20.5207C10.1787 20.5758 10.2984 20.6564 10.3991 20.7578C10.4999 20.8592 10.5796 20.9795 10.6338 21.1118C10.688 21.244 10.7156 21.3857 10.715 21.5286L10.79 30.0396C10.6851 30.4093 10.6643 30.7977 10.7292 31.1764C10.7941 31.5552 10.943 31.9145 11.165 32.2281L16.625 39.9291C16.682 40.0095 16.7543 40.0778 16.8378 40.1301C16.9212 40.1825 17.0141 40.218 17.1112 40.2344C17.2083 40.2509 17.3077 40.2481 17.4038 40.2261C17.4998 40.2042 17.5906 40.1635 17.6709 40.1065C17.7512 40.0495 17.8195 39.9772 17.8719 39.8938C17.9243 39.8103 17.9597 39.7174 17.9762 39.6203C17.9927 39.5232 17.9898 39.4238 17.9679 39.3277C17.9459 39.2317 17.9053 39.141 17.8483 39.0606L13.9393 33.5571L14.867 32.8746C14.9068 32.8454 14.9403 32.8087 14.9659 32.7664C14.9914 32.7242 15.0083 32.6774 15.0157 32.6286C15.0231 32.5799 15.0208 32.5301 15.0089 32.4822C14.997 32.4344 14.9758 32.3893 14.9465 32.3496L13.529 30.4199C13.4221 30.2756 13.286 30.1555 13.1294 30.0675C12.9729 29.9795 12.7996 29.9255 12.6208 29.9091C12.6208 29.9091 12.6268 29.9009 12.6313 29.8979C12.8576 29.7386 13.1378 29.6752 13.4107 29.7214C13.6836 29.7676 13.9272 29.9197 14.0885 30.1446L19.6558 37.9761L19.742 38.1066C19.8182 38.4552 19.8683 38.8089 19.892 39.1649L19.913 45.7431L13.6115 45.7424Z" fill="#232323"/>
<path fill-rule="evenodd" clip-rule="evenodd" d="M30.601 8.27803L23.8825 1.55957L17.221 8.22104L10.5596 14.8825L17.278 21.601L23.9965 28.3194L30.658 21.658L37.3194 14.9965L30.601 8.27803ZM30.601 8.27803L17.221 8.22104L17.278 21.601L30.658 21.658L30.601 8.27803Z" fill="#8C64B4"/>
<path fill-rule="evenodd" clip-rule="evenodd" d="M23.88 0.977783L37.9011 14.9989L23.9989 28.9011L9.97781 14.88L23.88 0.977783ZM23.885 2.14126L11.1413 14.8849L23.994 27.7377L36.7377 14.994L23.885 2.14126Z" fill="#232323"/>
<path d="M30.601 8.27803L30.658 21.658L17.278 21.601L17.221 8.22104L30.601 8.27803Z" fill="#CCBADE"/>
<path fill-rule="evenodd" clip-rule="evenodd" d="M30.601 8.27803L28.8863 8.27073C28.8882 8.72509 29.2581 9.095 29.7125 9.09693L29.7818 9.09723L29.7821 9.16652C29.784 9.62089 30.1539 9.99079 30.6083 9.99273L30.601 8.27803ZM30.6127 11.0233C30.1583 11.0214 29.7915 11.3881 29.7935 11.8425L29.8011 13.6265C29.803 14.0809 30.1729 14.4508 30.6273 14.4527L30.6127 11.0233ZM30.6317 15.4833C30.1773 15.4814 29.8105 15.8481 29.8125 16.3025L29.8201 18.0865C29.822 18.5408 30.1919 18.9107 30.6463 18.9127L30.6317 15.4833ZM30.6507 19.9433C30.1963 19.9413 29.8295 20.3081 29.8315 20.7625L29.8318 20.8318L29.7625 20.8315C29.3081 20.8295 28.9413 21.1963 28.9433 21.6507L30.658 21.658L30.6507 19.9433ZM27.9127 21.6463C27.9107 21.1919 27.5408 20.822 27.0865 20.8201L25.3025 20.8125C24.8481 20.8105 24.4814 21.1773 24.4833 21.6317L27.9127 21.6463ZM23.4527 21.6273C23.4508 21.1729 23.0809 20.803 22.6265 20.8011L20.8425 20.7935C20.3881 20.7915 20.0214 21.1583 20.0233 21.6127L23.4527 21.6273ZM18.9927 21.6083C18.9908 21.1539 18.6209 20.784 18.1665 20.7821L18.0972 20.7818L18.0969 20.7125C18.095 20.2581 17.7251 19.8882 17.2707 19.8863L17.278 21.601L18.9927 21.6083ZM17.2663 18.8557C17.7207 18.8576 18.0875 18.4909 18.0855 18.0365L18.0779 16.2525C18.076 15.7981 17.7061 15.4282 17.2517 15.4263L17.2663 18.8557ZM17.2473 14.3957C17.7017 14.3976 18.0685 14.0309 18.0665 13.5765L18.0589 11.7925C18.057 11.3382 17.6871 10.9683 17.2327 10.9663L17.2473 14.3957ZM17.2283 9.93574C17.6827 9.93767 18.0495 9.57091 18.0475 9.11654L18.0472 9.04724L18.1165 9.04754C18.5709 9.04948 18.9377 8.68271 18.9357 8.22835L17.221 8.22104L17.2283 9.93574ZM19.9663 8.23273C19.9683 8.6871 20.3382 9.057 20.7925 9.05894L22.5765 9.06654C23.0309 9.06847 23.3976 8.70171 23.3957 8.24734L19.9663 8.23273ZM24.4263 8.25173C24.4282 8.7061 24.7981 9.076 25.2525 9.07794L27.0365 9.08553C27.4909 9.08747 27.8576 8.7207 27.8557 8.26634L24.4263 8.25173Z" fill="#232323"/>
<path fill-rule="evenodd" clip-rule="evenodd" d="M24.2939 1.56148C24.521 1.56245 24.706 1.7474 24.707 1.97458L24.7106 2.83915C24.7116 3.06634 24.5282 3.24972 24.301 3.24875C24.0739 3.24778 23.8889 3.06283 23.8879 2.83565L23.8843 1.97108C23.8833 1.7439 24.0667 1.56051 24.2939 1.56148ZM24.3086 5.01977C24.5358 5.02074 24.7207 5.20569 24.7217 5.43287L24.729 7.16202C24.73 7.3892 24.5466 7.57258 24.3195 7.57161C24.0923 7.57065 23.9073 7.38569 23.9063 7.15851L23.899 5.42937C23.898 5.20219 24.0814 5.0188 24.3086 5.01977ZM24.327 9.34263C24.5542 9.3436 24.7391 9.52855 24.7401 9.75573L24.7475 11.4849C24.7484 11.7121 24.565 11.8954 24.3379 11.8945C24.1107 11.8935 23.9257 11.7086 23.9248 11.4814L23.9174 9.75223C23.9164 9.52505 24.0998 9.34166 24.327 9.34263ZM24.3454 13.6655C24.5726 13.6665 24.7575 13.8514 24.7585 14.0786L24.7659 15.8077C24.7668 16.0349 24.5835 16.2183 24.3563 16.2173C24.1291 16.2164 23.9441 16.0314 23.9432 15.8042L23.9358 14.0751C23.9348 13.8479 24.1182 13.6645 24.3454 13.6655ZM24.3638 17.9884C24.591 17.9893 24.776 18.1743 24.7769 18.4015L24.7843 20.1306C24.7853 20.3578 24.6019 20.5412 24.3747 20.5402C24.1475 20.5392 23.9626 20.3543 23.9616 20.1271L23.9542 18.398C23.9533 18.1708 24.1366 17.9874 24.3638 17.9884ZM24.3822 22.3112C24.6094 22.3122 24.7944 22.4971 24.7953 22.7243L24.8027 24.4535C24.8037 24.6806 24.6203 24.864 24.3931 24.8631C24.1659 24.8621 23.981 24.6771 23.98 24.45L23.9726 22.7208C23.9717 22.4936 24.1551 22.3102 24.3822 22.3112ZM24.4006 26.6341C24.6278 26.635 24.8128 26.82 24.8138 27.0472L24.8174 27.9118C24.8184 28.1389 24.635 28.3223 24.4078 28.3213C24.1807 28.3204 23.9957 28.1354 23.9947 27.9082L23.9911 27.0437C23.9901 26.8165 24.1735 26.6331 24.4006 26.6341Z" fill="#232323"/>
<path fill-rule="evenodd" clip-rule="evenodd" d="M37.3212 15.408C37.3222 15.6352 37.1388 15.8186 36.9116 15.8176L36.047 15.8139C35.8198 15.8129 35.6349 15.628 35.6339 15.4008C35.6329 15.1736 35.8163 14.9902 36.0435 14.9912L36.9081 14.9949C37.1353 14.9959 37.3202 15.1808 37.3212 15.408ZM33.8629 15.3933C33.8639 15.6204 33.6805 15.8038 33.4533 15.8029L31.7242 15.7955C31.497 15.7945 31.312 15.6096 31.3111 15.3824C31.3101 15.1552 31.4935 14.9718 31.7206 14.9728L33.4498 14.9802C33.677 14.9811 33.8619 15.1661 33.8629 15.3933ZM29.54 15.3748C29.541 15.602 29.3576 15.7854 29.1304 15.7844L27.4013 15.7771C27.1741 15.7761 26.9892 15.5912 26.9882 15.364C26.9872 15.1368 27.1706 14.9534 27.3978 14.9544L29.1269 14.9617C29.3541 14.9627 29.5391 15.1477 29.54 15.3748ZM25.2172 15.3564C25.2181 15.5836 25.0348 15.767 24.8076 15.766L23.0784 15.7587C22.8512 15.7577 22.6663 15.5727 22.6653 15.3456C22.6644 15.1184 22.8477 14.935 23.0749 14.936L24.8041 14.9433C25.0313 14.9443 25.2162 15.1292 25.2172 15.3564ZM20.8943 15.338C20.8953 15.5652 20.7119 15.7486 20.4847 15.7476L18.7556 15.7402C18.5284 15.7393 18.3434 15.5543 18.3425 15.3271C18.3415 15.1 18.5249 14.9166 18.7521 14.9175L20.4812 14.9249C20.7084 14.9259 20.8933 15.1108 20.8943 15.338ZM16.5714 15.3196C16.5724 15.5468 16.389 15.7302 16.1619 15.7292L14.4327 15.7218C14.2055 15.7209 14.0206 15.5359 14.0196 15.3087C14.0186 15.0815 14.202 14.8982 14.4292 14.8991L16.1583 14.9065C16.3855 14.9075 16.5705 15.0924 16.5714 15.3196ZM12.2486 15.3012C12.2496 15.5284 12.0662 15.7118 11.839 15.7108L10.9744 15.7071C10.7472 15.7061 10.5623 15.5212 10.5613 15.294C10.5603 15.0668 10.7437 14.8834 10.9709 14.8844L11.8355 14.8881C12.0627 14.8891 12.2476 15.074 12.2486 15.3012Z" fill="#232323"/>
</svg>
